<?xml version="1.0" encoding="utf-8" standalone="no"?>
<!DOCTYPE svg PUBLIC "-//W3C//DTD SVG 1.1//EN"
  "http://www.w3.org/Graphics/SVG/1.1/DTD/svg11.dtd">
<!-- Created with matplotlib (http://matplotlib.org/) -->
<svg height="216pt" version="1.1" viewBox="0 0 432 216" width="432pt" xmlns="http://www.w3.org/2000/svg" xmlns:xlink="http://www.w3.org/1999/xlink">
 <defs>
  <style type="text/css">
*{stroke-linecap:butt;stroke-linejoin:round;}
  </style>
 </defs>
 <g id="figure_1">
  <g id="patch_1">
   <path d="M 0 216 
L 432 216 
L 432 0 
L 0 0 
z
" style="fill:none;"/>
  </g>
  <g id="axes_1">
   <g id="patch_2">
    <path d="M 43.2 194.4 
L 423.36 194.4 
L 423.36 4.32 
L 43.2 4.32 
z
" style="fill:none;"/>
   </g>
   <g id="matplotlib.axis_1">
    <g id="text_1">
     <!-- $r_{12}$ -->
     <defs>
      <path d="M 38.90625 40.8125 
C 35.796875 40.21875 34.203125 38.015625 34.203125 35.828125 
C 34.203125 33.421875 36.09375 32.625 37.5 32.625 
C 40.296875 32.625 42.59375 35.03125 42.59375 38.015625 
C 42.59375 41.21875 39.5 44 34.5 44 
C 30.5 44 25.90625 42.203125 21.703125 36.125 
C 21 41.40625 17 44 13 44 
C 9.09375 44 7.09375 41.015625 5.90625 38.8125 
C 4.203125 35.21875 2.703125 29.234375 2.703125 28.734375 
C 2.703125 28.34375 3.09375 27.84375 3.796875 27.84375 
C 4.59375 27.84375 4.703125 27.9375 5.296875 30.234375 
C 6.796875 36.21875 8.703125 42.015625 12.703125 42.015625 
C 15.09375 42.015625 15.796875 40.3125 15.796875 37.421875 
C 15.796875 35.21875 14.796875 31.328125 14.09375 28.234375 
L 11.296875 17.46875 
C 10.90625 15.5625 9.796875 11.078125 9.296875 9.28125 
C 8.59375 6.6875 7.5 2 7.5 1.5 
C 7.5 0.09375 8.59375 -1 10.09375 -1 
C 11.203125 -1 13.09375 -0.296875 13.703125 1.703125 
C 14 2.5 17.703125 17.5625 18.296875 19.859375 
C 18.796875 22.046875 19.40625 24.15625 19.90625 26.34375 
C 20.296875 27.734375 20.703125 29.34375 21 30.640625 
C 21.296875 31.53125 24 36.421875 26.5 38.625 
C 27.703125 39.71875 30.296875 42.015625 34.40625 42.015625 
C 36 42.015625 37.59375 41.71875 38.90625 40.8125 
z
" id="CMMI12-114"/>
      <path d="M 26.59375 63.40625 
C 26.59375 65.5 26.5 65.5 25.09375 65.5 
C 21.203125 61.1875 15.296875 59.796875 9.703125 59.796875 
C 9.40625 59.796875 8.90625 59.796875 8.796875 59.5 
C 8.703125 59.296875 8.703125 59.09375 8.703125 57 
C 11.796875 57 17 57.59375 21 59.984375 
L 21 7.203125 
C 21 3.6875 20.796875 2.5 12.203125 2.5 
L 9.203125 2.5 
L 9.203125 0 
C 14 0 19 0 23.796875 0 
C 28.59375 0 33.59375 0 38.40625 0 
L 38.40625 2.5 
L 35.40625 2.5 
C 26.796875 2.5 26.59375 3.59375 26.59375 7.15625 
z
" id="CMR17-49"/>
      <path d="M 41.703125 15.453125 
L 39.90625 15.453125 
C 38.90625 8.375 38.09375 7.171875 37.703125 6.5625 
C 37.203125 5.765625 30 5.765625 28.59375 5.765625 
L 9.40625 5.765625 
C 13 9.671875 20 16.75 28.5 24.953125 
C 34.59375 30.734375 41.703125 37.53125 41.703125 47.421875 
C 41.703125 59.21875 32.296875 66 21.796875 66 
C 10.796875 66 4.09375 56.3125 4.09375 47.34375 
C 4.09375 43.4375 7 42.9375 8.203125 42.9375 
C 9.203125 42.9375 12.203125 43.546875 12.203125 47.03125 
C 12.203125 50.109375 9.59375 51 8.203125 51 
C 7.59375 51 7 50.90625 6.59375 50.703125 
C 8.5 59.21875 14.296875 63.40625 20.40625 63.40625 
C 29.09375 63.40625 34.796875 56.515625 34.796875 47.421875 
C 34.796875 38.734375 29.703125 31.25 24 24.75 
L 4.09375 2.28125 
L 4.09375 0 
L 39.296875 0 
z
" id="CMR17-50"/>
     </defs>
     <g transform="translate(224.752568 208.777725)scale(0.15 -0.15)">
      <use transform="translate(0 14.943915)scale(0.996264)" xlink:href="#CMMI12-114"/>
      <use transform="translate(43.960894 0)scale(0.697382)" xlink:href="#CMR17-49"/>
      <use transform="translate(75.944076 0)scale(0.697382)" xlink:href="#CMR17-50"/>
     </g>
    </g>
   </g>
   <g id="matplotlib.axis_2">
    <g id="ytick_1">
     <g id="line2d_1">
      <defs>
       <path d="M 0 0 
L -3.5 0 
" id="mc249d8595c" style="stroke:#000000;stroke-width:0.8;"/>
      </defs>
      <g>
       <use style="stroke:#000000;stroke-width:0.8;" x="43.2" xlink:href="#mc249d8595c" y="194.4"/>
      </g>
     </g>
     <g id="text_2">
      <!-- $0$ -->
      <defs>
       <path d="M 42 31.640625 
C 42 37.75 41.90625 48.125 37.703125 56.109375 
C 34 63.109375 28.09375 65.59375 22.90625 65.59375 
C 18.09375 65.59375 12 63.40625 8.203125 56.203125 
C 4.203125 48.71875 3.796875 39.4375 3.796875 31.640625 
C 3.796875 25.953125 3.90625 17.28125 7 9.671875 
C 11.296875 -0.609375 19 -2 22.90625 -2 
C 27.5 -2 34.5 -0.109375 38.59375 9.375 
C 41.59375 16.28125 42 24.359375 42 31.640625 
z
M 22.90625 -0.40625 
C 16.5 -0.40625 12.703125 5.078125 11.296875 12.6875 
C 10.203125 18.5625 10.203125 27.15625 10.203125 32.75 
C 10.203125 40.4375 10.203125 46.828125 11.5 52.921875 
C 13.40625 61.390625 19 64 22.90625 64 
C 27 64 32.296875 61.296875 34.203125 53.125 
C 35.5 47.4375 35.59375 40.734375 35.59375 32.75 
C 35.59375 26.25 35.59375 18.265625 34.40625 12.375 
C 32.296875 1.484375 26.40625 -0.40625 22.90625 -0.40625 
z
" id="CMR17-48"/>
      </defs>
      <g transform="translate(31.218665 197.859249)scale(0.1 -0.1)">
       <use transform="scale(0.996264)" xlink:href="#CMR17-48"/>
      </g>
     </g>
    </g>
    <g id="ytick_2">
     <g id="line2d_2">
      <g>
       <use style="stroke:#000000;stroke-width:0.8;" x="43.2" xlink:href="#mc249d8595c" y="21.6"/>
      </g>
     </g>
     <g id="text_3">
      <!-- $1$ -->
      <g transform="translate(31.218665 25.059249)scale(0.1 -0.1)">
       <use transform="scale(0.996264)" xlink:href="#CMR17-49"/>
      </g>
     </g>
    </g>
    <g id="text_4">
     <!-- $K \left( r_{12} \right)$ -->
     <defs>
      <path d="M 50 40.171875 
C 49.90625 40.46875 49.5 41.265625 49.5 41.578125 
C 49.5 41.671875 49.59375 41.765625 51.296875 43.0625 
L 61 50.65625 
C 74.40625 61.015625 78.796875 64.5 85.703125 65.109375 
C 86.40625 65.109375 87.40625 65.109375 87.40625 66.90625 
C 87.40625 67.5 87.09375 68 86.296875 68 
C 85.203125 68 84 68 82.90625 68 
L 79.09375 68 
C 76 68 72.703125 68 69.703125 68 
C 69 68 67.796875 68 67.796875 66.203125 
C 67.796875 65.203125 68.5 65.109375 69.09375 65.109375 
C 70.203125 65 71.5 64.609375 71.5 63.21875 
C 71.5 61.234375 68.5 58.828125 67.703125 58.234375 
L 28.5 27.875 
L 36.796875 60.734375 
C 37.703125 64.109375 37.90625 65.109375 45 65.109375 
C 46.90625 65.109375 47.796875 65.109375 47.796875 67 
C 47.796875 68 46.796875 68 46.296875 68 
C 44.5 68 42.40625 68 40.5 68 
L 28.703125 68 
C 26.90625 68 24.703125 68 22.90625 68 
C 22.09375 68 21 68 21 66.109375 
C 21 65.109375 21.90625 65.109375 23.40625 65.109375 
C 29.5 65.109375 29.5 64.3125 29.5 63.21875 
C 29.5 63.03125 29.5 62.421875 29.09375 60.921875 
L 15.59375 7.375 
C 14.703125 3.890625 14.5 2.890625 7.5 2.890625 
C 5.59375 2.890625 4.59375 2.890625 4.59375 1.09375 
C 4.59375 0 5.5 0 6.09375 0 
C 8 0 10 0 11.90625 0 
L 23.59375 0 
C 25.5 0 27.59375 0 29.5 0 
C 30.296875 0 31.40625 0 31.40625 1.890625 
C 31.40625 2.890625 30.5 2.890625 29 2.890625 
C 22.90625 2.890625 22.90625 3.6875 22.90625 4.6875 
C 22.90625 5.390625 23.5 7.875 23.90625 9.46875 
L 27.796875 24.890625 
L 43 36.734375 
C 45.90625 30.359375 51.203125 17.625 55.296875 7.890625 
C 55.59375 7.28125 55.796875 6.6875 55.796875 5.984375 
C 55.796875 2.890625 51.796875 2.890625 50.90625 2.890625 
C 50 2.890625 49 2.890625 49 1 
C 49 0 50.09375 0 50.40625 0 
C 53.90625 0 57.59375 0 61.09375 0 
L 65.90625 0 
C 67.40625 0 69.09375 0 70.59375 0 
C 71.203125 0 72.296875 0 72.296875 1.890625 
C 72.296875 2.890625 71.40625 2.890625 70.40625 2.890625 
C 66.703125 2.890625 65.40625 3.6875 63.90625 7.28125 
z
" id="CMMI12-75"/>
      <path d="M 30.59375 -24.390625 
C 30.59375 -24.296875 30.59375 -24.09375 30.296875 -23.796875 
C 25.703125 -19.125 13.40625 -6.359375 13.40625 24.703125 
C 13.40625 55.765625 25.5 68.421875 30.40625 73.390625 
C 30.40625 73.5 30.59375 73.703125 30.59375 74 
C 30.59375 74.296875 30.296875 74.5 29.90625 74.5 
C 28.796875 74.5 20.296875 67.125 15.40625 56.15625 
C 10.40625 45.109375 9 34.359375 9 24.8125 
C 9 17.625 9.703125 5.484375 15.703125 -7.359375 
C 20.5 -17.734375 28.703125 -25 29.90625 -25 
C 30.40625 -25 30.59375 -24.796875 30.59375 -24.390625 
z
" id="CMR17-40"/>
      <path d="M 26.296875 24.703125 
C 26.296875 31.875 25.59375 44.015625 19.59375 56.859375 
C 14.796875 67.234375 6.59375 74.5 5.40625 74.5 
C 5.09375 74.5 4.703125 74.390625 4.703125 73.890625 
C 4.703125 73.703125 4.796875 73.59375 4.90625 73.390625 
C 9.703125 68.40625 21.90625 55.75 21.90625 24.75 
C 21.90625 -6.359375 9.796875 -19.015625 4.90625 -24.015625 
C 4.796875 -24.203125 4.703125 -24.3125 4.703125 -24.5 
C 4.703125 -25 5.09375 -25 5.40625 -25 
C 6.5 -25 15 -17.625 19.90625 -6.65625 
C 24.90625 4.390625 26.296875 15.140625 26.296875 24.703125 
z
" id="CMR17-41"/>
     </defs>
     <g transform="translate(24.31292 121.833281)rotate(-90)scale(0.15 -0.15)">
      <use transform="translate(0 14.943915)scale(0.996264)" xlink:href="#CMMI12-75"/>
      <use transform="translate(106.751826 14.947092)scale(0.996264)" xlink:href="#CMR17-40"/>
      <use transform="translate(142.032594 14.943915)scale(0.996264)" xlink:href="#CMMI12-114"/>
      <use transform="translate(185.993488 0)scale(0.697382)" xlink:href="#CMR17-49"/>
      <use transform="translate(217.97667 0)scale(0.697382)" xlink:href="#CMR17-50"/>
      <use transform="translate(250.457984 14.947092)scale(0.996264)" xlink:href="#CMR17-41"/>
     </g>
    </g>
   </g>
   <g id="line2d_3">
    <path clip-path="url(#p96344706a5)" d="M 43.2 21.6 
L 47.04 30.110551 
L 50.88 38.20195 
L 54.72 45.89484 
L 58.56 53.208849 
L 62.4 60.162636 
L 66.24 66.773944 
L 70.08 73.059638 
L 73.92 79.035757 
L 77.76 84.717547 
L 81.6 90.119503 
L 85.44 95.255409 
L 89.28 100.138367 
L 93.12 104.780834 
L 96.96 109.194656 
L 100.8 113.391094 
L 104.64 117.380853 
L 108.48 121.174114 
L 112.32 124.780552 
L 116.16 128.209371 
L 120 131.469317 
L 123.84 134.568708 
L 127.68 137.515452 
L 131.52 140.317065 
L 135.36 142.980697 
L 139.2 145.513143 
L 143.04 147.920863 
L 146.88 150.210001 
L 150.72 152.386397 
L 154.56 154.455604 
L 158.4 156.4229 
L 162.24 158.293306 
L 166.08 160.071592 
L 169.92 161.762296 
L 173.76 163.369731 
L 177.6 164.897999 
L 181.44 166.350998 
L 185.28 167.732436 
L 189.12 169.045837 
L 192.96 170.294552 
L 196.8 171.481766 
L 200.64 172.610509 
L 204.48 173.683661 
L 208.32 174.703958 
L 212.16 175.674006 
L 216 176.596277 
L 219.84 177.473126 
L 223.68 178.306789 
L 227.52 179.099394 
L 231.36 179.852962 
L 235.2 180.569417 
L 239.04 181.250585 
L 242.88 181.898205 
L 246.72 182.513929 
L 250.56 183.099329 
L 254.4 183.655897 
L 258.24 184.185053 
L 262.08 184.688148 
L 265.92 185.166465 
L 269.76 185.621225 
L 273.6 186.053587 
L 277.44 186.464655 
L 281.28 186.855478 
L 285.12 187.227052 
L 288.96 187.580326 
L 292.8 187.916201 
L 296.64 188.235534 
L 300.48 188.539139 
L 304.32 188.827792 
L 308.16 189.102228 
L 312 189.363148 
L 315.84 189.611217 
L 319.68 189.847069 
L 323.52 190.071305 
L 327.36 190.284497 
L 331.2 190.487189 
L 335.04 190.679898 
L 338.88 190.863117 
L 342.72 191.037311 
L 346.56 191.202926 
L 350.4 191.360385 
L 354.24 191.510089 
L 358.08 191.652419 
L 361.92 191.78774 
L 365.76 191.916396 
L 369.6 192.038716 
L 373.44 192.155011 
L 377.28 192.265579 
L 381.12 192.370701 
L 384.96 192.470646 
L 388.8 192.565668 
L 392.64 192.656011 
L 396.48 192.741904 
L 400.32 192.823566 
L 404.16 192.901207 
L 408 192.975024 
L 411.84 193.045205 
L 415.68 193.11193 
L 419.52 193.175369 
L 423.36 193.235683 
" style="fill:none;stroke:#1f77b4;stroke-linecap:square;stroke-width:1.5;"/>
   </g>
   <g id="line2d_4">
    <path clip-path="url(#p96344706a5)" d="M 43.2 21.6 
L 47.04 22.04021 
L 50.88 23.354121 
L 54.72 25.521754 
L 58.56 28.510369 
L 62.4 32.27529 
L 66.24 36.761018 
L 70.08 41.90259 
L 73.92 47.627142 
L 77.76 53.855623 
L 81.6 60.504607 
L 85.44 67.488133 
L 89.28 74.719535 
L 93.12 82.113191 
L 96.96 89.586155 
L 100.8 97.059628 
L 104.64 104.460226 
L 108.48 111.721038 
L 112.32 118.782437 
L 116.16 125.592658 
L 120 132.108137 
L 123.84 138.293614 
L 127.68 144.122033 
L 131.52 149.57425 
L 135.36 154.638583 
L 139.2 159.310225 
L 143.04 163.590564 
L 146.88 167.486427 
L 150.72 171.00929 
L 154.56 174.174472 
L 158.4 177.000339 
L 162.24 179.50755 
L 166.08 181.718345 
L 169.92 183.655897 
L 173.76 185.343741 
L 177.6 186.805277 
L 181.44 188.063353 
L 185.28 189.13993 
L 189.12 190.055819 
L 192.96 190.830489 
L 196.8 191.481941 
L 200.64 192.026639 
L 204.48 192.479484 
L 208.32 192.853832 
L 212.16 193.161547 
L 216 193.413068 
L 219.84 193.61751 
L 223.68 193.782758 
L 227.52 193.915587 
L 231.36 194.021765 
L 235.2 194.106173 
L 239.04 194.172906 
L 242.88 194.225376 
L 246.72 194.266406 
L 250.56 194.298316 
L 254.4 194.322997 
L 258.24 194.341985 
L 262.08 194.356513 
L 265.92 194.367568 
L 269.76 194.375937 
L 273.6 194.382236 
L 277.44 194.386954 
L 281.28 194.390467 
L 285.12 194.39307 
L 288.96 194.394987 
L 292.8 194.396393 
L 296.64 194.397417 
L 300.48 194.39816 
L 304.32 194.398696 
L 308.16 194.399081 
L 312 194.399355 
L 315.84 194.39955 
L 319.68 194.399688 
L 323.52 194.399784 
L 327.36 194.399852 
L 331.2 194.399899 
L 335.04 194.399931 
L 338.88 194.399953 
L 342.72 194.399969 
L 346.56 194.399979 
L 350.4 194.399986 
L 354.24 194.399991 
L 358.08 194.399994 
L 361.92 194.399996 
L 365.76 194.399997 
L 369.6 194.399998 
L 373.44 194.399999 
L 377.28 194.399999 
L 381.12 194.4 
L 384.96 194.4 
L 388.8 194.4 
L 392.64 194.4 
L 396.48 194.4 
L 400.32 194.4 
L 404.16 194.4 
L 408 194.4 
L 411.84 194.4 
L 415.68 194.4 
L 419.52 194.4 
L 423.36 194.4 
" style="fill:none;stroke:#ff7f0e;stroke-linecap:square;stroke-opacity:0.5;stroke-width:1.5;"/>
   </g>
   <g id="patch_3">
    <path d="M 43.2 194.4 
L 43.2 4.32 
" style="fill:none;stroke:#000000;stroke-linecap:square;stroke-linejoin:miter;stroke-width:0.8;"/>
   </g>
   <g id="patch_4">
    <path d="M 423.36 194.4 
L 423.36 4.32 
" style="fill:none;stroke:#000000;stroke-linecap:square;stroke-linejoin:miter;stroke-width:0.8;"/>
   </g>
   <g id="patch_5">
    <path d="M 43.2 194.4 
L 423.36 194.4 
" style="fill:none;stroke:#000000;stroke-linecap:square;stroke-linejoin:miter;stroke-width:0.8;"/>
   </g>
   <g id="patch_6">
    <path d="M 43.2 4.32 
L 423.36 4.32 
" style="fill:none;stroke:#000000;stroke-linecap:square;stroke-linejoin:miter;stroke-width:0.8;"/>
   </g>
  </g>
 </g>
 <defs>
  <clipPath id="p96344706a5">
   <rect height="190.08" width="380.16" x="43.2" y="4.32"/>
  </clipPath>
 </defs>
</svg>
