<?xml version="1.0" encoding="utf-8" standalone="no"?>
<!DOCTYPE svg PUBLIC "-//W3C//DTD SVG 1.1//EN"
  "http://www.w3.org/Graphics/SVG/1.1/DTD/svg11.dtd">
<!-- Created with matplotlib (https://matplotlib.org/) -->
<svg height="207.858125pt" version="1.1" viewBox="0 0 362.878125 207.858125" width="362.878125pt" xmlns="http://www.w3.org/2000/svg" xmlns:xlink="http://www.w3.org/1999/xlink">
 <defs>
  <style type="text/css">
*{stroke-linecap:butt;stroke-linejoin:round;}
  </style>
 </defs>
 <g id="figure_1">
  <g id="patch_1">
   <path d="M 0 207.858125 
L 362.878125 207.858125 
L 362.878125 0 
L 0 0 
z
"/>
  </g>
  <g id="axes_1">
   <g id="patch_2">
    <path d="M 20.878125 170.28 
L 355.678125 170.28 
L 355.678125 7.2 
L 20.878125 7.2 
z
"/>
   </g>
   <g id="matplotlib.axis_1">
    <g id="xtick_1">
     <g id="line2d_1">
      <defs>
       <path d="M 0 0 
L 0 3.5 
" id="mb61240a8b2" style="stroke:#ffffff;stroke-width:0.8;"/>
      </defs>
      <g>
       <use style="fill:#ffffff;stroke:#ffffff;stroke-width:0.8;" x="79.960478" xlink:href="#mb61240a8b2" y="170.28"/>
      </g>
     </g>
     <g id="text_1">
      <!-- 1.0 -->
      <defs>
       <path d="M 12.40625 8.296875 
L 28.515625 8.296875 
L 28.515625 63.921875 
L 10.984375 60.40625 
L 10.984375 69.390625 
L 28.421875 72.90625 
L 38.28125 72.90625 
L 38.28125 8.296875 
L 54.390625 8.296875 
L 54.390625 0 
L 12.40625 0 
z
" id="DejaVuSans-49"/>
       <path d="M 10.6875 12.40625 
L 21 12.40625 
L 21 0 
L 10.6875 0 
z
" id="DejaVuSans-46"/>
       <path d="M 31.78125 66.40625 
Q 24.171875 66.40625 20.328125 58.90625 
Q 16.5 51.421875 16.5 36.375 
Q 16.5 21.390625 20.328125 13.890625 
Q 24.171875 6.390625 31.78125 6.390625 
Q 39.453125 6.390625 43.28125 13.890625 
Q 47.125 21.390625 47.125 36.375 
Q 47.125 51.421875 43.28125 58.90625 
Q 39.453125 66.40625 31.78125 66.40625 
z
M 31.78125 74.21875 
Q 44.046875 74.21875 50.515625 64.515625 
Q 56.984375 54.828125 56.984375 36.375 
Q 56.984375 17.96875 50.515625 8.265625 
Q 44.046875 -1.421875 31.78125 -1.421875 
Q 19.53125 -1.421875 13.0625 8.265625 
Q 6.59375 17.96875 6.59375 36.375 
Q 6.59375 54.828125 13.0625 64.515625 
Q 19.53125 74.21875 31.78125 74.21875 
z
" id="DejaVuSans-48"/>
      </defs>
      <g style="fill:#ffffff;" transform="translate(72.008915 184.878438)scale(0.1 -0.1)">
       <use xlink:href="#DejaVuSans-49"/>
       <use x="63.623047" xlink:href="#DejaVuSans-46"/>
       <use x="95.410156" xlink:href="#DejaVuSans-48"/>
      </g>
     </g>
    </g>
    <g id="xtick_2">
     <g id="line2d_2">
      <g>
       <use style="fill:#ffffff;stroke:#ffffff;stroke-width:0.8;" x="178.431066" xlink:href="#mb61240a8b2" y="170.28"/>
      </g>
     </g>
     <g id="text_2">
      <!-- 1.5 -->
      <defs>
       <path d="M 10.796875 72.90625 
L 49.515625 72.90625 
L 49.515625 64.59375 
L 19.828125 64.59375 
L 19.828125 46.734375 
Q 21.96875 47.46875 24.109375 47.828125 
Q 26.265625 48.1875 28.421875 48.1875 
Q 40.625 48.1875 47.75 41.5 
Q 54.890625 34.8125 54.890625 23.390625 
Q 54.890625 11.625 47.5625 5.09375 
Q 40.234375 -1.421875 26.90625 -1.421875 
Q 22.3125 -1.421875 17.546875 -0.640625 
Q 12.796875 0.140625 7.71875 1.703125 
L 7.71875 11.625 
Q 12.109375 9.234375 16.796875 8.0625 
Q 21.484375 6.890625 26.703125 6.890625 
Q 35.15625 6.890625 40.078125 11.328125 
Q 45.015625 15.765625 45.015625 23.390625 
Q 45.015625 31 40.078125 35.4375 
Q 35.15625 39.890625 26.703125 39.890625 
Q 22.75 39.890625 18.8125 39.015625 
Q 14.890625 38.140625 10.796875 36.28125 
z
" id="DejaVuSans-53"/>
      </defs>
      <g style="fill:#ffffff;" transform="translate(170.479504 184.878438)scale(0.1 -0.1)">
       <use xlink:href="#DejaVuSans-49"/>
       <use x="63.623047" xlink:href="#DejaVuSans-46"/>
       <use x="95.410156" xlink:href="#DejaVuSans-53"/>
      </g>
     </g>
    </g>
    <g id="xtick_3">
     <g id="line2d_3">
      <g>
       <use style="fill:#ffffff;stroke:#ffffff;stroke-width:0.8;" x="276.901654" xlink:href="#mb61240a8b2" y="170.28"/>
      </g>
     </g>
     <g id="text_3">
      <!-- 2.0 -->
      <defs>
       <path d="M 19.1875 8.296875 
L 53.609375 8.296875 
L 53.609375 0 
L 7.328125 0 
L 7.328125 8.296875 
Q 12.9375 14.109375 22.625 23.890625 
Q 32.328125 33.6875 34.8125 36.53125 
Q 39.546875 41.84375 41.421875 45.53125 
Q 43.3125 49.21875 43.3125 52.78125 
Q 43.3125 58.59375 39.234375 62.25 
Q 35.15625 65.921875 28.609375 65.921875 
Q 23.96875 65.921875 18.8125 64.3125 
Q 13.671875 62.703125 7.8125 59.421875 
L 7.8125 69.390625 
Q 13.765625 71.78125 18.9375 73 
Q 24.125 74.21875 28.421875 74.21875 
Q 39.75 74.21875 46.484375 68.546875 
Q 53.21875 62.890625 53.21875 53.421875 
Q 53.21875 48.921875 51.53125 44.890625 
Q 49.859375 40.875 45.40625 35.40625 
Q 44.1875 33.984375 37.640625 27.21875 
Q 31.109375 20.453125 19.1875 8.296875 
z
" id="DejaVuSans-50"/>
      </defs>
      <g style="fill:#ffffff;" transform="translate(268.950092 184.878438)scale(0.1 -0.1)">
       <use xlink:href="#DejaVuSans-50"/>
       <use x="63.623047" xlink:href="#DejaVuSans-46"/>
       <use x="95.410156" xlink:href="#DejaVuSans-48"/>
      </g>
     </g>
    </g>
    <g id="xtick_4">
     <g id="line2d_4">
      <defs>
       <path d="M 0 0 
L 0 2 
" id="md278b48d85" style="stroke:#ffffff;stroke-width:0.6;"/>
      </defs>
      <g>
       <use style="fill:#ffffff;stroke:#ffffff;stroke-width:0.6;" x="20.878125" xlink:href="#md278b48d85" y="170.28"/>
      </g>
     </g>
    </g>
    <g id="xtick_5">
     <g id="line2d_5">
      <g>
       <use style="fill:#ffffff;stroke:#ffffff;stroke-width:0.6;" x="40.572243" xlink:href="#md278b48d85" y="170.28"/>
      </g>
     </g>
    </g>
    <g id="xtick_6">
     <g id="line2d_6">
      <g>
       <use style="fill:#ffffff;stroke:#ffffff;stroke-width:0.6;" x="60.26636" xlink:href="#md278b48d85" y="170.28"/>
      </g>
     </g>
    </g>
    <g id="xtick_7">
     <g id="line2d_7">
      <g>
       <use style="fill:#ffffff;stroke:#ffffff;stroke-width:0.6;" x="99.654596" xlink:href="#md278b48d85" y="170.28"/>
      </g>
     </g>
    </g>
    <g id="xtick_8">
     <g id="line2d_8">
      <g>
       <use style="fill:#ffffff;stroke:#ffffff;stroke-width:0.6;" x="119.348713" xlink:href="#md278b48d85" y="170.28"/>
      </g>
     </g>
    </g>
    <g id="xtick_9">
     <g id="line2d_9">
      <g>
       <use style="fill:#ffffff;stroke:#ffffff;stroke-width:0.6;" x="139.042831" xlink:href="#md278b48d85" y="170.28"/>
      </g>
     </g>
    </g>
    <g id="xtick_10">
     <g id="line2d_10">
      <g>
       <use style="fill:#ffffff;stroke:#ffffff;stroke-width:0.6;" x="158.736949" xlink:href="#md278b48d85" y="170.28"/>
      </g>
     </g>
    </g>
    <g id="xtick_11">
     <g id="line2d_11">
      <g>
       <use style="fill:#ffffff;stroke:#ffffff;stroke-width:0.6;" x="198.125184" xlink:href="#md278b48d85" y="170.28"/>
      </g>
     </g>
    </g>
    <g id="xtick_12">
     <g id="line2d_12">
      <g>
       <use style="fill:#ffffff;stroke:#ffffff;stroke-width:0.6;" x="217.819301" xlink:href="#md278b48d85" y="170.28"/>
      </g>
     </g>
    </g>
    <g id="xtick_13">
     <g id="line2d_13">
      <g>
       <use style="fill:#ffffff;stroke:#ffffff;stroke-width:0.6;" x="237.513419" xlink:href="#md278b48d85" y="170.28"/>
      </g>
     </g>
    </g>
    <g id="xtick_14">
     <g id="line2d_14">
      <g>
       <use style="fill:#ffffff;stroke:#ffffff;stroke-width:0.6;" x="257.207537" xlink:href="#md278b48d85" y="170.28"/>
      </g>
     </g>
    </g>
    <g id="xtick_15">
     <g id="line2d_15">
      <g>
       <use style="fill:#ffffff;stroke:#ffffff;stroke-width:0.6;" x="296.595772" xlink:href="#md278b48d85" y="170.28"/>
      </g>
     </g>
    </g>
    <g id="xtick_16">
     <g id="line2d_16">
      <g>
       <use style="fill:#ffffff;stroke:#ffffff;stroke-width:0.6;" x="316.28989" xlink:href="#md278b48d85" y="170.28"/>
      </g>
     </g>
    </g>
    <g id="xtick_17">
     <g id="line2d_17">
      <g>
       <use style="fill:#ffffff;stroke:#ffffff;stroke-width:0.6;" x="335.984007" xlink:href="#md278b48d85" y="170.28"/>
      </g>
     </g>
    </g>
    <g id="text_4">
     <!-- $\lambda \ \left( \mathrm{\mu m} \right)$ -->
     <defs>
      <path d="M 36.71875 67.4375 
L 48.828125 0 
L 39.3125 0 
L 31.84375 40.4375 
L 5.125 0 
L -4.390625 0 
L 29.734375 52.4375 
L 28.03125 62.109375 
Q 26.953125 68.265625 21.734375 68.265625 
L 17.046875 68.265625 
L 18.5 75.984375 
L 24.21875 75.875 
Q 35.203125 75.734375 36.71875 67.4375 
z
" id="DejaVuSans-Oblique-955"/>
      <path d="M 31 75.875 
Q 24.46875 64.65625 21.28125 53.65625 
Q 18.109375 42.671875 18.109375 31.390625 
Q 18.109375 20.125 21.3125 9.0625 
Q 24.515625 -2 31 -13.1875 
L 23.1875 -13.1875 
Q 15.875 -1.703125 12.234375 9.375 
Q 8.59375 20.453125 8.59375 31.390625 
Q 8.59375 42.28125 12.203125 53.3125 
Q 15.828125 64.359375 23.1875 75.875 
z
" id="DejaVuSans-40"/>
      <path d="M 8.5 -20.796875 
L 8.5 54.6875 
L 17.484375 54.6875 
L 17.484375 20.703125 
Q 17.484375 13.625 20.84375 10 
Q 24.21875 6.390625 30.8125 6.390625 
Q 38.03125 6.390625 41.671875 10.484375 
Q 45.3125 14.59375 45.3125 22.796875 
L 45.3125 54.6875 
L 54.296875 54.6875 
L 54.296875 12.59375 
Q 54.296875 9.671875 55.140625 8.28125 
Q 56 6.890625 57.8125 6.890625 
Q 58.25 6.890625 59.03125 7.15625 
Q 59.8125 7.421875 61.1875 8.015625 
L 61.1875 0.78125 
Q 59.1875 -0.34375 57.390625 -0.875 
Q 55.609375 -1.421875 53.90625 -1.421875 
Q 50.53125 -1.421875 48.53125 0.484375 
Q 46.53125 2.390625 45.796875 6.296875 
Q 43.359375 2.4375 39.8125 0.5 
Q 36.28125 -1.421875 31.5 -1.421875 
Q 26.515625 -1.421875 23.015625 0.484375 
Q 19.53125 2.390625 17.484375 6.203125 
L 17.484375 -20.796875 
z
" id="DejaVuSans-956"/>
      <path d="M 52 44.1875 
Q 55.375 50.25 60.0625 53.125 
Q 64.75 56 71.09375 56 
Q 79.640625 56 84.28125 50.015625 
Q 88.921875 44.046875 88.921875 33.015625 
L 88.921875 0 
L 79.890625 0 
L 79.890625 32.71875 
Q 79.890625 40.578125 77.09375 44.375 
Q 74.3125 48.1875 68.609375 48.1875 
Q 61.625 48.1875 57.5625 43.546875 
Q 53.515625 38.921875 53.515625 30.90625 
L 53.515625 0 
L 44.484375 0 
L 44.484375 32.71875 
Q 44.484375 40.625 41.703125 44.40625 
Q 38.921875 48.1875 33.109375 48.1875 
Q 26.21875 48.1875 22.15625 43.53125 
Q 18.109375 38.875 18.109375 30.90625 
L 18.109375 0 
L 9.078125 0 
L 9.078125 54.6875 
L 18.109375 54.6875 
L 18.109375 46.1875 
Q 21.1875 51.21875 25.484375 53.609375 
Q 29.78125 56 35.6875 56 
Q 41.65625 56 45.828125 52.96875 
Q 50 49.953125 52 44.1875 
z
" id="DejaVuSans-109"/>
      <path d="M 8.015625 75.875 
L 15.828125 75.875 
Q 23.140625 64.359375 26.78125 53.3125 
Q 30.421875 42.28125 30.421875 31.390625 
Q 30.421875 20.453125 26.78125 9.375 
Q 23.140625 -1.703125 15.828125 -13.1875 
L 8.015625 -13.1875 
Q 14.5 -2 17.703125 9.0625 
Q 20.90625 20.125 20.90625 31.390625 
Q 20.90625 42.671875 17.703125 53.65625 
Q 14.5 64.65625 8.015625 75.875 
z
" id="DejaVuSans-41"/>
     </defs>
     <g style="fill:#ffffff;" transform="translate(171.728125 198.558125)scale(0.1 -0.1)">
      <use transform="translate(0 0.015625)" xlink:href="#DejaVuSans-Oblique-955"/>
      <use transform="translate(91.650066 0.015625)" xlink:href="#DejaVuSans-40"/>
      <use transform="translate(130.663738 0.015625)" xlink:href="#DejaVuSans-956"/>
      <use transform="translate(194.286785 0.015625)" xlink:href="#DejaVuSans-109"/>
      <use transform="translate(291.698894 0.015625)" xlink:href="#DejaVuSans-41"/>
     </g>
    </g>
   </g>
   <g id="matplotlib.axis_2">
    <g id="text_5">
     <!-- Transmission -->
     <defs>
      <path d="M -0.296875 72.90625 
L 61.375 72.90625 
L 61.375 64.59375 
L 35.5 64.59375 
L 35.5 0 
L 25.59375 0 
L 25.59375 64.59375 
L -0.296875 64.59375 
z
" id="DejaVuSans-84"/>
      <path d="M 41.109375 46.296875 
Q 39.59375 47.171875 37.8125 47.578125 
Q 36.03125 48 33.890625 48 
Q 26.265625 48 22.1875 43.046875 
Q 18.109375 38.09375 18.109375 28.8125 
L 18.109375 0 
L 9.078125 0 
L 9.078125 54.6875 
L 18.109375 54.6875 
L 18.109375 46.1875 
Q 20.953125 51.171875 25.484375 53.578125 
Q 30.03125 56 36.53125 56 
Q 37.453125 56 38.578125 55.875 
Q 39.703125 55.765625 41.0625 55.515625 
z
" id="DejaVuSans-114"/>
      <path d="M 34.28125 27.484375 
Q 23.390625 27.484375 19.1875 25 
Q 14.984375 22.515625 14.984375 16.5 
Q 14.984375 11.71875 18.140625 8.90625 
Q 21.296875 6.109375 26.703125 6.109375 
Q 34.1875 6.109375 38.703125 11.40625 
Q 43.21875 16.703125 43.21875 25.484375 
L 43.21875 27.484375 
z
M 52.203125 31.203125 
L 52.203125 0 
L 43.21875 0 
L 43.21875 8.296875 
Q 40.140625 3.328125 35.546875 0.953125 
Q 30.953125 -1.421875 24.3125 -1.421875 
Q 15.921875 -1.421875 10.953125 3.296875 
Q 6 8.015625 6 15.921875 
Q 6 25.140625 12.171875 29.828125 
Q 18.359375 34.515625 30.609375 34.515625 
L 43.21875 34.515625 
L 43.21875 35.40625 
Q 43.21875 41.609375 39.140625 45 
Q 35.0625 48.390625 27.6875 48.390625 
Q 23 48.390625 18.546875 47.265625 
Q 14.109375 46.140625 10.015625 43.890625 
L 10.015625 52.203125 
Q 14.9375 54.109375 19.578125 55.046875 
Q 24.21875 56 28.609375 56 
Q 40.484375 56 46.34375 49.84375 
Q 52.203125 43.703125 52.203125 31.203125 
z
" id="DejaVuSans-97"/>
      <path d="M 54.890625 33.015625 
L 54.890625 0 
L 45.90625 0 
L 45.90625 32.71875 
Q 45.90625 40.484375 42.875 44.328125 
Q 39.84375 48.1875 33.796875 48.1875 
Q 26.515625 48.1875 22.3125 43.546875 
Q 18.109375 38.921875 18.109375 30.90625 
L 18.109375 0 
L 9.078125 0 
L 9.078125 54.6875 
L 18.109375 54.6875 
L 18.109375 46.1875 
Q 21.34375 51.125 25.703125 53.5625 
Q 30.078125 56 35.796875 56 
Q 45.21875 56 50.046875 50.171875 
Q 54.890625 44.34375 54.890625 33.015625 
z
" id="DejaVuSans-110"/>
      <path d="M 44.28125 53.078125 
L 44.28125 44.578125 
Q 40.484375 46.53125 36.375 47.5 
Q 32.28125 48.484375 27.875 48.484375 
Q 21.1875 48.484375 17.84375 46.4375 
Q 14.5 44.390625 14.5 40.28125 
Q 14.5 37.15625 16.890625 35.375 
Q 19.28125 33.59375 26.515625 31.984375 
L 29.59375 31.296875 
Q 39.15625 29.25 43.1875 25.515625 
Q 47.21875 21.78125 47.21875 15.09375 
Q 47.21875 7.46875 41.1875 3.015625 
Q 35.15625 -1.421875 24.609375 -1.421875 
Q 20.21875 -1.421875 15.453125 -0.5625 
Q 10.6875 0.296875 5.421875 2 
L 5.421875 11.28125 
Q 10.40625 8.6875 15.234375 7.390625 
Q 20.0625 6.109375 24.8125 6.109375 
Q 31.15625 6.109375 34.5625 8.28125 
Q 37.984375 10.453125 37.984375 14.40625 
Q 37.984375 18.0625 35.515625 20.015625 
Q 33.0625 21.96875 24.703125 23.78125 
L 21.578125 24.515625 
Q 13.234375 26.265625 9.515625 29.90625 
Q 5.8125 33.546875 5.8125 39.890625 
Q 5.8125 47.609375 11.28125 51.796875 
Q 16.75 56 26.8125 56 
Q 31.78125 56 36.171875 55.265625 
Q 40.578125 54.546875 44.28125 53.078125 
z
" id="DejaVuSans-115"/>
      <path d="M 9.421875 54.6875 
L 18.40625 54.6875 
L 18.40625 0 
L 9.421875 0 
z
M 9.421875 75.984375 
L 18.40625 75.984375 
L 18.40625 64.59375 
L 9.421875 64.59375 
z
" id="DejaVuSans-105"/>
      <path d="M 30.609375 48.390625 
Q 23.390625 48.390625 19.1875 42.75 
Q 14.984375 37.109375 14.984375 27.296875 
Q 14.984375 17.484375 19.15625 11.84375 
Q 23.34375 6.203125 30.609375 6.203125 
Q 37.796875 6.203125 41.984375 11.859375 
Q 46.1875 17.53125 46.1875 27.296875 
Q 46.1875 37.015625 41.984375 42.703125 
Q 37.796875 48.390625 30.609375 48.390625 
z
M 30.609375 56 
Q 42.328125 56 49.015625 48.375 
Q 55.71875 40.765625 55.71875 27.296875 
Q 55.71875 13.875 49.015625 6.21875 
Q 42.328125 -1.421875 30.609375 -1.421875 
Q 18.84375 -1.421875 12.171875 6.21875 
Q 5.515625 13.875 5.515625 27.296875 
Q 5.515625 40.765625 12.171875 48.375 
Q 18.84375 56 30.609375 56 
z
" id="DejaVuSans-111"/>
     </defs>
     <g style="fill:#ffffff;" transform="translate(14.798438 121.035313)rotate(-90)scale(0.1 -0.1)">
      <use xlink:href="#DejaVuSans-84"/>
      <use x="46.333984" xlink:href="#DejaVuSans-114"/>
      <use x="87.447266" xlink:href="#DejaVuSans-97"/>
      <use x="148.726562" xlink:href="#DejaVuSans-110"/>
      <use x="212.105469" xlink:href="#DejaVuSans-115"/>
      <use x="264.205078" xlink:href="#DejaVuSans-109"/>
      <use x="361.617188" xlink:href="#DejaVuSans-105"/>
      <use x="389.400391" xlink:href="#DejaVuSans-115"/>
      <use x="441.5" xlink:href="#DejaVuSans-115"/>
      <use x="493.599609" xlink:href="#DejaVuSans-105"/>
      <use x="521.382812" xlink:href="#DejaVuSans-111"/>
      <use x="582.564453" xlink:href="#DejaVuSans-110"/>
     </g>
    </g>
   </g>
   <g id="line2d_18">
    <path clip-path="url(#p09d815c3cd)" d="M 15.166832 170.1441 
L 15.36377 170.0082 
L 15.560709 170.0082 
L 16.151537 169.6005 
L 16.742352 168.6492 
L 17.136242 167.2902 
L 17.530119 164.9799 
L 17.727057 162.6696 
L 17.924008 158.8644 
L 18.317885 147.3129 
L 19.30259 89.963097 
L 19.893418 62.647201 
L 20.287295 55.716301 
L 20.484234 55.036801 
L 20.681184 55.308598 
L 20.878123 55.036801 
L 21.075061 55.1727 
L 21.272 55.1727 
L 21.46895 55.444496 
L 21.665889 55.036801 
L 21.862828 54.900903 
L 22.059766 54.4932 
L 22.256705 54.357302 
L 22.847533 55.1727 
L 23.044471 55.1727 
L 23.43836 54.4932 
L 23.832237 53.813701 
L 24.029176 53.541896 
L 24.620004 59.385602 
L 24.816942 58.162502 
L 25.210831 52.998303 
L 25.604709 57.075299 
L 25.801647 57.075299 
L 25.998598 55.852199 
L 26.195536 56.803503 
L 26.589414 57.347104 
L 26.786352 56.3958 
L 26.983303 57.754799 
L 27.37718 55.308598 
L 28.361885 52.862397 
L 28.558824 52.862397 
L 28.755774 52.726499 
L 28.952713 52.726499 
L 29.149651 52.5906 
L 29.34659 52.726499 
L 30.331295 52.726499 
L 30.725184 52.318804 
L 30.922122 52.318804 
L 31.119061 52.182898 
L 31.316 52.318804 
L 31.51295 52.318804 
L 31.906827 52.5906 
L 32.497655 53.405998 
L 32.694594 114.832801 
L 32.891532 125.2971 
L 33.088471 81.265504 
L 33.28541 108.3096 
L 33.876237 71.072997 
L 34.270126 57.075299 
L 34.860942 52.726499 
L 35.057881 52.726499 
L 35.648709 53.677803 
L 36.042598 54.357302 
L 36.436475 55.036801 
L 36.830352 55.852199 
L 37.224241 56.124004 
L 37.815057 57.075299 
L 38.602823 58.842001 
L 39.193651 57.890697 
L 39.587528 56.3958 
L 39.784479 56.3958 
L 40.178356 55.308598 
L 40.572233 55.988097 
L 40.966122 56.803503 
L 41.163061 56.939401 
L 41.753889 57.754799 
L 43.132471 61.831803 
L 43.52636 66.044697 
L 43.920237 77.324398 
L 44.314126 99.2043 
L 44.904942 140.2461 
L 45.298831 156.1464 
L 45.692708 163.8927 
L 46.086586 167.4261 
L 46.480475 168.921 
L 46.874352 169.6005 
L 47.46518 170.0082 
L 47.662118 170.0082 
L 47.859057 170.1441 
L 47.859057 170.1441 
" style="fill:none;stroke:#ffffff;stroke-linecap:square;stroke-opacity:0.5;stroke-width:1.5;"/>
   </g>
   <g id="line2d_19">
    <path clip-path="url(#p09d815c3cd)" d="M 39.193651 170.1441 
L 39.39059 170.0082 
L 39.784479 170.0082 
L 41.163061 169.0569 
L 41.753889 167.6979 
L 42.147766 165.6594 
L 42.541655 162.126 
L 42.935532 156.5541 
L 43.329409 148.536 
L 43.723298 136.033199 
L 44.117176 116.327698 
L 44.904942 66.860103 
L 45.101881 68.355 
L 45.298831 57.075299 
L 45.49577 54.900903 
L 45.692708 54.764997 
L 45.889647 52.998303 
L 46.086586 56.259902 
L 46.283536 53.405998 
L 46.677413 53.813701 
L 46.874352 55.444496 
L 47.071302 53.134202 
L 47.268241 53.813701 
L 47.46518 52.454702 
L 47.662118 52.454702 
L 47.859057 51.095703 
L 48.252946 50.688001 
L 48.449885 50.688001 
L 48.843774 51.639297 
L 49.237651 52.182898 
L 49.434589 52.182898 
L 49.631528 52.318804 
L 49.828479 52.318804 
L 50.419294 52.726499 
L 51.010122 53.677803 
L 51.207061 54.085497 
L 51.403999 54.221404 
L 51.994827 55.036801 
L 52.191766 55.036801 
L 52.782593 54.629099 
L 53.176471 54.900903 
L 53.373409 54.900903 
L 53.57036 55.036801 
L 55.145881 57.075299 
L 55.53977 57.347104 
L 56.130585 58.2984 
L 56.918352 60.744601 
L 57.509179 62.647201 
L 58.887773 64.685699 
L 59.084712 65.2293 
L 59.281651 66.4524 
L 59.675528 72.024301 
L 59.872478 71.4807 
L 60.069417 79.091099 
L 60.266356 72.567902 
L 60.463294 75.557696 
L 60.660233 73.791003 
L 60.857183 76.373102 
L 61.054122 71.072997 
L 61.251061 71.752497 
L 61.447999 73.247402 
L 61.64495 76.916703 
L 61.841888 76.780797 
L 62.038827 75.965399 
L 62.235765 77.460296 
L 62.432704 76.373102 
L 63.023532 81.5373 
L 63.22047 80.721903 
L 63.417409 85.3425 
L 63.614359 83.032197 
L 63.811298 89.827199 
L 64.008237 90.099004 
L 64.402126 101.786399 
L 65.386831 148.807799 
L 65.780708 159.5439 
L 66.174585 164.9799 
L 66.568474 167.6979 
L 66.962352 168.921 
L 67.553179 169.6005 
L 67.750118 169.7364 
L 68.144007 169.7364 
L 68.537884 170.0082 
L 68.931773 170.0082 
L 69.128712 170.1441 
L 69.128712 170.1441 
" style="fill:none;stroke:#ffffff;stroke-linecap:square;stroke-opacity:0.5;stroke-width:1.5;"/>
   </g>
   <g id="line2d_20">
    <path clip-path="url(#p09d815c3cd)" d="M 60.266356 170.1441 
L 60.463294 170.0082 
L 61.251061 170.0082 
L 61.447999 169.8723 
L 61.841888 169.8723 
L 62.432704 169.0569 
L 62.826593 167.0184 
L 63.023532 164.844 
L 63.417409 156.9618 
L 64.205175 124.753499 
L 64.796003 101.514602 
L 65.386831 89.963097 
L 65.583769 86.701499 
L 65.780708 89.1477 
L 65.977647 88.604099 
L 66.962352 111.1635 
L 67.159302 107.222402 
L 67.356241 115.784101 
L 67.553179 111.1635 
L 67.750118 110.348098 
L 67.947057 100.563298 
L 68.144007 98.388902 
L 68.340946 102.601801 
L 68.537884 102.465898 
L 68.734823 111.707101 
L 68.931773 113.3379 
L 69.128712 106.271102 
L 69.32565 117.822599 
L 69.522589 107.901901 
L 69.719528 115.376398 
L 69.916478 104.096702 
L 70.113417 122.850899 
L 70.310355 105.048001 
L 70.507294 117.822599 
L 70.704233 112.930201 
L 70.901183 111.1635 
L 71.29506 115.648199 
L 71.491999 117.550798 
L 71.688949 114.2892 
L 71.885888 116.599499 
L 72.082827 115.784101 
L 72.279765 115.784101 
L 72.476704 116.735401 
L 72.673654 116.055901 
L 72.870593 117.822599 
L 73.067532 117.686701 
L 73.26447 118.3662 
L 73.461409 118.502098 
L 73.658359 117.550798 
L 73.855298 117.279002 
L 74.052237 118.909801 
L 74.249175 118.638001 
L 74.840003 122.850899 
L 75.23388 124.481698 
L 75.430831 124.753499 
L 75.627769 125.840701 
L 75.824708 125.976599 
L 76.021646 127.4715 
L 76.218585 127.063802 
L 77.006351 130.597201 
L 77.203302 130.869001 
L 77.991056 134.946001 
L 78.778823 137.935799 
L 79.960478 142.4205 
L 81.33906 147.4488 
L 82.323765 151.1181 
L 82.914593 153.020699 
L 83.30847 153.972 
L 84.096248 156.4182 
L 84.490125 157.5054 
L 85.671757 160.0875 
L 86.656462 162.5337 
L 87.44424 163.7568 
L 87.838117 164.4363 
L 88.625896 165.3876 
L 89.41365 165.9312 
L 89.807527 166.3389 
L 92.564715 168.2415 
L 92.761642 168.2415 
L 92.958593 168.3774 
L 93.155543 168.3774 
L 93.54942 168.6492 
L 93.746347 168.6492 
L 93.943298 168.7851 
L 94.337175 168.7851 
L 94.534125 168.921 
L 94.731052 168.921 
L 94.928002 169.0569 
L 95.124953 169.0569 
L 95.32188 169.1928 
L 95.715757 169.1928 
L 95.912707 169.3287 
L 96.306585 169.3287 
L 96.503535 169.4646 
L 97.094363 169.4646 
L 97.29129 169.6005 
L 97.882117 169.6005 
L 98.079068 169.7364 
L 98.669895 169.7364 
L 98.866822 169.8723 
L 99.45765 169.8723 
L 99.6546 170.0082 
L 99.6546 170.0082 
" style="fill:none;stroke:#ffffff;stroke-linecap:square;stroke-opacity:0.5;stroke-width:1.5;"/>
   </g>
   <g id="line2d_21">
    <path clip-path="url(#p09d815c3cd)" d="M 92.170815 170.28 
L 92.958593 170.22564 
L 93.746347 170.07615 
L 94.731052 169.91307 
L 95.32188 169.53255 
L 96.109658 168.60843 
L 96.503535 167.52123 
L 97.094363 166.12146 
L 97.48824 164.77605 
L 98.275995 163.28115 
L 98.866822 162.61524 
L 100.048478 160.52238 
L 100.639305 133.097758 
L 101.033183 123.938101 
L 101.42706 121.573442 
L 102.017887 118.624408 
L 102.805642 125.337869 
L 103.002592 137.73195 
L 103.59342 136.291412 
L 104.184248 131.779528 
L 105.168953 135.190621 
L 105.36588 136.101149 
L 105.956707 97.152209 
L 106.350585 139.947121 
L 107.138363 97.315292 
L 107.53224 155.30382 
L 108.123067 98.361718 
L 108.910822 134.687789 
L 110.289404 126.764821 
L 111.274109 146.59263 
L 112.258814 87.788701 
L 112.849642 86.307388 
L 113.440469 78.370831 
L 114.031297 71.358386 
L 114.425174 68.830648 
L 115.212952 57.428641 
L 115.803757 62.878228 
L 116.591535 60.255361 
L 116.985412 56.545291 
L 117.773167 56.667597 
L 118.363994 68.368592 
L 119.151772 74.062799 
L 119.7426 75.313076 
L 121.121182 74.484086 
L 122.499764 75.095641 
L 123.484469 70.692479 
L 124.666125 74.375373 
L 125.453879 55.797838 
L 126.438584 44.993793 
L 127.226362 40.835252 
L 128.014117 38.783162 
L 128.604944 39.883948 
L 129.7866 44.885072 
L 130.180477 48.921299 
L 130.771305 54.370886 
L 131.165182 61.247433 
L 132.149887 68.341408 
L 133.134592 78.126211 
L 134.119297 81.618838 
L 134.907051 83.467077 
L 136.285657 82.977836 
L 137.467289 82.135262 
L 138.451994 77.541842 
L 139.436699 67.960889 
L 140.027526 64.835189 
L 140.421404 59.95638 
L 141.012231 64.685699 
L 141.603059 72.296098 
L 142.193887 40.835252 
L 142.784714 54.071913 
L 143.572469 55.933736 
L 144.163297 34.38 
L 144.951051 48.690271 
L 145.541879 54.09909 
L 145.738829 97.179394 
L 146.132706 132.241588 
L 146.723534 47.086652 
L 147.511289 76.60413 
L 148.102116 95.086527 
L 148.692944 137.229119 
L 149.480699 168.32304 
L 149.874599 170.25282 
L 150.859304 164.83041 
L 151.450108 169.66845 
L 152.828714 170.23923 
L 153.419518 165.22452 
L 154.207296 170.21205 
L 155.388952 170.28 
L 156.373657 170.26641 
L 157.161411 169.83153 
L 157.752239 170.23923 
L 157.949166 169.12485 
L 158.146116 166.82814 
L 158.343067 154.18944 
L 158.736944 170.26641 
L 158.933894 170.26641 
L 159.130821 163.19961 
L 159.524698 168.86664 
L 159.918599 163.78398 
L 160.115526 170.22564 
L 160.706354 169.95384 
L 161.100231 169.55973 
L 161.888009 169.11126 
L 162.872714 170.18487 
L 163.857419 170.23923 
L 167.008461 170.22564 
L 168.583993 170.28 
" style="fill:none;stroke:#8dd3c7;stroke-linecap:square;stroke-width:1.5;"/>
   </g>
   <g id="line2d_22">
    <path clip-path="url(#p09d815c3cd)" d="M 136.876461 170.28 
L 141.996936 170.28 
L 147.117411 170.28 
L 152.434813 170.28 
L 158.146116 170.28 
L 162.281886 170.28 
L 166.614583 170.21205 
L 170.947304 169.89948 
L 174.098346 169.17921 
L 175.673878 166.37967 
L 177.05246 158.44311 
L 179.218821 142.90974 
L 181.385181 110.72862 
L 183.945419 76.998241 
L 186.111755 59.100213 
L 187.490361 50.402612 
L 188.475066 46.366376 
L 189.459771 44.314286 
L 191.23223 43.988129 
L 192.610813 51.680073 
L 193.595518 53.868062 
L 194.777173 50.334659 
L 196.549656 45.51021 
L 197.534361 44.341471 
L 198.519066 46.937162 
L 200.685403 44.4366 
L 201.867058 45.184053 
L 203.639517 44.68122 
L 204.624246 44.77635 
L 206.396705 42.28938 
L 207.578361 41.297308 
L 209.35082 37.002868 
L 209.744697 35.236166 
L 212.108008 34.38 
L 214.668246 40.346012 
L 218.016238 44.694812 
L 220.773402 36.812609 
L 223.136713 35.521563 
L 225.5 35.915674 
L 226.878582 37.206719 
L 227.863287 38.701616 
L 228.257164 42.941703 
L 228.847992 45.387896 
L 230.423525 55.81143 
L 232.589885 79.621108 
L 234.559295 133.66854 
L 235.544 108.907562 
L 236.725655 146.755711 
L 238.104237 155.64357 
L 239.48282 160.67187 
L 240.073647 169.58691 
L 241.058352 167.562 
L 243.027762 170.22564 
L 244.406344 170.28 
L 247.360459 170.26641 
L 251.496229 170.28 
L 255.82895 170.28 
L 259.964697 170.28 
" style="fill:none;stroke:#feffb3;stroke-linecap:square;stroke-width:1.5;"/>
   </g>
   <g id="line2d_23">
    <path clip-path="url(#p09d815c3cd)" d="M 257.207532 170.28 
L 260.161647 170.28 
L 262.524934 170.28 
L 263.903516 170.25282 
L 264.888245 170.21205 
L 266.660704 169.54614 
L 268.433164 168.66279 
L 269.417869 167.60277 
L 270.796474 164.54502 
L 272.175057 158.41593 
L 273.159762 149.514481 
L 274.735294 136.54962 
L 274.932221 144.43182 
L 276.507754 138.492991 
L 278.477164 130.243859 
L 279.658819 116.164619 
L 280.643547 124.536059 
L 282.415983 85.92687 
L 284.188466 66.316502 
L 285.763975 68.84424 
L 288.915041 85.328908 
L 291.081424 71.684552 
L 291.672252 76.576953 
L 293.050834 63.204394 
L 294.429416 59.100213 
L 296.398826 58.461483 
L 297.777409 52.957527 
L 299.155991 50.986982 
L 300.534573 54.09909 
L 301.322328 48.608734 
L 304.079539 45.401488 
L 305.458121 44.327878 
L 307.427531 44.341471 
L 310.184696 47.847689 
L 311.563278 44.871479 
L 313.335761 55.743477 
L 315.699071 41.732187 
L 317.865408 37.043636 
L 318.850137 36.024387 
L 319.834818 36.445683 
L 322.591983 39.177272 
L 323.576711 36.880562 
L 325.743048 36.635942 
L 327.318604 39.639328 
L 328.106358 37.206719 
L 328.697186 34.38 
L 329.09104 39.381124 
L 330.075768 36.934923 
L 330.469622 38.715208 
L 331.257424 46.48869 
L 331.454351 36.812609 
L 332.242105 49.383363 
L 332.832933 49.084382 
L 333.226834 42.207843 
L 334.211515 56.069643 
L 334.605416 60.989221 
L 334.99927 74.103568 
L 335.39317 80.912162 
L 335.787071 94.08087 
L 337.165653 109.981172 
L 338.150335 122.959621 
L 339.135063 138.995821 
L 339.922818 148.182661 
L 340.907546 151.797599 
L 341.498327 157.76361 
L 342.876956 161.79984 
L 343.664711 164.42271 
L 344.649392 165.6594 
L 345.043293 166.0671 
L 346.224948 168.67638 
L 347.997384 169.35588 
L 348.391285 170.18487 
L 349.769867 169.8723 
L 350.754596 169.99461 
L 352.527032 170.22564 
L 355.48117 170.28 
" style="fill:none;stroke:#bfbbd9;stroke-linecap:square;stroke-width:1.5;"/>
   </g>
   <g id="patch_3">
    <path d="M 20.878125 170.28 
L 20.878125 7.2 
" style="fill:none;stroke:#ffffff;stroke-linecap:square;stroke-linejoin:miter;stroke-width:0.8;"/>
   </g>
   <g id="patch_4">
    <path d="M 355.678125 170.28 
L 355.678125 7.2 
" style="fill:none;stroke:#ffffff;stroke-linecap:square;stroke-linejoin:miter;stroke-width:0.8;"/>
   </g>
   <g id="patch_5">
    <path d="M 20.878125 170.28 
L 355.678125 170.28 
" style="fill:none;stroke:#ffffff;stroke-linecap:square;stroke-linejoin:miter;stroke-width:0.8;"/>
   </g>
   <g id="patch_6">
    <path d="M 20.878125 7.2 
L 355.678125 7.2 
" style="fill:none;stroke:#ffffff;stroke-linecap:square;stroke-linejoin:miter;stroke-width:0.8;"/>
   </g>
   <g id="text_6">
    <!-- $i$ -->
    <defs>
     <path d="M 18.3125 75.984375 
L 27.296875 75.984375 
L 25.09375 64.59375 
L 16.109375 64.59375 
z
M 14.203125 54.6875 
L 23.1875 54.6875 
L 12.5 0 
L 3.515625 0 
z
" id="DejaVuSans-Oblique-105"/>
    </defs>
    <g style="fill:#ffffff;opacity:0.5;" transform="translate(30.202993 43.30821)scale(0.1 -0.1)">
     <use transform="translate(0 0.015625)" xlink:href="#DejaVuSans-Oblique-105"/>
    </g>
   </g>
   <g id="text_7">
    <!-- $z$ -->
    <defs>
     <path d="M 11.625 54.6875 
L 54.296875 54.6875 
L 52.6875 46.484375 
L 11.53125 7.171875 
L 45.515625 7.171875 
L 44.09375 0 
L -0.296875 0 
L 1.3125 8.203125 
L 42.484375 47.515625 
L 10.203125 47.515625 
z
" id="DejaVuSans-Oblique-122"/>
    </defs>
    <g style="fill:#ffffff;opacity:0.5;" transform="translate(51.304314 45.754411)scale(0.1 -0.1)">
     <use transform="translate(0 0.3125)" xlink:href="#DejaVuSans-Oblique-122"/>
    </g>
   </g>
   <g id="text_8">
    <!-- $y$ -->
    <defs>
     <path d="M 24.8125 -5.078125 
Q 18.5625 -15.578125 14.625 -18.1875 
Q 10.6875 -20.796875 4.59375 -20.796875 
L -2.484375 -20.796875 
L -0.984375 -13.28125 
L 4.203125 -13.28125 
Q 7.953125 -13.28125 10.59375 -11.234375 
Q 13.234375 -9.1875 16.5 -3.21875 
L 19.28125 2 
L 7.171875 54.6875 
L 16.703125 54.6875 
L 25.78125 12.796875 
L 50.875 54.6875 
L 60.296875 54.6875 
z
" id="DejaVuSans-Oblique-121"/>
    </defs>
    <g style="fill:#ffffff;opacity:0.5;" transform="translate(69.739346 102.2685)scale(0.1 -0.1)">
     <use transform="translate(0 0.3125)" xlink:href="#DejaVuSans-Oblique-121"/>
    </g>
   </g>
   <g id="text_9">
    <!-- $J$ -->
    <defs>
     <path d="M 16.703125 72.90625 
L 26.609375 72.90625 
L 13.375 5.078125 
Q 10.796875 -8.15625 4.65625 -14.078125 
Q -1.46875 -20.015625 -12.5 -20.015625 
L -16.40625 -20.015625 
L -14.796875 -11.71875 
L -11.71875 -11.71875 
Q -5.125 -11.71875 -1.703125 -7.953125 
Q 1.703125 -4.203125 3.515625 5.078125 
z
" id="DejaVuSans-Oblique-74"/>
    </defs>
    <g style="fill:#8dd3c7;" transform="translate(125.965373 29.888162)scale(0.1 -0.1)">
     <use transform="translate(0 0.09375)" xlink:href="#DejaVuSans-Oblique-74"/>
    </g>
   </g>
   <g id="text_10">
    <!-- $H$ -->
    <defs>
     <path d="M 16.890625 72.90625 
L 26.8125 72.90625 
L 21 43.015625 
L 56.78125 43.015625 
L 62.59375 72.90625 
L 72.515625 72.90625 
L 58.296875 0 
L 48.390625 0 
L 55.171875 34.71875 
L 19.390625 34.71875 
L 12.59375 0 
L 2.6875 0 
z
" id="DejaVuSans-Oblique-72"/>
    </defs>
    <g style="fill:#feffb3;" transform="translate(204.116012 26.361479)scale(0.1 -0.1)">
     <use transform="translate(0 0.09375)" xlink:href="#DejaVuSans-Oblique-72"/>
    </g>
   </g>
   <g id="text_11">
    <!-- $Ks$ -->
    <defs>
     <path d="M 16.890625 72.90625 
L 26.8125 72.90625 
L 20.796875 42.1875 
L 59.078125 72.90625 
L 72.21875 72.90625 
L 28.90625 38.09375 
L 60.59375 0 
L 48.578125 0 
L 19.484375 35.5 
L 12.59375 0 
L 2.6875 0 
z
" id="DejaVuSans-Oblique-75"/>
     <path d="M 50 53.078125 
L 48.296875 44.578125 
Q 44.734375 46.53125 40.765625 47.5 
Q 36.8125 48.484375 32.625 48.484375 
Q 25.53125 48.484375 21.453125 46.0625 
Q 17.390625 43.65625 17.390625 39.5 
Q 17.390625 34.671875 26.859375 32.078125 
Q 27.59375 31.890625 27.9375 31.78125 
L 30.8125 30.90625 
Q 39.796875 28.421875 42.796875 25.6875 
Q 45.796875 22.953125 45.796875 18.21875 
Q 45.796875 9.515625 38.890625 4.046875 
Q 31.984375 -1.421875 20.796875 -1.421875 
Q 16.453125 -1.421875 11.671875 -0.578125 
Q 6.890625 0.25 1.125 2 
L 2.875 11.28125 
Q 7.8125 8.734375 12.59375 7.421875 
Q 17.390625 6.109375 21.78125 6.109375 
Q 28.375 6.109375 32.5 8.9375 
Q 36.625 11.765625 36.625 16.109375 
Q 36.625 20.796875 25.78125 23.6875 
L 24.859375 23.921875 
L 21.78125 24.703125 
Q 14.9375 26.515625 11.765625 29.46875 
Q 8.59375 32.421875 8.59375 37.015625 
Q 8.59375 45.75 15.15625 50.875 
Q 21.734375 56 33.015625 56 
Q 37.453125 56 41.671875 55.265625 
Q 45.90625 54.546875 50 53.078125 
z
" id="DejaVuSans-Oblique-115"/>
    </defs>
    <g style="fill:#bfbbd9;" transform="translate(308.600975 32.857499)scale(0.1 -0.1)">
     <use transform="translate(0 0.09375)" xlink:href="#DejaVuSans-Oblique-75"/>
     <use transform="translate(65.576172 0.09375)" xlink:href="#DejaVuSans-Oblique-115"/>
    </g>
   </g>
  </g>
 </g>
 <defs>
  <clipPath id="p09d815c3cd">
   <rect height="163.08" width="334.8" x="20.878125" y="7.2"/>
  </clipPath>
 </defs>
</svg>
