<?xml version="1.0" encoding="utf-8" standalone="no"?>
<!DOCTYPE svg PUBLIC "-//W3C//DTD SVG 1.1//EN"
  "http://www.w3.org/Graphics/SVG/1.1/DTD/svg11.dtd">
<!-- Created with matplotlib (https://matplotlib.org/) -->
<svg height="216pt" version="1.1" viewBox="0 0 432 216" width="432pt" xmlns="http://www.w3.org/2000/svg" xmlns:xlink="http://www.w3.org/1999/xlink">
 <defs>
  <style type="text/css">
*{stroke-linecap:butt;stroke-linejoin:round;}
  </style>
 </defs>
 <g id="figure_1">
  <g id="patch_1">
   <path d="M 0 216 
L 432 216 
L 432 0 
L 0 0 
z
"/>
  </g>
  <g id="axes_1">
   <g id="patch_2">
    <path d="M 43.2 177.12 
L 384.48 177.12 
L 384.48 8.64 
L 43.2 8.64 
z
"/>
   </g>
   <g id="matplotlib.axis_1">
    <g id="xtick_1">
     <g id="line2d_1">
      <defs>
       <path d="M 0 0 
L 0 3.5 
" id="mbdb3752175" style="stroke:#ffffff;stroke-width:0.8;"/>
      </defs>
      <g>
       <use style="fill:#ffffff;stroke:#ffffff;stroke-width:0.8;" x="43.2" xlink:href="#mbdb3752175" y="177.12"/>
      </g>
     </g>
     <g id="text_1">
      <!-- 0 -->
      <defs>
       <path d="M 31.78125 66.40625 
Q 24.171875 66.40625 20.328125 58.90625 
Q 16.5 51.421875 16.5 36.375 
Q 16.5 21.390625 20.328125 13.890625 
Q 24.171875 6.390625 31.78125 6.390625 
Q 39.453125 6.390625 43.28125 13.890625 
Q 47.125 21.390625 47.125 36.375 
Q 47.125 51.421875 43.28125 58.90625 
Q 39.453125 66.40625 31.78125 66.40625 
z
M 31.78125 74.21875 
Q 44.046875 74.21875 50.515625 64.515625 
Q 56.984375 54.828125 56.984375 36.375 
Q 56.984375 17.96875 50.515625 8.265625 
Q 44.046875 -1.421875 31.78125 -1.421875 
Q 19.53125 -1.421875 13.0625 8.265625 
Q 6.59375 17.96875 6.59375 36.375 
Q 6.59375 54.828125 13.0625 64.515625 
Q 19.53125 74.21875 31.78125 74.21875 
z
" id="DejaVuSans-48"/>
      </defs>
      <g style="fill:#ffffff;" transform="translate(40.01875 191.718438)scale(0.1 -0.1)">
       <use xlink:href="#DejaVuSans-48"/>
      </g>
     </g>
    </g>
    <g id="xtick_2">
     <g id="line2d_2">
      <g>
       <use style="fill:#ffffff;stroke:#ffffff;stroke-width:0.8;" x="111.456" xlink:href="#mbdb3752175" y="177.12"/>
      </g>
     </g>
     <g id="text_2">
      <!-- 250 -->
      <defs>
       <path d="M 19.1875 8.296875 
L 53.609375 8.296875 
L 53.609375 0 
L 7.328125 0 
L 7.328125 8.296875 
Q 12.9375 14.109375 22.625 23.890625 
Q 32.328125 33.6875 34.8125 36.53125 
Q 39.546875 41.84375 41.421875 45.53125 
Q 43.3125 49.21875 43.3125 52.78125 
Q 43.3125 58.59375 39.234375 62.25 
Q 35.15625 65.921875 28.609375 65.921875 
Q 23.96875 65.921875 18.8125 64.3125 
Q 13.671875 62.703125 7.8125 59.421875 
L 7.8125 69.390625 
Q 13.765625 71.78125 18.9375 73 
Q 24.125 74.21875 28.421875 74.21875 
Q 39.75 74.21875 46.484375 68.546875 
Q 53.21875 62.890625 53.21875 53.421875 
Q 53.21875 48.921875 51.53125 44.890625 
Q 49.859375 40.875 45.40625 35.40625 
Q 44.1875 33.984375 37.640625 27.21875 
Q 31.109375 20.453125 19.1875 8.296875 
z
" id="DejaVuSans-50"/>
       <path d="M 10.796875 72.90625 
L 49.515625 72.90625 
L 49.515625 64.59375 
L 19.828125 64.59375 
L 19.828125 46.734375 
Q 21.96875 47.46875 24.109375 47.828125 
Q 26.265625 48.1875 28.421875 48.1875 
Q 40.625 48.1875 47.75 41.5 
Q 54.890625 34.8125 54.890625 23.390625 
Q 54.890625 11.625 47.5625 5.09375 
Q 40.234375 -1.421875 26.90625 -1.421875 
Q 22.3125 -1.421875 17.546875 -0.640625 
Q 12.796875 0.140625 7.71875 1.703125 
L 7.71875 11.625 
Q 12.109375 9.234375 16.796875 8.0625 
Q 21.484375 6.890625 26.703125 6.890625 
Q 35.15625 6.890625 40.078125 11.328125 
Q 45.015625 15.765625 45.015625 23.390625 
Q 45.015625 31 40.078125 35.4375 
Q 35.15625 39.890625 26.703125 39.890625 
Q 22.75 39.890625 18.8125 39.015625 
Q 14.890625 38.140625 10.796875 36.28125 
z
" id="DejaVuSans-53"/>
      </defs>
      <g style="fill:#ffffff;" transform="translate(101.91225 191.718438)scale(0.1 -0.1)">
       <use xlink:href="#DejaVuSans-50"/>
       <use x="63.623047" xlink:href="#DejaVuSans-53"/>
       <use x="127.246094" xlink:href="#DejaVuSans-48"/>
      </g>
     </g>
    </g>
    <g id="xtick_3">
     <g id="line2d_3">
      <g>
       <use style="fill:#ffffff;stroke:#ffffff;stroke-width:0.8;" x="179.712" xlink:href="#mbdb3752175" y="177.12"/>
      </g>
     </g>
     <g id="text_3">
      <!-- 500 -->
      <g style="fill:#ffffff;" transform="translate(170.16825 191.718438)scale(0.1 -0.1)">
       <use xlink:href="#DejaVuSans-53"/>
       <use x="63.623047" xlink:href="#DejaVuSans-48"/>
       <use x="127.246094" xlink:href="#DejaVuSans-48"/>
      </g>
     </g>
    </g>
    <g id="xtick_4">
     <g id="line2d_4">
      <g>
       <use style="fill:#ffffff;stroke:#ffffff;stroke-width:0.8;" x="247.968" xlink:href="#mbdb3752175" y="177.12"/>
      </g>
     </g>
     <g id="text_4">
      <!-- 750 -->
      <defs>
       <path d="M 8.203125 72.90625 
L 55.078125 72.90625 
L 55.078125 68.703125 
L 28.609375 0 
L 18.3125 0 
L 43.21875 64.59375 
L 8.203125 64.59375 
z
" id="DejaVuSans-55"/>
      </defs>
      <g style="fill:#ffffff;" transform="translate(238.42425 191.718438)scale(0.1 -0.1)">
       <use xlink:href="#DejaVuSans-55"/>
       <use x="63.623047" xlink:href="#DejaVuSans-53"/>
       <use x="127.246094" xlink:href="#DejaVuSans-48"/>
      </g>
     </g>
    </g>
    <g id="xtick_5">
     <g id="line2d_5">
      <g>
       <use style="fill:#ffffff;stroke:#ffffff;stroke-width:0.8;" x="316.224" xlink:href="#mbdb3752175" y="177.12"/>
      </g>
     </g>
     <g id="text_5">
      <!-- 1000 -->
      <defs>
       <path d="M 12.40625 8.296875 
L 28.515625 8.296875 
L 28.515625 63.921875 
L 10.984375 60.40625 
L 10.984375 69.390625 
L 28.421875 72.90625 
L 38.28125 72.90625 
L 38.28125 8.296875 
L 54.390625 8.296875 
L 54.390625 0 
L 12.40625 0 
z
" id="DejaVuSans-49"/>
      </defs>
      <g style="fill:#ffffff;" transform="translate(303.499 191.718438)scale(0.1 -0.1)">
       <use xlink:href="#DejaVuSans-49"/>
       <use x="63.623047" xlink:href="#DejaVuSans-48"/>
       <use x="127.246094" xlink:href="#DejaVuSans-48"/>
       <use x="190.869141" xlink:href="#DejaVuSans-48"/>
      </g>
     </g>
    </g>
    <g id="xtick_6">
     <g id="line2d_6">
      <g>
       <use style="fill:#ffffff;stroke:#ffffff;stroke-width:0.8;" x="384.48" xlink:href="#mbdb3752175" y="177.12"/>
      </g>
     </g>
     <g id="text_6">
      <!-- 1250 -->
      <g style="fill:#ffffff;" transform="translate(371.755 191.718438)scale(0.1 -0.1)">
       <use xlink:href="#DejaVuSans-49"/>
       <use x="63.623047" xlink:href="#DejaVuSans-50"/>
       <use x="127.246094" xlink:href="#DejaVuSans-53"/>
       <use x="190.869141" xlink:href="#DejaVuSans-48"/>
      </g>
     </g>
    </g>
    <g id="xtick_7">
     <g id="line2d_7">
      <defs>
       <path d="M 0 0 
L 0 2 
" id="m916fd27968" style="stroke:#ffffff;stroke-width:0.6;"/>
      </defs>
      <g>
       <use style="fill:#ffffff;stroke:#ffffff;stroke-width:0.6;" x="56.8512" xlink:href="#m916fd27968" y="177.12"/>
      </g>
     </g>
    </g>
    <g id="xtick_8">
     <g id="line2d_8">
      <g>
       <use style="fill:#ffffff;stroke:#ffffff;stroke-width:0.6;" x="70.5024" xlink:href="#m916fd27968" y="177.12"/>
      </g>
     </g>
    </g>
    <g id="xtick_9">
     <g id="line2d_9">
      <g>
       <use style="fill:#ffffff;stroke:#ffffff;stroke-width:0.6;" x="84.1536" xlink:href="#m916fd27968" y="177.12"/>
      </g>
     </g>
    </g>
    <g id="xtick_10">
     <g id="line2d_10">
      <g>
       <use style="fill:#ffffff;stroke:#ffffff;stroke-width:0.6;" x="97.8048" xlink:href="#m916fd27968" y="177.12"/>
      </g>
     </g>
    </g>
    <g id="xtick_11">
     <g id="line2d_11">
      <g>
       <use style="fill:#ffffff;stroke:#ffffff;stroke-width:0.6;" x="125.1072" xlink:href="#m916fd27968" y="177.12"/>
      </g>
     </g>
    </g>
    <g id="xtick_12">
     <g id="line2d_12">
      <g>
       <use style="fill:#ffffff;stroke:#ffffff;stroke-width:0.6;" x="138.7584" xlink:href="#m916fd27968" y="177.12"/>
      </g>
     </g>
    </g>
    <g id="xtick_13">
     <g id="line2d_13">
      <g>
       <use style="fill:#ffffff;stroke:#ffffff;stroke-width:0.6;" x="152.4096" xlink:href="#m916fd27968" y="177.12"/>
      </g>
     </g>
    </g>
    <g id="xtick_14">
     <g id="line2d_14">
      <g>
       <use style="fill:#ffffff;stroke:#ffffff;stroke-width:0.6;" x="166.0608" xlink:href="#m916fd27968" y="177.12"/>
      </g>
     </g>
    </g>
    <g id="xtick_15">
     <g id="line2d_15">
      <g>
       <use style="fill:#ffffff;stroke:#ffffff;stroke-width:0.6;" x="193.3632" xlink:href="#m916fd27968" y="177.12"/>
      </g>
     </g>
    </g>
    <g id="xtick_16">
     <g id="line2d_16">
      <g>
       <use style="fill:#ffffff;stroke:#ffffff;stroke-width:0.6;" x="207.0144" xlink:href="#m916fd27968" y="177.12"/>
      </g>
     </g>
    </g>
    <g id="xtick_17">
     <g id="line2d_17">
      <g>
       <use style="fill:#ffffff;stroke:#ffffff;stroke-width:0.6;" x="220.6656" xlink:href="#m916fd27968" y="177.12"/>
      </g>
     </g>
    </g>
    <g id="xtick_18">
     <g id="line2d_18">
      <g>
       <use style="fill:#ffffff;stroke:#ffffff;stroke-width:0.6;" x="234.3168" xlink:href="#m916fd27968" y="177.12"/>
      </g>
     </g>
    </g>
    <g id="xtick_19">
     <g id="line2d_19">
      <g>
       <use style="fill:#ffffff;stroke:#ffffff;stroke-width:0.6;" x="261.6192" xlink:href="#m916fd27968" y="177.12"/>
      </g>
     </g>
    </g>
    <g id="xtick_20">
     <g id="line2d_20">
      <g>
       <use style="fill:#ffffff;stroke:#ffffff;stroke-width:0.6;" x="275.2704" xlink:href="#m916fd27968" y="177.12"/>
      </g>
     </g>
    </g>
    <g id="xtick_21">
     <g id="line2d_21">
      <g>
       <use style="fill:#ffffff;stroke:#ffffff;stroke-width:0.6;" x="288.9216" xlink:href="#m916fd27968" y="177.12"/>
      </g>
     </g>
    </g>
    <g id="xtick_22">
     <g id="line2d_22">
      <g>
       <use style="fill:#ffffff;stroke:#ffffff;stroke-width:0.6;" x="302.5728" xlink:href="#m916fd27968" y="177.12"/>
      </g>
     </g>
    </g>
    <g id="xtick_23">
     <g id="line2d_23">
      <g>
       <use style="fill:#ffffff;stroke:#ffffff;stroke-width:0.6;" x="329.8752" xlink:href="#m916fd27968" y="177.12"/>
      </g>
     </g>
    </g>
    <g id="xtick_24">
     <g id="line2d_24">
      <g>
       <use style="fill:#ffffff;stroke:#ffffff;stroke-width:0.6;" x="343.5264" xlink:href="#m916fd27968" y="177.12"/>
      </g>
     </g>
    </g>
    <g id="xtick_25">
     <g id="line2d_25">
      <g>
       <use style="fill:#ffffff;stroke:#ffffff;stroke-width:0.6;" x="357.1776" xlink:href="#m916fd27968" y="177.12"/>
      </g>
     </g>
    </g>
    <g id="xtick_26">
     <g id="line2d_26">
      <g>
       <use style="fill:#ffffff;stroke:#ffffff;stroke-width:0.6;" x="370.8288" xlink:href="#m916fd27968" y="177.12"/>
      </g>
     </g>
    </g>
    <g id="text_7">
     <!-- $\nu \ \left( \mathrm{THz} \right)$ -->
     <defs>
      <path d="M 14.984375 0 
L 8.9375 54.6875 
L 18.609375 54.6875 
L 23.78125 8.796875 
Q 30.8125 14.84375 37.359375 23.25 
Q 42.28125 29.546875 43.5625 35.015625 
Q 44.140625 37.59375 43.890625 42.484375 
Q 43.65625 48.296875 39.75 54.6875 
L 48.828125 54.6875 
L 48.828125 54.6875 
Q 51.375 50.34375 52.390625 44.28125 
Q 53.375 38.71875 52.640625 34.90625 
Q 50.78125 25.34375 42.484375 16.796875 
Q 31.640625 5.671875 24.5625 0 
z
" id="DejaVuSans-Oblique-957"/>
      <path d="M 31 75.875 
Q 24.46875 64.65625 21.28125 53.65625 
Q 18.109375 42.671875 18.109375 31.390625 
Q 18.109375 20.125 21.3125 9.0625 
Q 24.515625 -2 31 -13.1875 
L 23.1875 -13.1875 
Q 15.875 -1.703125 12.234375 9.375 
Q 8.59375 20.453125 8.59375 31.390625 
Q 8.59375 42.28125 12.203125 53.3125 
Q 15.828125 64.359375 23.1875 75.875 
z
" id="DejaVuSans-40"/>
      <path d="M -0.296875 72.90625 
L 61.375 72.90625 
L 61.375 64.59375 
L 35.5 64.59375 
L 35.5 0 
L 25.59375 0 
L 25.59375 64.59375 
L -0.296875 64.59375 
z
" id="DejaVuSans-84"/>
      <path d="M 9.8125 72.90625 
L 19.671875 72.90625 
L 19.671875 43.015625 
L 55.515625 43.015625 
L 55.515625 72.90625 
L 65.375 72.90625 
L 65.375 0 
L 55.515625 0 
L 55.515625 34.71875 
L 19.671875 34.71875 
L 19.671875 0 
L 9.8125 0 
z
" id="DejaVuSans-72"/>
      <path d="M 5.515625 54.6875 
L 48.1875 54.6875 
L 48.1875 46.484375 
L 14.40625 7.171875 
L 48.1875 7.171875 
L 48.1875 0 
L 4.296875 0 
L 4.296875 8.203125 
L 38.09375 47.515625 
L 5.515625 47.515625 
z
" id="DejaVuSans-122"/>
      <path d="M 8.015625 75.875 
L 15.828125 75.875 
Q 23.140625 64.359375 26.78125 53.3125 
Q 30.421875 42.28125 30.421875 31.390625 
Q 30.421875 20.453125 26.78125 9.375 
Q 23.140625 -1.703125 15.828125 -13.1875 
L 8.015625 -13.1875 
Q 14.5 -2 17.703125 9.0625 
Q 20.90625 20.125 20.90625 31.390625 
Q 20.90625 42.671875 17.703125 53.65625 
Q 14.5 64.65625 8.015625 75.875 
z
" id="DejaVuSans-41"/>
     </defs>
     <g style="fill:#ffffff;" transform="translate(196.04 205.396563)scale(0.1 -0.1)">
      <use transform="translate(0 0.125)" xlink:href="#DejaVuSans-Oblique-957"/>
      <use transform="translate(88.329753 0.125)" xlink:href="#DejaVuSans-40"/>
      <use transform="translate(127.343425 0.125)" xlink:href="#DejaVuSans-84"/>
      <use transform="translate(188.42741 0.125)" xlink:href="#DejaVuSans-72"/>
      <use transform="translate(263.622722 0.125)" xlink:href="#DejaVuSans-122"/>
      <use transform="translate(316.112957 0.125)" xlink:href="#DejaVuSans-41"/>
     </g>
    </g>
   </g>
   <g id="matplotlib.axis_2">
    <g id="ytick_1">
     <g id="line2d_27">
      <defs>
       <path d="M 0 0 
L -3.5 0 
" id="mebb467d0e4" style="stroke:#ffffff;stroke-width:0.8;"/>
      </defs>
      <g>
       <use style="fill:#ffffff;stroke:#ffffff;stroke-width:0.8;" x="43.2" xlink:href="#mebb467d0e4" y="177.12"/>
      </g>
     </g>
     <g id="text_8">
      <!-- 0 -->
      <g style="fill:#ffffff;" transform="translate(29.8375 180.919219)scale(0.1 -0.1)">
       <use xlink:href="#DejaVuSans-48"/>
      </g>
     </g>
    </g>
    <g id="ytick_2">
     <g id="line2d_28">
      <g>
       <use style="fill:#ffffff;stroke:#ffffff;stroke-width:0.8;" x="43.2" xlink:href="#mebb467d0e4" y="116.948571"/>
      </g>
     </g>
     <g id="text_9">
      <!-- 1 -->
      <g style="fill:#ffffff;" transform="translate(29.8375 120.74779)scale(0.1 -0.1)">
       <use xlink:href="#DejaVuSans-49"/>
      </g>
     </g>
    </g>
    <g id="ytick_3">
     <g id="line2d_29">
      <g>
       <use style="fill:#ffffff;stroke:#ffffff;stroke-width:0.8;" x="43.2" xlink:href="#mebb467d0e4" y="56.777143"/>
      </g>
     </g>
     <g id="text_10">
      <!-- 2 -->
      <g style="fill:#ffffff;" transform="translate(29.8375 60.576362)scale(0.1 -0.1)">
       <use xlink:href="#DejaVuSans-50"/>
      </g>
     </g>
    </g>
    <g id="ytick_4">
     <g id="line2d_30">
      <defs>
       <path d="M 0 0 
L -2 0 
" id="mc58564d623" style="stroke:#ffffff;stroke-width:0.6;"/>
      </defs>
      <g>
       <use style="fill:#ffffff;stroke:#ffffff;stroke-width:0.6;" x="43.2" xlink:href="#mc58564d623" y="165.085714"/>
      </g>
     </g>
    </g>
    <g id="ytick_5">
     <g id="line2d_31">
      <g>
       <use style="fill:#ffffff;stroke:#ffffff;stroke-width:0.6;" x="43.2" xlink:href="#mc58564d623" y="153.051429"/>
      </g>
     </g>
    </g>
    <g id="ytick_6">
     <g id="line2d_32">
      <g>
       <use style="fill:#ffffff;stroke:#ffffff;stroke-width:0.6;" x="43.2" xlink:href="#mc58564d623" y="141.017143"/>
      </g>
     </g>
    </g>
    <g id="ytick_7">
     <g id="line2d_33">
      <g>
       <use style="fill:#ffffff;stroke:#ffffff;stroke-width:0.6;" x="43.2" xlink:href="#mc58564d623" y="128.982857"/>
      </g>
     </g>
    </g>
    <g id="ytick_8">
     <g id="line2d_34">
      <g>
       <use style="fill:#ffffff;stroke:#ffffff;stroke-width:0.6;" x="43.2" xlink:href="#mc58564d623" y="104.914286"/>
      </g>
     </g>
    </g>
    <g id="ytick_9">
     <g id="line2d_35">
      <g>
       <use style="fill:#ffffff;stroke:#ffffff;stroke-width:0.6;" x="43.2" xlink:href="#mc58564d623" y="92.88"/>
      </g>
     </g>
    </g>
    <g id="ytick_10">
     <g id="line2d_36">
      <g>
       <use style="fill:#ffffff;stroke:#ffffff;stroke-width:0.6;" x="43.2" xlink:href="#mc58564d623" y="80.845714"/>
      </g>
     </g>
    </g>
    <g id="ytick_11">
     <g id="line2d_37">
      <g>
       <use style="fill:#ffffff;stroke:#ffffff;stroke-width:0.6;" x="43.2" xlink:href="#mc58564d623" y="68.811429"/>
      </g>
     </g>
    </g>
    <g id="ytick_12">
     <g id="line2d_38">
      <g>
       <use style="fill:#ffffff;stroke:#ffffff;stroke-width:0.6;" x="43.2" xlink:href="#mc58564d623" y="44.742857"/>
      </g>
     </g>
    </g>
    <g id="ytick_13">
     <g id="line2d_39">
      <g>
       <use style="fill:#ffffff;stroke:#ffffff;stroke-width:0.6;" x="43.2" xlink:href="#mc58564d623" y="32.708571"/>
      </g>
     </g>
    </g>
    <g id="ytick_14">
     <g id="line2d_40">
      <g>
       <use style="fill:#ffffff;stroke:#ffffff;stroke-width:0.6;" x="43.2" xlink:href="#mc58564d623" y="20.674286"/>
      </g>
     </g>
    </g>
    <g id="text_11">
     <!-- $10^5 \, \mathrm{photons}\ \mathrm{m}^{-2}\, \mathrm{s}^{-1}\, \mathrm{THz}^{-1}$ -->
     <defs>
      <path d="M 18.109375 8.203125 
L 18.109375 -20.796875 
L 9.078125 -20.796875 
L 9.078125 54.6875 
L 18.109375 54.6875 
L 18.109375 46.390625 
Q 20.953125 51.265625 25.265625 53.625 
Q 29.59375 56 35.59375 56 
Q 45.5625 56 51.78125 48.09375 
Q 58.015625 40.1875 58.015625 27.296875 
Q 58.015625 14.40625 51.78125 6.484375 
Q 45.5625 -1.421875 35.59375 -1.421875 
Q 29.59375 -1.421875 25.265625 0.953125 
Q 20.953125 3.328125 18.109375 8.203125 
z
M 48.6875 27.296875 
Q 48.6875 37.203125 44.609375 42.84375 
Q 40.53125 48.484375 33.40625 48.484375 
Q 26.265625 48.484375 22.1875 42.84375 
Q 18.109375 37.203125 18.109375 27.296875 
Q 18.109375 17.390625 22.1875 11.75 
Q 26.265625 6.109375 33.40625 6.109375 
Q 40.53125 6.109375 44.609375 11.75 
Q 48.6875 17.390625 48.6875 27.296875 
z
" id="DejaVuSans-112"/>
      <path d="M 54.890625 33.015625 
L 54.890625 0 
L 45.90625 0 
L 45.90625 32.71875 
Q 45.90625 40.484375 42.875 44.328125 
Q 39.84375 48.1875 33.796875 48.1875 
Q 26.515625 48.1875 22.3125 43.546875 
Q 18.109375 38.921875 18.109375 30.90625 
L 18.109375 0 
L 9.078125 0 
L 9.078125 75.984375 
L 18.109375 75.984375 
L 18.109375 46.1875 
Q 21.34375 51.125 25.703125 53.5625 
Q 30.078125 56 35.796875 56 
Q 45.21875 56 50.046875 50.171875 
Q 54.890625 44.34375 54.890625 33.015625 
z
" id="DejaVuSans-104"/>
      <path d="M 30.609375 48.390625 
Q 23.390625 48.390625 19.1875 42.75 
Q 14.984375 37.109375 14.984375 27.296875 
Q 14.984375 17.484375 19.15625 11.84375 
Q 23.34375 6.203125 30.609375 6.203125 
Q 37.796875 6.203125 41.984375 11.859375 
Q 46.1875 17.53125 46.1875 27.296875 
Q 46.1875 37.015625 41.984375 42.703125 
Q 37.796875 48.390625 30.609375 48.390625 
z
M 30.609375 56 
Q 42.328125 56 49.015625 48.375 
Q 55.71875 40.765625 55.71875 27.296875 
Q 55.71875 13.875 49.015625 6.21875 
Q 42.328125 -1.421875 30.609375 -1.421875 
Q 18.84375 -1.421875 12.171875 6.21875 
Q 5.515625 13.875 5.515625 27.296875 
Q 5.515625 40.765625 12.171875 48.375 
Q 18.84375 56 30.609375 56 
z
" id="DejaVuSans-111"/>
      <path d="M 18.3125 70.21875 
L 18.3125 54.6875 
L 36.8125 54.6875 
L 36.8125 47.703125 
L 18.3125 47.703125 
L 18.3125 18.015625 
Q 18.3125 11.328125 20.140625 9.421875 
Q 21.96875 7.515625 27.59375 7.515625 
L 36.8125 7.515625 
L 36.8125 0 
L 27.59375 0 
Q 17.1875 0 13.234375 3.875 
Q 9.28125 7.765625 9.28125 18.015625 
L 9.28125 47.703125 
L 2.6875 47.703125 
L 2.6875 54.6875 
L 9.28125 54.6875 
L 9.28125 70.21875 
z
" id="DejaVuSans-116"/>
      <path d="M 54.890625 33.015625 
L 54.890625 0 
L 45.90625 0 
L 45.90625 32.71875 
Q 45.90625 40.484375 42.875 44.328125 
Q 39.84375 48.1875 33.796875 48.1875 
Q 26.515625 48.1875 22.3125 43.546875 
Q 18.109375 38.921875 18.109375 30.90625 
L 18.109375 0 
L 9.078125 0 
L 9.078125 54.6875 
L 18.109375 54.6875 
L 18.109375 46.1875 
Q 21.34375 51.125 25.703125 53.5625 
Q 30.078125 56 35.796875 56 
Q 45.21875 56 50.046875 50.171875 
Q 54.890625 44.34375 54.890625 33.015625 
z
" id="DejaVuSans-110"/>
      <path d="M 44.28125 53.078125 
L 44.28125 44.578125 
Q 40.484375 46.53125 36.375 47.5 
Q 32.28125 48.484375 27.875 48.484375 
Q 21.1875 48.484375 17.84375 46.4375 
Q 14.5 44.390625 14.5 40.28125 
Q 14.5 37.15625 16.890625 35.375 
Q 19.28125 33.59375 26.515625 31.984375 
L 29.59375 31.296875 
Q 39.15625 29.25 43.1875 25.515625 
Q 47.21875 21.78125 47.21875 15.09375 
Q 47.21875 7.46875 41.1875 3.015625 
Q 35.15625 -1.421875 24.609375 -1.421875 
Q 20.21875 -1.421875 15.453125 -0.5625 
Q 10.6875 0.296875 5.421875 2 
L 5.421875 11.28125 
Q 10.40625 8.6875 15.234375 7.390625 
Q 20.0625 6.109375 24.8125 6.109375 
Q 31.15625 6.109375 34.5625 8.28125 
Q 37.984375 10.453125 37.984375 14.40625 
Q 37.984375 18.0625 35.515625 20.015625 
Q 33.0625 21.96875 24.703125 23.78125 
L 21.578125 24.515625 
Q 13.234375 26.265625 9.515625 29.90625 
Q 5.8125 33.546875 5.8125 39.890625 
Q 5.8125 47.609375 11.28125 51.796875 
Q 16.75 56 26.8125 56 
Q 31.78125 56 36.171875 55.265625 
Q 40.578125 54.546875 44.28125 53.078125 
z
" id="DejaVuSans-115"/>
      <path d="M 52 44.1875 
Q 55.375 50.25 60.0625 53.125 
Q 64.75 56 71.09375 56 
Q 79.640625 56 84.28125 50.015625 
Q 88.921875 44.046875 88.921875 33.015625 
L 88.921875 0 
L 79.890625 0 
L 79.890625 32.71875 
Q 79.890625 40.578125 77.09375 44.375 
Q 74.3125 48.1875 68.609375 48.1875 
Q 61.625 48.1875 57.5625 43.546875 
Q 53.515625 38.921875 53.515625 30.90625 
L 53.515625 0 
L 44.484375 0 
L 44.484375 32.71875 
Q 44.484375 40.625 41.703125 44.40625 
Q 38.921875 48.1875 33.109375 48.1875 
Q 26.21875 48.1875 22.15625 43.53125 
Q 18.109375 38.875 18.109375 30.90625 
L 18.109375 0 
L 9.078125 0 
L 9.078125 54.6875 
L 18.109375 54.6875 
L 18.109375 46.1875 
Q 21.1875 51.21875 25.484375 53.609375 
Q 29.78125 56 35.6875 56 
Q 41.65625 56 45.828125 52.96875 
Q 50 49.953125 52 44.1875 
z
" id="DejaVuSans-109"/>
      <path d="M 10.59375 35.5 
L 73.1875 35.5 
L 73.1875 27.203125 
L 10.59375 27.203125 
z
" id="DejaVuSans-8722"/>
     </defs>
     <g style="fill:#ffffff;" transform="translate(23.7375 158.88)rotate(-90)scale(0.1 -0.1)">
      <use transform="translate(0 0.765625)" xlink:href="#DejaVuSans-49"/>
      <use transform="translate(63.623047 0.765625)" xlink:href="#DejaVuSans-48"/>
      <use transform="translate(128.203125 39.046875)scale(0.7)" xlink:href="#DejaVuSans-53"/>
      <use transform="translate(191.709309 0.765625)" xlink:href="#DejaVuSans-112"/>
      <use transform="translate(255.185872 0.765625)" xlink:href="#DejaVuSans-104"/>
      <use transform="translate(318.564778 0.765625)" xlink:href="#DejaVuSans-111"/>
      <use transform="translate(379.746418 0.765625)" xlink:href="#DejaVuSans-116"/>
      <use transform="translate(418.955403 0.765625)" xlink:href="#DejaVuSans-111"/>
      <use transform="translate(480.137043 0.765625)" xlink:href="#DejaVuSans-110"/>
      <use transform="translate(543.51595 0.765625)" xlink:href="#DejaVuSans-115"/>
      <use transform="translate(628.085938 0.765625)" xlink:href="#DejaVuSans-109"/>
      <use transform="translate(726.455078 39.046875)scale(0.7)" xlink:href="#DejaVuSans-8722"/>
      <use transform="translate(785.107422 39.046875)scale(0.7)" xlink:href="#DejaVuSans-50"/>
      <use transform="translate(848.613606 0.765625)" xlink:href="#DejaVuSans-115"/>
      <use transform="translate(901.670247 39.046875)scale(0.7)" xlink:href="#DejaVuSans-8722"/>
      <use transform="translate(960.32259 39.046875)scale(0.7)" xlink:href="#DejaVuSans-49"/>
      <use transform="translate(1023.828774 0.765625)" xlink:href="#DejaVuSans-84"/>
      <use transform="translate(1084.912759 0.765625)" xlink:href="#DejaVuSans-72"/>
      <use transform="translate(1160.108071 0.765625)" xlink:href="#DejaVuSans-122"/>
      <use transform="translate(1213.555337 39.046875)scale(0.7)" xlink:href="#DejaVuSans-8722"/>
      <use transform="translate(1272.207681 39.046875)scale(0.7)" xlink:href="#DejaVuSans-49"/>
     </g>
    </g>
   </g>
   <g id="line2d_41">
    <path clip-path="url(#pc6c2845719)" d="M 433 177.072559 
L 426.745795 177.054025 
L 414.78613 176.994063 
L 412.483022 177.04178 
L 409.982275 176.986961 
L 409.081278 176.948873 
L 406.404653 176.994474 
L 390.726508 176.982555 
L 389.31325 177.008481 
L 386.520937 177.040098 
L 384.94551 177.021123 
L 382.416073 177.0217 
L 379.733677 176.930424 
L 377.093437 176.990907 
L 373.942743 176.961302 
L 371.93561 177.023054 
L 364.318569 176.95736 
L 361.064592 176.74952 
L 360.72594 176.788797 
L 360.219268 176.644209 
L 359.546245 176.800182 
L 359.210818 176.640447 
L 358.042392 176.920738 
L 357.5443 176.786398 
L 356.882634 176.852801 
L 355.404057 176.745825 
L 354.9143 176.76773 
L 354.263705 176.854426 
L 353.93944 176.683838 
L 353.292904 176.251944 
L 352.970658 176.202559 
L 352.809772 176.114449 
L 352.007955 176.378653 
L 350.892346 176.181579 
L 350.416716 176.308106 
L 349.627286 176.26646 
L 349.312638 176.259576 
L 348.998663 176.167253 
L 348.685332 176.308197 
L 347.593697 176.269571 
L 347.283264 176.290058 
L 346.973436 176.258342 
L 346.664266 176.339273 
L 345.740522 176.081177 
L 345.280756 176.220802 
L 344.669957 176.301088 
L 343.758377 176.510169 
L 343.153714 176.312565 
L 343.002941 176.195566 
L 342.70185 176.310287 
L 342.101479 176.597818 
L 340.759459 176.665124 
L 340.462881 176.42383 
L 340.166895 176.572483 
L 340.019135 176.504246 
L 339.724031 176.188806 
L 339.429539 176.310353 
L 338.988871 176.196061 
L 338.695837 176.235334 
L 338.111533 176.179237 
L 337.384414 176.513211 
L 336.660872 176.651586 
L 336.084632 176.83212 
L 335.797372 176.828684 
L 335.367538 176.841459 
L 334.653972 176.663327 
L 333.237347 176.05811 
L 332.394022 175.855998 
L 331.974196 175.888602 
L 331.695014 175.988931 
L 331.555612 175.858228 
L 331.138265 175.985885 
L 330.307184 176.691667 
L 330.031238 176.781927 
L 329.480935 176.219647 
L 329.206599 175.927723 
L 328.659477 175.79066 
L 328.523042 175.867468 
L 328.386737 175.804041 
L 328.114493 175.510733 
L 327.707112 175.767089 
L 327.436188 176.01487 
L 327.165779 176.380519 
L 326.626526 175.517839 
L 325.95535 175.363222 
L 325.687798 175.022014 
L 325.554188 174.971604 
L 325.287394 174.695243 
L 325.154186 174.721392 
L 325.021103 174.554793 
L 324.225264 174.698277 
L 324.093057 174.615782 
L 323.829039 174.849282 
L 323.565517 174.890918 
L 323.302513 174.813712 
L 322.908907 175.184904 
L 322.647133 175.243062 
L 322.385848 174.613303 
L 322.125075 174.643288 
L 321.994859 174.836744 
L 321.864788 175.245133 
L 321.734816 175.286043 
L 321.34567 174.931023 
L 321.086835 174.872176 
L 320.95761 174.979804 
L 320.828505 175.326773 
L 320.699519 175.347036 
L 320.441908 174.674086 
L 320.184775 174.910111 
L 320.056387 174.767638 
L 319.928118 174.805911 
L 319.799991 174.62374 
L 319.544069 174.629558 
L 319.416274 174.611482 
L 319.288621 174.848162 
L 319.033644 175.539019 
L 318.906343 175.36377 
L 318.77916 175.405125 
L 318.398314 175.094406 
L 318.145001 174.416926 
L 318.018519 174.279186 
L 317.387897 175.647032 
L 317.136462 175.21167 
L 316.88551 174.511923 
L 316.760206 174.564632 
L 316.509943 175.145677 
L 316.260137 174.684538 
L 316.135405 174.900184 
L 315.886306 175.658798 
L 315.761915 175.59731 
L 315.513496 174.933643 
L 315.26553 175.320049 
L 314.894459 174.783049 
L 314.64764 174.742042 
L 314.524399 174.86407 
L 314.155345 175.751049 
L 314.032572 175.48724 
L 313.787316 174.864489 
L 313.664877 174.850223 
L 313.420308 174.100794 
L 313.176202 174.239856 
L 312.932537 173.882519 
L 312.81087 173.982455 
L 312.567864 174.706464 
L 312.325295 174.536036 
L 312.204197 174.557763 
L 311.962304 174.036835 
L 311.720846 174.338031 
L 311.60029 174.355514 
L 311.359482 173.788719 
L 311.239251 173.876878 
L 310.759422 175.107637 
L 310.639728 174.674769 
L 310.050401 174.391156 
L 309.811707 174.103417 
L 308.388443 174.150636 
L 308.152691 174.519143 
L 307.917379 174.675013 
L 307.447965 174.735708 
L 307.213902 174.74315 
L 306.746977 173.52477 
L 306.514133 173.321905 
L 306.049677 173.46008 
L 305.586837 173.983252 
L 304.208044 173.532874 
L 303.751641 173.755185 
L 303.524038 174.170523 
L 303.070021 173.49596 
L 302.617586 173.917468 
L 302.166723 174.29707 
L 301.717405 173.594633 
L 301.269643 172.993094 
L 301.046333 172.995614 
L 300.600871 173.981042 
L 300.378737 173.906486 
L 299.935576 173.293167 
L 299.493941 173.6956 
L 298.83431 172.80404 
L 298.615193 172.626995 
L 298.396432 172.965475 
L 298.178065 173.550394 
L 297.960052 173.738926 
L 297.525162 173.028727 
L 297.308263 173.114479 
L 296.659801 173.729839 
L 296.444376 173.486473 
L 296.229297 173.503192 
L 295.586304 172.818948 
L 295.372699 172.71092 
L 295.159436 172.89404 
L 294.946552 172.683977 
L 294.310035 171.580111 
L 293.887451 171.82285 
L 293.676692 171.590515 
L 293.466305 171.754353 
L 293.046553 171.767408 
L 292.21126 172.067178 
L 291.795685 171.025145 
L 291.588427 170.856941 
L 291.174927 170.898956 
L 290.762802 171.77493 
L 290.557262 171.441269 
L 290.352044 171.376466 
L 290.147167 171.519993 
L 289.942647 171.321643 
L 289.738448 171.44255 
L 289.534587 171.715337 
L 289.331062 171.495689 
L 288.7225 171.6357 
L 288.520315 171.952752 
L 288.116941 171.46179 
L 287.915751 171.258032 
L 287.514343 171.555836 
L 287.314142 171.078233 
L 287.11425 171.096202 
L 286.715466 172.59402 
L 286.516571 171.730574 
L 286.317983 171.770565 
L 286.119736 172.315975 
L 285.921796 172.254617 
L 285.724177 171.457734 
L 285.52688 171.29282 
L 285.329904 171.833611 
L 284.936927 171.335165 
L 284.740909 171.206262 
L 284.545207 171.373953 
L 284.349806 171.372617 
L 283.959985 170.24334 
L 282.990907 171.433481 
L 282.798013 171.264249 
L 282.605446 170.681975 
L 282.413172 170.6377 
L 282.221223 170.853342 
L 282.029565 170.679217 
L 281.838231 170.238484 
L 281.266013 171.357436 
L 281.0759 172.397791 
L 280.886073 172.368725 
L 280.507328 171.022967 
L 280.129788 170.657177 
L 279.941468 170.847189 
L 279.753447 171.290974 
L 279.191155 170.473097 
L 279.004323 170.493626 
L 278.631546 171.484923 
L 278.445583 170.758683 
L 278.25993 170.54011 
L 278.074553 170.666912 
L 277.889484 170.540621 
L 277.520205 171.194635 
L 277.335992 170.987681 
L 276.785121 169.561309 
L 276.602062 169.735243 
L 276.054619 170.529113 
L 275.872703 169.819531 
L 275.69107 170.153803 
L 275.509721 170.950189 
L 275.328655 170.857335 
L 274.787146 169.598621 
L 274.427542 169.190153 
L 274.248158 169.211649 
L 274.069052 168.917221 
L 273.711657 168.946861 
L 273.355382 169.61144 
L 273.177657 169.62636 
L 273.000191 169.361069 
L 272.469463 171.409484 
L 272.116999 170.467169 
L 271.941181 170.705971 
L 271.765617 171.710603 
L 271.590338 171.866032 
L 271.415312 171.868851 
L 270.891856 169.318607 
L 270.717914 168.761099 
L 270.544222 168.707033 
L 270.02475 170.6327 
L 269.852114 170.468445 
L 269.679741 170.035919 
L 269.507631 169.95234 
L 269.335781 170.782123 
L 268.82181 168.370089 
L 268.480449 170.241047 
L 267.970339 168.504958 
L 267.631532 169.75785 
L 267.462519 169.659156 
L 267.125256 167.800595 
L 266.789005 167.172089 
L 266.286503 167.803374 
L 265.952765 167.636615 
L 265.786255 167.829345 
L 265.620009 168.574385 
L 265.454011 168.382121 
L 265.288245 168.4288 
L 265.122742 168.666864 
L 264.792459 167.188978 
L 264.627693 167.145868 
L 264.463158 166.792161 
L 264.298882 166.918809 
L 263.971045 168.994724 
L 263.807483 168.452325 
L 263.481101 166.563738 
L 263.155683 169.77613 
L 262.993342 169.080968 
L 262.831225 167.884906 
L 262.669362 168.065198 
L 262.507723 168.97807 
L 262.346322 170.722612 
L 262.185173 170.458391 
L 262.024246 168.809768 
L 261.863555 168.688095 
L 261.542896 170.660248 
L 261.063658 167.199654 
L 260.904375 168.638979 
L 260.745339 168.083286 
L 260.58652 168.105533 
L 260.427934 167.945241 
L 260.269578 167.383986 
L 259.953573 165.801066 
L 259.638472 164.86029 
L 259.481279 164.997835 
L 259.16755 167.039471 
L 259.011026 167.120051 
L 258.698672 168.213671 
L 258.542826 167.382038 
L 258.387207 165.818433 
L 258.231811 165.675219 
L 257.921693 165.800175 
L 257.612482 168.312021 
L 257.304147 169.030939 
L 256.996697 170.501277 
L 256.843303 170.428488 
L 256.690142 170.842841 
L 256.384452 170.523005 
L 255.927554 166.440593 
L 255.624042 166.482032 
L 255.170408 168.186161 
L 254.869052 166.217062 
L 254.718694 166.714285 
L 254.568551 167.620884 
L 254.41862 166.935638 
L 254.268901 167.03651 
L 253.672158 168.28282 
L 253.375043 166.220416 
L 253.2268 165.705727 
L 253.078779 165.715722 
L 252.783337 166.459456 
L 252.341728 164.335537 
L 252.048368 165.428093 
L 251.464085 170.748433 
L 251.318537 172.404557 
L 251.17318 172.497463 
L 250.593789 166.356122 
L 250.305296 164.675705 
L 250.161363 164.625348 
L 249.874071 165.696617 
L 249.444638 171.624167 
L 249.301886 170.871211 
L 248.732873 163.105245 
L 248.16698 161.049528 
L 247.885207 161.112934 
L 247.744617 160.563254 
L 247.604208 160.806134 
L 247.464003 161.559142 
L 247.184159 159.928987 
L 246.905079 159.938858 
L 246.626763 159.551667 
L 246.487896 159.441774 
L 246.349206 159.604461 
L 246.210717 160.871834 
L 246.072405 161.001154 
L 245.79637 159.057578 
L 245.658622 159.780471 
L 245.521073 161.667823 
L 245.109533 159.652757 
L 244.972729 160.282918 
L 244.699676 160.34305 
L 244.563427 161.463275 
L 244.291468 160.01378 
L 244.15577 160.61337 
L 244.020255 160.283022 
L 243.884922 160.789803 
L 243.614804 159.00779 
L 243.480017 158.698777 
L 243.345411 157.80466 
L 243.210987 157.996279 
L 242.94269 159.792828 
L 242.6751 161.993087 
L 242.408227 159.00609 
L 242.009252 157.314584 
L 241.876639 157.787824 
L 241.611896 157.711754 
L 241.347858 158.462328 
L 241.216102 158.534241 
L 240.953139 156.978375 
L 240.821908 157.198096 
L 240.69085 158.625084 
L 240.429279 157.413972 
L 240.298742 157.549183 
L 240.1684 158.266533 
L 239.908187 157.034203 
L 239.778362 156.408693 
L 239.648684 156.540124 
L 239.260699 158.718777 
L 239.0029 157.624505 
L 238.745779 157.960231 
L 238.617482 158.41026 
L 238.361371 156.862894 
L 238.10593 158.73848 
L 237.978449 158.555409 
L 237.59705 156.203678 
L 237.470256 156.144561 
L 237.217141 156.888523 
L 237.090842 156.78587 
L 236.838714 160.337164 
L 236.587264 157.106938 
L 236.461761 157.406424 
L 236.336443 158.084028 
L 235.961463 156.746619 
L 235.712284 158.13901 
L 235.587914 157.335767 
L 235.463726 157.280253 
L 235.339699 157.716717 
L 235.215832 157.371576 
L 235.092124 156.363393 
L 234.968576 156.590367 
L 234.721955 159.519778 
L 234.47599 156.869179 
L 233.985908 159.157315 
L 233.741807 158.793455 
L 233.376846 162.237736 
L 233.255518 162.174513 
L 233.134322 162.782272 
L 233.013281 161.515262 
L 232.651103 154.482443 
L 232.410425 158.619798 
L 232.050564 154.600605 
L 231.930899 155.763535 
L 231.692047 159.377924 
L 231.453819 155.091675 
L 231.33491 154.619711 
L 231.216172 156.056743 
L 230.860834 153.58775 
L 230.742693 153.106472 
L 230.624701 153.170491 
L 230.271594 155.108944 
L 230.154194 154.588381 
L 230.036941 154.70734 
L 229.802876 157.466689 
L 229.569397 154.831819 
L 229.336501 153.820184 
L 229.220271 153.71709 
L 228.988247 155.410822 
L 228.641313 152.187873 
L 228.52595 153.279844 
L 228.295674 151.575262 
L 228.18074 152.156987 
L 227.95132 151.722099 
L 227.836813 151.94769 
L 227.722469 152.597552 
L 227.494183 151.33347 
L 227.380242 151.407075 
L 227.266462 150.969335 
L 227.152823 151.114881 
L 226.925944 152.468411 
L 226.812704 153.232795 
L 226.586683 152.464302 
L 226.361198 151.208148 
L 226.248673 150.985984 
L 226.024038 149.449716 
L 225.911927 149.723939 
L 225.799953 150.965751 
L 225.576417 149.479298 
L 225.464854 150.183434 
L 225.353428 149.662768 
L 225.242137 149.908112 
L 224.798352 147.636669 
L 224.687739 147.701366 
L 224.57726 147.935429 
L 224.466916 148.598396 
L 224.356726 148.571478 
L 224.246649 148.342913 
L 224.026917 149.961137 
L 223.917242 151.056021 
L 223.698308 150.420245 
L 223.37091 148.480178 
L 223.044698 149.68517 
L 222.827891 149.019789 
L 222.611588 147.420385 
L 222.395823 147.960994 
L 222.288136 147.482 
L 222.180578 147.686552 
L 222.073148 147.068116 
L 221.965848 147.229277 
L 221.751652 148.797668 
L 221.53795 147.644648 
L 221.218374 147.946233 
L 221.005945 147.53698 
L 220.68829 146.582132 
L 220.582644 146.648647 
L 220.477143 146.498742 
L 220.371748 146.677189 
L 220.161372 146.182556 
L 219.951476 145.983907 
L 219.742096 146.383526 
L 219.637592 146.78685 
L 219.533193 146.464135 
L 219.428936 146.634434 
L 219.324802 147.368312 
L 218.909513 145.97312 
L 218.805992 145.619245 
L 218.49616 147.921553 
L 218.29023 146.103893 
L 218.187437 145.74933 
L 217.982231 146.176225 
L 217.879818 146.053162 
L 217.675333 145.673619 
L 217.573279 145.674807 
L 217.471326 145.259474 
L 217.166217 147.01525 
L 216.761088 145.425217 
L 216.55923 143.954226 
L 216.458477 144.096611 
L 216.156919 145.419604 
L 215.956481 144.926571 
L 215.556995 143.641733 
L 215.457404 143.809102 
L 215.258583 144.725768 
L 215.159353 144.25886 
L 214.961219 144.826205 
L 214.862332 144.654261 
L 214.566335 143.064368 
L 214.467902 142.804891 
L 214.271375 143.533107 
L 214.075298 143.961501 
L 213.782042 142.665024 
L 213.587102 142.989057 
L 213.39259 143.16187 
L 213.198538 142.444349 
L 213.101687 142.1297 
L 212.715349 142.661105 
L 212.522855 142.797968 
L 212.426772 142.79206 
L 212.234933 143.230283 
L 212.043528 142.907702 
L 211.947988 143.118218 
L 211.852556 143.651819 
L 211.471923 149.762865 
L 211.282258 145.551392 
L 211.187594 146.293919 
L 210.809969 142.913949 
L 210.527871 144.613954 
L 210.246738 141.550511 
L 210.153236 141.700264 
L 210.05984 142.090373 
L 209.966547 141.859527 
L 209.873376 142.486026 
L 209.780292 142.423138 
L 209.687312 142.183677 
L 209.50168 145.134846 
L 209.223998 141.260798 
L 208.947258 142.514272 
L 208.855221 142.337113 
L 208.579708 140.111232 
L 208.48808 140.347799 
L 208.213818 142.192584 
L 208.031472 140.349419 
L 207.940449 140.87336 
L 207.849544 140.705297 
L 207.668001 139.996742 
L 207.486874 141.920562 
L 207.396468 142.882445 
L 207.035821 140.335141 
L 206.94591 140.535737 
L 206.67677 142.458702 
L 206.497835 141.553214 
L 206.408514 142.29388 
L 206.319291 142.158833 
L 205.78604 139.42746 
L 205.520728 142.152017 
L 205.344328 139.229054 
L 205.25628 139.783034 
L 205.168327 139.583959 
L 204.992708 138.086653 
L 204.905057 138.044109 
L 204.642625 139.305619 
L 204.468159 139.284476 
L 204.381075 139.490397 
L 204.29407 140.565189 
L 204.207174 140.235168 
L 203.947031 137.836168 
L 203.860509 137.695172 
L 203.687744 138.662813 
L 203.6015 138.636997 
L 203.51535 138.448519 
L 203.343325 139.477209 
L 203.085996 137.076071 
L 202.829491 139.391765 
L 202.573824 138.796556 
L 202.403843 140.206032 
L 201.896086 138.127397 
L 201.811772 138.073513 
L 201.727547 138.860982 
L 201.391572 145.39501 
L 201.224132 139.572491 
L 201.057032 142.568794 
L 200.557904 137.549296 
L 200.392224 139.381166 
L 200.30953 138.724336 
L 200.144386 136.868779 
L 200.061938 137.702464 
L 199.897329 136.428966 
L 199.733065 139.65358 
L 199.487315 136.578121 
L 199.323909 135.028218 
L 198.998136 136.029481 
L 198.916915 135.822812 
L 198.83578 134.863141 
L 198.512067 140.738803 
L 198.189712 135.523027 
L 198.109332 136.164726 
L 197.868707 133.436615 
L 197.628842 135.530011 
L 197.310181 132.855486 
L 197.230725 133.070467 
L 196.992848 134.113231 
L 196.755718 137.283269 
L 196.598042 133.944551 
L 196.519332 134.059424 
L 196.440689 135.163267 
L 196.283673 134.183045 
L 196.205285 134.025755 
L 195.970604 131.999397 
L 195.892537 132.155827 
L 195.581078 135.38717 
L 195.425831 132.43053 
L 195.348333 132.705144 
L 195.19356 133.113703 
L 195.116299 132.588234 
L 194.808036 134.500674 
L 194.73118 134.169856 
L 194.577673 135.173109 
L 194.271631 132.608443 
L 194.195304 132.394451 
L 193.890818 132.964761 
L 193.814889 132.897947 
L 193.663272 130.937523 
L 193.587572 131.195176 
L 193.436412 132.451787 
L 193.34168 131.591234 
L 193.207658 131.534754 
L 193.073862 131.027438 
L 192.940317 131.765419 
L 192.806997 131.132779 
L 192.541068 131.884766 
L 192.143929 130.418604 
L 191.880336 130.840711 
L 191.617662 130.662346 
L 191.355914 129.91308 
L 191.225386 130.742998 
L 190.835152 129.616665 
L 190.70554 129.121888 
L 190.060812 130.365608 
L 189.932543 130.200796 
L 189.804484 130.239511 
L 189.676661 131.317278 
L 189.294502 129.965406 
L 189.167554 128.776921 
L 189.040826 128.688298 
L 188.914306 129.201357 
L 188.788018 129.108867 
L 188.661948 129.198145 
L 188.536084 128.207213 
L 188.41045 128.167004 
L 188.28502 128.489859 
L 188.159807 128.118176 
L 188.03481 128.133439 
L 187.910029 128.520377 
L 187.785462 128.533973 
L 187.413033 126.89301 
L 187.165806 127.640225 
L 186.796546 127.248171 
L 186.551403 128.432605 
L 186.185259 125.387107 
L 186.06363 125.378374 
L 185.942196 125.53768 
L 185.699959 125.134397 
L 185.45853 125.735306 
L 185.33811 125.604595 
L 185.217906 125.742549 
L 185.097905 124.888756 
L 184.858498 124.94509 
L 184.739091 125.682468 
L 184.619886 125.707042 
L 184.263483 124.319574 
L 184.145065 124.408006 
L 184.026857 124.245399 
L 183.908848 124.605477 
L 183.67341 123.445517 
L 183.55598 123.428905 
L 183.438746 123.597483 
L 183.32172 123.364589 
L 183.204877 123.393423 
L 182.855504 124.199516 
L 182.623563 123.078396 
L 182.50787 123.132187 
L 182.39238 123.324358 
L 182.27707 124.251155 
L 182.16195 126.838941 
L 182.047021 126.780221 
L 181.703373 122.659318 
L 181.589201 122.733468 
L 181.2478 122.242618 
L 181.134367 122.138785 
L 181.021119 121.740697 
L 180.908058 122.160063 
L 180.569994 121.573755 
L 180.345521 121.034226 
L 180.121779 121.928707 
L 179.67648 121.061937 
L 179.344385 121.344527 
L 179.234045 121.360565 
L 179.123874 121.977224 
L 178.794448 120.067522 
L 178.684998 119.701904 
L 178.466605 119.801671 
L 178.248926 120.072932 
L 178.140332 120.090688 
L 177.92369 119.361964 
L 177.707743 119.695779 
L 177.600018 119.689952 
L 177.492476 120.158119 
L 177.385095 120.007499 
L 177.277886 120.353118 
L 177.170858 119.523388 
L 177.063991 119.918888 
L 176.957294 119.888393 
L 176.850767 120.043861 
L 176.638222 119.714721 
L 176.532192 120.339681 
L 176.215131 119.591316 
L 176.109772 120.0066 
L 176.00459 121.086648 
L 175.794704 119.679311 
L 175.585481 118.487155 
L 175.481116 118.391354 
L 175.376916 118.715426 
L 175.168998 117.619306 
L 175.065289 117.377314 
L 174.961743 117.655379 
L 174.858349 118.335768 
L 174.652057 118.004913 
L 174.549148 118.369529 
L 174.446401 117.775601 
L 174.241387 118.621879 
L 174.13912 118.366242 
L 174.037012 118.629339 
L 173.63015 116.392272 
L 173.528834 116.543363 
L 173.326654 116.039288 
L 173.22581 116.000396 
L 173.024568 116.971674 
L 172.924181 116.491828 
L 172.723871 117.278483 
L 172.623938 116.802403 
L 172.424554 117.316153 
L 172.225773 116.221632 
L 172.027603 115.47631 
L 171.830031 115.996254 
L 171.731472 115.774652 
L 171.534807 114.732004 
L 171.338742 114.405687 
L 171.143266 115.493445 
L 171.045756 115.511425 
L 170.948395 115.676076 
L 170.851172 115.564881 
L 170.560399 114.39136 
L 170.270948 115.144467 
L 170.174753 114.375598 
L 170.078704 114.691435 
L 169.9828 114.223403 
L 169.887031 114.478495 
L 169.410378 113.416082 
L 169.315481 113.70583 
L 169.126096 114.937024 
L 168.937289 112.691525 
L 168.843092 112.401245 
L 168.749037 112.790431 
L 168.467714 112.440608 
L 168.37421 112.462231 
L 168.280856 112.832646 
L 168.18764 113.701734 
L 167.908806 121.471297 
L 167.816144 119.643525 
L 167.538963 112.580052 
L 167.44684 112.107069 
L 167.354854 112.744145 
L 167.07971 111.308759 
L 166.805773 110.609121 
L 166.714733 110.43841 
L 166.533046 110.999762 
L 166.081153 109.733105 
L 165.991168 109.896083 
L 165.901315 110.300148 
L 165.811593 109.741559 
L 165.722002 109.90091 
L 165.632542 109.276447 
L 165.543212 109.393986 
L 165.454013 109.254732 
L 165.364944 109.963154 
L 165.276004 109.554348 
L 165.187185 109.696616 
L 165.098504 109.616651 
L 165.009952 110.257178 
L 164.921519 110.022244 
L 164.745048 108.955061 
L 164.657008 108.91805 
L 164.569087 109.076532 
L 164.481293 109.624365 
L 164.393627 108.901962 
L 164.306095 108.919263 
L 164.218681 109.027712 
L 163.957195 107.939389 
L 163.78349 108.123477 
L 163.696828 107.71165 
L 163.610292 108.015733 
L 163.437582 107.634645 
L 163.351417 107.846007 
L 163.265375 107.802604 
L 163.093653 107.430385 
L 163.007971 107.822027 
L 162.922412 107.712098 
L 162.751668 108.017402 
L 162.581403 107.665951 
L 162.496451 107.710016 
L 162.411621 107.349154 
L 162.326911 106.43002 
L 162.157852 107.118916 
L 161.653534 106.031 
L 161.56989 106.48485 
L 161.486371 106.358553 
L 161.31968 106.122431 
L 161.236506 106.191228 
L 161.153457 105.858991 
L 161.070517 105.924988 
L 160.987694 106.307008 
L 160.739928 105.172455 
L 160.575324 105.554594 
L 160.493195 106.410185 
L 160.247495 104.820287 
L 160.084266 105.884015 
L 159.921484 105.864303 
L 159.840267 105.792168 
L 159.759163 105.412247 
L 159.678163 105.644708 
L 159.435854 104.678148 
L 159.355303 104.566227 
L 159.274872 103.873251 
L 159.194544 104.139888 
L 158.954233 104.502471 
L 158.794581 103.759958 
L 158.635361 104.280836 
L 158.555915 103.668232 
L 158.476579 103.682852 
L 158.397351 103.509481 
L 158.318233 103.571878 
L 158.239223 103.736849 
L 158.160321 103.574713 
L 158.081528 103.68274 
L 158.002842 103.495016 
L 157.924256 103.662851 
L 157.767423 102.948103 
L 157.689167 103.501084 
L 157.532968 102.757788 
L 157.377194 103.439437 
L 157.29947 103.001559 
L 157.221844 103.096755 
L 157.066916 104.317857 
L 156.989606 103.477433 
L 156.912409 103.677793 
L 156.604641 102.53118 
L 156.527957 102.634707 
L 156.451377 102.773403 
L 156.298535 101.403034 
L 156.222264 101.936583 
L 156.146096 101.853591 
L 156.070031 101.843888 
L 155.994069 101.344213 
L 155.84245 101.599915 
L 155.766793 101.56408 
L 155.691238 101.205444 
L 155.540424 102.403856 
L 155.465172 102.233932 
L 155.314971 101.185547 
L 155.240013 101.348193 
L 155.090413 100.798641 
L 155.015755 100.487133 
L 154.941205 100.635454 
L 154.866753 100.557974 
L 154.792394 99.802764 
L 154.71814 99.915894 
L 154.569923 100.433508 
L 154.495958 100.312664 
L 154.422098 99.696431 
L 154.348329 100.010241 
L 154.274666 99.876943 
L 154.127616 100.470481 
L 154.054245 100.407666 
L 153.980963 101.102993 
L 153.907778 100.792881 
L 153.761705 100.748232 
L 153.688809 100.781825 
L 153.61601 101.017624 
L 153.543306 100.619647 
L 153.470705 100.885796 
L 153.253453 99.040952 
L 153.109093 99.73025 
L 152.965112 98.947708 
L 152.893262 99.045859 
L 152.678277 98.192308 
L 152.392938 99.240189 
L 152.250819 98.67041 
L 152.179901 99.069381 
L 152.038342 97.943627 
L 151.967694 98.426501 
L 151.826685 97.708998 
L 151.686035 97.417089 
L 151.61585 96.988284 
L 151.475744 97.597787 
L 151.405831 97.119923 
L 151.266268 97.533961 
L 151.196624 97.089575 
L 151.127071 97.216813 
L 151.0576 97.336091 
L 150.918933 96.331624 
L 150.780622 97.020862 
L 150.711603 96.607914 
L 150.642665 97.105037 
L 150.299321 95.827869 
L 150.162596 96.498208 
L 150.026219 98.15699 
L 149.958158 97.973995 
L 149.822302 95.540973 
L 149.619161 96.065915 
L 149.551617 95.906773 
L 149.484165 96.065858 
L 149.416793 95.009931 
L 149.349505 95.474426 
L 149.28231 96.122102 
L 149.014357 94.359464 
L 148.880884 95.439685 
L 148.81428 95.341499 
L 148.681311 93.780779 
L 148.614959 93.987512 
L 148.482491 94.618128 
L 148.416382 94.381654 
L 148.350362 95.035876 
L 148.284419 94.618645 
L 148.021477 93.568072 
L 147.955945 93.469013 
L 147.825134 93.000051 
L 147.694642 93.752825 
L 147.629519 93.694063 
L 147.564483 93.113948 
L 147.499521 93.274294 
L 147.43464 93.205688 
L 147.240487 92.139725 
L 146.982737 92.813537 
L 146.918497 92.487953 
L 146.790256 91.37078 
L 146.726261 91.196681 
L 146.598495 92.220994 
L 146.534729 92.058712 
L 146.217093 93.757811 
L 145.964382 91.512684 
L 145.901397 91.784726 
L 145.838488 91.586721 
L 145.712909 90.418251 
L 145.587636 90.858432 
L 145.462663 91.62978 
L 145.213642 90.636863 
L 145.08958 91.404847 
L 145.027668 91.05949 
L 144.965825 90.534494 
L 144.904063 91.761812 
L 144.84237 91.126143 
L 144.657746 90.104092 
L 144.596357 90.360507 
L 144.535037 90.767313 
L 144.473797 90.413202 
L 144.351533 91.110216 
L 144.290508 90.57894 
L 144.229563 91.093849 
L 144.047156 89.308083 
L 143.986504 88.537914 
L 143.925919 88.958089 
L 143.744612 89.379722 
L 143.684323 89.270841 
L 143.624107 89.265904 
L 143.383949 88.384632 
L 143.204592 90.005929 
L 143.144943 90.199501 
L 143.085377 90.88898 
L 143.025871 90.316957 
L 142.907081 89.849834 
L 142.847786 90.113919 
L 142.788574 89.986676 
L 142.72942 89.831225 
L 142.670348 88.696076 
L 142.611335 89.125032 
L 142.552391 88.990919 
L 142.493529 88.177571 
L 142.434725 88.575001 
L 142.258754 87.452471 
L 142.200228 88.06993 
L 142.141782 87.99783 
L 142.025086 87.314353 
L 141.966847 87.339414 
L 141.850563 87.887216 
L 141.734553 87.264725 
L 141.618815 87.70871 
L 141.561054 87.626791 
L 141.445723 89.163403 
L 141.388164 88.774508 
L 141.273238 88.5223 
L 141.158593 87.273677 
L 141.101359 87.322678 
L 141.044203 87.466883 
L 140.816235 86.372694 
L 140.759411 86.446739 
L 140.645963 85.626715 
L 140.589338 85.934882 
L 140.532767 85.829878 
L 140.476273 85.917518 
L 140.250952 85.729343 
L 140.138682 86.840782 
L 139.91492 85.214399 
L 139.859141 85.417181 
L 139.803426 85.375189 
L 139.747776 84.803977 
L 139.581208 86.354316 
L 139.470482 91.002412 
L 139.304879 85.781368 
L 139.194787 86.650535 
L 138.975367 98.854967 
L 138.811462 86.762466 
L 138.648118 83.710874 
L 138.431198 83.616414 
L 138.377128 84.677956 
L 138.323108 84.51394 
L 138.26916 83.885477 
L 138.215263 84.153036 
L 138.107661 84.115158 
L 138.053958 83.833753 
L 138.000304 84.787316 
L 137.946721 84.239718 
L 137.8932 84.062571 
L 137.732985 91.157183 
L 137.679694 94.362154 
L 137.626473 93.162642 
L 137.46716 84.574357 
L 137.361256 83.644543 
L 137.202846 82.337415 
L 137.097524 82.640532 
L 136.992449 81.973448 
L 136.835276 82.944553 
L 136.783002 82.698765 
L 136.730787 83.61046 
L 136.678629 83.236793 
L 136.522516 82.171763 
L 136.470591 82.6618 
L 136.418723 81.621698 
L 136.315171 81.673324 
L 136.263476 83.053994 
L 136.211839 82.208672 
L 136.108745 82.686866 
L 135.852004 80.638786 
L 135.800822 80.771775 
L 135.698638 80.305095 
L 135.545788 81.751335 
L 135.494954 81.67119 
L 135.342776 80.007667 
L 135.292165 80.053193 
L 135.140655 80.855769 
L 134.939418 78.283339 
L 134.839135 80.212011 
L 134.789075 79.916007 
L 134.739071 80.060003 
L 134.68912 79.872002 
L 134.539596 78.448431 
L 134.489863 78.498276 
L 134.39057 79.308275 
L 134.340999 79.075401 
L 134.242019 78.520326 
L 134.044722 81.527283 
L 133.995527 81.179364 
L 133.799296 77.46267 
L 133.701498 77.550347 
L 133.506545 78.596816 
L 133.409377 76.723323 
L 133.360877 77.793435 
L 133.215679 79.970731 
L 133.167387 79.030517 
L 132.974734 77.708482 
L 132.9267 78.177679 
L 132.878717 77.71149 
L 132.830786 76.520843 
L 132.735086 76.653359 
L 132.591904 75.184756 
L 132.639581 76.664172 
L 132.544288 75.223678 
L 132.354302 77.174481 
L 132.259616 75.702356 
L 132.165131 75.890339 
L 131.976762 79.116893 
L 131.929799 78.842226 
L 131.882886 79.353465 
L 131.789198 77.863519 
L 131.742433 78.663986 
L 131.695718 78.571934 
L 131.138961 74.382602 
L 131.046856 75.783606 
L 131.000871 75.583365 
L 130.909056 74.590824 
L 130.863215 74.709519 
L 130.817432 75.059611 
L 130.771687 74.916094 
L 130.634757 74.435162 
L 130.589211 74.307733 
L 130.543714 74.662508 
L 130.498263 74.552368 
L 130.452851 74.475539 
L 130.362186 73.611042 
L 130.316924 74.161938 
L 130.226542 75.538877 
L 130.181421 75.456483 
L 130.091319 77.090822 
L 129.956524 74.078357 
L 129.911683 74.377309 
L 129.643622 73.49573 
L 129.465839 72.232335 
L 129.421512 73.271991 
L 129.332995 73.168252 
L 129.288795 73.129639 
L 129.20055 72.591427 
L 129.024601 74.322375 
L 128.980726 73.980227 
L 128.893111 75.820714 
L 128.84937 75.20689 
L 128.718425 72.709348 
L 128.631353 73.145075 
L 128.45774 72.347678 
L 128.414451 73.414632 
L 128.371198 73.408996 
L 128.327997 71.257164 
L 128.241718 71.673344 
L 128.155623 71.596409 
L 128.026805 72.930408 
L 127.855656 71.173906 
L 127.812976 71.297045 
L 127.770348 71.997994 
L 127.727755 71.527085 
L 127.557825 69.789368 
L 127.430822 71.435544 
L 127.304209 71.004098 
L 127.262091 71.525411 
L 127.220017 71.226566 
L 127.177984 71.142326 
L 127.052129 70.354304 
L 127.010272 70.429545 
L 126.801573 68.538078 
L 126.759966 69.743291 
L 126.676868 69.574705 
L 126.635376 69.242477 
L 126.511166 70.675608 
L 126.304967 69.089736 
L 126.222779 69.05905 
L 126.181746 67.832067 
L 126.140753 69.718925 
L 126.099801 69.491597 
L 126.018019 67.631297 
L 125.977196 68.514458 
L 125.936405 68.500481 
L 125.895655 68.330035 
L 125.854953 68.414537 
L 125.814283 68.519217 
L 125.73307 69.390817 
L 125.652017 68.202968 
L 125.611554 68.725503 
L 125.571131 69.002026 
L 125.53074 67.919504 
L 125.450092 68.693287 
L 125.289268 67.463822 
L 125.209092 67.865172 
L 125.129081 68.522033 
L 125.009352 65.747463 
L 124.889972 67.138756 
L 124.850262 66.978211 
L 124.691797 69.385367 
L 124.652279 70.940723 
L 124.573358 70.302425 
L 124.415973 68.108151 
L 124.376722 68.726768 
L 124.337516 68.071679 
L 124.259203 65.581132 
L 124.220112 66.898923 
L 124.142033 65.524403 
L 124.103046 65.676881 
L 123.959992 66.52243 
L 123.879268 66.697015 
L 123.798628 66.609605 
L 123.637599 65.769858 
L 123.557195 65.894998 
L 123.476882 66.236441 
L 122.916902 64.759037 
L 122.837228 64.74115 
L 122.757629 64.940806 
L 122.678114 64.906022 
L 122.598675 64.719526 
L 122.51932 64.87009 
L 122.360838 65.522802 
L 121.730079 63.594987 
L 121.65159 63.457383 
L 121.573178 63.516377 
L 121.416589 64.438364 
L 121.182294 62.823362 
L 121.026481 62.564496 
L 120.87098 62.74909 
L 120.715791 62.071723 
L 120.638321 62.195225 
L 120.483596 63.622722 
L 120.32919 62.917229 
L 120.098145 61.401871 
L 119.867793 62.761625 
L 119.791169 64.429083 
L 119.714613 64.310418 
L 119.561738 61.87779 
L 119.485418 62.30634 
L 119.409167 62.119619 
L 119.332993 62.186331 
L 119.18088 60.742323 
L 119.104941 61.552875 
L 119.029078 61.509556 
L 118.953284 60.813545 
L 118.801926 62.282732 
L 118.726368 61.866401 
L 118.650873 60.718038 
L 118.57546 60.848257 
L 118.500124 62.388336 
L 118.424864 62.260351 
L 118.274559 60.281304 
L 118.19952 60.464445 
L 117.974862 65.092494 
L 117.825465 61.532648 
L 117.750877 61.515717 
L 117.601923 58.999482 
L 117.527557 59.295852 
L 117.453273 59.604142 
L 117.230847 57.985597 
L 116.935316 57.427879 
L 116.787992 58.094202 
L 116.714437 57.965296 
L 116.494223 57.01023 
L 116.420966 57.192291 
L 116.347779 58.147459 
L 116.274668 58.028707 
L 116.055772 56.262652 
L 115.910209 57.743579 
L 115.764932 56.586789 
L 115.692404 57.164908 
L 115.619952 57.124807 
L 115.258763 55.295208 
L 115.186736 55.531482 
L 114.971098 56.868086 
L 114.613137 54.171737 
L 114.541762 54.19421 
L 114.399223 55.102377 
L 114.044114 53.039997 
L 113.973304 53.162828 
L 113.8319 54.699285 
L 113.690781 55.662002 
L 113.479621 54.017032 
L 113.269101 53.127112 
L 113.199065 53.473512 
L 112.989383 51.661336 
L 112.849947 53.312087 
L 112.78033 53.204002 
L 112.502568 51.320824 
L 112.364098 53.717149 
L 112.225907 51.076716 
L 112.156913 51.193185 
L 112.019147 52.969242 
L 111.812993 49.920148 
L 111.744418 50.009222 
L 111.607467 50.971783 
L 111.470784 53.595415 
L 111.33438 50.036028 
L 111.266283 50.73531 
L 111.19825 51.529824 
L 111.062388 49.078101 
L 110.994559 49.538611 
L 110.859105 50.920766 
L 110.79148 50.725631 
L 110.589012 48.027587 
L 110.521655 47.752326 
L 110.454368 47.891837 
L 110.387145 48.146188 
L 110.319992 48.04504 
L 110.18589 47.590386 
L 110.118935 47.563903 
L 110.05205 47.275875 
L 109.985235 47.313784 
L 109.918479 48.042501 
L 109.851792 47.905431 
L 109.652141 46.72125 
L 109.519369 46.525933 
L 109.386865 45.921927 
L 109.32071 45.947644 
L 109.254619 46.421348 
L 109.188598 46.408566 
L 109.122646 46.398351 
L 109.056759 47.023997 
L 108.662795 44.818514 
L 108.532003 45.14422 
L 108.466706 44.935862 
L 108.401468 45.006907 
L 108.336301 45.152799 
L 108.271197 45.080886 
L 107.817288 43.914082 
L 107.752706 44.241015 
L 107.366549 42.831198 
L 107.302417 42.761414 
L 107.238345 43.076583 
L 107.174338 44.351971 
L 107.046517 52.719734 
L 106.982708 49.794548 
L 106.791648 42.641332 
L 106.728082 42.525056 
L 106.664585 42.898368 
L 106.601158 42.701361 
L 106.411239 41.283771 
L 106.158896 40.737888 
L 105.970301 41.777678 
L 105.782278 40.089201 
L 105.407904 41.383516 
L 105.159571 39.084733 
L 105.03578 38.626661 
L 104.973971 38.733503 
L 104.788928 40.449947 
L 104.727368 40.110625 
L 104.60444 39.446903 
L 104.420505 37.827272 
L 104.298185 38.477113 
L 104.115166 37.28997 
L 103.932693 36.783513 
L 103.811349 37.488442 
L 103.690248 36.378096 
L 103.569387 37.603128 
L 103.50905 37.370285 
L 103.328391 36.238961 
L 103.208257 36.91689 
L 103.14828 36.22089 
L 103.088358 36.226111 
L 102.968707 36.92498 
L 102.908961 36.719236 
L 102.611165 34.885675 
L 102.492464 34.458504 
L 102.373997 34.78055 
L 102.137774 34.020474 
L 102.078866 34.127915 
L 101.961225 33.257408 
L 101.902492 33.348964 
L 101.843819 33.295324 
L 101.785206 32.905038 
L 101.726649 33.04272 
L 101.668152 33.990785 
L 101.609714 33.88423 
L 101.376541 32.682916 
L 101.318395 32.67868 
L 101.260304 32.540216 
L 101.144302 33.841032 
L 100.970727 31.516969 
L 100.912987 31.329528 
L 100.74011 32.962058 
L 100.682597 32.641002 
L 100.567743 31.277206 
L 100.510405 31.74394 
L 100.453128 32.302814 
L 100.224571 29.72277 
L 100.167577 29.529815 
L 100.110638 29.865492 
L 99.996928 32.583268 
L 99.940161 31.896561 
L 99.770198 29.811292 
L 99.713655 29.95294 
L 99.600742 30.701175 
L 99.544366 30.255551 
L 99.488053 30.616125 
L 99.431793 30.87569 
L 99.263346 27.954578 
L 99.207313 28.325808 
L 99.09541 29.009705 
L 99.03954 28.875639 
L 98.92798 28.06686 
L 98.761042 29.389951 
L 98.318329 26.609033 
L 98.208203 29.164601 
L 98.153221 27.797405 
L 98.043423 25.642294 
L 97.988608 25.801072 
L 97.879141 26.872982 
L 97.769895 26.00829 
L 97.606429 32.590701 
L 97.55205 29.900604 
L 97.389238 24.385045 
L 97.280968 25.13467 
L 97.172914 24.819985 
L 97.065077 24.297932 
L 97.011242 24.801766 
L 96.957456 24.6622 
L 96.796423 23.331126 
L 96.689336 24.871195 
L 96.529108 22.963786 
L 96.475811 22.387351 
L 96.369362 24.30212 
L 96.316222 24.010745 
L 96.157111 22.074357 
L 96.051304 23.367304 
L 95.998478 23.252813 
L 95.945704 22.767476 
L 95.84032 24.710233 
L 95.787706 24.100263 
L 95.735145 23.397098 
L 95.682636 24.0398 
L 95.525425 22.701411 
L 95.473125 23.027826 
L 95.368684 25.383949 
L 95.264453 22.350183 
L 95.212415 23.958951 
L 95.108491 28.778145 
L 95.00478 23.135491 
L 94.953002 23.323006 
L 94.746405 29.443535 
L 94.694882 33.625322 
L 94.643411 30.617609 
L 94.489313 22.205805 
L 94.38684 21.222515 
L 94.284567 22.339283 
L 94.233505 22.048318 
L 94.1825 22.144718 
L 94.131546 22.246609 
L 93.978978 27.032531 
L 93.877521 22.312085 
L 93.826869 22.860372 
L 93.77627 22.636828 
L 93.725717 23.27556 
L 93.675216 23.257445 
L 93.47372 17.523694 
L 93.423472 18.042309 
L 93.172978 24.766756 
L 93.073131 30.166743 
L 92.87404 20.8275 
L 92.824395 21.066745 
L 92.725245 21.588763 
L 92.478237 19.052852 
L 92.428981 19.264568 
L 92.281513 21.060285 
L 92.23246 20.378367 
L 92.183447 20.53147 
L 91.939148 27.634529 
L 91.890431 31.440235 
L 91.841767 28.848241 
L 91.696057 22.868856 
L 91.550787 20.08286 
L 91.502459 20.293266 
L 91.309634 22.687167 
L 91.261555 22.446153 
L 91.117586 21.049261 
L 91.021846 22.932257 
L 90.974046 21.675983 
L 90.830942 21.015517 
L 90.688262 23.822517 
L 90.593382 23.388877 
L 90.498688 24.510376 
L 90.357001 34.357234 
L 90.309869 34.18012 
L 90.168752 24.588911 
L 90.121811 24.881652 
L 90.074912 25.704291 
L 90.028059 25.253965 
L 89.841124 23.765495 
L 89.747931 24.227449 
L 89.654929 25.967866 
L 89.6085 25.063385 
L 89.562113 23.736858 
L 89.515773 23.74647 
L 89.377035 26.378265 
L 89.330881 26.096348 
L 89.238712 25.898686 
L 89.192693 25.452816 
L 89.146725 25.943231 
L 89.100803 26.646896 
L 89.054923 26.430069 
L 88.963308 24.514026 
L 88.917567 24.930162 
L 88.689549 27.959259 
L 88.644083 28.876525 
L 88.598663 28.661151 
L 88.507954 27.46155 
L 88.462669 28.101782 
L 88.327084 29.993793 
L 88.236919 39.318209 
L 88.191908 37.54347 
L 88.012302 27.393434 
L 87.967509 28.03865 
L 87.922763 27.73469 
L 87.878064 27.702065 
L 87.788795 29.027824 
L 87.6108 31.386604 
L 87.433511 29.60316 
L 87.389299 29.65569 
L 87.30101 30.138706 
L 87.256928 29.943441 
L 87.168904 29.343468 
L 87.124956 29.37529 
L 86.90588 36.30162 
L 86.818556 43.224451 
L 86.644434 31.273059 
L 86.427754 32.698023 
L 86.384545 33.740256 
L 86.341383 33.202822 
L 86.255188 30.799769 
L 86.169161 30.907294 
L 86.126217 30.604497 
L 86.08331 30.622085 
L 85.997631 31.317457 
L 85.954854 30.903378 
L 85.91212 30.847864 
L 85.571789 33.783288 
L 85.529435 33.473172 
L 85.487128 32.951372 
L 85.444863 33.467343 
L 85.318319 42.399348 
L 85.276221 46.000708 
L 85.234165 41.437877 
L 85.066366 33.063358 
L 85.02452 32.866746 
L 84.982715 33.142528 
L 84.899233 34.358948 
L 84.857554 34.273883 
L 84.774323 32.85273 
L 84.73277 33.796709 
L 84.691259 35.360352 
L 84.608359 34.61317 
L 84.566969 35.558292 
L 84.525626 35.107299 
L 84.484321 34.663675 
L 84.443057 35.344579 
L 84.401835 35.66334 
L 84.319514 34.207989 
L 84.237355 35.752387 
L 84.196339 35.304981 
L 84.114432 34.61892 
L 84.073533 34.952297 
L 84.032681 35.098284 
L 83.99187 34.924296 
L 83.829029 34.570529 
L 83.747852 34.915138 
L 83.505295 36.400953 
L 83.465008 35.915317 
L 83.424764 36.029621 
L 83.344397 36.823778 
L 83.264185 35.861737 
L 83.224142 36.027158 
L 83.104249 36.682724 
L 83.064366 36.609533 
L 83.024524 36.491614 
L 82.984717 36.712014 
L 82.905228 37.827199 
L 82.865542 37.700729 
L 82.825895 37.415299 
L 82.786293 37.707469 
L 82.707195 38.428465 
L 82.667707 38.00718 
L 82.588853 37.465682 
L 82.549483 37.88151 
L 82.470864 38.238803 
L 82.431612 38.039255 
L 82.392401 38.062187 
L 82.314094 39.585979 
L 82.275002 39.398358 
L 82.196931 38.528522 
L 82.157949 38.644534 
L 82.041253 40.30419 
L 82.00243 39.643432 
L 81.963646 39.271641 
L 81.924903 39.424564 
L 81.808903 40.459169 
L 81.770313 40.396803 
L 81.616343 39.722185 
L 81.539585 40.67931 
L 81.501265 40.955213 
L 81.462983 40.424997 
L 81.424742 40.345056 
L 81.348369 40.958953 
L 81.272144 40.870223 
L 81.158101 41.151621 
L 81.082261 42.537833 
L 80.968786 50.392575 
L 80.931034 45.738015 
L 80.855647 42.303673 
L 80.78041 42.902379 
L 80.705325 42.953168 
L 80.667839 42.730843 
L 80.630388 42.974338 
L 80.592979 43.38045 
L 80.555604 42.706509 
L 80.518268 42.333844 
L 80.443706 42.490519 
L 80.36929 42.697566 
L 80.295029 44.727034 
L 80.257952 44.37916 
L 80.183913 43.129211 
L 80.110014 43.221282 
L 80.036269 43.309049 
L 79.962671 44.117865 
L 79.925927 43.870586 
L 79.889222 43.640366 
L 79.852547 43.699788 
L 79.596878 44.930145 
L 79.415349 45.837321 
L 79.342989 46.82803 
L 79.306867 46.281922 
L 79.234723 45.741317 
L 79.162728 45.807083 
L 79.055 46.801747 
L 79.019162 46.356945 
L 78.983363 46.252803 
L 78.947595 46.437767 
L 78.876171 47.299401 
L 78.804892 47.023441 
L 78.769305 46.86531 
L 78.733753 46.893925 
L 78.415386 48.711798 
L 78.345024 48.325672 
L 78.274804 48.610611 
L 78.204725 48.966975 
L 78.169737 48.621651 
L 78.134785 48.404166 
L 78.064988 48.475407 
L 77.925803 50.037674 
L 77.891098 49.754671 
L 77.821784 49.312753 
L 77.787181 49.423263 
L 77.718073 49.688706 
L 77.683575 49.550074 
L 77.649108 49.556877 
L 77.580277 50.24504 
L 77.511589 52.222308 
L 77.477294 51.561536 
L 77.408804 50.821114 
L 77.340456 50.855674 
L 77.272242 50.775139 
L 77.238189 50.859418 
L 77.136228 51.330227 
L 77.068425 52.104675 
L 77.034573 51.821281 
L 77.000753 51.734155 
L 76.96697 51.86846 
L 76.832174 52.249792 
L 76.530842 54.14915 
L 76.497529 53.938156 
L 76.364605 53.268704 
L 76.232211 54.284322 
L 76.166213 55.658065 
L 76.100347 55.228388 
L 76.034611 54.455818 
L 75.96901 54.509625 
L 75.903535 54.337175 
L 75.870845 54.38677 
L 75.610523 55.552986 
L 75.578131 55.537386 
L 75.545768 55.400126 
L 75.513437 55.473682 
L 75.448875 56.350757 
L 75.384442 57.849729 
L 75.352275 56.846333 
L 75.32014 56.970576 
L 75.15994 58.389657 
L 75.127996 58.435356 
L 74.968756 56.788719 
L 74.937 56.955925 
L 74.841933 58.744783 
L 74.778712 58.093082 
L 74.74715 58.366264 
L 74.684119 58.08938 
L 74.621213 58.04306 
L 74.464501 59.402947 
L 74.370847 65.228177 
L 74.339693 62.738919 
L 74.277475 59.245497 
L 74.215381 60.145954 
L 74.18438 60.202187 
L 74.122475 59.359681 
L 74.060692 59.737233 
L 73.906776 61.293363 
L 73.876083 60.701868 
L 73.845423 60.597067 
L 73.784194 61.628626 
L 73.753623 60.905999 
L 73.692578 60.280355 
L 73.631653 60.480859 
L 73.479875 60.907967 
L 73.419376 61.435148 
L 73.359 61.172263 
L 73.298742 61.412312 
L 72.969468 62.410701 
L 72.880294 64.951627 
L 72.820994 63.679781 
L 72.761812 63.026003 
L 72.702747 63.230002 
L 72.555601 63.337974 
L 71.916832 65.342334 
L 71.716515 67.973957 
L 71.688013 68.822794 
L 71.659539 67.74074 
L 71.602677 66.393261 
L 71.545929 66.67278 
L 71.489294 66.536079 
L 71.432773 66.658743 
L 70.217464 70.458839 
L 70.163482 72.02666 
L 70.136532 73.514581 
L 70.082715 71.612133 
L 70.029005 70.929924 
L 69.948637 71.103646 
L 69.708979 72.130202 
L 69.656014 72.041095 
L 69.603156 72.146368 
L 69.524065 72.455877 
L 69.47147 73.404154 
L 69.392774 72.968586 
L 69.236087 73.336273 
L 69.02863 74.133598 
L 68.95126 74.291506 
L 68.746073 75.018348 
L 68.720538 75.000424 
L 68.695032 75.030627 
L 68.542519 75.574397 
L 68.215199 76.533877 
L 68.065557 78.235017 
L 68.015877 79.913518 
L 67.966295 77.809166 
L 67.941541 77.697311 
L 67.916813 77.826848 
L 67.867428 78.8408 
L 67.793536 78.156777 
L 67.768956 78.140771 
L 67.744399 78.18958 
L 67.597574 78.803206 
L 67.573188 78.707549 
L 67.524489 78.98786 
L 67.403173 79.415649 
L 67.378981 79.392754 
L 67.354813 79.421594 
L 67.282458 80.753504 
L 67.162346 80.466202 
L 67.114471 80.239884 
L 67.042836 80.393199 
L 66.900207 80.898988 
L 66.75843 81.474633 
L 66.734883 81.469524 
L 66.594097 81.964505 
L 66.361322 82.851578 
L 66.016497 83.883182 
L 65.81207 84.421179 
L 65.430912 86.756763 
L 65.408693 86.378517 
L 65.386497 86.097409 
L 65.364321 86.391826 
L 65.320036 87.535406 
L 65.253775 87.070551 
L 65.231732 87.152334 
L 65.209713 86.959088 
L 65.165738 86.826715 
L 65.143784 86.975631 
L 65.07805 89.580807 
L 65.012513 87.586249 
L 64.925438 87.634117 
L 64.730786 88.242703 
L 64.580599 88.630844 
L 64.389037 90.347369 
L 64.304448 90.32296 
L 64.262284 91.30963 
L 64.241231 91.73855 
L 64.136289 91.672121 
L 64.073574 90.626808 
L 63.969466 90.751066 
L 63.680719 92.465083 
L 63.66025 92.420364 
L 63.639799 92.115804 
L 63.578572 92.850809 
L 63.558203 92.8811 
L 63.517528 92.507417 
L 63.456667 92.817838 
L 63.395988 94.858187 
L 63.335491 93.311644 
L 63.275175 93.172879 
L 63.25511 93.314861 
L 63.095309 93.90325 
L 63.035713 93.963639 
L 62.818715 95.221921 
L 62.779519 95.075982 
L 62.720868 95.249068 
L 62.662392 96.049301 
L 62.584699 95.555694 
L 62.507316 95.901809 
L 62.33433 96.436182 
L 62.277013 97.089268 
L 62.238896 98.474288 
L 62.162895 98.091016 
L 62.049457 98.422613 
L 61.899263 100.159985 
L 61.843249 99.745217 
L 61.805999 100.121545 
L 61.750265 101.341811 
L 61.676214 101.018234 
L 61.547332 101.464783 
L 61.510674 102.381191 
L 61.419348 102.14339 
L 61.401139 102.135201 
L 61.274176 103.235456 
L 61.184031 103.129292 
L 61.166056 102.936642 
L 61.112239 103.357835 
L 61.094334 103.353428 
L 61.076449 103.387053 
L 60.916283 104.137256 
L 60.880885 104.039712 
L 60.863215 103.919601 
L 60.827923 104.385419 
L 60.792702 105.493404 
L 60.722473 104.74734 
L 60.652524 104.446977 
L 60.600244 104.585249 
L 60.375506 105.313351 
L 60.01858 106.455331 
L 59.751626 107.34419 
L 59.32683 108.70675 
L 59.150407 109.818626 
L 59.086733 109.406917 
L 59.039144 109.500626 
L 58.725509 110.755734 
L 58.709992 110.746468 
L 58.524984 111.533248 
L 58.509666 111.423509 
L 58.448551 111.663549 
L 58.43331 111.657784 
L 58.281736 112.364071 
L 58.266662 112.280802 
L 58.251603 112.485055 
L 58.221528 112.423227 
L 58.086942 112.928318 
L 58.072063 112.915751 
L 58.057199 113.044354 
L 57.719384 114.301106 
L 57.690373 114.162239 
L 57.632528 114.433444 
L 57.47464 115.070141 
L 57.44612 115.003795 
L 57.431881 115.212642 
L 57.276188 115.799741 
L 57.262119 115.702395 
L 57.248063 115.698432 
L 57.052762 116.87776 
L 57.011266 116.618275 
L 56.969894 116.878835 
L 56.792044 117.492254 
L 56.77846 117.471768 
L 56.697232 117.868634 
L 56.670264 117.846035 
L 56.496285 118.531267 
L 56.42997 118.752592 
L 56.129153 119.913545 
L 54.852083 125.089535 
L 54.840436 125.068224 
L 54.759237 125.38658 
L 54.350506 127.144175 
L 54.107875 128.431787 
L 54.096973 128.30317 
L 54.075201 128.179419 
L 54.010144 128.437785 
L 49.723988 147.071141 
L 49.710953 147.836486 
L 49.69145 146.967527 
L 49.614018 147.265051 
L 49.138675 149.390353 
L 48.704061 151.341558 
L 45.766357 164.909303 
L 45.766357 164.909303 
" style="fill:none;stroke:#8dd3c7;stroke-linecap:square;stroke-width:1.5;"/>
   </g>
   <g id="patch_3">
    <path d="M 43.2 177.12 
L 43.2 8.64 
" style="fill:none;stroke:#ffffff;stroke-linecap:square;stroke-linejoin:miter;stroke-width:0.8;"/>
   </g>
   <g id="patch_4">
    <path d="M 384.48 177.12 
L 384.48 8.64 
" style="fill:none;stroke:#ffffff;stroke-linecap:square;stroke-linejoin:miter;stroke-width:0.8;"/>
   </g>
   <g id="patch_5">
    <path d="M 43.2 177.12 
L 384.48 177.12 
" style="fill:none;stroke:#ffffff;stroke-linecap:square;stroke-linejoin:miter;stroke-width:0.8;"/>
   </g>
   <g id="patch_6">
    <path d="M 43.2 8.64 
L 384.48 8.64 
" style="fill:none;stroke:#ffffff;stroke-linecap:square;stroke-linejoin:miter;stroke-width:0.8;"/>
   </g>
   <g id="text_12">
    <!-- photon flux -->
    <defs>
     <path id="DejaVuSans-32"/>
     <path d="M 37.109375 75.984375 
L 37.109375 68.5 
L 28.515625 68.5 
Q 23.6875 68.5 21.796875 66.546875 
Q 19.921875 64.59375 19.921875 59.515625 
L 19.921875 54.6875 
L 34.71875 54.6875 
L 34.71875 47.703125 
L 19.921875 47.703125 
L 19.921875 0 
L 10.890625 0 
L 10.890625 47.703125 
L 2.296875 47.703125 
L 2.296875 54.6875 
L 10.890625 54.6875 
L 10.890625 58.5 
Q 10.890625 67.625 15.140625 71.796875 
Q 19.390625 75.984375 28.609375 75.984375 
z
" id="DejaVuSans-102"/>
     <path d="M 9.421875 75.984375 
L 18.40625 75.984375 
L 18.40625 0 
L 9.421875 0 
z
" id="DejaVuSans-108"/>
     <path d="M 8.5 21.578125 
L 8.5 54.6875 
L 17.484375 54.6875 
L 17.484375 21.921875 
Q 17.484375 14.15625 20.5 10.265625 
Q 23.53125 6.390625 29.59375 6.390625 
Q 36.859375 6.390625 41.078125 11.03125 
Q 45.3125 15.671875 45.3125 23.6875 
L 45.3125 54.6875 
L 54.296875 54.6875 
L 54.296875 0 
L 45.3125 0 
L 45.3125 8.40625 
Q 42.046875 3.421875 37.71875 1 
Q 33.40625 -1.421875 27.6875 -1.421875 
Q 18.265625 -1.421875 13.375 4.4375 
Q 8.5 10.296875 8.5 21.578125 
z
M 31.109375 56 
z
" id="DejaVuSans-117"/>
     <path d="M 54.890625 54.6875 
L 35.109375 28.078125 
L 55.90625 0 
L 45.3125 0 
L 29.390625 21.484375 
L 13.484375 0 
L 2.875 0 
L 24.125 28.609375 
L 4.6875 54.6875 
L 15.28125 54.6875 
L 29.78125 35.203125 
L 44.28125 54.6875 
z
" id="DejaVuSans-120"/>
    </defs>
    <g style="fill:#8dd3c7;" transform="translate(72.078009 86.862857)scale(0.1 -0.1)">
     <use xlink:href="#DejaVuSans-112"/>
     <use x="63.476562" xlink:href="#DejaVuSans-104"/>
     <use x="126.855469" xlink:href="#DejaVuSans-111"/>
     <use x="188.037109" xlink:href="#DejaVuSans-116"/>
     <use x="227.246094" xlink:href="#DejaVuSans-111"/>
     <use x="288.427734" xlink:href="#DejaVuSans-110"/>
     <use x="351.806641" xlink:href="#DejaVuSans-32"/>
     <use x="383.59375" xlink:href="#DejaVuSans-102"/>
     <use x="418.798828" xlink:href="#DejaVuSans-108"/>
     <use x="446.582031" xlink:href="#DejaVuSans-117"/>
     <use x="509.960938" xlink:href="#DejaVuSans-120"/>
    </g>
   </g>
  </g>
  <g id="axes_2">
   <g id="matplotlib.axis_3">
    <g id="ytick_15">
     <g id="line2d_42">
      <defs>
       <path d="M 0 0 
L 3.5 0 
" id="mac523f1a9b" style="stroke:#ffffff;stroke-width:0.8;"/>
      </defs>
      <g>
       <use style="fill:#ffffff;stroke:#ffffff;stroke-width:0.8;" x="384.48" xlink:href="#mac523f1a9b" y="177.12"/>
      </g>
     </g>
     <g id="text_13">
      <!-- 0.0 -->
      <defs>
       <path d="M 10.6875 12.40625 
L 21 12.40625 
L 21 0 
L 10.6875 0 
z
" id="DejaVuSans-46"/>
      </defs>
      <g style="fill:#ffffff;" transform="translate(391.48 180.919219)scale(0.1 -0.1)">
       <use xlink:href="#DejaVuSans-48"/>
       <use x="63.623047" xlink:href="#DejaVuSans-46"/>
       <use x="95.410156" xlink:href="#DejaVuSans-48"/>
      </g>
     </g>
    </g>
    <g id="ytick_16">
     <g id="line2d_43">
      <g>
       <use style="fill:#ffffff;stroke:#ffffff;stroke-width:0.8;" x="384.48" xlink:href="#mac523f1a9b" y="115.854545"/>
      </g>
     </g>
     <g id="text_14">
      <!-- 0.2 -->
      <g style="fill:#ffffff;" transform="translate(391.48 119.653764)scale(0.1 -0.1)">
       <use xlink:href="#DejaVuSans-48"/>
       <use x="63.623047" xlink:href="#DejaVuSans-46"/>
       <use x="95.410156" xlink:href="#DejaVuSans-50"/>
      </g>
     </g>
    </g>
    <g id="ytick_17">
     <g id="line2d_44">
      <g>
       <use style="fill:#ffffff;stroke:#ffffff;stroke-width:0.8;" x="384.48" xlink:href="#mac523f1a9b" y="54.589091"/>
      </g>
     </g>
     <g id="text_15">
      <!-- 0.4 -->
      <defs>
       <path d="M 37.796875 64.3125 
L 12.890625 25.390625 
L 37.796875 25.390625 
z
M 35.203125 72.90625 
L 47.609375 72.90625 
L 47.609375 25.390625 
L 58.015625 25.390625 
L 58.015625 17.1875 
L 47.609375 17.1875 
L 47.609375 0 
L 37.796875 0 
L 37.796875 17.1875 
L 4.890625 17.1875 
L 4.890625 26.703125 
z
" id="DejaVuSans-52"/>
      </defs>
      <g style="fill:#ffffff;" transform="translate(391.48 58.38831)scale(0.1 -0.1)">
       <use xlink:href="#DejaVuSans-48"/>
       <use x="63.623047" xlink:href="#DejaVuSans-46"/>
       <use x="95.410156" xlink:href="#DejaVuSans-52"/>
      </g>
     </g>
    </g>
    <g id="ytick_18">
     <g id="line2d_45">
      <defs>
       <path d="M 0 0 
L 2 0 
" id="m8d0a07ed53" style="stroke:#ffffff;stroke-width:0.6;"/>
      </defs>
      <g>
       <use style="fill:#ffffff;stroke:#ffffff;stroke-width:0.6;" x="384.48" xlink:href="#m8d0a07ed53" y="161.803636"/>
      </g>
     </g>
    </g>
    <g id="ytick_19">
     <g id="line2d_46">
      <g>
       <use style="fill:#ffffff;stroke:#ffffff;stroke-width:0.6;" x="384.48" xlink:href="#m8d0a07ed53" y="146.487273"/>
      </g>
     </g>
    </g>
    <g id="ytick_20">
     <g id="line2d_47">
      <g>
       <use style="fill:#ffffff;stroke:#ffffff;stroke-width:0.6;" x="384.48" xlink:href="#m8d0a07ed53" y="131.170909"/>
      </g>
     </g>
    </g>
    <g id="ytick_21">
     <g id="line2d_48">
      <g>
       <use style="fill:#ffffff;stroke:#ffffff;stroke-width:0.6;" x="384.48" xlink:href="#m8d0a07ed53" y="100.538182"/>
      </g>
     </g>
    </g>
    <g id="ytick_22">
     <g id="line2d_49">
      <g>
       <use style="fill:#ffffff;stroke:#ffffff;stroke-width:0.6;" x="384.48" xlink:href="#m8d0a07ed53" y="85.221818"/>
      </g>
     </g>
    </g>
    <g id="ytick_23">
     <g id="line2d_50">
      <g>
       <use style="fill:#ffffff;stroke:#ffffff;stroke-width:0.6;" x="384.48" xlink:href="#m8d0a07ed53" y="69.905455"/>
      </g>
     </g>
    </g>
    <g id="ytick_24">
     <g id="line2d_51">
      <g>
       <use style="fill:#ffffff;stroke:#ffffff;stroke-width:0.6;" x="384.48" xlink:href="#m8d0a07ed53" y="39.272727"/>
      </g>
     </g>
    </g>
    <g id="ytick_25">
     <g id="line2d_52">
      <g>
       <use style="fill:#ffffff;stroke:#ffffff;stroke-width:0.6;" x="384.48" xlink:href="#m8d0a07ed53" y="23.956364"/>
      </g>
     </g>
    </g>
    <g id="text_16">
     <!-- $\mathrm{Transmission}$ -->
     <defs>
      <path d="M 41.109375 46.296875 
Q 39.59375 47.171875 37.8125 47.578125 
Q 36.03125 48 33.890625 48 
Q 26.265625 48 22.1875 43.046875 
Q 18.109375 38.09375 18.109375 28.8125 
L 18.109375 0 
L 9.078125 0 
L 9.078125 54.6875 
L 18.109375 54.6875 
L 18.109375 46.1875 
Q 20.953125 51.171875 25.484375 53.578125 
Q 30.03125 56 36.53125 56 
Q 37.453125 56 38.578125 55.875 
Q 39.703125 55.765625 41.0625 55.515625 
z
" id="DejaVuSans-114"/>
      <path d="M 34.28125 27.484375 
Q 23.390625 27.484375 19.1875 25 
Q 14.984375 22.515625 14.984375 16.5 
Q 14.984375 11.71875 18.140625 8.90625 
Q 21.296875 6.109375 26.703125 6.109375 
Q 34.1875 6.109375 38.703125 11.40625 
Q 43.21875 16.703125 43.21875 25.484375 
L 43.21875 27.484375 
z
M 52.203125 31.203125 
L 52.203125 0 
L 43.21875 0 
L 43.21875 8.296875 
Q 40.140625 3.328125 35.546875 0.953125 
Q 30.953125 -1.421875 24.3125 -1.421875 
Q 15.921875 -1.421875 10.953125 3.296875 
Q 6 8.015625 6 15.921875 
Q 6 25.140625 12.171875 29.828125 
Q 18.359375 34.515625 30.609375 34.515625 
L 43.21875 34.515625 
L 43.21875 35.40625 
Q 43.21875 41.609375 39.140625 45 
Q 35.0625 48.390625 27.6875 48.390625 
Q 23 48.390625 18.546875 47.265625 
Q 14.109375 46.140625 10.015625 43.890625 
L 10.015625 52.203125 
Q 14.9375 54.109375 19.578125 55.046875 
Q 24.21875 56 28.609375 56 
Q 40.484375 56 46.34375 49.84375 
Q 52.203125 43.703125 52.203125 31.203125 
z
" id="DejaVuSans-97"/>
      <path d="M 9.421875 54.6875 
L 18.40625 54.6875 
L 18.40625 0 
L 9.421875 0 
z
M 9.421875 75.984375 
L 18.40625 75.984375 
L 18.40625 64.59375 
L 9.421875 64.59375 
z
" id="DejaVuSans-105"/>
     </defs>
     <g style="fill:#ffffff;" transform="translate(418.981562 125.93)rotate(-90)scale(0.1 -0.1)">
      <use transform="translate(0 0.015625)" xlink:href="#DejaVuSans-84"/>
      <use transform="translate(61.083984 0.015625)" xlink:href="#DejaVuSans-114"/>
      <use transform="translate(102.197266 0.015625)" xlink:href="#DejaVuSans-97"/>
      <use transform="translate(163.476562 0.015625)" xlink:href="#DejaVuSans-110"/>
      <use transform="translate(226.855469 0.015625)" xlink:href="#DejaVuSans-115"/>
      <use transform="translate(278.955078 0.015625)" xlink:href="#DejaVuSans-109"/>
      <use transform="translate(376.367188 0.015625)" xlink:href="#DejaVuSans-105"/>
      <use transform="translate(404.150391 0.015625)" xlink:href="#DejaVuSans-115"/>
      <use transform="translate(456.25 0.015625)" xlink:href="#DejaVuSans-115"/>
      <use transform="translate(508.349609 0.015625)" xlink:href="#DejaVuSans-105"/>
      <use transform="translate(536.132812 0.015625)" xlink:href="#DejaVuSans-111"/>
      <use transform="translate(597.314453 0.015625)" xlink:href="#DejaVuSans-110"/>
     </g>
    </g>
   </g>
   <g id="line2d_53"/>
   <g id="line2d_54">
    <path clip-path="url(#pc6c2845719)" d="M 195.338558 177.12 
L 194.634851 176.691142 
L 193.937627 174.08736 
L 193.246818 169.186123 
L 192.562292 161.895535 
L 191.883998 152.399388 
L 191.211836 140.789584 
L 190.545707 127.34182 
L 189.885543 113.005703 
L 189.231296 98.853385 
L 188.58283 85.987632 
L 187.940114 75.23555 
L 187.303064 66.566483 
L 186.671579 59.674126 
L 186.04561 54.282766 
L 185.425091 50.08608 
L 184.80992 46.83901 
L 184.200065 44.388396 
L 183.595426 42.489162 
L 182.99597 40.926899 
L 182.401588 39.609683 
L 181.812255 38.445647 
L 181.227888 37.342868 
L 180.648429 36.24009 
L 180.07381 35.16794 
L 179.503983 34.218323 
L 178.938871 33.483143 
L 178.378425 33.054287 
L 177.822595 32.809221 
L 177.271315 32.625422 
L 176.724525 32.319098 
L 176.182193 31.798338 
L 175.644236 31.093787 
L 175.110611 30.327969 
L 174.581277 29.500885 
L 174.056176 28.735068 
L 173.535249 28.030517 
L 173.018454 27.417861 
L 172.505743 26.958367 
L 171.997064 26.743939 
L 171.492376 26.652044 
L 170.991629 26.652044 
L 170.494765 26.652044 
L 170.001759 26.590777 
L 169.512552 26.560148 
L 169.027111 26.652044 
L 168.545387 26.989005 
L 168.067336 27.693556 
L 167.592911 28.490011 
L 167.122084 29.531523 
L 166.654807 33.238077 
L 166.191038 41.692716 
L 165.730743 54.313394 
L 165.273881 69.936085 
L 164.820419 87.549905 
L 164.370298 106.113337 
L 163.923509 124.584874 
L 163.479995 141.831099 
L 163.039739 156.075316 
L 162.602682 165.479564 
L 162.168808 170.625862 
L 161.738067 173.015215 
L 161.310442 174.08736 
L 160.885892 174.791913 
L 160.464375 175.4352 
L 160.045873 175.925324 
L 159.630347 176.292916 
L 159.217778 176.507345 
L 158.8081 176.660509 
L 158.401322 176.752407 
L 157.997393 176.813673 
L 157.596273 176.905571 
L 157.19796 176.997469 
L 156.802405 177.058735 
L 156.409592 177.12 
" style="fill:none;stroke:#feffb3;stroke-linecap:square;stroke-width:1.5;"/>
   </g>
   <g id="patch_7">
    <path d="M 43.2 177.12 
L 43.2 8.64 
" style="fill:none;stroke:#ffffff;stroke-linecap:square;stroke-linejoin:miter;stroke-width:0.8;"/>
   </g>
   <g id="patch_8">
    <path d="M 384.48 177.12 
L 384.48 8.64 
" style="fill:none;stroke:#ffffff;stroke-linecap:square;stroke-linejoin:miter;stroke-width:0.8;"/>
   </g>
   <g id="patch_9">
    <path d="M 43.2 177.12 
L 384.48 177.12 
" style="fill:none;stroke:#ffffff;stroke-linecap:square;stroke-linejoin:miter;stroke-width:0.8;"/>
   </g>
   <g id="patch_10">
    <path d="M 43.2 8.64 
L 384.48 8.64 
" style="fill:none;stroke:#ffffff;stroke-linecap:square;stroke-linejoin:miter;stroke-width:0.8;"/>
   </g>
   <g id="text_17">
    <!-- transmission -->
    <g style="fill:#feffb3;" transform="translate(193.3632 85.221818)scale(0.1 -0.1)">
     <use xlink:href="#DejaVuSans-116"/>
     <use x="39.208984" xlink:href="#DejaVuSans-114"/>
     <use x="80.322266" xlink:href="#DejaVuSans-97"/>
     <use x="141.601562" xlink:href="#DejaVuSans-110"/>
     <use x="204.980469" xlink:href="#DejaVuSans-115"/>
     <use x="257.080078" xlink:href="#DejaVuSans-109"/>
     <use x="354.492188" xlink:href="#DejaVuSans-105"/>
     <use x="382.275391" xlink:href="#DejaVuSans-115"/>
     <use x="434.375" xlink:href="#DejaVuSans-115"/>
     <use x="486.474609" xlink:href="#DejaVuSans-105"/>
     <use x="514.257812" xlink:href="#DejaVuSans-111"/>
     <use x="575.439453" xlink:href="#DejaVuSans-110"/>
    </g>
   </g>
  </g>
 </g>
 <defs>
  <clipPath id="pc6c2845719">
   <rect height="168.48" width="341.28" x="43.2" y="8.64"/>
  </clipPath>
 </defs>
</svg>
