<?xml version="1.0" encoding="utf-8" standalone="no"?>
<!DOCTYPE svg PUBLIC "-//W3C//DTD SVG 1.1//EN"
  "http://www.w3.org/Graphics/SVG/1.1/DTD/svg11.dtd">
<!-- Created with matplotlib (https://matplotlib.org/) -->
<svg height="216pt" version="1.1" viewBox="0 0 432 216" width="432pt" xmlns="http://www.w3.org/2000/svg" xmlns:xlink="http://www.w3.org/1999/xlink">
 <defs>
  <style type="text/css">
*{stroke-linecap:butt;stroke-linejoin:round;}
  </style>
 </defs>
 <g id="figure_1">
  <g id="patch_1">
   <path d="M 0 216 
L 432 216 
L 432 0 
L 0 0 
z
"/>
  </g>
  <g id="axes_1">
   <g id="patch_2">
    <path d="M 43.2 177.12 
L 384.48 177.12 
L 384.48 8.64 
L 43.2 8.64 
z
"/>
   </g>
   <g id="matplotlib.axis_1">
    <g id="xtick_1">
     <g id="line2d_1">
      <defs>
       <path d="M 0 0 
L 0 3.5 
" id="m63712ffaa4" style="stroke:#ffffff;stroke-width:0.8;"/>
      </defs>
      <g>
       <use style="fill:#ffffff;stroke:#ffffff;stroke-width:0.8;" x="43.2" xlink:href="#m63712ffaa4" y="177.12"/>
      </g>
     </g>
     <g id="text_1">
      <!-- 0 -->
      <defs>
       <path d="M 31.78125 66.40625 
Q 24.171875 66.40625 20.328125 58.90625 
Q 16.5 51.421875 16.5 36.375 
Q 16.5 21.390625 20.328125 13.890625 
Q 24.171875 6.390625 31.78125 6.390625 
Q 39.453125 6.390625 43.28125 13.890625 
Q 47.125 21.390625 47.125 36.375 
Q 47.125 51.421875 43.28125 58.90625 
Q 39.453125 66.40625 31.78125 66.40625 
z
M 31.78125 74.21875 
Q 44.046875 74.21875 50.515625 64.515625 
Q 56.984375 54.828125 56.984375 36.375 
Q 56.984375 17.96875 50.515625 8.265625 
Q 44.046875 -1.421875 31.78125 -1.421875 
Q 19.53125 -1.421875 13.0625 8.265625 
Q 6.59375 17.96875 6.59375 36.375 
Q 6.59375 54.828125 13.0625 64.515625 
Q 19.53125 74.21875 31.78125 74.21875 
z
" id="DejaVuSans-48"/>
      </defs>
      <g style="fill:#ffffff;" transform="translate(40.01875 191.718438)scale(0.1 -0.1)">
       <use xlink:href="#DejaVuSans-48"/>
      </g>
     </g>
    </g>
    <g id="xtick_2">
     <g id="line2d_2">
      <g>
       <use style="fill:#ffffff;stroke:#ffffff;stroke-width:0.8;" x="111.456" xlink:href="#m63712ffaa4" y="177.12"/>
      </g>
     </g>
     <g id="text_2">
      <!-- 250 -->
      <defs>
       <path d="M 19.1875 8.296875 
L 53.609375 8.296875 
L 53.609375 0 
L 7.328125 0 
L 7.328125 8.296875 
Q 12.9375 14.109375 22.625 23.890625 
Q 32.328125 33.6875 34.8125 36.53125 
Q 39.546875 41.84375 41.421875 45.53125 
Q 43.3125 49.21875 43.3125 52.78125 
Q 43.3125 58.59375 39.234375 62.25 
Q 35.15625 65.921875 28.609375 65.921875 
Q 23.96875 65.921875 18.8125 64.3125 
Q 13.671875 62.703125 7.8125 59.421875 
L 7.8125 69.390625 
Q 13.765625 71.78125 18.9375 73 
Q 24.125 74.21875 28.421875 74.21875 
Q 39.75 74.21875 46.484375 68.546875 
Q 53.21875 62.890625 53.21875 53.421875 
Q 53.21875 48.921875 51.53125 44.890625 
Q 49.859375 40.875 45.40625 35.40625 
Q 44.1875 33.984375 37.640625 27.21875 
Q 31.109375 20.453125 19.1875 8.296875 
z
" id="DejaVuSans-50"/>
       <path d="M 10.796875 72.90625 
L 49.515625 72.90625 
L 49.515625 64.59375 
L 19.828125 64.59375 
L 19.828125 46.734375 
Q 21.96875 47.46875 24.109375 47.828125 
Q 26.265625 48.1875 28.421875 48.1875 
Q 40.625 48.1875 47.75 41.5 
Q 54.890625 34.8125 54.890625 23.390625 
Q 54.890625 11.625 47.5625 5.09375 
Q 40.234375 -1.421875 26.90625 -1.421875 
Q 22.3125 -1.421875 17.546875 -0.640625 
Q 12.796875 0.140625 7.71875 1.703125 
L 7.71875 11.625 
Q 12.109375 9.234375 16.796875 8.0625 
Q 21.484375 6.890625 26.703125 6.890625 
Q 35.15625 6.890625 40.078125 11.328125 
Q 45.015625 15.765625 45.015625 23.390625 
Q 45.015625 31 40.078125 35.4375 
Q 35.15625 39.890625 26.703125 39.890625 
Q 22.75 39.890625 18.8125 39.015625 
Q 14.890625 38.140625 10.796875 36.28125 
z
" id="DejaVuSans-53"/>
      </defs>
      <g style="fill:#ffffff;" transform="translate(101.91225 191.718438)scale(0.1 -0.1)">
       <use xlink:href="#DejaVuSans-50"/>
       <use x="63.623047" xlink:href="#DejaVuSans-53"/>
       <use x="127.246094" xlink:href="#DejaVuSans-48"/>
      </g>
     </g>
    </g>
    <g id="xtick_3">
     <g id="line2d_3">
      <g>
       <use style="fill:#ffffff;stroke:#ffffff;stroke-width:0.8;" x="179.712" xlink:href="#m63712ffaa4" y="177.12"/>
      </g>
     </g>
     <g id="text_3">
      <!-- 500 -->
      <g style="fill:#ffffff;" transform="translate(170.16825 191.718438)scale(0.1 -0.1)">
       <use xlink:href="#DejaVuSans-53"/>
       <use x="63.623047" xlink:href="#DejaVuSans-48"/>
       <use x="127.246094" xlink:href="#DejaVuSans-48"/>
      </g>
     </g>
    </g>
    <g id="xtick_4">
     <g id="line2d_4">
      <g>
       <use style="fill:#ffffff;stroke:#ffffff;stroke-width:0.8;" x="247.968" xlink:href="#m63712ffaa4" y="177.12"/>
      </g>
     </g>
     <g id="text_4">
      <!-- 750 -->
      <defs>
       <path d="M 8.203125 72.90625 
L 55.078125 72.90625 
L 55.078125 68.703125 
L 28.609375 0 
L 18.3125 0 
L 43.21875 64.59375 
L 8.203125 64.59375 
z
" id="DejaVuSans-55"/>
      </defs>
      <g style="fill:#ffffff;" transform="translate(238.42425 191.718438)scale(0.1 -0.1)">
       <use xlink:href="#DejaVuSans-55"/>
       <use x="63.623047" xlink:href="#DejaVuSans-53"/>
       <use x="127.246094" xlink:href="#DejaVuSans-48"/>
      </g>
     </g>
    </g>
    <g id="xtick_5">
     <g id="line2d_5">
      <g>
       <use style="fill:#ffffff;stroke:#ffffff;stroke-width:0.8;" x="316.224" xlink:href="#m63712ffaa4" y="177.12"/>
      </g>
     </g>
     <g id="text_5">
      <!-- 1000 -->
      <defs>
       <path d="M 12.40625 8.296875 
L 28.515625 8.296875 
L 28.515625 63.921875 
L 10.984375 60.40625 
L 10.984375 69.390625 
L 28.421875 72.90625 
L 38.28125 72.90625 
L 38.28125 8.296875 
L 54.390625 8.296875 
L 54.390625 0 
L 12.40625 0 
z
" id="DejaVuSans-49"/>
      </defs>
      <g style="fill:#ffffff;" transform="translate(303.499 191.718438)scale(0.1 -0.1)">
       <use xlink:href="#DejaVuSans-49"/>
       <use x="63.623047" xlink:href="#DejaVuSans-48"/>
       <use x="127.246094" xlink:href="#DejaVuSans-48"/>
       <use x="190.869141" xlink:href="#DejaVuSans-48"/>
      </g>
     </g>
    </g>
    <g id="xtick_6">
     <g id="line2d_6">
      <g>
       <use style="fill:#ffffff;stroke:#ffffff;stroke-width:0.8;" x="384.48" xlink:href="#m63712ffaa4" y="177.12"/>
      </g>
     </g>
     <g id="text_6">
      <!-- 1250 -->
      <g style="fill:#ffffff;" transform="translate(371.755 191.718438)scale(0.1 -0.1)">
       <use xlink:href="#DejaVuSans-49"/>
       <use x="63.623047" xlink:href="#DejaVuSans-50"/>
       <use x="127.246094" xlink:href="#DejaVuSans-53"/>
       <use x="190.869141" xlink:href="#DejaVuSans-48"/>
      </g>
     </g>
    </g>
    <g id="xtick_7">
     <g id="line2d_7">
      <defs>
       <path d="M 0 0 
L 0 2 
" id="mda10563887" style="stroke:#ffffff;stroke-width:0.6;"/>
      </defs>
      <g>
       <use style="fill:#ffffff;stroke:#ffffff;stroke-width:0.6;" x="56.8512" xlink:href="#mda10563887" y="177.12"/>
      </g>
     </g>
    </g>
    <g id="xtick_8">
     <g id="line2d_8">
      <g>
       <use style="fill:#ffffff;stroke:#ffffff;stroke-width:0.6;" x="70.5024" xlink:href="#mda10563887" y="177.12"/>
      </g>
     </g>
    </g>
    <g id="xtick_9">
     <g id="line2d_9">
      <g>
       <use style="fill:#ffffff;stroke:#ffffff;stroke-width:0.6;" x="84.1536" xlink:href="#mda10563887" y="177.12"/>
      </g>
     </g>
    </g>
    <g id="xtick_10">
     <g id="line2d_10">
      <g>
       <use style="fill:#ffffff;stroke:#ffffff;stroke-width:0.6;" x="97.8048" xlink:href="#mda10563887" y="177.12"/>
      </g>
     </g>
    </g>
    <g id="xtick_11">
     <g id="line2d_11">
      <g>
       <use style="fill:#ffffff;stroke:#ffffff;stroke-width:0.6;" x="125.1072" xlink:href="#mda10563887" y="177.12"/>
      </g>
     </g>
    </g>
    <g id="xtick_12">
     <g id="line2d_12">
      <g>
       <use style="fill:#ffffff;stroke:#ffffff;stroke-width:0.6;" x="138.7584" xlink:href="#mda10563887" y="177.12"/>
      </g>
     </g>
    </g>
    <g id="xtick_13">
     <g id="line2d_13">
      <g>
       <use style="fill:#ffffff;stroke:#ffffff;stroke-width:0.6;" x="152.4096" xlink:href="#mda10563887" y="177.12"/>
      </g>
     </g>
    </g>
    <g id="xtick_14">
     <g id="line2d_14">
      <g>
       <use style="fill:#ffffff;stroke:#ffffff;stroke-width:0.6;" x="166.0608" xlink:href="#mda10563887" y="177.12"/>
      </g>
     </g>
    </g>
    <g id="xtick_15">
     <g id="line2d_15">
      <g>
       <use style="fill:#ffffff;stroke:#ffffff;stroke-width:0.6;" x="193.3632" xlink:href="#mda10563887" y="177.12"/>
      </g>
     </g>
    </g>
    <g id="xtick_16">
     <g id="line2d_16">
      <g>
       <use style="fill:#ffffff;stroke:#ffffff;stroke-width:0.6;" x="207.0144" xlink:href="#mda10563887" y="177.12"/>
      </g>
     </g>
    </g>
    <g id="xtick_17">
     <g id="line2d_17">
      <g>
       <use style="fill:#ffffff;stroke:#ffffff;stroke-width:0.6;" x="220.6656" xlink:href="#mda10563887" y="177.12"/>
      </g>
     </g>
    </g>
    <g id="xtick_18">
     <g id="line2d_18">
      <g>
       <use style="fill:#ffffff;stroke:#ffffff;stroke-width:0.6;" x="234.3168" xlink:href="#mda10563887" y="177.12"/>
      </g>
     </g>
    </g>
    <g id="xtick_19">
     <g id="line2d_19">
      <g>
       <use style="fill:#ffffff;stroke:#ffffff;stroke-width:0.6;" x="261.6192" xlink:href="#mda10563887" y="177.12"/>
      </g>
     </g>
    </g>
    <g id="xtick_20">
     <g id="line2d_20">
      <g>
       <use style="fill:#ffffff;stroke:#ffffff;stroke-width:0.6;" x="275.2704" xlink:href="#mda10563887" y="177.12"/>
      </g>
     </g>
    </g>
    <g id="xtick_21">
     <g id="line2d_21">
      <g>
       <use style="fill:#ffffff;stroke:#ffffff;stroke-width:0.6;" x="288.9216" xlink:href="#mda10563887" y="177.12"/>
      </g>
     </g>
    </g>
    <g id="xtick_22">
     <g id="line2d_22">
      <g>
       <use style="fill:#ffffff;stroke:#ffffff;stroke-width:0.6;" x="302.5728" xlink:href="#mda10563887" y="177.12"/>
      </g>
     </g>
    </g>
    <g id="xtick_23">
     <g id="line2d_23">
      <g>
       <use style="fill:#ffffff;stroke:#ffffff;stroke-width:0.6;" x="329.8752" xlink:href="#mda10563887" y="177.12"/>
      </g>
     </g>
    </g>
    <g id="xtick_24">
     <g id="line2d_24">
      <g>
       <use style="fill:#ffffff;stroke:#ffffff;stroke-width:0.6;" x="343.5264" xlink:href="#mda10563887" y="177.12"/>
      </g>
     </g>
    </g>
    <g id="xtick_25">
     <g id="line2d_25">
      <g>
       <use style="fill:#ffffff;stroke:#ffffff;stroke-width:0.6;" x="357.1776" xlink:href="#mda10563887" y="177.12"/>
      </g>
     </g>
    </g>
    <g id="xtick_26">
     <g id="line2d_26">
      <g>
       <use style="fill:#ffffff;stroke:#ffffff;stroke-width:0.6;" x="370.8288" xlink:href="#mda10563887" y="177.12"/>
      </g>
     </g>
    </g>
    <g id="text_7">
     <!-- $\nu \ \left( \mathrm{THz} \right)$ -->
     <defs>
      <path d="M 14.984375 0 
L 8.9375 54.6875 
L 18.609375 54.6875 
L 23.78125 8.796875 
Q 30.8125 14.84375 37.359375 23.25 
Q 42.28125 29.546875 43.5625 35.015625 
Q 44.140625 37.59375 43.890625 42.484375 
Q 43.65625 48.296875 39.75 54.6875 
L 48.828125 54.6875 
L 48.828125 54.6875 
Q 51.375 50.34375 52.390625 44.28125 
Q 53.375 38.71875 52.640625 34.90625 
Q 50.78125 25.34375 42.484375 16.796875 
Q 31.640625 5.671875 24.5625 0 
z
" id="DejaVuSans-Oblique-957"/>
      <path d="M 31 75.875 
Q 24.46875 64.65625 21.28125 53.65625 
Q 18.109375 42.671875 18.109375 31.390625 
Q 18.109375 20.125 21.3125 9.0625 
Q 24.515625 -2 31 -13.1875 
L 23.1875 -13.1875 
Q 15.875 -1.703125 12.234375 9.375 
Q 8.59375 20.453125 8.59375 31.390625 
Q 8.59375 42.28125 12.203125 53.3125 
Q 15.828125 64.359375 23.1875 75.875 
z
" id="DejaVuSans-40"/>
      <path d="M -0.296875 72.90625 
L 61.375 72.90625 
L 61.375 64.59375 
L 35.5 64.59375 
L 35.5 0 
L 25.59375 0 
L 25.59375 64.59375 
L -0.296875 64.59375 
z
" id="DejaVuSans-84"/>
      <path d="M 9.8125 72.90625 
L 19.671875 72.90625 
L 19.671875 43.015625 
L 55.515625 43.015625 
L 55.515625 72.90625 
L 65.375 72.90625 
L 65.375 0 
L 55.515625 0 
L 55.515625 34.71875 
L 19.671875 34.71875 
L 19.671875 0 
L 9.8125 0 
z
" id="DejaVuSans-72"/>
      <path d="M 5.515625 54.6875 
L 48.1875 54.6875 
L 48.1875 46.484375 
L 14.40625 7.171875 
L 48.1875 7.171875 
L 48.1875 0 
L 4.296875 0 
L 4.296875 8.203125 
L 38.09375 47.515625 
L 5.515625 47.515625 
z
" id="DejaVuSans-122"/>
      <path d="M 8.015625 75.875 
L 15.828125 75.875 
Q 23.140625 64.359375 26.78125 53.3125 
Q 30.421875 42.28125 30.421875 31.390625 
Q 30.421875 20.453125 26.78125 9.375 
Q 23.140625 -1.703125 15.828125 -13.1875 
L 8.015625 -13.1875 
Q 14.5 -2 17.703125 9.0625 
Q 20.90625 20.125 20.90625 31.390625 
Q 20.90625 42.671875 17.703125 53.65625 
Q 14.5 64.65625 8.015625 75.875 
z
" id="DejaVuSans-41"/>
     </defs>
     <g style="fill:#ffffff;" transform="translate(196.04 205.396563)scale(0.1 -0.1)">
      <use transform="translate(0 0.125)" xlink:href="#DejaVuSans-Oblique-957"/>
      <use transform="translate(88.329753 0.125)" xlink:href="#DejaVuSans-40"/>
      <use transform="translate(127.343425 0.125)" xlink:href="#DejaVuSans-84"/>
      <use transform="translate(188.42741 0.125)" xlink:href="#DejaVuSans-72"/>
      <use transform="translate(263.622722 0.125)" xlink:href="#DejaVuSans-122"/>
      <use transform="translate(316.112957 0.125)" xlink:href="#DejaVuSans-41"/>
     </g>
    </g>
   </g>
   <g id="matplotlib.axis_2">
    <g id="ytick_1">
     <g id="line2d_27">
      <defs>
       <path d="M 0 0 
L -3.5 0 
" id="m4cc0fa76df" style="stroke:#ffffff;stroke-width:0.8;"/>
      </defs>
      <g>
       <use style="fill:#ffffff;stroke:#ffffff;stroke-width:0.8;" x="43.2" xlink:href="#m4cc0fa76df" y="177.12"/>
      </g>
     </g>
     <g id="text_8">
      <!-- 0 -->
      <g style="fill:#ffffff;" transform="translate(29.8375 180.919219)scale(0.1 -0.1)">
       <use xlink:href="#DejaVuSans-48"/>
      </g>
     </g>
    </g>
    <g id="ytick_2">
     <g id="line2d_28">
      <g>
       <use style="fill:#ffffff;stroke:#ffffff;stroke-width:0.8;" x="43.2" xlink:href="#m4cc0fa76df" y="132.783158"/>
      </g>
     </g>
     <g id="text_9">
      <!-- 1 -->
      <g style="fill:#ffffff;" transform="translate(29.8375 136.582377)scale(0.1 -0.1)">
       <use xlink:href="#DejaVuSans-49"/>
      </g>
     </g>
    </g>
    <g id="ytick_3">
     <g id="line2d_29">
      <g>
       <use style="fill:#ffffff;stroke:#ffffff;stroke-width:0.8;" x="43.2" xlink:href="#m4cc0fa76df" y="88.446316"/>
      </g>
     </g>
     <g id="text_10">
      <!-- 2 -->
      <g style="fill:#ffffff;" transform="translate(29.8375 92.245535)scale(0.1 -0.1)">
       <use xlink:href="#DejaVuSans-50"/>
      </g>
     </g>
    </g>
    <g id="ytick_4">
     <g id="line2d_30">
      <g>
       <use style="fill:#ffffff;stroke:#ffffff;stroke-width:0.8;" x="43.2" xlink:href="#m4cc0fa76df" y="44.109474"/>
      </g>
     </g>
     <g id="text_11">
      <!-- 3 -->
      <defs>
       <path d="M 40.578125 39.3125 
Q 47.65625 37.796875 51.625 33 
Q 55.609375 28.21875 55.609375 21.1875 
Q 55.609375 10.40625 48.1875 4.484375 
Q 40.765625 -1.421875 27.09375 -1.421875 
Q 22.515625 -1.421875 17.65625 -0.515625 
Q 12.796875 0.390625 7.625 2.203125 
L 7.625 11.71875 
Q 11.71875 9.328125 16.59375 8.109375 
Q 21.484375 6.890625 26.8125 6.890625 
Q 36.078125 6.890625 40.9375 10.546875 
Q 45.796875 14.203125 45.796875 21.1875 
Q 45.796875 27.640625 41.28125 31.265625 
Q 36.765625 34.90625 28.71875 34.90625 
L 20.21875 34.90625 
L 20.21875 43.015625 
L 29.109375 43.015625 
Q 36.375 43.015625 40.234375 45.921875 
Q 44.09375 48.828125 44.09375 54.296875 
Q 44.09375 59.90625 40.109375 62.90625 
Q 36.140625 65.921875 28.71875 65.921875 
Q 24.65625 65.921875 20.015625 65.03125 
Q 15.375 64.15625 9.8125 62.3125 
L 9.8125 71.09375 
Q 15.4375 72.65625 20.34375 73.4375 
Q 25.25 74.21875 29.59375 74.21875 
Q 40.828125 74.21875 47.359375 69.109375 
Q 53.90625 64.015625 53.90625 55.328125 
Q 53.90625 49.265625 50.4375 45.09375 
Q 46.96875 40.921875 40.578125 39.3125 
z
" id="DejaVuSans-51"/>
      </defs>
      <g style="fill:#ffffff;" transform="translate(29.8375 47.908692)scale(0.1 -0.1)">
       <use xlink:href="#DejaVuSans-51"/>
      </g>
     </g>
    </g>
    <g id="ytick_5">
     <g id="line2d_31">
      <defs>
       <path d="M 0 0 
L -2 0 
" id="mf15269cbcd" style="stroke:#ffffff;stroke-width:0.6;"/>
      </defs>
      <g>
       <use style="fill:#ffffff;stroke:#ffffff;stroke-width:0.6;" x="43.2" xlink:href="#mf15269cbcd" y="168.252632"/>
      </g>
     </g>
    </g>
    <g id="ytick_6">
     <g id="line2d_32">
      <g>
       <use style="fill:#ffffff;stroke:#ffffff;stroke-width:0.6;" x="43.2" xlink:href="#mf15269cbcd" y="159.385263"/>
      </g>
     </g>
    </g>
    <g id="ytick_7">
     <g id="line2d_33">
      <g>
       <use style="fill:#ffffff;stroke:#ffffff;stroke-width:0.6;" x="43.2" xlink:href="#mf15269cbcd" y="150.517895"/>
      </g>
     </g>
    </g>
    <g id="ytick_8">
     <g id="line2d_34">
      <g>
       <use style="fill:#ffffff;stroke:#ffffff;stroke-width:0.6;" x="43.2" xlink:href="#mf15269cbcd" y="141.650526"/>
      </g>
     </g>
    </g>
    <g id="ytick_9">
     <g id="line2d_35">
      <g>
       <use style="fill:#ffffff;stroke:#ffffff;stroke-width:0.6;" x="43.2" xlink:href="#mf15269cbcd" y="123.915789"/>
      </g>
     </g>
    </g>
    <g id="ytick_10">
     <g id="line2d_36">
      <g>
       <use style="fill:#ffffff;stroke:#ffffff;stroke-width:0.6;" x="43.2" xlink:href="#mf15269cbcd" y="115.048421"/>
      </g>
     </g>
    </g>
    <g id="ytick_11">
     <g id="line2d_37">
      <g>
       <use style="fill:#ffffff;stroke:#ffffff;stroke-width:0.6;" x="43.2" xlink:href="#mf15269cbcd" y="106.181053"/>
      </g>
     </g>
    </g>
    <g id="ytick_12">
     <g id="line2d_38">
      <g>
       <use style="fill:#ffffff;stroke:#ffffff;stroke-width:0.6;" x="43.2" xlink:href="#mf15269cbcd" y="97.313684"/>
      </g>
     </g>
    </g>
    <g id="ytick_13">
     <g id="line2d_39">
      <g>
       <use style="fill:#ffffff;stroke:#ffffff;stroke-width:0.6;" x="43.2" xlink:href="#mf15269cbcd" y="79.578947"/>
      </g>
     </g>
    </g>
    <g id="ytick_14">
     <g id="line2d_40">
      <g>
       <use style="fill:#ffffff;stroke:#ffffff;stroke-width:0.6;" x="43.2" xlink:href="#mf15269cbcd" y="70.711579"/>
      </g>
     </g>
    </g>
    <g id="ytick_15">
     <g id="line2d_41">
      <g>
       <use style="fill:#ffffff;stroke:#ffffff;stroke-width:0.6;" x="43.2" xlink:href="#mf15269cbcd" y="61.844211"/>
      </g>
     </g>
    </g>
    <g id="ytick_16">
     <g id="line2d_42">
      <g>
       <use style="fill:#ffffff;stroke:#ffffff;stroke-width:0.6;" x="43.2" xlink:href="#mf15269cbcd" y="52.976842"/>
      </g>
     </g>
    </g>
    <g id="ytick_17">
     <g id="line2d_43">
      <g>
       <use style="fill:#ffffff;stroke:#ffffff;stroke-width:0.6;" x="43.2" xlink:href="#mf15269cbcd" y="35.242105"/>
      </g>
     </g>
    </g>
    <g id="ytick_18">
     <g id="line2d_44">
      <g>
       <use style="fill:#ffffff;stroke:#ffffff;stroke-width:0.6;" x="43.2" xlink:href="#mf15269cbcd" y="26.374737"/>
      </g>
     </g>
    </g>
    <g id="ytick_19">
     <g id="line2d_45">
      <g>
       <use style="fill:#ffffff;stroke:#ffffff;stroke-width:0.6;" x="43.2" xlink:href="#mf15269cbcd" y="17.507368"/>
      </g>
     </g>
    </g>
    <g id="ytick_20">
     <g id="line2d_46">
      <g>
       <use style="fill:#ffffff;stroke:#ffffff;stroke-width:0.6;" x="43.2" xlink:href="#mf15269cbcd" y="8.64"/>
      </g>
     </g>
    </g>
    <g id="text_12">
     <!-- $f_{\nu} \ \left( \mathrm{Jy} \right)$ -->
     <defs>
      <path d="M 47.796875 75.984375 
L 46.390625 68.5 
L 37.796875 68.5 
Q 32.90625 68.5 30.6875 66.578125 
Q 28.46875 64.65625 27.390625 59.515625 
L 26.421875 54.6875 
L 41.21875 54.6875 
L 39.890625 47.703125 
L 25.09375 47.703125 
L 15.828125 0 
L 6.78125 0 
L 16.109375 47.703125 
L 7.515625 47.703125 
L 8.796875 54.6875 
L 17.390625 54.6875 
L 18.109375 58.5 
Q 19.96875 68.171875 24.625 72.078125 
Q 29.296875 75.984375 39.3125 75.984375 
z
" id="DejaVuSans-Oblique-102"/>
      <path d="M 9.8125 72.90625 
L 19.671875 72.90625 
L 19.671875 5.078125 
Q 19.671875 -8.109375 14.671875 -14.0625 
Q 9.671875 -20.015625 -1.421875 -20.015625 
L -5.171875 -20.015625 
L -5.171875 -11.71875 
L -2.09375 -11.71875 
Q 4.4375 -11.71875 7.125 -8.046875 
Q 9.8125 -4.390625 9.8125 5.078125 
z
" id="DejaVuSans-74"/>
      <path d="M 32.171875 -5.078125 
Q 28.375 -14.84375 24.75 -17.8125 
Q 21.140625 -20.796875 15.09375 -20.796875 
L 7.90625 -20.796875 
L 7.90625 -13.28125 
L 13.1875 -13.28125 
Q 16.890625 -13.28125 18.9375 -11.515625 
Q 21 -9.765625 23.484375 -3.21875 
L 25.09375 0.875 
L 2.984375 54.6875 
L 12.5 54.6875 
L 29.59375 11.921875 
L 46.6875 54.6875 
L 56.203125 54.6875 
z
" id="DejaVuSans-121"/>
     </defs>
     <g style="fill:#ffffff;" transform="translate(23.7375 106.73)rotate(-90)scale(0.1 -0.1)">
      <use transform="translate(0 0.015625)" xlink:href="#DejaVuSans-Oblique-102"/>
      <use transform="translate(35.205078 -16.390625)scale(0.7)" xlink:href="#DejaVuSans-Oblique-957"/>
      <use transform="translate(109.511394 0.015625)" xlink:href="#DejaVuSans-40"/>
      <use transform="translate(148.525066 0.015625)" xlink:href="#DejaVuSans-74"/>
      <use transform="translate(178.017253 0.015625)" xlink:href="#DejaVuSans-121"/>
      <use transform="translate(237.196941 0.015625)" xlink:href="#DejaVuSans-41"/>
     </g>
    </g>
   </g>
   <g id="line2d_47">
    <path clip-path="url(#pd54074f7fb)" d="M 433 176.789311 
L 431.747536 176.667662 
L 430.988995 176.716419 
L 429.73132 176.546042 
L 428.730994 176.737302 
L 428.481732 176.807565 
L 427.487855 176.672695 
L 426.499093 176.674464 
L 424.780892 176.507897 
L 424.292797 176.567325 
L 423.077985 176.52217 
L 422.352841 176.721031 
L 421.630419 176.566191 
L 420.432451 176.682737 
L 419.955411 176.600687 
L 419.004897 176.653325 
L 418.295123 176.320859 
L 417.118146 176.500488 
L 415.482675 176.358066 
L 415.018022 176.401598 
L 414.554527 176.245907 
L 414.092187 176.398872 
L 413.400831 176.668405 
L 412.483022 176.603456 
L 412.254281 176.625425 
L 411.569713 176.299663 
L 410.66095 176.346011 
L 409.75662 176.064555 
L 409.306102 175.939098 
L 407.961248 176.270469 
L 407.292499 176.101493 
L 406.848054 176.268482 
L 405.521126 176.313631 
L 405.080953 176.404516 
L 404.641887 176.505839 
L 404.203846 176.603387 
L 403.113395 176.550045 
L 402.029512 176.310328 
L 401.597815 176.226844 
L 401.167118 176.276344 
L 400.952138 176.384902 
L 399.881251 176.291044 
L 399.667813 176.308921 
L 399.241738 176.520144 
L 398.392676 176.29217 
L 398.181014 176.084942 
L 397.758522 176.137408 
L 397.336998 176.474773 
L 397.126592 176.518925 
L 396.287576 176.264865 
L 395.869539 176.41096 
L 395.244355 176.147227 
L 395.036428 176.375631 
L 392.560619 176.514167 
L 392.151356 176.662244 
L 391.743086 176.61717 
L 391.132434 176.252515 
L 390.321528 176.208494 
L 389.917527 176.475463 
L 389.514429 176.361534 
L 388.911555 176.462803 
L 388.110992 176.295025 
L 387.911439 176.425498 
L 387.314127 176.335505 
L 386.917092 176.611044 
L 386.520937 176.629446 
L 386.125729 176.504235 
L 385.141643 176.342054 
L 384.749602 176.564381 
L 383.773388 176.457191 
L 383.384476 176.622328 
L 382.802772 176.49106 
L 382.609312 176.592744 
L 382.030253 176.295286 
L 381.261242 175.908344 
L 381.069534 175.867391 
L 380.68677 176.002515 
L 380.304906 175.829355 
L 379.733677 175.979117 
L 379.16438 176.181094 
L 378.975076 176.062012 
L 378.59704 176.10252 
L 378.219854 175.969931 
L 377.468056 176.263966 
L 376.533064 176.343469 
L 375.047902 176.314226 
L 374.4944 176.237101 
L 373.942743 176.181375 
L 373.57598 176.204344 
L 372.662637 176.505988 
L 372.298706 176.409827 
L 371.754363 176.55498 
L 371.031334 176.043123 
L 370.671028 176.026708 
L 369.594815 176.310607 
L 369.237658 176.224097 
L 368.170892 176.510185 
L 367.640107 176.500705 
L 367.287244 176.488753 
L 366.583785 176.32888 
L 366.233215 176.254744 
L 365.186019 176.195168 
L 364.664993 176.143289 
L 364.145652 176.112616 
L 363.800345 175.676566 
L 363.455811 175.618684 
L 363.111986 175.534618 
L 362.940366 175.455093 
L 362.768929 175.509868 
L 362.597677 175.727251 
L 362.426577 175.699895 
L 361.914467 175.052539 
L 361.573972 174.748416 
L 361.234205 174.648326 
L 360.895161 175.446349 
L 360.72594 175.239373 
L 360.387979 174.378577 
L 360.219268 174.422684 
L 359.71424 175.504848 
L 359.546245 175.310764 
L 359.210818 174.410005 
L 358.708996 175.276465 
L 358.542095 175.238543 
L 358.375342 175.391752 
L 358.042392 175.998115 
L 357.5443 175.244729 
L 357.047782 175.791727 
L 356.882634 175.621161 
L 356.71766 175.614745 
L 356.552829 175.866235 
L 356.388202 175.881583 
L 356.059465 175.29491 
L 355.731417 175.337941 
L 355.567651 175.053881 
L 355.077382 175.010607 
L 354.263705 175.642714 
L 354.101474 175.389115 
L 353.292904 172.30641 
L 353.131683 172.373913 
L 352.809772 171.552653 
L 352.16798 173.080139 
L 352.007955 173.026079 
L 351.688373 172.52076 
L 351.36948 171.779573 
L 351.210252 171.719638 
L 350.733639 172.267236 
L 350.416716 172.659599 
L 350.258499 172.522277 
L 349.942554 172.574824 
L 349.627286 172.442853 
L 349.469881 172.649618 
L 349.312638 172.409972 
L 349.155556 171.849342 
L 348.998663 171.909941 
L 348.685332 172.685233 
L 348.372614 172.375697 
L 348.216523 172.222702 
L 348.060564 172.283253 
L 347.904791 172.139149 
L 347.749178 172.203921 
L 347.438401 172.76634 
L 346.973436 172.439263 
L 346.818772 172.839695 
L 346.664266 172.883213 
L 346.509918 172.609435 
L 346.20169 171.705391 
L 346.047812 171.756387 
L 345.740522 171.499762 
L 345.433856 172.243179 
L 344.975048 172.24357 
L 344.365457 173.201059 
L 344.061597 174.496474 
L 343.153714 172.788967 
L 343.002941 172.163882 
L 342.85232 172.308857 
L 342.101479 174.328872 
L 341.802196 174.563299 
L 341.503511 174.874062 
L 341.205449 174.55383 
L 340.907983 174.790727 
L 340.759459 174.69955 
L 340.462881 173.419286 
L 340.166895 174.212396 
L 340.019135 173.851648 
L 339.724031 172.182242 
L 339.429539 172.831021 
L 339.135606 171.988813 
L 338.842281 172.53465 
L 338.695837 172.445228 
L 338.403409 172.151267 
L 338.111533 172.158629 
L 337.529536 173.931883 
L 336.949857 173.989904 
L 336.084632 175.612222 
L 335.940932 175.451306 
L 335.653954 175.800773 
L 335.081708 175.483102 
L 334.93899 175.443549 
L 334.085655 173.507468 
L 333.802326 172.532258 
L 333.660881 172.416926 
L 332.955692 170.995574 
L 332.81507 171.239697 
L 332.674585 171.167301 
L 332.253945 170.58704 
L 331.974196 170.761035 
L 331.83455 171.324554 
L 331.695014 171.28478 
L 331.555612 170.613629 
L 331.41637 170.771344 
L 331.277238 171.230952 
L 331.138265 171.280358 
L 330.999401 171.997112 
L 330.860695 172.037311 
L 330.169145 175.447152 
L 330.031238 175.38593 
L 329.618313 173.367931 
L 329.206599 171.022066 
L 329.069616 170.815324 
L 328.796067 170.144002 
L 328.659477 170.334057 
L 328.523042 170.729197 
L 328.386737 170.408784 
L 328.114493 168.920787 
L 327.842768 169.835255 
L 327.571586 170.690894 
L 327.165779 173.36489 
L 326.626526 168.999624 
L 326.089341 168.686221 
L 325.95535 168.237046 
L 325.687798 166.521804 
L 325.554188 166.272285 
L 325.287394 164.888448 
L 325.154186 165.026072 
L 325.021103 164.192172 
L 324.888147 164.415965 
L 324.490028 165.644715 
L 324.357595 165.530371 
L 324.093057 164.541097 
L 323.829039 165.724709 
L 323.565517 165.944156 
L 323.433953 165.588592 
L 323.302513 165.567918 
L 322.908907 167.440825 
L 322.777959 167.503375 
L 322.647133 167.740512 
L 322.385848 164.605174 
L 322.255412 164.522856 
L 322.125075 164.766425 
L 321.994859 165.736678 
L 321.864788 167.777087 
L 321.734816 167.985219 
L 321.475257 166.842089 
L 321.216181 165.844978 
L 321.086835 165.949829 
L 320.95761 166.489612 
L 320.828505 168.217152 
L 320.699519 168.321842 
L 320.441908 164.99366 
L 320.184775 166.173986 
L 320.056387 165.47369 
L 319.928118 165.668482 
L 319.799991 164.772711 
L 319.671959 164.989799 
L 319.416274 164.729291 
L 319.288621 165.903546 
L 319.033644 169.321638 
L 318.906343 168.461197 
L 318.77916 168.668993 
L 318.398314 167.151547 
L 318.145001 163.829743 
L 318.018519 163.158941 
L 317.387897 169.897774 
L 317.136462 167.771693 
L 316.88551 164.355559 
L 316.760206 164.619251 
L 316.509943 167.470534 
L 316.384983 166.713857 
L 316.260137 165.227606 
L 316.135405 166.285561 
L 315.886306 169.994701 
L 315.761915 169.69825 
L 315.513496 166.47318 
L 315.26553 168.362828 
L 314.894459 165.765711 
L 314.770993 165.441152 
L 314.64764 165.576969 
L 314.524399 166.174284 
L 314.155345 170.486921 
L 314.032572 169.212251 
L 313.787316 166.206048 
L 313.664877 166.141987 
L 313.420308 162.5305 
L 313.2982 163.258849 
L 313.176202 163.215054 
L 312.932537 161.503984 
L 312.81087 161.992854 
L 312.567864 165.49403 
L 312.446525 164.716396 
L 312.325295 164.684289 
L 312.204197 164.794401 
L 311.962304 162.301823 
L 311.720846 163.761432 
L 311.60029 163.851344 
L 311.359482 161.145248 
L 311.239251 161.574979 
L 310.759422 167.491556 
L 310.639728 165.425667 
L 310.050401 164.098045 
L 309.811707 162.737838 
L 309.335598 162.815031 
L 309.098181 162.54283 
L 308.861166 163.062919 
L 308.624594 162.510453 
L 308.388443 163.03854 
L 308.152691 164.797058 
L 307.917379 165.545862 
L 307.682464 165.485634 
L 307.447965 165.853197 
L 307.213902 165.898314 
L 306.746977 160.176062 
L 306.514133 159.235796 
L 306.2817 159.318705 
L 306.049677 159.916823 
L 305.586837 162.401915 
L 304.666029 161.089356 
L 304.436846 160.99298 
L 304.208044 160.377122 
L 303.979643 160.754265 
L 303.751641 161.442218 
L 303.524038 163.389419 
L 303.070021 160.278577 
L 302.843606 160.972289 
L 302.391958 163.394723 
L 302.166723 164.047045 
L 301.717405 160.822396 
L 301.269643 158.074556 
L 301.046333 158.102655 
L 300.600871 162.671421 
L 300.378737 162.341006 
L 299.935576 159.550671 
L 299.493941 161.425318 
L 299.053803 158.168554 
L 298.615193 156.598303 
L 298.396432 158.160554 
L 298.178065 160.843812 
L 297.960052 161.716635 
L 297.525162 158.512952 
L 297.308263 158.918488 
L 296.875575 161.538461 
L 296.659801 161.754062 
L 296.444376 160.665 
L 296.229297 160.754629 
L 295.586304 157.708008 
L 295.372699 157.237286 
L 295.159436 158.079178 
L 294.946552 157.149593 
L 294.521844 153.187075 
L 294.310035 152.243187 
L 293.887451 153.37323 
L 293.676692 152.352532 
L 293.466305 153.106575 
L 293.256253 152.999662 
L 293.046553 153.205177 
L 292.837205 153.678587 
L 292.628207 153.728469 
L 292.21126 154.619995 
L 291.795685 150.025157 
L 291.588427 149.300617 
L 291.381514 149.331423 
L 291.174927 149.533242 
L 290.762802 153.457076 
L 290.557262 152.000812 
L 290.352044 151.735243 
L 290.147167 152.390108 
L 289.942647 151.535389 
L 289.738448 152.089611 
L 289.534587 153.311961 
L 289.331062 152.364861 
L 288.925019 152.67188 
L 288.7225 153.040797 
L 288.520315 154.451516 
L 288.116941 152.338501 
L 287.915751 151.467186 
L 287.714873 151.963611 
L 287.514343 152.810359 
L 287.314142 150.74536 
L 287.11425 150.845335 
L 286.715466 157.41081 
L 286.516571 153.669945 
L 286.317983 153.862951 
L 286.119736 156.25119 
L 285.921796 156.001872 
L 285.724177 152.56302 
L 285.52688 151.868356 
L 285.329904 154.230454 
L 284.936927 152.112882 
L 284.740909 151.576382 
L 284.545207 152.320812 
L 284.349806 152.335126 
L 283.959985 147.5132 
L 283.377593 151.213435 
L 283.184094 151.126911 
L 282.990907 152.735783 
L 282.798013 152.0303 
L 282.605446 149.557645 
L 282.413172 149.390384 
L 282.221223 150.334355 
L 282.029565 149.612165 
L 281.838231 147.753392 
L 281.456447 149.68039 
L 281.0759 157.032526 
L 280.886073 156.925014 
L 280.507328 151.246251 
L 280.129788 149.737597 
L 279.941468 150.563786 
L 279.753447 152.462165 
L 279.191155 149.069234 
L 279.004323 149.178008 
L 278.631546 153.39566 
L 278.445583 150.359257 
L 278.25993 149.46161 
L 278.074553 150.016012 
L 277.889484 149.507343 
L 277.520205 152.29127 
L 277.335992 151.444285 
L 276.785121 145.546596 
L 276.602062 146.297309 
L 276.236804 149.462774 
L 276.054619 149.675307 
L 275.872703 146.744331 
L 275.69107 148.157793 
L 275.509721 151.488804 
L 275.328655 151.123341 
L 274.787146 145.971183 
L 274.427542 144.33056 
L 274.248158 144.444813 
L 274.069052 143.254588 
L 273.890224 143.468297 
L 273.711657 143.429193 
L 273.355382 146.216516 
L 273.177657 146.301741 
L 273.000191 145.235331 
L 272.469463 153.707315 
L 272.116999 149.88583 
L 271.941181 150.883559 
L 271.765617 155.009969 
L 271.590338 155.661727 
L 271.415312 155.689675 
L 270.891856 145.354969 
L 270.717914 143.110956 
L 270.544222 142.917113 
L 270.02475 150.806169 
L 269.852114 150.160454 
L 269.679741 148.429208 
L 269.507631 148.112774 
L 269.335781 151.490347 
L 268.82181 141.816779 
L 268.480449 149.407513 
L 267.970339 142.492111 
L 267.631532 147.572674 
L 267.462519 147.199127 
L 267.125256 139.801781 
L 266.789005 137.344837 
L 266.286503 139.95265 
L 265.952765 139.343987 
L 265.786255 140.13937 
L 265.620009 143.130339 
L 265.454011 142.391559 
L 265.288245 142.602848 
L 265.122742 143.573339 
L 264.792459 137.766934 
L 264.627693 137.625495 
L 264.463158 136.255311 
L 264.298882 136.786392 
L 263.971045 145.041808 
L 263.807483 142.925798 
L 263.481101 135.536883 
L 263.155683 148.233841 
L 262.993342 145.522849 
L 262.831225 140.848538 
L 262.669362 141.582859 
L 262.507723 145.189115 
L 262.346322 152.049298 
L 262.185173 151.03304 
L 262.024246 144.600923 
L 261.863555 144.149028 
L 261.542896 151.89771 
L 261.063658 138.470734 
L 260.904375 144.102444 
L 260.745339 141.964769 
L 260.58652 142.076919 
L 260.427934 141.479814 
L 260.269578 139.327138 
L 259.953573 133.246587 
L 259.638472 129.669119 
L 259.481279 130.235558 
L 259.16755 138.18847 
L 259.011026 138.527664 
L 258.698672 142.797968 
L 258.542826 139.620271 
L 258.387207 133.630466 
L 258.231811 133.11117 
L 257.921693 133.654442 
L 257.612482 143.348064 
L 257.304147 146.149169 
L 256.996697 151.815088 
L 256.843303 151.555153 
L 256.690142 153.155376 
L 256.537188 152.189252 
L 256.384452 151.970387 
L 255.927554 136.494329 
L 255.624042 136.709708 
L 255.170408 143.255631 
L 254.869052 135.850372 
L 254.718694 137.760432 
L 254.568551 141.215142 
L 254.41862 138.652348 
L 254.268901 139.060353 
L 253.672158 143.858795 
L 253.375043 136.154271 
L 253.2268 134.250087 
L 253.078779 134.317811 
L 252.783337 137.165496 
L 252.341728 129.306249 
L 252.048368 133.453731 
L 251.464085 153.390407 
L 251.318537 159.570576 
L 251.17318 159.928358 
L 250.593789 137.199666 
L 250.305296 131.031652 
L 250.161363 130.877309 
L 249.874071 134.900764 
L 249.444638 156.850369 
L 249.301886 154.089282 
L 248.732873 125.609422 
L 248.16698 118.216353 
L 248.026003 118.562703 
L 247.885207 118.529414 
L 247.744617 116.559049 
L 247.604208 117.488412 
L 247.464003 120.279875 
L 247.184159 114.411336 
L 247.044517 114.280089 
L 246.905079 114.533087 
L 246.626763 113.210078 
L 246.487896 112.85421 
L 246.349206 113.48907 
L 246.210717 118.133457 
L 246.072405 118.642801 
L 245.79637 111.680905 
L 245.658622 114.342616 
L 245.521073 121.213741 
L 245.109533 114.051745 
L 244.972729 116.368229 
L 244.699676 116.667119 
L 244.563427 120.741805 
L 244.291468 115.605524 
L 244.15577 117.801722 
L 244.020255 116.655383 
L 243.884922 118.514845 
L 243.614804 112.207119 
L 243.480017 111.144038 
L 243.345411 107.988238 
L 243.210987 108.720032 
L 242.94269 115.228899 
L 242.6751 123.160411 
L 242.408227 112.591867 
L 242.009252 106.707429 
L 241.876639 108.435747 
L 241.74418 108.444606 
L 241.611896 108.257364 
L 241.347858 111.008583 
L 241.216102 111.307188 
L 240.953139 105.892529 
L 240.821908 106.716286 
L 240.69085 111.802585 
L 240.429279 107.617547 
L 240.298742 108.14012 
L 240.1684 110.712455 
L 239.908187 106.465285 
L 239.778362 104.313046 
L 239.648684 104.822794 
L 239.260699 112.604085 
L 239.0029 108.857368 
L 238.745779 110.120993 
L 238.617482 111.737607 
L 238.361371 106.423014 
L 238.10593 113.052745 
L 237.978449 112.456987 
L 237.59705 104.408244 
L 237.470256 104.250294 
L 237.217141 106.926429 
L 237.090842 106.616199 
L 236.838714 119.005142 
L 236.587264 107.909648 
L 236.461761 108.989592 
L 236.336443 111.374062 
L 235.961463 106.891569 
L 235.712284 111.775814 
L 235.587914 109.054561 
L 235.463726 108.907633 
L 235.339699 110.451303 
L 235.215832 109.309161 
L 235.092124 105.893247 
L 234.968576 106.717471 
L 234.721955 116.840957 
L 234.47599 107.851986 
L 233.985908 115.835988 
L 233.741807 114.674592 
L 233.376846 126.507677 
L 233.255518 126.32509 
L 233.134322 128.421741 
L 233.013281 124.152104 
L 232.651103 100.426893 
L 232.410425 114.523339 
L 232.050564 101.06905 
L 231.930899 105.042117 
L 231.692047 117.31643 
L 231.453819 102.962531 
L 231.33491 101.421525 
L 231.216172 106.300905 
L 230.860834 98.149164 
L 230.742693 96.584798 
L 230.624701 96.850034 
L 230.271594 103.486005 
L 230.154194 101.791857 
L 230.036941 102.236561 
L 229.802876 111.538145 
L 229.569397 102.838808 
L 229.336501 99.56431 
L 229.220271 99.269792 
L 228.988247 104.994099 
L 228.641313 94.440952 
L 228.52595 98.11129 
L 228.295674 92.567322 
L 228.18074 94.544131 
L 227.95132 93.209751 
L 227.836813 94.006607 
L 227.722469 96.202451 
L 227.494183 92.136587 
L 227.380242 92.431553 
L 227.266462 91.043016 
L 227.152823 91.574938 
L 226.925944 96.127455 
L 226.812704 98.687204 
L 226.586683 96.263537 
L 226.361198 92.24856 
L 226.248673 91.573474 
L 226.024038 86.655841 
L 225.911927 87.607299 
L 225.799953 91.717111 
L 225.576417 86.973809 
L 225.464854 89.323986 
L 225.353428 87.681657 
L 225.242137 88.53499 
L 224.798352 81.374562 
L 224.687739 81.642854 
L 224.57726 82.460156 
L 224.466916 84.666761 
L 224.356726 84.635761 
L 224.246649 83.951961 
L 224.026917 89.297802 
L 223.917242 92.88939 
L 223.698308 90.939295 
L 223.37091 84.844879 
L 223.044698 88.887304 
L 222.827891 86.856328 
L 222.611588 81.833595 
L 222.395823 83.680557 
L 222.288136 82.202705 
L 222.180578 82.914407 
L 222.073148 80.992756 
L 221.965848 81.565616 
L 221.751652 86.687921 
L 221.53795 83.119014 
L 221.218374 84.247533 
L 221.005945 83.057088 
L 220.68829 80.194498 
L 220.582644 80.46318 
L 220.477143 80.045444 
L 220.371748 80.668528 
L 220.161372 79.217779 
L 219.951476 78.706019 
L 219.742096 80.084205 
L 219.637592 81.414197 
L 219.533193 80.453212 
L 219.428936 81.047052 
L 219.324802 83.415215 
L 218.909513 79.252282 
L 218.805992 78.198672 
L 218.49616 85.590351 
L 218.29023 80.006671 
L 218.187437 78.954178 
L 217.982231 80.40358 
L 217.879818 80.075835 
L 217.675333 79.00524 
L 217.573279 79.066334 
L 217.471326 77.829311 
L 217.166217 83.465299 
L 216.862193 79.878076 
L 216.761088 78.74839 
L 216.55923 74.302571 
L 216.458477 74.803478 
L 216.156919 79.073461 
L 216.056651 77.563646 
L 215.956481 77.663944 
L 215.556995 73.933823 
L 215.457404 74.509012 
L 215.258583 77.447886 
L 215.159353 76.069593 
L 214.961219 77.928641 
L 214.862332 77.457921 
L 214.566335 72.757591 
L 214.467902 72.022834 
L 214.271375 74.371187 
L 214.075298 75.797993 
L 213.782042 72.017052 
L 213.587102 73.124478 
L 213.39259 73.76915 
L 213.198538 71.705719 
L 213.101687 70.809785 
L 212.811778 72.739825 
L 212.715349 72.662406 
L 212.522855 73.195435 
L 212.426772 73.23653 
L 212.234933 74.678943 
L 212.043528 73.820956 
L 211.947988 74.514671 
L 211.852556 76.182003 
L 211.471923 94.798758 
L 211.282258 82.23295 
L 211.187594 84.516978 
L 210.809969 74.594376 
L 210.527871 79.853774 
L 210.246738 70.866005 
L 210.153236 71.372576 
L 210.05984 72.595771 
L 209.966547 71.965779 
L 209.873376 73.891837 
L 209.780292 73.762151 
L 209.687312 73.106915 
L 209.50168 81.999369 
L 209.223998 70.656406 
L 208.947258 74.549145 
L 208.855221 74.081295 
L 208.579708 67.669819 
L 208.48808 68.429697 
L 208.213818 74.053766 
L 208.031472 68.73473 
L 207.940449 70.338102 
L 207.849544 69.902186 
L 207.668001 67.936469 
L 207.486874 73.708645 
L 207.396468 76.589883 
L 207.035821 69.347589 
L 206.94591 69.994117 
L 206.67677 75.791757 
L 206.497835 73.258477 
L 206.408514 75.476984 
L 206.319291 75.138619 
L 205.78604 67.530665 
L 205.520728 75.618094 
L 205.344328 67.253106 
L 205.25628 68.918189 
L 205.168327 68.40031 
L 204.992708 64.186088 
L 204.905057 64.124246 
L 204.642625 67.949613 
L 204.468159 68.006617 
L 204.381075 68.659071 
L 204.29407 71.813851 
L 204.207174 70.920449 
L 203.947031 64.19595 
L 203.860509 63.851646 
L 203.687744 66.750513 
L 203.6015 66.735772 
L 203.51535 66.254721 
L 203.343325 69.319619 
L 203.085996 62.627577 
L 202.829491 69.4216 
L 202.573824 67.897738 
L 202.403843 72.02697 
L 201.896086 66.463205 
L 201.811772 66.369161 
L 201.727547 68.66035 
L 201.391572 87.374131 
L 201.224132 71.015408 
L 201.057032 79.585832 
L 200.557904 65.769548 
L 200.392224 71.036174 
L 200.30953 69.246604 
L 200.144386 64.152248 
L 200.061938 66.550159 
L 199.897329 63.097658 
L 199.733065 72.243563 
L 199.487315 63.812871 
L 199.323909 59.60417 
L 198.998136 62.638972 
L 198.916915 62.123157 
L 198.83578 59.512153 
L 198.512067 76.0757 
L 198.189712 61.829309 
L 198.109332 63.666719 
L 197.868707 56.297346 
L 197.628842 62.265806 
L 197.310181 55.132123 
L 197.230725 55.787175 
L 196.992848 58.842375 
L 196.755718 67.729572 
L 196.598042 58.683294 
L 196.519332 59.059018 
L 196.440689 62.144475 
L 196.283673 59.578898 
L 196.205285 59.208722 
L 195.970604 53.853709 
L 195.892537 54.343837 
L 195.581078 63.399563 
L 195.425831 55.466897 
L 195.348333 56.275998 
L 195.19356 57.509404 
L 195.116299 56.142688 
L 194.808036 61.573061 
L 194.73118 60.7352 
L 194.577673 63.568927 
L 194.271631 56.869928 
L 194.195304 56.352866 
L 193.890818 58.133231 
L 193.814889 58.013231 
L 193.663272 52.858279 
L 193.587572 53.613706 
L 193.436412 57.113874 
L 193.34168 54.87903 
L 193.207658 54.836638 
L 193.073862 53.586033 
L 192.940317 55.672228 
L 192.806997 54.087822 
L 192.541068 56.314772 
L 192.276069 53.802867 
L 192.143929 52.730906 
L 191.880336 54.073333 
L 191.748883 53.81506 
L 191.617662 53.817324 
L 191.486672 52.247619 
L 191.355914 52.04967 
L 191.225386 54.356711 
L 190.965006 52.716628 
L 190.70554 50.511716 
L 190.060812 54.33142 
L 189.932543 54.006205 
L 189.804484 54.21515 
L 189.676661 57.145386 
L 189.294502 53.926577 
L 189.167554 50.931355 
L 189.040826 50.809781 
L 188.914306 52.25626 
L 188.788018 52.123682 
L 188.661948 52.464152 
L 188.536084 49.9966 
L 188.41045 50.002078 
L 188.28502 50.949525 
L 188.159807 50.094916 
L 188.03481 50.243981 
L 187.785462 51.498015 
L 187.413033 47.58972 
L 187.165806 49.735463 
L 186.919426 49.015316 
L 186.796546 49.05545 
L 186.551403 52.310361 
L 186.185259 44.841984 
L 186.06363 44.932195 
L 185.942196 45.451197 
L 185.699959 44.646973 
L 185.45853 46.400092 
L 185.33811 46.178505 
L 185.217906 46.639595 
L 185.097905 44.583349 
L 184.858498 44.949669 
L 184.619886 47.099238 
L 184.263483 43.926918 
L 184.145065 44.261619 
L 184.026857 43.963544 
L 183.908848 44.981166 
L 183.67341 42.288416 
L 183.55598 42.359435 
L 183.438746 42.894761 
L 183.32172 42.423198 
L 183.204877 42.607706 
L 182.855504 44.95651 
L 182.623563 42.380773 
L 182.50787 42.626584 
L 182.39238 43.216417 
L 182.27707 45.632341 
L 182.16195 52.171813 
L 182.047021 52.129354 
L 181.703373 42.232079 
L 181.589201 42.526772 
L 181.361409 41.506436 
L 181.2478 41.647073 
L 181.134367 41.502273 
L 181.021119 40.632494 
L 180.908058 41.777181 
L 180.569994 40.669157 
L 180.345521 39.568926 
L 180.121779 41.983476 
L 180.010188 41.48237 
L 179.67648 40.307576 
L 179.344385 41.328484 
L 179.234045 41.477552 
L 179.123874 43.0863 
L 178.794448 38.780546 
L 178.684998 38.006384 
L 178.466605 38.471955 
L 178.248926 39.350178 
L 178.140332 39.503803 
L 177.92369 37.969097 
L 177.707743 38.995081 
L 177.600018 39.091699 
L 177.492476 40.326442 
L 177.385095 40.0744 
L 177.277886 41.01257 
L 177.170858 39.1334 
L 176.957294 40.226429 
L 176.850767 40.707025 
L 176.638222 40.138564 
L 176.532192 41.737514 
L 176.320647 40.624792 
L 176.215131 40.279352 
L 176.109772 41.374774 
L 176.00459 44.04719 
L 175.794704 40.920516 
L 175.585481 38.31313 
L 175.481116 38.195936 
L 175.376916 39.071364 
L 175.168998 36.70174 
L 175.065289 36.241449 
L 174.961743 37.007261 
L 174.858349 38.719107 
L 174.755117 38.593407 
L 174.652057 38.158222 
L 174.549148 39.123442 
L 174.446401 37.837428 
L 174.241387 40.038126 
L 174.13912 39.546526 
L 174.037012 40.269374 
L 173.63015 35.477148 
L 173.528834 35.939308 
L 173.427666 34.87275 
L 173.22581 35.005059 
L 173.024568 37.479927 
L 172.924181 36.474757 
L 172.723871 38.513993 
L 172.623938 37.51908 
L 172.424554 38.921348 
L 172.225773 36.608533 
L 172.126607 35.015373 
L 172.027603 35.107297 
L 171.830031 36.521083 
L 171.731472 36.119465 
L 171.534807 33.942381 
L 171.338742 33.413384 
L 171.045756 36.269913 
L 170.948395 36.753319 
L 170.851172 36.606315 
L 170.560399 34.25366 
L 170.270948 36.289676 
L 170.174753 34.650468 
L 170.078704 35.474844 
L 169.9828 34.520788 
L 169.887031 35.206413 
L 169.410378 33.342525 
L 169.315481 34.10409 
L 169.126096 37.091355 
L 168.937289 32.252294 
L 168.843092 31.708615 
L 168.749037 32.691245 
L 168.655122 32.361617 
L 168.561348 32.453891 
L 168.467714 32.231231 
L 168.37421 32.387782 
L 168.18764 35.373916 
L 167.908806 53.017135 
L 167.816144 49.036239 
L 167.538963 33.61551 
L 167.44684 32.670934 
L 167.354854 34.192318 
L 167.07971 31.329273 
L 166.896948 30.043387 
L 166.805773 30.105191 
L 166.714733 29.836414 
L 166.533046 31.291131 
L 166.081153 29.04206 
L 165.901315 30.502989 
L 165.811593 29.38543 
L 165.722002 29.842519 
L 165.632542 28.582848 
L 165.543212 28.948378 
L 165.454013 28.751969 
L 165.364944 30.407698 
L 165.276004 29.622073 
L 165.187185 30.039739 
L 165.098504 29.972348 
L 165.009952 31.474485 
L 164.921519 31.068844 
L 164.745048 28.961027 
L 164.657008 28.987957 
L 164.569087 29.439155 
L 164.481293 30.734133 
L 164.393627 29.274318 
L 164.306095 29.418568 
L 164.218681 29.759873 
L 163.957195 27.7281 
L 163.78349 28.339952 
L 163.696828 27.559476 
L 163.610292 28.321651 
L 163.437582 27.715682 
L 163.265375 28.290281 
L 163.093653 27.705104 
L 163.007971 28.650966 
L 162.922412 28.52164 
L 162.751668 29.386272 
L 162.581403 28.846381 
L 162.496451 29.045897 
L 162.411621 28.381903 
L 162.326911 26.529568 
L 162.157852 28.208746 
L 162.073503 27.885155 
L 161.82117 26.341224 
L 161.737289 26.804699 
L 161.653534 26.535571 
L 161.56989 27.602594 
L 161.486371 27.440937 
L 161.31968 27.153113 
L 161.236506 27.403929 
L 161.153457 26.808474 
L 161.070517 27.053278 
L 160.987694 27.963391 
L 160.822404 26.390862 
L 160.739928 25.892407 
L 160.575324 26.906287 
L 160.493195 28.805998 
L 160.247495 25.788849 
L 160.084266 28.223281 
L 159.921484 28.389501 
L 159.840267 28.34253 
L 159.759163 27.654083 
L 159.678163 28.242149 
L 159.435854 26.542772 
L 159.355303 26.414645 
L 159.274872 25.080579 
L 159.114335 26.045497 
L 159.034229 26.065384 
L 158.954233 26.803038 
L 158.794581 25.475492 
L 158.635361 26.759606 
L 158.555915 25.599373 
L 158.476579 25.73372 
L 158.397351 25.480615 
L 158.081528 26.252287 
L 158.002842 25.97023 
L 157.924256 26.41802 
L 157.767423 25.15969 
L 157.689167 26.395637 
L 157.532968 25.081557 
L 157.377194 26.680481 
L 157.29947 25.889446 
L 157.221844 26.186439 
L 157.066916 28.877968 
L 156.989606 27.26848 
L 156.912409 27.777568 
L 156.681429 26.822779 
L 156.604641 25.856479 
L 156.527957 26.168571 
L 156.451377 26.551465 
L 156.298535 23.983112 
L 156.222264 25.164753 
L 156.146096 25.099534 
L 156.070031 25.182328 
L 155.994069 24.276717 
L 155.84245 24.99724 
L 155.766793 25.02728 
L 155.691238 24.407921 
L 155.540424 27.020189 
L 155.465172 26.779596 
L 155.314971 24.87883 
L 155.240013 25.306485 
L 155.165163 25.08764 
L 155.015755 23.88862 
L 154.941205 24.28716 
L 154.866753 24.234272 
L 154.792394 22.829015 
L 154.71814 23.157287 
L 154.569923 24.392787 
L 154.495958 24.253707 
L 154.422098 23.129507 
L 154.348329 23.855377 
L 154.274666 23.692183 
L 154.127616 25.072686 
L 154.054245 25.048734 
L 153.980963 26.526738 
L 153.907778 26.012283 
L 153.834697 25.990677 
L 153.688809 26.289313 
L 153.61601 26.854284 
L 153.543306 26.167931 
L 153.470705 26.792075 
L 153.253453 23.457525 
L 153.109093 25.013874 
L 152.965112 23.677097 
L 152.893262 23.970068 
L 152.678277 22.599182 
L 152.392938 25.048062 
L 152.321829 24.034365 
L 152.250819 24.134861 
L 152.179901 25.011879 
L 152.038342 23.018396 
L 151.967694 24.057638 
L 151.897144 22.802246 
L 151.826685 22.862304 
L 151.686035 22.495731 
L 151.61585 21.764419 
L 151.475744 23.145332 
L 151.405831 22.320089 
L 151.266268 23.319878 
L 151.196624 22.560772 
L 151.127071 22.905882 
L 151.0576 23.235208 
L 150.918933 21.498156 
L 150.780622 23.023941 
L 150.711603 22.328875 
L 150.642665 23.383277 
L 150.573823 22.8595 
L 150.436397 21.498884 
L 150.367812 21.541198 
L 150.299321 21.428514 
L 150.162596 22.909473 
L 150.026219 26.274905 
L 149.958158 26.021655 
L 149.822302 21.574943 
L 149.619161 22.870282 
L 149.551617 22.665522 
L 149.484165 23.065843 
L 149.416793 21.157841 
L 149.349505 22.138358 
L 149.28231 23.46512 
L 149.014357 20.517919 
L 148.880884 22.756904 
L 148.81428 22.668749 
L 148.681311 19.919257 
L 148.614959 20.407853 
L 148.350362 22.772507 
L 148.284419 22.085252 
L 148.021477 20.503906 
L 147.955945 20.41625 
L 147.890495 19.686897 
L 147.825134 19.734519 
L 147.694642 21.337472 
L 147.629519 21.324823 
L 147.564483 20.339178 
L 147.499521 20.735835 
L 147.43464 20.705234 
L 147.30512 18.944493 
L 147.240487 19.013346 
L 146.982737 20.655567 
L 146.918497 20.148539 
L 146.854337 18.266565 
L 146.790256 18.273107 
L 146.726261 18.048927 
L 146.598495 20.139229 
L 146.534729 19.936157 
L 146.217093 23.549415 
L 146.090579 19.802242 
L 146.027439 19.927584 
L 145.964382 19.800291 
L 145.901397 20.396336 
L 145.838488 20.12891 
L 145.712909 18.178958 
L 145.587636 19.179138 
L 145.462663 20.782497 
L 145.27578 19.249094 
L 145.213642 19.351852 
L 145.08958 20.943023 
L 145.027668 20.409047 
L 144.965825 19.548817 
L 144.904063 21.876607 
L 144.84237 20.815367 
L 144.780752 20.462448 
L 144.657746 19.244948 
L 144.351533 21.541363 
L 144.290508 20.674805 
L 144.229563 21.69939 
L 144.047156 18.75954 
L 143.986504 17.466691 
L 143.925919 18.319497 
L 143.624107 19.348109 
L 143.503884 18.093203 
L 143.383949 18.14657 
L 143.204592 21.330604 
L 143.144943 21.769492 
L 143.085377 23.093631 
L 143.025871 22.164251 
L 142.966435 21.461939 
L 142.907081 21.515755 
L 142.847786 22.078878 
L 142.788574 21.9444 
L 142.72942 21.759892 
L 142.670348 19.832915 
L 142.611335 20.688797 
L 142.552391 20.543275 
L 142.493529 19.191842 
L 142.434725 19.990638 
L 142.258754 18.280796 
L 142.200228 19.467778 
L 142.141782 19.43328 
L 142.025086 18.411391 
L 141.966847 18.549183 
L 141.850563 19.702268 
L 141.734553 18.790527 
L 141.445723 22.590389 
L 141.158593 19.731685 
L 141.101359 19.90943 
L 141.044203 20.253527 
L 140.873136 18.831162 
L 140.816235 18.708965 
L 140.759411 18.930357 
L 140.645963 17.68535 
L 140.476273 18.468852 
L 140.363482 18.415152 
L 140.307184 18.630348 
L 140.250952 18.509754 
L 140.138682 20.619929 
L 139.91492 18.168329 
L 139.859141 18.610514 
L 139.803426 18.629337 
L 139.747776 17.73443 
L 139.581208 20.681483 
L 139.470482 28.863194 
L 139.304879 20.14533 
L 139.194787 21.817191 
L 138.975367 43.074808 
L 138.811462 22.628721 
L 138.648118 17.684028 
L 138.485341 18.000933 
L 138.431198 17.885506 
L 138.377128 19.78267 
L 138.323108 19.592973 
L 138.26916 18.613875 
L 138.215263 19.158351 
L 138.107661 19.272949 
L 138.053958 18.884939 
L 138.000304 20.590994 
L 137.946721 19.751663 
L 137.8932 19.540586 
L 137.732985 31.800581 
L 137.679694 37.297425 
L 137.626473 35.350707 
L 137.46716 21.112298 
L 137.361256 19.721903 
L 137.202846 17.789401 
L 137.097524 18.476889 
L 136.992449 17.535551 
L 136.835276 19.42903 
L 136.783002 19.105737 
L 136.730787 20.718776 
L 136.678629 20.181358 
L 136.522516 18.666081 
L 136.470591 19.571586 
L 136.418723 17.925361 
L 136.366924 18.090734 
L 136.315171 18.188167 
L 136.263476 20.57413 
L 136.211839 19.254976 
L 136.108745 20.224445 
L 135.903243 18.006213 
L 135.749707 16.95732 
L 135.698638 16.977281 
L 135.545788 19.630198 
L 135.494954 19.584616 
L 135.342776 17.103296 
L 135.292165 17.266162 
L 135.140655 18.848698 
L 134.939418 14.974954 
L 134.839135 18.312795 
L 134.789075 17.914737 
L 134.739071 18.237373 
L 134.68912 18.01649 
L 134.539596 15.951278 
L 134.489863 16.120404 
L 134.39057 17.616401 
L 134.340999 17.32356 
L 134.242019 16.593403 
L 134.044722 21.826189 
L 133.995527 21.345385 
L 133.799296 15.66046 
L 133.701498 15.976645 
L 133.506545 18.013727 
L 133.409377 15.16265 
L 133.360877 16.975073 
L 133.215679 20.737793 
L 133.167387 19.309029 
L 133.070957 17.988814 
L 133.02282 18.051533 
L 132.974734 17.524562 
L 132.9267 18.3628 
L 132.878717 17.700077 
L 132.830786 15.876882 
L 132.735086 16.261218 
L 132.591904 14.170815 
L 132.639581 16.450098 
L 132.544288 14.319798 
L 132.354302 17.776163 
L 132.259616 15.600866 
L 132.165131 16.071292 
L 131.976762 21.534621 
L 131.929799 21.181106 
L 131.882886 22.074317 
L 131.789198 19.877738 
L 131.742433 21.228175 
L 131.695718 21.16475 
L 131.231268 15.474616 
L 131.138961 15.557885 
L 131.046856 17.927974 
L 131.000871 17.696907 
L 130.909056 16.306856 
L 130.863215 16.576976 
L 130.817432 17.209355 
L 130.771687 17.068095 
L 130.725999 16.409484 
L 130.634757 16.566393 
L 130.589211 16.450887 
L 130.543714 17.088671 
L 130.452851 16.96342 
L 130.362186 15.782363 
L 130.091319 21.690758 
L 129.956524 17.258251 
L 129.911683 17.804441 
L 129.866888 17.692491 
L 129.822139 17.910652 
L 129.777445 17.614048 
L 129.465839 15.314639 
L 129.332995 17.005383 
L 129.288795 17.028102 
L 129.20055 16.364482 
L 129.024601 19.349969 
L 128.980726 18.905775 
L 128.893111 21.887757 
L 128.84937 21.026842 
L 128.805683 17.325201 
L 128.718425 17.446025 
L 128.631353 18.274273 
L 128.587879 17.691234 
L 128.544458 17.32492 
L 128.371198 19.159961 
L 128.327997 15.964334 
L 128.241718 16.760579 
L 128.198649 16.707742 
L 128.155623 16.806045 
L 128.026805 19.072698 
L 127.855656 16.732481 
L 127.812976 16.999664 
L 127.770348 18.140401 
L 127.727755 17.508657 
L 127.557825 15.208126 
L 127.430822 17.931463 
L 127.388578 17.813608 
L 127.346368 18.08754 
L 127.304209 17.521855 
L 127.262091 18.385439 
L 127.135993 16.90964 
L 127.094036 17.960015 
L 127.052129 17.025847 
L 127.010272 17.21853 
L 126.801573 14.788945 
L 126.759966 16.670643 
L 126.676868 16.578544 
L 126.635376 16.162642 
L 126.511166 18.537362 
L 126.304967 16.573052 
L 126.222779 16.686268 
L 126.181746 14.944808 
L 126.140753 17.823497 
L 126.099801 17.565145 
L 126.018019 14.967448 
L 125.977196 16.354692 
L 125.936405 16.413234 
L 125.895655 16.240329 
L 125.854953 16.444415 
L 125.814283 16.678125 
L 125.73307 18.122241 
L 125.652017 16.526959 
L 125.611554 17.375845 
L 125.571131 17.861519 
L 125.53074 16.345833 
L 125.490396 16.45151 
L 125.450092 17.641434 
L 125.409827 16.869446 
L 125.289268 16.148449 
L 125.169063 17.460307 
L 125.129081 18.012953 
L 125.009352 14.186381 
L 124.889972 16.456578 
L 124.850262 16.300263 
L 124.691797 20.120283 
L 124.652279 22.46191 
L 124.573358 21.682935 
L 124.415973 18.796714 
L 124.376722 19.771243 
L 124.337516 18.896739 
L 124.259203 15.439292 
L 124.220112 17.426541 
L 124.142033 15.590888 
L 124.103046 15.889288 
L 123.959992 17.395517 
L 123.798628 17.840303 
L 123.637599 16.950613 
L 123.316484 18.060941 
L 123.236414 17.855345 
L 123.076495 16.844392 
L 122.837228 17.079332 
L 122.678114 17.633417 
L 122.598675 17.528029 
L 122.51932 17.901098 
L 122.360838 19.1432 
L 122.202675 18.322627 
L 122.123715 18.69158 
L 122.044824 18.707928 
L 121.808651 17.789981 
L 121.65159 17.660997 
L 121.573178 17.903058 
L 121.416589 19.510768 
L 121.182294 17.730721 
L 121.026481 17.688917 
L 120.87098 18.263862 
L 120.715791 17.642309 
L 120.638321 17.972717 
L 120.483596 20.263541 
L 120.406355 20.088507 
L 120.098145 17.991889 
L 119.867793 20.33281 
L 119.791169 22.773336 
L 119.714613 22.765244 
L 119.561738 19.751784 
L 119.485418 20.493685 
L 119.409167 20.395774 
L 119.332993 20.643251 
L 119.18088 18.993871 
L 119.029078 20.350172 
L 118.953284 19.564007 
L 118.801926 21.865087 
L 118.726368 21.457954 
L 118.650873 20.064118 
L 118.57546 20.396617 
L 118.500124 22.627065 
L 118.424864 22.609309 
L 118.274559 20.261113 
L 118.19952 20.663522 
L 117.974862 27.32065 
L 117.825465 22.86935 
L 117.750877 23.000952 
L 117.601923 19.961042 
L 117.527557 20.51205 
L 117.453273 21.077925 
L 117.230847 19.402621 
L 116.935316 19.296834 
L 116.787992 20.489011 
L 116.714437 20.476108 
L 116.494223 19.693544 
L 116.420966 20.089276 
L 116.274668 21.496026 
L 116.128668 19.538415 
L 116.055772 19.661298 
L 115.910209 21.901461 
L 115.764932 20.710489 
L 115.619952 21.719748 
L 115.258763 20.137181 
L 115.114785 21.699492 
L 114.971098 22.782583 
L 114.613137 20.108976 
L 114.541762 20.294573 
L 114.399223 21.764207 
L 114.044114 19.926274 
L 113.902564 20.960305 
L 113.690781 24.015456 
L 113.549936 22.253196 
L 113.479621 22.406727 
L 113.269101 21.755082 
L 113.199065 22.343984 
L 112.989383 20.545995 
L 112.78033 22.934511 
L 112.710784 22.509973 
L 112.641307 22.328796 
L 112.502568 21.216177 
L 112.364098 24.491531 
L 112.225907 21.53724 
L 112.156913 21.836372 
L 112.019147 24.332333 
L 111.812993 21.048858 
L 111.675907 21.933295 
L 111.53909 25.009637 
L 111.470784 26.31424 
L 111.33438 22.278729 
L 111.266283 23.284652 
L 111.19825 24.404527 
L 111.062388 21.734359 
L 110.859105 24.429293 
L 110.79148 24.346046 
L 110.589012 21.552294 
L 110.521655 21.376405 
L 110.319992 22.194276 
L 110.252903 21.872951 
L 110.18589 21.95919 
L 110.118935 22.082586 
L 110.05205 21.893211 
L 109.985235 22.093627 
L 109.918479 23.118016 
L 109.851792 23.108569 
L 109.718629 22.082655 
L 109.519369 22.240667 
L 109.386865 21.835215 
L 109.32071 22.020834 
L 109.056759 23.907589 
L 108.728295 22.176172 
L 108.662795 22.242295 
L 108.532003 22.932258 
L 108.466706 22.843181 
L 108.271197 23.474079 
L 108.206158 23.423714 
L 108.141189 23.294823 
L 107.946657 23.579875 
L 107.817288 23.197578 
L 107.752706 23.728819 
L 107.688187 23.52351 
L 107.559339 22.794996 
L 107.430749 23.067089 
L 107.366549 23.0287 
L 107.302417 23.102712 
L 107.238345 23.617579 
L 107.174338 25.230083 
L 107.046517 35.087361 
L 106.982708 31.892849 
L 106.791648 24.193371 
L 106.728082 24.214141 
L 106.664585 24.790646 
L 106.601158 24.719524 
L 106.411239 23.573628 
L 106.348055 23.47089 
L 106.284936 23.822377 
L 106.221886 23.724986 
L 106.158896 23.572004 
L 105.970301 25.199117 
L 105.782278 23.764557 
L 105.407904 26.121788 
L 105.159571 24.177529 
L 105.03578 23.976572 
L 104.912227 24.857107 
L 104.788928 26.596037 
L 104.727368 26.373146 
L 104.60444 25.945514 
L 104.481757 24.588459 
L 104.420505 24.625215 
L 104.298185 25.639913 
L 104.176109 24.776535 
L 104.115166 24.800495 
L 103.993453 24.646811 
L 103.932693 24.706731 
L 103.811349 25.775316 
L 103.690248 24.876617 
L 103.569387 26.503297 
L 103.50905 26.402716 
L 103.328391 25.637742 
L 103.208257 26.667884 
L 103.14828 26.072126 
L 103.088358 26.2287 
L 102.968707 27.277128 
L 102.908961 27.207233 
L 102.730106 26.106253 
L 102.670604 26.275529 
L 102.551782 25.834406 
L 102.492464 25.855885 
L 102.373997 26.498895 
L 102.314849 26.314772 
L 102.078866 26.562958 
L 101.961225 25.949044 
L 101.902492 26.196252 
L 101.843819 26.290848 
L 101.785206 26.032713 
L 101.726649 26.327827 
L 101.609714 27.508077 
L 101.434748 26.809669 
L 101.260304 27.007619 
L 101.144302 28.655432 
L 100.970727 26.699202 
L 100.912987 26.656094 
L 100.74011 28.786619 
L 100.682597 28.604857 
L 100.567743 27.502506 
L 100.453128 28.851478 
L 100.224571 26.812382 
L 100.167577 26.766042 
L 100.110638 27.257942 
L 99.996928 30.317748 
L 99.940161 29.7677 
L 99.770198 28.099587 
L 99.431793 30.06136 
L 99.263346 27.573307 
L 99.03954 29.090029 
L 98.983734 28.50827 
L 98.92798 28.579778 
L 98.761042 30.339331 
L 98.594611 29.378474 
L 98.483934 28.585947 
L 98.373472 29.259094 
L 98.318329 28.767855 
L 98.208203 31.578141 
L 98.153221 30.380066 
L 98.043423 28.559651 
L 97.988608 28.863699 
L 97.879141 30.208029 
L 97.769895 29.657743 
L 97.606429 36.50367 
L 97.55205 34.029566 
L 97.389238 29.113387 
L 97.226913 30.21231 
L 97.172914 30.124022 
L 97.118971 29.818334 
L 97.065077 29.914852 
L 96.957456 30.559142 
L 96.796423 29.722417 
L 96.689336 31.490037 
L 96.582465 30.081099 
L 96.529108 30.107251 
L 96.475811 29.705004 
L 96.369362 31.820119 
L 96.316222 31.688576 
L 96.157111 30.290444 
L 95.998478 31.842936 
L 95.945704 31.530362 
L 95.84032 33.650046 
L 95.787706 33.219826 
L 95.735145 32.703056 
L 95.682636 33.450592 
L 95.63018 33.206501 
L 95.525425 32.628606 
L 95.473125 33.07815 
L 95.368684 35.563994 
L 95.264453 33.022245 
L 95.108491 39.420694 
L 95.056608 37.219158 
L 95.00478 34.468446 
L 94.953002 34.784566 
L 94.746405 40.994557 
L 94.694882 44.981462 
L 94.643411 42.346624 
L 94.540627 34.948382 
L 94.489313 35.035163 
L 94.38684 34.418984 
L 94.284567 35.724299 
L 94.233505 35.600092 
L 94.131546 36.063433 
L 93.978978 40.83187 
L 93.877521 36.826302 
L 93.826869 37.462909 
L 93.77627 37.40031 
L 93.675216 38.239663 
L 93.47372 33.639296 
L 93.423472 34.248485 
L 93.172978 40.970335 
L 93.073131 46.058393 
L 92.87404 38.285544 
L 92.725245 39.375619 
L 92.675739 39.131598 
L 92.478237 37.827921 
L 92.428981 38.153534 
L 92.281513 40.145921 
L 92.23246 39.684892 
L 92.183447 39.956383 
L 91.939148 46.831358 
L 91.890431 50.275251 
L 91.841767 48.147411 
L 91.696057 43.348234 
L 91.550787 41.340074 
L 91.502459 41.657533 
L 91.309634 44.257834 
L 91.261555 44.183469 
L 91.117586 43.384701 
L 91.021846 45.2622 
L 90.974046 44.320734 
L 90.926298 43.900071 
L 90.878597 44.059129 
L 90.830942 44.155966 
L 90.546011 47.36932 
L 90.451416 50.168525 
L 90.357001 56.7299 
L 90.309869 56.701018 
L 90.168752 49.00587 
L 90.121811 49.379541 
L 90.074912 50.196792 
L 90.028059 49.94655 
L 89.887785 49.223404 
L 89.841124 49.212743 
L 89.701404 50.601287 
L 89.654929 51.552942 
L 89.6085 50.927806 
L 89.562113 49.954152 
L 89.515773 50.089219 
L 89.377035 52.642976 
L 89.330881 52.534827 
L 89.238712 52.621014 
L 89.192693 52.378748 
L 89.100803 53.6081 
L 89.054923 53.553757 
L 88.963308 52.232612 
L 88.917567 52.697648 
L 88.644083 56.648985 
L 88.598663 56.594541 
L 88.507954 55.863414 
L 88.327084 58.390961 
L 88.236919 66.13784 
L 88.191908 64.820855 
L 88.012302 57.135331 
L 87.74423 59.879339 
L 87.699712 59.867503 
L 87.522065 61.480957 
L 87.433511 60.432951 
L 87.345134 60.88237 
L 87.30101 61.204839 
L 87.212893 61.116543 
L 87.168904 60.926791 
L 87.124956 61.067923 
L 86.90588 67.060167 
L 86.818556 72.679951 
L 86.687899 63.718731 
L 86.644434 63.81186 
L 86.384545 66.394974 
L 86.341383 66.091024 
L 86.255188 64.462656 
L 86.212151 64.670207 
L 86.040449 65.161941 
L 85.826784 66.176001 
L 85.741612 66.382386 
L 85.360458 71.432014 
L 85.276221 78.461851 
L 85.234165 75.130679 
L 85.066366 69.268003 
L 85.02452 69.228751 
L 84.857554 70.707697 
L 84.815918 70.164961 
L 84.774323 69.863743 
L 84.566969 72.400119 
L 84.484321 71.948875 
L 84.401835 72.895553 
L 84.319514 72.033643 
L 84.237355 73.37697 
L 84.196339 73.152658 
L 84.114432 72.858415 
L 84.032681 73.416769 
L 83.951097 73.350183 
L 83.78842 73.724896 
L 83.344397 76.403517 
L 83.264185 75.915502 
L 83.224142 76.13505 
L 82.707195 79.135859 
L 82.628261 78.677222 
L 82.588853 78.751208 
L 82.314094 80.920446 
L 82.275002 80.885491 
L 82.196931 80.471172 
L 82.157949 80.648605 
L 81.847532 82.530616 
L 81.770313 82.817109 
L 81.731764 82.72589 
L 81.616343 82.730108 
L 81.082261 85.949771 
L 80.968786 91.52798 
L 80.931034 88.472975 
L 80.855647 86.337477 
L 80.818009 86.501737 
L 80.705325 87.135495 
L 80.667839 87.07647 
L 80.592979 87.690756 
L 80.555604 87.329939 
L 80.518268 87.170986 
L 80.480966 87.299816 
L 80.33214 88.37678 
L 80.295029 89.296597 
L 80.220914 88.582833 
L 80.183913 88.502918 
L 80.146944 88.649687 
L 80.036269 88.975151 
L 79.962671 89.682988 
L 79.852547 89.670883 
L 79.487851 91.804785 
L 79.451579 91.76291 
L 79.342989 92.908509 
L 79.306867 92.64006 
L 79.270776 92.389204 
L 79.198705 92.554666 
L 79.126782 92.911699 
L 79.055 93.562658 
L 78.983363 93.378335 
L 78.627309 94.760638 
L 78.204725 96.899537 
L 78.099867 96.804577 
L 78.030137 97.227387 
L 77.925803 98.203631 
L 77.891098 98.106935 
L 77.856422 97.957859 
L 77.787181 98.138641 
L 77.511589 100.485403 
L 77.443031 99.834407 
L 77.340456 100.03327 
L 77.238189 100.266461 
L 76.530842 103.824367 
L 76.430997 103.570834 
L 76.331455 103.83996 
L 76.166213 105.515734 
L 76.06746 105.091963 
L 76.034611 105.09566 
L 75.448875 107.473299 
L 75.384442 108.475171 
L 75.32014 108.107341 
L 75.15994 109.262584 
L 75.127996 109.356499 
L 75.096085 109.116713 
L 75.000538 108.734111 
L 74.968756 108.759004 
L 74.90528 109.324424 
L 74.841933 110.138721 
L 74.778712 109.904529 
L 74.652649 110.154236 
L 74.58981 110.393856 
L 74.402032 113.611356 
L 74.370847 114.749877 
L 74.339693 113.426054 
L 74.277475 111.611865 
L 74.215381 112.242176 
L 74.18438 112.338181 
L 74.122475 112.001728 
L 74.091569 112.104383 
L 73.784194 113.955041 
L 73.692578 113.40906 
L 73.662101 113.521998 
L 72.90999 116.927432 
L 72.880294 117.585561 
L 72.820994 117.030813 
L 72.761812 116.805258 
L 72.732263 116.894113 
L 72.379995 118.076083 
L 72.060774 119.096007 
L 71.688013 121.949229 
L 71.659539 121.453683 
L 71.602677 120.880503 
L 71.545929 121.134557 
L 71.489294 121.17726 
L 71.096004 122.527613 
L 70.846068 123.361682 
L 70.163482 126.446511 
L 70.136532 127.213881 
L 70.082715 126.399024 
L 70.029005 126.173057 
L 69.975398 126.328927 
L 69.524065 127.850242 
L 69.366594 128.483976 
L 69.236087 128.799145 
L 68.925523 129.881626 
L 68.797215 130.23582 
L 68.542519 131.100643 
L 68.090436 132.718258 
L 68.015877 133.982548 
L 67.966295 133.13675 
L 67.916813 133.232444 
L 67.867428 133.767402 
L 67.768956 133.632904 
L 67.33067 135.058725 
L 67.282458 135.619195 
L 67.186321 135.566941 
L 66.995195 136.019423 
L 65.12185 142.012583 
L 65.07805 142.871561 
L 65.012513 142.196149 
L 64.730786 142.899972 
L 64.431457 143.801285 
L 64.136289 145.128793 
L 64.115362 145.034721 
L 64.073574 144.834435 
L 64.011046 145.024632 
L 63.948707 145.130693 
L 63.721722 145.949006 
L 63.395988 147.410659 
L 63.315365 146.960501 
L 63.25511 147.064405 
L 63.055558 147.572845 
L 62.681865 148.807568 
L 62.623507 148.795343 
L 62.545969 148.940979 
L 62.257946 150.180792 
L 62.125005 150.406458 
L 61.184031 153.324554 
L 61.166056 153.286442 
L 61.130158 153.422194 
L 60.880885 154.013515 
L 60.863215 153.998669 
L 60.845561 154.053381 
L 60.792702 154.586092 
L 60.687462 154.424507 
L 60.635079 154.479893 
L 59.951441 156.002018 
L 59.88457 156.164777 
L 58.042348 160.132413 
L 57.983098 160.224495 
L 57.763008 160.708082 
L 57.690373 160.806074 
L 57.417655 161.410189 
L 57.403445 161.396597 
L 57.375066 161.473993 
L 57.360899 161.48748 
L 57.248063 161.689962 
L 57.052762 162.196623 
L 57.025083 162.171328 
L 56.969894 162.28616 
L 56.603082 163.0115 
L 56.482995 163.207128 
L 54.440068 166.99376 
L 53.76435 168.114423 
L 52.411801 170.213093 
L 52.112772 170.635063 
L 50.017452 173.263905 
L 47.733465 175.387794 
L 46.501863 176.19468 
L 45.766357 176.559614 
L 45.766357 176.559614 
" style="fill:none;stroke:#8dd3c7;stroke-linecap:square;stroke-width:1.5;"/>
   </g>
   <g id="patch_3">
    <path d="M 43.2 177.12 
L 43.2 8.64 
" style="fill:none;stroke:#ffffff;stroke-linecap:square;stroke-linejoin:miter;stroke-width:0.8;"/>
   </g>
   <g id="patch_4">
    <path d="M 384.48 177.12 
L 384.48 8.64 
" style="fill:none;stroke:#ffffff;stroke-linecap:square;stroke-linejoin:miter;stroke-width:0.8;"/>
   </g>
   <g id="patch_5">
    <path d="M 43.2 177.12 
L 384.48 177.12 
" style="fill:none;stroke:#ffffff;stroke-linecap:square;stroke-linejoin:miter;stroke-width:0.8;"/>
   </g>
   <g id="patch_6">
    <path d="M 43.2 8.64 
L 384.48 8.64 
" style="fill:none;stroke:#ffffff;stroke-linecap:square;stroke-linejoin:miter;stroke-width:0.8;"/>
   </g>
   <g id="text_13">
    <!-- energy flux -->
    <defs>
     <path d="M 56.203125 29.59375 
L 56.203125 25.203125 
L 14.890625 25.203125 
Q 15.484375 15.921875 20.484375 11.0625 
Q 25.484375 6.203125 34.421875 6.203125 
Q 39.59375 6.203125 44.453125 7.46875 
Q 49.3125 8.734375 54.109375 11.28125 
L 54.109375 2.78125 
Q 49.265625 0.734375 44.1875 -0.34375 
Q 39.109375 -1.421875 33.890625 -1.421875 
Q 20.796875 -1.421875 13.15625 6.1875 
Q 5.515625 13.8125 5.515625 26.8125 
Q 5.515625 40.234375 12.765625 48.109375 
Q 20.015625 56 32.328125 56 
Q 43.359375 56 49.78125 48.890625 
Q 56.203125 41.796875 56.203125 29.59375 
z
M 47.21875 32.234375 
Q 47.125 39.59375 43.09375 43.984375 
Q 39.0625 48.390625 32.421875 48.390625 
Q 24.90625 48.390625 20.390625 44.140625 
Q 15.875 39.890625 15.1875 32.171875 
z
" id="DejaVuSans-101"/>
     <path d="M 54.890625 33.015625 
L 54.890625 0 
L 45.90625 0 
L 45.90625 32.71875 
Q 45.90625 40.484375 42.875 44.328125 
Q 39.84375 48.1875 33.796875 48.1875 
Q 26.515625 48.1875 22.3125 43.546875 
Q 18.109375 38.921875 18.109375 30.90625 
L 18.109375 0 
L 9.078125 0 
L 9.078125 54.6875 
L 18.109375 54.6875 
L 18.109375 46.1875 
Q 21.34375 51.125 25.703125 53.5625 
Q 30.078125 56 35.796875 56 
Q 45.21875 56 50.046875 50.171875 
Q 54.890625 44.34375 54.890625 33.015625 
z
" id="DejaVuSans-110"/>
     <path d="M 41.109375 46.296875 
Q 39.59375 47.171875 37.8125 47.578125 
Q 36.03125 48 33.890625 48 
Q 26.265625 48 22.1875 43.046875 
Q 18.109375 38.09375 18.109375 28.8125 
L 18.109375 0 
L 9.078125 0 
L 9.078125 54.6875 
L 18.109375 54.6875 
L 18.109375 46.1875 
Q 20.953125 51.171875 25.484375 53.578125 
Q 30.03125 56 36.53125 56 
Q 37.453125 56 38.578125 55.875 
Q 39.703125 55.765625 41.0625 55.515625 
z
" id="DejaVuSans-114"/>
     <path d="M 45.40625 27.984375 
Q 45.40625 37.75 41.375 43.109375 
Q 37.359375 48.484375 30.078125 48.484375 
Q 22.859375 48.484375 18.828125 43.109375 
Q 14.796875 37.75 14.796875 27.984375 
Q 14.796875 18.265625 18.828125 12.890625 
Q 22.859375 7.515625 30.078125 7.515625 
Q 37.359375 7.515625 41.375 12.890625 
Q 45.40625 18.265625 45.40625 27.984375 
z
M 54.390625 6.78125 
Q 54.390625 -7.171875 48.1875 -13.984375 
Q 42 -20.796875 29.203125 -20.796875 
Q 24.46875 -20.796875 20.265625 -20.09375 
Q 16.0625 -19.390625 12.109375 -17.921875 
L 12.109375 -9.1875 
Q 16.0625 -11.328125 19.921875 -12.34375 
Q 23.78125 -13.375 27.78125 -13.375 
Q 36.625 -13.375 41.015625 -8.765625 
Q 45.40625 -4.15625 45.40625 5.171875 
L 45.40625 9.625 
Q 42.625 4.78125 38.28125 2.390625 
Q 33.9375 0 27.875 0 
Q 17.828125 0 11.671875 7.65625 
Q 5.515625 15.328125 5.515625 27.984375 
Q 5.515625 40.671875 11.671875 48.328125 
Q 17.828125 56 27.875 56 
Q 33.9375 56 38.28125 53.609375 
Q 42.625 51.21875 45.40625 46.390625 
L 45.40625 54.6875 
L 54.390625 54.6875 
z
" id="DejaVuSans-103"/>
     <path id="DejaVuSans-32"/>
     <path d="M 37.109375 75.984375 
L 37.109375 68.5 
L 28.515625 68.5 
Q 23.6875 68.5 21.796875 66.546875 
Q 19.921875 64.59375 19.921875 59.515625 
L 19.921875 54.6875 
L 34.71875 54.6875 
L 34.71875 47.703125 
L 19.921875 47.703125 
L 19.921875 0 
L 10.890625 0 
L 10.890625 47.703125 
L 2.296875 47.703125 
L 2.296875 54.6875 
L 10.890625 54.6875 
L 10.890625 58.5 
Q 10.890625 67.625 15.140625 71.796875 
Q 19.390625 75.984375 28.609375 75.984375 
z
" id="DejaVuSans-102"/>
     <path d="M 9.421875 75.984375 
L 18.40625 75.984375 
L 18.40625 0 
L 9.421875 0 
z
" id="DejaVuSans-108"/>
     <path d="M 8.5 21.578125 
L 8.5 54.6875 
L 17.484375 54.6875 
L 17.484375 21.921875 
Q 17.484375 14.15625 20.5 10.265625 
Q 23.53125 6.390625 29.59375 6.390625 
Q 36.859375 6.390625 41.078125 11.03125 
Q 45.3125 15.671875 45.3125 23.6875 
L 45.3125 54.6875 
L 54.296875 54.6875 
L 54.296875 0 
L 45.3125 0 
L 45.3125 8.40625 
Q 42.046875 3.421875 37.71875 1 
Q 33.40625 -1.421875 27.6875 -1.421875 
Q 18.265625 -1.421875 13.375 4.4375 
Q 8.5 10.296875 8.5 21.578125 
z
M 31.109375 56 
z
" id="DejaVuSans-117"/>
     <path d="M 54.890625 54.6875 
L 35.109375 28.078125 
L 55.90625 0 
L 45.3125 0 
L 29.390625 21.484375 
L 13.484375 0 
L 2.875 0 
L 24.125 28.609375 
L 4.6875 54.6875 
L 15.28125 54.6875 
L 29.78125 35.203125 
L 44.28125 54.6875 
z
" id="DejaVuSans-120"/>
    </defs>
    <g style="fill:#8dd3c7;" transform="translate(110.468556 66.277895)scale(0.1 -0.1)">
     <use xlink:href="#DejaVuSans-101"/>
     <use x="61.523438" xlink:href="#DejaVuSans-110"/>
     <use x="124.902344" xlink:href="#DejaVuSans-101"/>
     <use x="186.425781" xlink:href="#DejaVuSans-114"/>
     <use x="225.789062" xlink:href="#DejaVuSans-103"/>
     <use x="289.265625" xlink:href="#DejaVuSans-121"/>
     <use x="348.445312" xlink:href="#DejaVuSans-32"/>
     <use x="380.232422" xlink:href="#DejaVuSans-102"/>
     <use x="415.4375" xlink:href="#DejaVuSans-108"/>
     <use x="443.220703" xlink:href="#DejaVuSans-117"/>
     <use x="506.599609" xlink:href="#DejaVuSans-120"/>
    </g>
   </g>
  </g>
 </g>
 <defs>
  <clipPath id="pd54074f7fb">
   <rect height="168.48" width="341.28" x="43.2" y="8.64"/>
  </clipPath>
 </defs>
</svg>
