<?xml version="1.0" encoding="utf-8" standalone="no"?>
<!DOCTYPE svg PUBLIC "-//W3C//DTD SVG 1.1//EN"
  "http://www.w3.org/Graphics/SVG/1.1/DTD/svg11.dtd">
<!-- Created with matplotlib (http://matplotlib.org/) -->
<svg height="394pt" version="1.1" viewBox="0 0 513 394" width="513pt" xmlns="http://www.w3.org/2000/svg" xmlns:xlink="http://www.w3.org/1999/xlink">
 <defs>
  <style type="text/css">
*{stroke-linecap:butt;stroke-linejoin:round;}
  </style>
 </defs>
 <g id="figure_1">
  <g id="patch_1">
   <path d="
M0 394.012
L513.298 394.012
L513.298 0
L0 0
z
" style="fill:#ffffff;"/>
  </g>
  <g id="axes_1">
   <g id="patch_2">
    <path d="
M59.6982 352.8
L506.098 352.8
L506.098 7.2
L59.6982 7.2
z
" style="fill:#ffffff;"/>
   </g>
   <g id="patch_3">
    <path clip-path="url(#p2d2bdcf5f8)" d="
M59.6982 352.8
L59.6982 7.2
L228.568 7.2
L228.568 352.8
z
" style="opacity:0.02;"/>
   </g>
   <g id="patch_4">
    <path clip-path="url(#p2d2bdcf5f8)" d="
M228.568 352.8
L228.568 7.2
L260.131 7.2
L260.131 352.8
z
" style="opacity:0.065;"/>
   </g>
   <g id="patch_5">
    <path clip-path="url(#p2d2bdcf5f8)" d="
M260.131 352.8
L260.131 7.2
L348.203 7.2
L348.203 352.8
z
" style="opacity:0.11;"/>
   </g>
   <g id="patch_6">
    <path clip-path="url(#p2d2bdcf5f8)" d="
M348.203 352.8
L348.203 7.2
L422.918 7.2
L422.918 352.8
z
" style="opacity:0.155;"/>
   </g>
   <g id="patch_7">
    <path clip-path="url(#p2d2bdcf5f8)" d="
M422.918 352.8
L422.918 7.2
L529.813 7.2
L529.813 352.8
z
" style="opacity:0.2;"/>
   </g>
   <g id="line2d_1">
    <path clip-path="url(#p2d2bdcf5f8)" d="
M387.893 395.012
L387.864 394.911
L386.794 392.467
L386.055 390.04
L385.726 387.924
L384.657 384.896
L383.588 381.409
L380.381 373.153
L379.914 371.262
L379.312 370.207
L378.967 368.512
L378.243 367.548
L378 366.363
L376.105 362.773
L373.967 358.567
L372.898 355.312
L371.829 352.715
L367.554 339.443
L354.726 298.931
L348.313 279.6
L342.968 264.21
L338.434 251.798
L334.416 241.387
L330.141 230.879
L325.865 220.995
L321.589 211.649
L317.313 202.879
L313.038 194.609
L308.409 186.172
L303.417 177.624
L299.141 170.67
L293.797 162.406
L287.383 152.958
L269.211 127.369
L263.866 120.393
L260.007 115.62
L255.315 110.141
L251.032 105.484
L246.763 101.205
L243.556 98.2293
L239.999 95.2097
L237.143 93.0341
L233.936 90.8409
L230.729 88.8899
L227.522 87.1706
L223.246 85.161
L213.626 80.8863
L211.488 79.8617
L209.35 78.5384
L208.281 78.083
L207.212 77.2988
L205.074 76.5127
L203.72 76.2353
L202.665 76.2664
L200.799 76.8933
L199.73 77.3724
L197.592 78.7621
L195.454 80.4853
L190.109 85.219
L189.04 85.8966
L187.971 86.3778
L186.902 86.653
L185.833 86.7941
L184.765 86.8105
L182.627 86.4645
L173.006 83.4612
L168.73 81.3169
L165.524 80.6194
L164.455 80.4979
L163.386 80.5962
L162.316 80.8315
L161.248 81.3831
L160.179 81.2332
L154.834 79.2976
L153.765 79.2002
L152.696 79.2876
L150.558 79.7989
L149.489 80.2293
L147.351 81.6065
L143.076 84.7955
L140.938 86.1812
L138.8 87.2885
L136.662 88.0105
L133.296 88.7723
L130.248 89.424
L128.111 89.9782
L127.042 90.3618
L124.904 91.4555
L121.697 92.5464
L119.559 93.2258
L118.49 93.7605
L117.421 94.0343
L115.283 93.8592
L112.076 94.2668
L108.87 94.8362
L104.594 95.7649
L102.456 96.4705
L101.387 96.937
L99.2491 98.2282
L98.1802 96.5924
L97.939 95.8203
L97.1112 94.7281
L96.0422 95.1305
L94.9733 95.7937
L92.8355 96.4086
L91.7665 96.2047
L90.6975 95.8506
L89.6286 95.8529
L88.5598 96.0576
L87.4907 96.4498
L86.4218 96.6271
L85.3528 96.5747
L84.2838 96.6876
L83.2151 96.5966
L81.077 96.9243
L77.8703 97.3662
L75.7325 97.8062
L74.6633 98.1578
L73.5944 98.7771
L72.5257 98.6085
L70.3878 99.5881
L69.3188 100.548
L67.8595 103.171
L67.2362 99.2719
L66.9738 97.491
L66.1118 97.1372
L65.043 98.1252
L63.9741 98.1781
L62.9051 97.2295
L60.7671 98.2434
L59.6982 97.896
L58.6293 97.0621
L57.5604 97.1513
L51.1467 98.5027
L50.0777 98.8887
L49.2136 99.4298
L49.0088 98.9763
L47.9399 98.7849
L46.871 98.996
L45.802 98.9301
L44.7331 99.2282
L42.5952 99.3153
L39.3883 99.912
L35.1126 100.908
L31.9058 101.966
L29.7678 102.877
L28.6989 103.462
L26.5611 105.036
L25.4921 106.02
L24.4231 107.386
L23.3542 109.089
L22.2853 111.259
L21.8799 111.458
L21.7139 110.882
L21.5495 109.557
L21.3028 103.695
L21.221 100.137
L21.2163 100.217
L20.9929 103.45
L20.8955 104.934
L20.7336 106.942
L20.0908 109.123
L19.9315 107.02
L19.6144 106.759
L19.2996 106.588
L18.677 107.488
L18.3682 107.786
L18.0095 107.398
L17.7581 107.304
L16.9405 106.477
L15.8716 106.735
L13.7337 107.587
L10.5269 108.614
L8.389 109.5
L6.25117 110.59
L4.11322 111.902
L1.97534 113.451
L-0.162495 115.314
L-1 116.175
L-1 116.175" style="fill:none;stroke:#c47339;stroke-linecap:square;stroke-width:1.5;"/>
   </g>
   <g id="line2d_2">
    <path clip-path="url(#p2d2bdcf5f8)" d="
M514.298 362.607
L508.654 353.734
L505.447 348.358
L502.24 342.825
L500.103 339.92
L496.896 335.71
L493.689 331.039
L488.344 322.724
L480.861 310.591
L471.241 294.469
L458.414 272.281
L450.931 258.816
L441.311 241.204
L439.173 237.818
L437.035 234.861
L434.897 232.38
L432.759 230.4
L430.621 228.808
L426.345 225.929
L424.208 224.227
L422.07 222.244
L421.001 221.192
L417.794 217.445
L414.587 212.972
L413.518 211.775
L411.38 208.564
L410.311 207.393
L409.242 206.654
L408.173 206.187
L407.104 206.942
L406.035 207.909
L404.966 209.207
L403.898 210.741
L402.829 212.626
L400.691 216.814
L398.553 220.469
L397.484 221.99
L396.415 222.415
L395.346 221.126
L394.277 218.286
L392.139 211.425
L387.864 196.76
L385.726 189.773
L384.657 186.745
L383.588 183.258
L382.023 177.908
L381.45 176.685
L378.243 171.606
L378 171.475
L377.508 171.596
L377.174 172.023
L376.105 175.32
L373.967 185.85
L372.898 190.373
L371.829 195.893
L369.691 210.791
L367.554 221.852
L366.485 226.859
L365.416 229.591
L364.347 230.496
L363.278 230.429
L362.209 229.864
L361.14 228.972
L360.071 227.594
L359.002 224.962
L358.562 223.545
L357.933 222.945
L356.864 224.785
L355.795 225.2
L354.726 224.807
L353.657 224.124
L351.519 222.397
L347.244 218.256
L340.83 211.433
L332.278 202.302
L330.141 200.039
L329.072 198.499
L328.003 197.818
L313.038 183.299
L305.555 176.637
L299.141 171.216
L289.521 163.405
L271.349 148.671
L263.866 142.408
L257.453 136.74
L252.877 132.363
L248.901 128.341
L243.556 122.599
L237.143 115.337
L228.591 105.725
L220.04 96.4445
L217.902 94.2246
L215.764 92.4713
L213.626 90.3105
L212.557 88.7764
L210.419 85.3165
L208.281 80.5139
L205.074 70.4768
L203.72 67.131
L202.936 66.0432
L202.665 65.8664
L202.128 65.8612
L201.585 66.2367
L200.799 67.3439
L197.592 73.5371
L196.523 74.9006
L195.454 75.7407
L194.385 76.0456
L193.316 75.9609
L192.247 75.5557
L191.178 74.9515
L190.109 74.2174
L187.971 72.3267
L179.42 64.1109
L170.868 53.2642
L166.592 47.4346
L162.316 43.0098
L161.248 42.1007
L160.179 40.9714
L159.11 39.594
L158.041 37.9537
L156.972 35.9773
L154.834 31.2349
L153.765 28.8202
L152.696 26.8397
L151.627 25.8725
L150.558 26.2621
L149.489 27.7814
L146.283 34.1122
L144.145 39.2197
L142.007 45.3832
L140.938 49.286
L134.524 57.0149
L128.111 64.426
L127.042 65.8064
L125.973 66.7149
L122.766 68.7
L119.559 70.3454
L118.49 70.7275
L117.421 69.3859
L116.352 69.3109
L114.214 70.9714
L107.801 75.5406
L101.387 79.3725
L100.318 79.7738
L99.2491 79.5661
L98.1802 77.6065
L97.939 77.4958
L97.1112 78.801
L96.0422 80.8229
L94.9733 81.5859
L93.9045 82.1826
L92.8355 82.4998
L91.7665 82.5802
L89.6286 84.1779
L88.5598 85
L87.4907 85.6583
L86.4218 85.8495
L85.3528 86.426
L84.2838 86.8457
L83.2151 87.5479
L74.6633 92.0119
L73.5944 92.3696
L72.5257 92.2285
L71.4566 93.1125
L69.6789 93.704
L69.3188 93.6448
L68.2496 93.3501
L67.8595 92.141
L67.1809 87.7428
L67.1493 87.6454
L66.9738 88.1921
L66.1118 92.2142
L65.043 93.1474
L63.9741 92.6648
L61.8362 95.4116
L60.7671 95.2519
L59.6982 95.3557
L56.4914 98.7824
L55.4225 99.5389
L50.0777 102.523
L49.1536 101.661
L49.0088 101.886
L47.9399 103.42
L46.871 103.891
L45.802 104.911
L43.6641 106.138
L41.5262 108.002
L35.1126 113.062
L30.8368 116.84
L26.5611 120.919
L22.2853 125.338
L21.5495 126.134
L21.3028 125.122
L21.2163 121.464
L20.9929 93.3848
L20.9277 96.7731
L20.8141 104.837
L20.7336 107.01
L20.0908 111.814
L19.9315 104.877
L19.7726 104.698
L19.4567 105.548
L19.2996 106.206
L18.9871 108.511
L18.677 109.878
L18.3682 109.534
L18.0095 108.204
L17.7581 107.946
L16.9405 108.662
L15.8716 112.523
L14.8026 114.242
L12.6648 116.524
L8.389 121.795
L3.04432 128.76
L-1 134.467
L-1 134.467" style="fill:none;stroke:#247b6f;stroke-linecap:square;stroke-width:1.5;"/>
   </g>
   <g id="line2d_3">
    <path clip-path="url(#p2d2bdcf5f8)" d="
M514.298 362.607
L508.654 353.734
L505.447 348.358
L502.24 342.825
L500.103 339.92
L496.896 335.71
L493.689 331.039
L488.344 322.724
L480.861 310.591
L471.241 294.466
L458.414 272.277
L450.931 258.813
L441.311 241.197
L439.173 237.811
L437.035 234.854
L434.897 232.373
L432.759 230.393
L430.621 228.801
L426.345 225.918
L424.208 224.217
L422.07 222.233
L421.001 221.182
L417.794 217.432
L414.587 212.955
L413.518 211.758
L411.38 208.547
L410.311 207.372
L409.242 206.634
L408.173 206.166
L407.104 206.918
L406.035 207.881
L404.966 209.176
L403.898 210.707
L402.829 212.589
L400.691 216.76
L398.553 220.398
L397.484 221.908
L396.415 222.323
L395.346 221.027
L394.277 218.183
L392.139 211.323
L387.864 196.657
L385.726 189.67
L384.657 186.642
L383.588 183.155
L382.023 177.809
L381.45 176.586
L379.312 173.072
L378.486 171.733
L378 171.363
L377.508 171.48
L377.174 171.903
L376.105 175.18
L373.967 185.635
L372.898 190.103
L371.829 195.55
L369.691 210.154
L367.554 220.78
L366.485 225.494
L365.416 227.959
L364.347 228.648
L363.278 228.398
L362.209 227.661
L361.14 226.609
L360.071 225.091
L359.002 222.409
L358.562 220.995
L357.933 220.295
L356.864 221.724
L355.795 221.801
L354.726 221.124
L353.657 220.166
L351.519 217.887
L348.313 213.933
L345.106 209.687
L339.761 202.201
L330.141 188.432
L329.072 186.603
L328.003 185.381
L314.106 166.245
L307.693 157.904
L300.21 148.586
L292.728 139.634
L277.763 122.201
L266.004 108.416
L258.521 100.077
L252.108 93.2189
L245.694 86.7094
L239.999 81.2866
L235.427 77.2776
L231.798 74.3333
L227.522 71.1086
L222.177 67.3374
L216.833 63.8126
L214.695 62.418
L213.626 61.6185
L211.488 59.5951
L210.419 58.4423
L208.281 55.6212
L205.074 49.7059
L203.72 47.7249
L202.936 47.104
L202.665 47.0162
L201.868 47.192
L201.585 47.3687
L200.799 48.1301
L196.523 53.5157
L195.454 54.375
L194.385 54.9785
L193.316 55.3963
L192.247 55.6212
L191.178 55.6776
L190.109 55.6212
L189.04 55.3683
L187.971 54.9785
L185.833 53.8354
L181.558 51.0605
L179.42 49.446
L173.006 43.381
L169.799 39.9354
L167.661 37.5618
L165.524 35.6554
L163.386 34.0143
L162.316 33.2736
L161.248 32.7213
L160.179 31.8248
L159.11 30.6786
L158.041 29.3208
L156.972 27.6899
L154.834 23.7685
L153.765 21.7968
L152.696 20.1916
L151.627 19.4311
L150.558 19.8043
L149.489 21.1333
L146.283 26.6967
L144.145 31.0885
L142.007 36.2099
L140.938 39.3176
L137.731 42.6596
L134.524 45.5993
L125.973 53.0679
L123.835 54.2664
L121.697 55.2844
L118.49 56.681
L117.421 55.876
L116.352 55.7908
L107.801 60.2671
L100.318 63.8915
L99.2491 63.9815
L97.939 61.787
L97.1112 62.1881
L96.0422 63.5767
L94.9733 64.3001
L93.9045 64.7947
L92.8355 65.0949
L91.7665 65.0614
L90.6975 65.364
L87.4907 66.9736
L86.4218 67.159
L83.2151 68.1176
L80.0082 69.2465
L75.7325 70.8344
L73.5944 71.7676
L72.5257 71.614
L71.4566 72.329
L70.3878 72.7364
L68.2496 73.9258
L67.8595 73.5565
L67.0622 68.891
L66.9738 68.8702
L66.1118 70.9314
L65.043 71.89
L63.9741 71.6546
L62.9051 71.9309
L61.8362 72.8904
L60.7671 73.0592
L59.6982 72.9466
L58.6293 73.1393
L57.5604 73.8487
L55.4225 74.9141
L50.0777 77.002
L49.0088 76.7444
L47.9399 77.3681
L45.802 78.1341
L40.4573 80.3018
L36.1815 82.2576
L32.9747 83.9485
L29.7678 85.8848
L27.63 87.4753
L25.4921 89.4235
L24.4231 90.6843
L23.3542 92.1577
L22.2853 93.9221
L21.8799 94.218
L21.7139 93.9394
L21.5495 93.1935
L21.3028 89.0985
L20.9929 74.3919
L20.9277 76.5929
L20.8141 81.8172
L20.7336 83.3204
L20.0908 86.7866
L19.9315 82.2761
L19.7726 82.104
L19.4567 82.4613
L19.2996 82.7411
L18.9871 84.1236
L18.677 85.0062
L18.3682 84.9929
L18.0095 84.1432
L17.7581 83.968
L16.9405 83.8968
L15.8716 85.8506
L14.8026 86.8922
L10.5269 89.8053
L7.32013 92.3061
L4.11322 95.0943
L1.97534 97.1644
L-0.162495 99.4701
L-1 100.454
L-1 100.454" style="fill:none;stroke:#000000;stroke-linecap:square;stroke-width:2.0;"/>
   </g>
   <g id="patch_8">
    <path d="
M59.6982 7.2
L506.098 7.2" style="fill:none;stroke:#000000;stroke-linecap:square;stroke-linejoin:miter;"/>
   </g>
   <g id="patch_9">
    <path d="
M506.098 352.8
L506.098 7.2" style="fill:none;stroke:#000000;stroke-linecap:square;stroke-linejoin:miter;"/>
   </g>
   <g id="patch_10">
    <path d="
M59.6982 352.8
L506.098 352.8" style="fill:none;stroke:#000000;stroke-linecap:square;stroke-linejoin:miter;"/>
   </g>
   <g id="patch_11">
    <path d="
M59.6982 352.8
L59.6982 7.2" style="fill:none;stroke:#000000;stroke-linecap:square;stroke-linejoin:miter;"/>
   </g>
   <g id="matplotlib.axis_1">
    <g id="xtick_1">
     <g id="line2d_4">
      <defs>
       <path d="
M0 0
L0 -4" id="m93b0483c22" style="stroke:#000000;stroke-width:0.5;"/>
      </defs>
      <g>
       <use style="stroke:#000000;stroke-width:0.5;" x="59.698243282" xlink:href="#m93b0483c22" y="352.8"/>
      </g>
     </g>
     <g id="line2d_5">
      <defs>
       <path d="
M0 0
L0 4" id="m741efc42ff" style="stroke:#000000;stroke-width:0.5;"/>
      </defs>
      <g>
       <use style="stroke:#000000;stroke-width:0.5;" x="59.698243282" xlink:href="#m741efc42ff" y="7.2"/>
      </g>
     </g>
     <g id="text_1">
      <!-- $0.01$ -->
      <defs>
       <path d="
M26.5938 63.3125
C26.5938 65.4062 26.5 65.5 25.0938 65.5
C21.2031 61.1875 15.2969 59.7969 9.70312 59.7969
C9.40625 59.7969 8.90625 59.7969 8.79688 59.6094
C8.70312 59.3906 8.70312 59.1719 8.70312 57
C11.7969 57 17 57.5938 21 59.9844
L21 7.20312
C21 3.6875 20.7969 2.5 12.2031 2.5
L9.20312 2.5
L9.20312 0
C14 0 19 0 23.7969 0
C28.5938 0 33.5938 0 38.4062 0
L38.4062 2.5
L35.4062 2.5
C26.7969 2.5 26.5938 3.59375 26.5938 7.15625
z
" id="CMR17-49"/>
       <path d="
M42 31.6406
C42 37.75 41.9062 48.125 37.7031 56.1094
C34 63.1094 28.0938 65.5938 22.9062 65.5938
C18.0938 65.5938 12 63.4062 8.20312 56.2031
C4.20312 48.7188 3.79688 39.4375 3.79688 31.6406
C3.79688 25.9531 3.90625 17.2812 7 9.67188
C11.2969 -0.609375 19 -2 22.9062 -2
C27.5 -2 34.5 -0.109375 38.5938 9.375
C41.5938 16.2812 42 24.3594 42 31.6406
M22.9062 -0.40625
C16.5 -0.40625 12.7031 5.07812 11.2969 12.6875
C10.2031 18.5625 10.2031 27.1562 10.2031 32.75
C10.2031 40.4375 10.2031 46.8281 11.5 52.9219
C13.4062 61.3906 19 64 22.9062 64
C27 64 32.2969 61.2969 34.2031 53.125
C35.5 47.4375 35.5938 40.7344 35.5938 32.75
C35.5938 26.25 35.5938 18.2656 34.4062 12.375
C32.2969 1.48438 26.4062 -0.40625 22.9062 -0.40625" id="CMR17-48"/>
       <path d="
M18.4062 4.79688
C18.4062 7.6875 16 9.67188 13.5938 9.67188
C10.7031 9.67188 8.70312 7.28125 8.70312 4.89062
C8.70312 2 11.0938 0 13.5 0
C16.4062 0 18.4062 2.39062 18.4062 4.79688" id="CMMI12-58"/>
      </defs>
      <g transform="translate(49.2929272795 365.317984317)scale(0.12 -0.12)">
       <use transform="scale(0.996264009963)" xlink:href="#CMR17-48"/>
       <use transform="translate(45.6904771171 0.0)scale(0.996264009963)" xlink:href="#CMMI12-58"/>
       <use transform="translate(72.7876542069 0.0)scale(0.996264009963)" xlink:href="#CMR17-48"/>
       <use transform="translate(118.478131324 0.0)scale(0.996264009963)" xlink:href="#CMR17-49"/>
      </g>
     </g>
    </g>
    <g id="xtick_2">
     <g id="line2d_6">
      <g>
       <use style="stroke:#000000;stroke-width:0.5;" x="166.592459023" xlink:href="#m93b0483c22" y="352.8"/>
      </g>
     </g>
     <g id="line2d_7">
      <g>
       <use style="stroke:#000000;stroke-width:0.5;" x="166.592459023" xlink:href="#m741efc42ff" y="7.2"/>
      </g>
     </g>
     <g id="text_2">
      <!-- $0.1$ -->
      <g transform="translate(159.113638146 365.317984317)scale(0.12 -0.12)">
       <use transform="scale(0.996264009963)" xlink:href="#CMR17-48"/>
       <use transform="translate(45.6904771171 0.0)scale(0.996264009963)" xlink:href="#CMMI12-58"/>
       <use transform="translate(72.7876542069 0.0)scale(0.996264009963)" xlink:href="#CMR17-49"/>
      </g>
     </g>
    </g>
    <g id="xtick_3">
     <g id="line2d_8">
      <g>
       <use style="stroke:#000000;stroke-width:0.5;" x="273.486674764" xlink:href="#m93b0483c22" y="352.8"/>
      </g>
     </g>
     <g id="line2d_9">
      <g>
       <use style="stroke:#000000;stroke-width:0.5;" x="273.486674764" xlink:href="#m741efc42ff" y="7.2"/>
      </g>
     </g>
     <g id="text_3">
      <!-- $1$ -->
      <g transform="translate(270.560179639 365.317984317)scale(0.12 -0.12)">
       <use transform="scale(0.996264009963)" xlink:href="#CMR17-49"/>
      </g>
     </g>
    </g>
    <g id="xtick_4">
     <g id="line2d_10">
      <g>
       <use style="stroke:#000000;stroke-width:0.5;" x="380.380890505" xlink:href="#m93b0483c22" y="352.8"/>
      </g>
     </g>
     <g id="line2d_11">
      <g>
       <use style="stroke:#000000;stroke-width:0.5;" x="380.380890505" xlink:href="#m741efc42ff" y="7.2"/>
      </g>
     </g>
     <g id="text_4">
      <!-- $10$ -->
      <g transform="translate(374.527900254 365.317984317)scale(0.12 -0.12)">
       <use transform="scale(0.996264009963)" xlink:href="#CMR17-49"/>
       <use transform="translate(45.6904771171 0.0)scale(0.996264009963)" xlink:href="#CMR17-48"/>
      </g>
     </g>
    </g>
    <g id="xtick_5">
     <g id="line2d_12">
      <g>
       <use style="stroke:#000000;stroke-width:0.5;" x="487.275106246" xlink:href="#m93b0483c22" y="352.8"/>
      </g>
     </g>
     <g id="line2d_13">
      <g>
       <use style="stroke:#000000;stroke-width:0.5;" x="487.275106246" xlink:href="#m741efc42ff" y="7.2"/>
      </g>
     </g>
     <g id="text_5">
      <!-- $100$ -->
      <g transform="translate(478.495620869 365.317984317)scale(0.12 -0.12)">
       <use transform="scale(0.996264009963)" xlink:href="#CMR17-49"/>
       <use transform="translate(45.6904771171 0.0)scale(0.996264009963)" xlink:href="#CMR17-48"/>
       <use transform="translate(91.3809542341 0.0)scale(0.996264009963)" xlink:href="#CMR17-48"/>
      </g>
     </g>
    </g>
    <g id="xtick_6">
     <g id="line2d_14">
      <defs>
       <path d="
M0 0
L0 -2" id="m177f7580d0" style="stroke:#000000;stroke-width:0.5;"/>
      </defs>
      <g>
       <use style="stroke:#000000;stroke-width:0.5;" x="91.8766085831" xlink:href="#m177f7580d0" y="352.8"/>
      </g>
     </g>
     <g id="line2d_15">
      <defs>
       <path d="
M0 0
L0 2" id="m5284c7e2a0" style="stroke:#000000;stroke-width:0.5;"/>
      </defs>
      <g>
       <use style="stroke:#000000;stroke-width:0.5;" x="91.8766085831" xlink:href="#m5284c7e2a0" y="7.2"/>
      </g>
     </g>
    </g>
    <g id="xtick_7">
     <g id="line2d_16">
      <g>
       <use style="stroke:#000000;stroke-width:0.5;" x="110.699745619" xlink:href="#m177f7580d0" y="352.8"/>
      </g>
     </g>
     <g id="line2d_17">
      <g>
       <use style="stroke:#000000;stroke-width:0.5;" x="110.699745619" xlink:href="#m5284c7e2a0" y="7.2"/>
      </g>
     </g>
    </g>
    <g id="xtick_8">
     <g id="line2d_18">
      <g>
       <use style="stroke:#000000;stroke-width:0.5;" x="124.054973884" xlink:href="#m177f7580d0" y="352.8"/>
      </g>
     </g>
     <g id="line2d_19">
      <g>
       <use style="stroke:#000000;stroke-width:0.5;" x="124.054973884" xlink:href="#m5284c7e2a0" y="7.2"/>
      </g>
     </g>
    </g>
    <g id="xtick_9">
     <g id="line2d_20">
      <g>
       <use style="stroke:#000000;stroke-width:0.5;" x="134.414093722" xlink:href="#m177f7580d0" y="352.8"/>
      </g>
     </g>
     <g id="line2d_21">
      <g>
       <use style="stroke:#000000;stroke-width:0.5;" x="134.414093722" xlink:href="#m5284c7e2a0" y="7.2"/>
      </g>
     </g>
    </g>
    <g id="xtick_10">
     <g id="line2d_22">
      <g>
       <use style="stroke:#000000;stroke-width:0.5;" x="142.87811092" xlink:href="#m177f7580d0" y="352.8"/>
      </g>
     </g>
     <g id="line2d_23">
      <g>
       <use style="stroke:#000000;stroke-width:0.5;" x="142.87811092" xlink:href="#m5284c7e2a0" y="7.2"/>
      </g>
     </g>
    </g>
    <g id="xtick_11">
     <g id="line2d_24">
      <g>
       <use style="stroke:#000000;stroke-width:0.5;" x="150.034335494" xlink:href="#m177f7580d0" y="352.8"/>
      </g>
     </g>
     <g id="line2d_25">
      <g>
       <use style="stroke:#000000;stroke-width:0.5;" x="150.034335494" xlink:href="#m5284c7e2a0" y="7.2"/>
      </g>
     </g>
    </g>
    <g id="xtick_12">
     <g id="line2d_26">
      <g>
       <use style="stroke:#000000;stroke-width:0.5;" x="156.233339185" xlink:href="#m177f7580d0" y="352.8"/>
      </g>
     </g>
     <g id="line2d_27">
      <g>
       <use style="stroke:#000000;stroke-width:0.5;" x="156.233339185" xlink:href="#m5284c7e2a0" y="7.2"/>
      </g>
     </g>
    </g>
    <g id="xtick_13">
     <g id="line2d_28">
      <g>
       <use style="stroke:#000000;stroke-width:0.5;" x="161.701247955" xlink:href="#m177f7580d0" y="352.8"/>
      </g>
     </g>
     <g id="line2d_29">
      <g>
       <use style="stroke:#000000;stroke-width:0.5;" x="161.701247955" xlink:href="#m5284c7e2a0" y="7.2"/>
      </g>
     </g>
    </g>
    <g id="xtick_14">
     <g id="line2d_30">
      <g>
       <use style="stroke:#000000;stroke-width:0.5;" x="198.770824324" xlink:href="#m177f7580d0" y="352.8"/>
      </g>
     </g>
     <g id="line2d_31">
      <g>
       <use style="stroke:#000000;stroke-width:0.5;" x="198.770824324" xlink:href="#m5284c7e2a0" y="7.2"/>
      </g>
     </g>
    </g>
    <g id="xtick_15">
     <g id="line2d_32">
      <g>
       <use style="stroke:#000000;stroke-width:0.5;" x="217.59396136" xlink:href="#m177f7580d0" y="352.8"/>
      </g>
     </g>
     <g id="line2d_33">
      <g>
       <use style="stroke:#000000;stroke-width:0.5;" x="217.59396136" xlink:href="#m5284c7e2a0" y="7.2"/>
      </g>
     </g>
    </g>
    <g id="xtick_16">
     <g id="line2d_34">
      <g>
       <use style="stroke:#000000;stroke-width:0.5;" x="230.949189625" xlink:href="#m177f7580d0" y="352.8"/>
      </g>
     </g>
     <g id="line2d_35">
      <g>
       <use style="stroke:#000000;stroke-width:0.5;" x="230.949189625" xlink:href="#m5284c7e2a0" y="7.2"/>
      </g>
     </g>
    </g>
    <g id="xtick_17">
     <g id="line2d_36">
      <g>
       <use style="stroke:#000000;stroke-width:0.5;" x="241.308309463" xlink:href="#m177f7580d0" y="352.8"/>
      </g>
     </g>
     <g id="line2d_37">
      <g>
       <use style="stroke:#000000;stroke-width:0.5;" x="241.308309463" xlink:href="#m5284c7e2a0" y="7.2"/>
      </g>
     </g>
    </g>
    <g id="xtick_18">
     <g id="line2d_38">
      <g>
       <use style="stroke:#000000;stroke-width:0.5;" x="249.772326661" xlink:href="#m177f7580d0" y="352.8"/>
      </g>
     </g>
     <g id="line2d_39">
      <g>
       <use style="stroke:#000000;stroke-width:0.5;" x="249.772326661" xlink:href="#m5284c7e2a0" y="7.2"/>
      </g>
     </g>
    </g>
    <g id="xtick_19">
     <g id="line2d_40">
      <g>
       <use style="stroke:#000000;stroke-width:0.5;" x="256.928551235" xlink:href="#m177f7580d0" y="352.8"/>
      </g>
     </g>
     <g id="line2d_41">
      <g>
       <use style="stroke:#000000;stroke-width:0.5;" x="256.928551235" xlink:href="#m5284c7e2a0" y="7.2"/>
      </g>
     </g>
    </g>
    <g id="xtick_20">
     <g id="line2d_42">
      <g>
       <use style="stroke:#000000;stroke-width:0.5;" x="263.127554926" xlink:href="#m177f7580d0" y="352.8"/>
      </g>
     </g>
     <g id="line2d_43">
      <g>
       <use style="stroke:#000000;stroke-width:0.5;" x="263.127554926" xlink:href="#m5284c7e2a0" y="7.2"/>
      </g>
     </g>
    </g>
    <g id="xtick_21">
     <g id="line2d_44">
      <g>
       <use style="stroke:#000000;stroke-width:0.5;" x="268.595463696" xlink:href="#m177f7580d0" y="352.8"/>
      </g>
     </g>
     <g id="line2d_45">
      <g>
       <use style="stroke:#000000;stroke-width:0.5;" x="268.595463696" xlink:href="#m5284c7e2a0" y="7.2"/>
      </g>
     </g>
    </g>
    <g id="xtick_22">
     <g id="line2d_46">
      <g>
       <use style="stroke:#000000;stroke-width:0.5;" x="305.665040065" xlink:href="#m177f7580d0" y="352.8"/>
      </g>
     </g>
     <g id="line2d_47">
      <g>
       <use style="stroke:#000000;stroke-width:0.5;" x="305.665040065" xlink:href="#m5284c7e2a0" y="7.2"/>
      </g>
     </g>
    </g>
    <g id="xtick_23">
     <g id="line2d_48">
      <g>
       <use style="stroke:#000000;stroke-width:0.5;" x="324.488177101" xlink:href="#m177f7580d0" y="352.8"/>
      </g>
     </g>
     <g id="line2d_49">
      <g>
       <use style="stroke:#000000;stroke-width:0.5;" x="324.488177101" xlink:href="#m5284c7e2a0" y="7.2"/>
      </g>
     </g>
    </g>
    <g id="xtick_24">
     <g id="line2d_50">
      <g>
       <use style="stroke:#000000;stroke-width:0.5;" x="337.843405366" xlink:href="#m177f7580d0" y="352.8"/>
      </g>
     </g>
     <g id="line2d_51">
      <g>
       <use style="stroke:#000000;stroke-width:0.5;" x="337.843405366" xlink:href="#m5284c7e2a0" y="7.2"/>
      </g>
     </g>
    </g>
    <g id="xtick_25">
     <g id="line2d_52">
      <g>
       <use style="stroke:#000000;stroke-width:0.5;" x="348.202525204" xlink:href="#m177f7580d0" y="352.8"/>
      </g>
     </g>
     <g id="line2d_53">
      <g>
       <use style="stroke:#000000;stroke-width:0.5;" x="348.202525204" xlink:href="#m5284c7e2a0" y="7.2"/>
      </g>
     </g>
    </g>
    <g id="xtick_26">
     <g id="line2d_54">
      <g>
       <use style="stroke:#000000;stroke-width:0.5;" x="356.666542402" xlink:href="#m177f7580d0" y="352.8"/>
      </g>
     </g>
     <g id="line2d_55">
      <g>
       <use style="stroke:#000000;stroke-width:0.5;" x="356.666542402" xlink:href="#m5284c7e2a0" y="7.2"/>
      </g>
     </g>
    </g>
    <g id="xtick_27">
     <g id="line2d_56">
      <g>
       <use style="stroke:#000000;stroke-width:0.5;" x="363.822766976" xlink:href="#m177f7580d0" y="352.8"/>
      </g>
     </g>
     <g id="line2d_57">
      <g>
       <use style="stroke:#000000;stroke-width:0.5;" x="363.822766976" xlink:href="#m5284c7e2a0" y="7.2"/>
      </g>
     </g>
    </g>
    <g id="xtick_28">
     <g id="line2d_58">
      <g>
       <use style="stroke:#000000;stroke-width:0.5;" x="370.021770667" xlink:href="#m177f7580d0" y="352.8"/>
      </g>
     </g>
     <g id="line2d_59">
      <g>
       <use style="stroke:#000000;stroke-width:0.5;" x="370.021770667" xlink:href="#m5284c7e2a0" y="7.2"/>
      </g>
     </g>
    </g>
    <g id="xtick_29">
     <g id="line2d_60">
      <g>
       <use style="stroke:#000000;stroke-width:0.5;" x="375.489679438" xlink:href="#m177f7580d0" y="352.8"/>
      </g>
     </g>
     <g id="line2d_61">
      <g>
       <use style="stroke:#000000;stroke-width:0.5;" x="375.489679438" xlink:href="#m5284c7e2a0" y="7.2"/>
      </g>
     </g>
    </g>
    <g id="xtick_30">
     <g id="line2d_62">
      <g>
       <use style="stroke:#000000;stroke-width:0.5;" x="412.559255806" xlink:href="#m177f7580d0" y="352.8"/>
      </g>
     </g>
     <g id="line2d_63">
      <g>
       <use style="stroke:#000000;stroke-width:0.5;" x="412.559255806" xlink:href="#m5284c7e2a0" y="7.2"/>
      </g>
     </g>
    </g>
    <g id="xtick_31">
     <g id="line2d_64">
      <g>
       <use style="stroke:#000000;stroke-width:0.5;" x="431.382392842" xlink:href="#m177f7580d0" y="352.8"/>
      </g>
     </g>
     <g id="line2d_65">
      <g>
       <use style="stroke:#000000;stroke-width:0.5;" x="431.382392842" xlink:href="#m5284c7e2a0" y="7.2"/>
      </g>
     </g>
    </g>
    <g id="xtick_32">
     <g id="line2d_66">
      <g>
       <use style="stroke:#000000;stroke-width:0.5;" x="444.737621107" xlink:href="#m177f7580d0" y="352.8"/>
      </g>
     </g>
     <g id="line2d_67">
      <g>
       <use style="stroke:#000000;stroke-width:0.5;" x="444.737621107" xlink:href="#m5284c7e2a0" y="7.2"/>
      </g>
     </g>
    </g>
    <g id="xtick_33">
     <g id="line2d_68">
      <g>
       <use style="stroke:#000000;stroke-width:0.5;" x="455.096740945" xlink:href="#m177f7580d0" y="352.8"/>
      </g>
     </g>
     <g id="line2d_69">
      <g>
       <use style="stroke:#000000;stroke-width:0.5;" x="455.096740945" xlink:href="#m5284c7e2a0" y="7.2"/>
      </g>
     </g>
    </g>
    <g id="xtick_34">
     <g id="line2d_70">
      <g>
       <use style="stroke:#000000;stroke-width:0.5;" x="463.560758143" xlink:href="#m177f7580d0" y="352.8"/>
      </g>
     </g>
     <g id="line2d_71">
      <g>
       <use style="stroke:#000000;stroke-width:0.5;" x="463.560758143" xlink:href="#m5284c7e2a0" y="7.2"/>
      </g>
     </g>
    </g>
    <g id="xtick_35">
     <g id="line2d_72">
      <g>
       <use style="stroke:#000000;stroke-width:0.5;" x="470.716982717" xlink:href="#m177f7580d0" y="352.8"/>
      </g>
     </g>
     <g id="line2d_73">
      <g>
       <use style="stroke:#000000;stroke-width:0.5;" x="470.716982717" xlink:href="#m5284c7e2a0" y="7.2"/>
      </g>
     </g>
    </g>
    <g id="xtick_36">
     <g id="line2d_74">
      <g>
       <use style="stroke:#000000;stroke-width:0.5;" x="476.915986408" xlink:href="#m177f7580d0" y="352.8"/>
      </g>
     </g>
     <g id="line2d_75">
      <g>
       <use style="stroke:#000000;stroke-width:0.5;" x="476.915986408" xlink:href="#m5284c7e2a0" y="7.2"/>
      </g>
     </g>
    </g>
    <g id="xtick_37">
     <g id="line2d_76">
      <g>
       <use style="stroke:#000000;stroke-width:0.5;" x="482.383895179" xlink:href="#m177f7580d0" y="352.8"/>
      </g>
     </g>
     <g id="line2d_77">
      <g>
       <use style="stroke:#000000;stroke-width:0.5;" x="482.383895179" xlink:href="#m5284c7e2a0" y="7.2"/>
      </g>
     </g>
    </g>
    <g id="text_6">
     <!-- $\lambda \ \left( \mu \mathrm{m} \right)$ -->
     <defs>
      <path d="
M26.2969 24.6719
C26.2969 31.8438 25.5938 43.9844 19.5938 56.8281
C14.7969 67.1875 6.59375 74.4531 5.40625 74.4531
C5.09375 74.4531 4.70312 74.3438 4.70312 73.8594
C4.70312 73.6719 4.79688 73.5625 4.90625 73.3594
C9.70312 68.3906 21.9062 55.75 21.9062 24.7969
C21.9062 -6.28125 9.79688 -18.9219 4.90625 -23.9062
C4.79688 -24.0938 4.70312 -24.2031 4.70312 -24.3906
C4.70312 -24.8906 5.09375 -25 5.40625 -25
C6.5 -25 15 -17.625 19.9062 -6.67188
C24.9062 4.375 26.2969 15.125 26.2969 24.6719" id="CMR17-41"/>
      <path d="
M30.5938 -24.4062
C30.5938 -24.3125 30.5938 -24.1094 30.2969 -23.8125
C25.7031 -19.1406 13.4062 -6.39062 13.4062 24.6719
C13.4062 55.75 25.5 68.3906 30.4062 73.3594
C30.4062 73.4688 30.5938 73.6719 30.5938 73.9531
C30.5938 74.25 30.2969 74.4531 29.9062 74.4531
C28.7969 74.4531 20.2969 67.0781 15.4062 56.125
C10.4062 45.0781 9 34.3281 9 24.7812
C9 17.6094 9.70312 5.46875 15.7031 -7.375
C20.5 -17.7344 28.7031 -25 29.9062 -25
C30.4062 -25 30.5938 -24.7969 30.5938 -24.4062" id="CMR17-40"/>
      <path d="
M67.5938 30.2031
C67.5938 35.1875 66.7031 43.5938 54.7969 43.5938
C48 43.5938 43.2969 39 41.5 33.5938
L41.4062 33.5938
C40.2031 41.7969 34.2969 43.5938 28.7031 43.5938
C20.7969 43.5938 16.7031 37.5625 15.2031 33.5938
L15.0938 33.5938
L15.0938 43.5938
L3.29688 42.5
L3.29688 39.9062
C9.20312 39.9062 10.0938 39.2969 10.0938 34.5
L10.0938 6.6875
C10.0938 2.875 9.70312 2.39062 3.29688 2.39062
L3.29688 -0.203125
C5.70312 0 10.0938 0 12.7031 0
C15.2969 0 19.7969 0 22.2031 -0.203125
L22.2031 2.39062
C15.7969 2.39062 15.4062 2.78125 15.4062 6.6875
L15.4062 25.9062
C15.4062 35.1094 21 42 28 42
C35.4062 42 36.2031 35.4062 36.2031 30.5938
L36.2031 6.6875
C36.2031 2.875 35.7969 2.39062 29.4062 2.39062
L29.4062 -0.203125
C31.7969 0 36.2031 0 38.7969 0
C41.4062 0 45.9062 0 48.2969 -0.203125
L48.2969 2.39062
C41.9062 2.39062 41.5 2.78125 41.5 6.6875
L41.5 25.9062
C41.5 35.1094 47.0938 42 54.0938 42
C61.5 42 62.2969 35.4062 62.2969 30.5938
L62.2969 6.6875
C62.2969 2.875 61.9062 2.39062 55.5 2.39062
L55.5 -0.203125
C57.9062 0 62.2969 0 64.9062 0
C67.5 0 72 0 74.4062 -0.203125
L74.4062 2.39062
C68 2.39062 67.5938 2.78125 67.5938 6.6875
z
" id="CMR17-109"/>
      <path d="
M14.4062 2.1875
C16.9062 -0.09375 20.5938 -1 24 -1
C30.4062 -1 34.7969 3.25 37.0938 6.32812
C38.0938 1.07812 42.2969 -1 45.7969 -1
C48.7969 -1 51.2031 0.78125 53 4.32812
C54.5938 7.70312 56 13.7344 56 14.1094
C56 14.6094 55.5938 15 55 15
C54.0938 15 54 14.5 53.5938 13.0312
C52.0938 7.20312 50.2031 1 46.0938 1
C43.2031 1 43 3.57812 43 5.59375
C43 7.875 43.9062 11.4688 44.5938 14.4688
L47.4062 25.2344
C47.7969 27.1406 48.9062 31.6094 49.4062 33.4219
C50 35.8125 51.0938 40.1094 51.0938 40.5
C51.0938 42 49.9062 43 48.4062 43
C47.5 43 45.4062 42.5938 44.5938 39.6094
L37.5938 11.875
C37.0938 9.875 37.0938 9.67188 35.7969 8.07812
C34.5938 6.39062 30.7031 1 24.4062 1
C18.7969 1 17 5.09375 17 9.76562
C17 12.6719 17.9062 16.1562 18.2969 17.8594
L22.7969 35.8281
C23.2969 37.7188 24.0938 40.9062 24.0938 41.5156
C24.0938 43.1094 22.7969 44 21.5 44
C20.5938 44 18.4062 43.7031 17.5938 40.5
L3.09375 -17.2969
C3 -17.7969 2.79688 -18.3906 2.79688 -19
C2.79688 -20.5 4 -21.5 5.5 -21.5
C8.40625 -21.5 9 -19.1875 9.70312 -16.4062
z
" id="CMMI12-22"/>
      <path d="
M30.9062 61.9531
C28.4062 69 20.5 69 19.2031 69
C18.5938 69 17.5 69 17.5 68
C17.5 67.2188 18.0938 67.1094 18.5938 67.0156
C20.0938 66.8125 21.2969 66.6094 22.9062 63.75
C23.9062 61.8594 34.2031 32.1719 34.2031 31.9688
C34.2031 31.875 34.0938 31.7656 33.2969 30.9688
L7.29688 4.85938
C6.09375 3.65625 5.29688 2.85938 5.29688 1.59375
C5.29688 0.1875 6.5 -1 8.09375 -1
C8.5 -1 9.59375 -0.796875 10.2031 -0.203125
C11.7969 1.28125 26.0938 18.6562 35.2031 29.3906
C37.7969 21.6094 41 12.4531 44.0938 4.07812
C44.5938 2.59375 45.0938 1.1875 46.5 -0.09375
C47.5 -1 47.7031 -1 50.5 -1
L52.4062 -1
C52.7969 -1 53.5 -1 53.5 -0.171875
C53.5 0.265625 53.4062 0.359375 53 0.78125
C52.0938 1.875 51.4062 3.65625 51 4.84375
z
" id="CMMI12-21"/>
     </defs>
     <g transform="translate(260.704150269 383.325130979)scale(0.14 -0.14)">
      <use transform="scale(0.996264009963)" xlink:href="#CMMI12-21"/>
      <use transform="translate(101.203646725 0.00317717251712)scale(0.996264009963)" xlink:href="#CMR17-40"/>
      <use transform="translate(136.484414525 0.0)scale(0.996264009963)" xlink:href="#CMMI12-22"/>
      <use transform="translate(195.175835976 0.0)scale(0.996264009963)" xlink:href="#CMR17-109"/>
      <use transform="translate(272.095425844 0.00317717251712)scale(0.996264009963)" xlink:href="#CMR17-41"/>
     </g>
    </g>
   </g>
   <g id="matplotlib.axis_2">
    <g id="ytick_1">
     <g id="line2d_78">
      <defs>
       <path d="
M0 0
L4 0" id="m728421d6d4" style="stroke:#000000;stroke-width:0.5;"/>
      </defs>
      <g>
       <use style="stroke:#000000;stroke-width:0.5;" x="59.698243282" xlink:href="#m728421d6d4" y="297.873367753"/>
      </g>
     </g>
     <g id="line2d_79">
      <defs>
       <path d="
M0 0
L-4 0" id="mcb0005524f" style="stroke:#000000;stroke-width:0.5;"/>
      </defs>
      <g>
       <use style="stroke:#000000;stroke-width:0.5;" x="506.098243282" xlink:href="#mcb0005524f" y="297.873367753"/>
      </g>
     </g>
     <g id="text_7">
      <!-- $10^{-24}$ -->
      <defs>
       <path d="
M65.9062 23
C67.5938 23 69.4062 23 69.4062 25
C69.4062 27 67.5938 27 65.9062 27
L11.7969 27
C10.0938 27 8.29688 27 8.29688 25
C8.29688 23 10.0938 23 11.7969 23
z
" id="CMSY10-0"/>
       <path d="
M41.7031 15.4531
L39.9062 15.4531
C38.9062 8.375 38.0938 7.17188 37.7031 6.5625
C37.2031 5.76562 30 5.76562 28.5938 5.76562
L9.40625 5.76562
C13 9.67188 20 16.75 28.5 24.9531
C34.5938 30.7344 41.7031 37.5312 41.7031 47.4219
C41.7031 59.2188 32.2969 66 21.7969 66
C10.7969 66 4.09375 56.3125 4.09375 47.3438
C4.09375 43.4375 7 42.9375 8.20312 42.9375
C9.20312 42.9375 12.2031 43.5469 12.2031 47.0312
C12.2031 50.1094 9.59375 51 8.20312 51
C7.59375 51 7 50.9062 6.59375 50.7031
C8.5 59.2188 14.2969 63.4062 20.4062 63.4062
C29.0938 63.4062 34.7969 56.5156 34.7969 47.4219
C34.7969 38.7344 29.7031 31.25 24 24.75
L4.09375 2.28125
L4.09375 0
L39.2969 0
z
" id="CMR17-50"/>
       <path d="
M33.5938 64.3281
C33.5938 66.4062 33.5 66.5 31.7031 66.5
L2 19.5938
L2 17
L27.7969 17
L27.7969 7.14062
C27.7969 3.5 27.5938 2.5 20.5938 2.5
L18.7031 2.5
L18.7031 0
C21.9062 0 27.2969 0 30.7031 0
C34.0938 0 39.5 0 42.7031 0
L42.7031 2.5
L40.7969 2.5
C33.7969 2.5 33.5938 3.5 33.5938 7.14062
L33.5938 17
L43.7969 17
L43.7969 19.5938
L33.5938 19.5938
z

M28.0938 57.7656
L28.0938 19.5938
L4 19.5938
z
" id="CMR17-52"/>
      </defs>
      <g transform="translate(28.9373904256 300.859172633)scale(0.12 -0.12)">
       <use transform="scale(0.996264009963)" xlink:href="#CMR17-49"/>
       <use transform="translate(45.6904771171 0.0)scale(0.996264009963)" xlink:href="#CMR17-48"/>
       <use transform="translate(91.3809542341 36.1536389419)scale(0.697381766617)" xlink:href="#CMSY10-0"/>
       <use transform="translate(145.621947482 36.1536389419)scale(0.697381766617)" xlink:href="#CMR17-50"/>
       <use transform="translate(177.605129446 36.1536389419)scale(0.697381766617)" xlink:href="#CMR17-52"/>
      </g>
     </g>
    </g>
    <g id="ytick_2">
     <g id="line2d_80">
      <g>
       <use style="stroke:#000000;stroke-width:0.5;" x="59.698243282" xlink:href="#m728421d6d4" y="219.291122584"/>
      </g>
     </g>
     <g id="line2d_81">
      <g>
       <use style="stroke:#000000;stroke-width:0.5;" x="506.098243282" xlink:href="#mcb0005524f" y="219.291122584"/>
      </g>
     </g>
     <g id="text_8">
      <!-- $10^{-23}$ -->
      <defs>
       <path d="
M22.0938 33.7031
C31 33.7031 34.9062 25.9688 34.9062 17.0312
C34.9062 5 28.5 0.390625 22.7031 0.390625
C17.4062 0.390625 8.79688 3.03125 6.09375 10.8281
C6.59375 10.625 7.09375 10.625 7.59375 10.625
C10 10.625 11.7969 12.2188 11.7969 14.8125
C11.7969 17.7031 9.59375 19 7.59375 19
C5.90625 19 3.29688 18.2031 3.29688 14.4688
C3.29688 5.23438 12.2969 -2 22.9062 -2
C34 -2 42.5 6.71875 42.5 16.9531
C42.5 26.6719 34.5 33.6875 25 34.7969
C32.5938 36.375 39.9062 43.0625 39.9062 52.0156
C39.9062 59.6875 32 65.2969 23 65.2969
C13.9062 65.2969 5.90625 59.8281 5.90625 52.0156
C5.90625 48.5938 8.5 48 9.79688 48
C11.9062 48 13.7031 49.2969 13.7031 51.8906
C13.7031 54.4688 11.9062 55.7656 9.79688 55.7656
C9.40625 55.7656 8.90625 55.7656 8.5 55.5625
C11.4062 61.8594 19.2969 63 22.7969 63
C26.2969 63 32.9062 61.3281 32.9062 51.875
C32.9062 49.1094 32.5 44.1875 29.0938 39.8438
C26.0938 36 22.7031 36 19.4062 35.5938
C18.9062 35.5938 16.5938 35.5938 16.2031 35.5938
C15.5 35.4844 15.0938 35.3906 15.0938 34.5938
C15.0938 33.8125 15.2031 33.7031 17.2031 33.7031
z
" id="CMR17-51"/>
      </defs>
      <g transform="translate(28.9373904256 222.276927464)scale(0.12 -0.12)">
       <use transform="scale(0.996264009963)" xlink:href="#CMR17-49"/>
       <use transform="translate(45.6904771171 0.0)scale(0.996264009963)" xlink:href="#CMR17-48"/>
       <use transform="translate(91.3809542341 36.1536389419)scale(0.697381766617)" xlink:href="#CMSY10-0"/>
       <use transform="translate(145.621947482 36.1536389419)scale(0.697381766617)" xlink:href="#CMR17-50"/>
       <use transform="translate(177.605129446 36.1536389419)scale(0.697381766617)" xlink:href="#CMR17-51"/>
      </g>
     </g>
    </g>
    <g id="ytick_3">
     <g id="line2d_82">
      <g>
       <use style="stroke:#000000;stroke-width:0.5;" x="59.698243282" xlink:href="#m728421d6d4" y="140.708877416"/>
      </g>
     </g>
     <g id="line2d_83">
      <g>
       <use style="stroke:#000000;stroke-width:0.5;" x="506.098243282" xlink:href="#mcb0005524f" y="140.708877416"/>
      </g>
     </g>
     <g id="text_9">
      <!-- $10^{-22}$ -->
      <g transform="translate(28.9373904256 143.694682295)scale(0.12 -0.12)">
       <use transform="scale(0.996264009963)" xlink:href="#CMR17-49"/>
       <use transform="translate(45.6904771171 0.0)scale(0.996264009963)" xlink:href="#CMR17-48"/>
       <use transform="translate(91.3809542341 36.1536389419)scale(0.697381766617)" xlink:href="#CMSY10-0"/>
       <use transform="translate(145.621947482 36.1536389419)scale(0.697381766617)" xlink:href="#CMR17-50"/>
       <use transform="translate(177.605129446 36.1536389419)scale(0.697381766617)" xlink:href="#CMR17-50"/>
      </g>
     </g>
    </g>
    <g id="ytick_4">
     <g id="line2d_84">
      <g>
       <use style="stroke:#000000;stroke-width:0.5;" x="59.698243282" xlink:href="#m728421d6d4" y="62.1266322465"/>
      </g>
     </g>
     <g id="line2d_85">
      <g>
       <use style="stroke:#000000;stroke-width:0.5;" x="506.098243282" xlink:href="#mcb0005524f" y="62.1266322465"/>
      </g>
     </g>
     <g id="text_10">
      <!-- $10^{-21}$ -->
      <g transform="translate(28.9373904256 65.1124371262)scale(0.12 -0.12)">
       <use transform="scale(0.996264009963)" xlink:href="#CMR17-49"/>
       <use transform="translate(45.6904771171 0.0)scale(0.996264009963)" xlink:href="#CMR17-48"/>
       <use transform="translate(91.3809542341 36.1536389419)scale(0.697381766617)" xlink:href="#CMSY10-0"/>
       <use transform="translate(145.621947482 36.1536389419)scale(0.697381766617)" xlink:href="#CMR17-50"/>
       <use transform="translate(177.605129446 36.1536389419)scale(0.697381766617)" xlink:href="#CMR17-49"/>
      </g>
     </g>
    </g>
    <g id="ytick_5">
     <g id="line2d_86">
      <defs>
       <path d="
M0 0
L2 0" id="mf0c55a9a47" style="stroke:#000000;stroke-width:0.5;"/>
      </defs>
      <g>
       <use style="stroke:#000000;stroke-width:0.5;" x="59.698243282" xlink:href="#mf0c55a9a47" y="352.8"/>
      </g>
     </g>
     <g id="line2d_87">
      <defs>
       <path d="
M0 0
L-2 0" id="ma4f294b3af" style="stroke:#000000;stroke-width:0.5;"/>
      </defs>
      <g>
       <use style="stroke:#000000;stroke-width:0.5;" x="506.098243282" xlink:href="#ma4f294b3af" y="352.8"/>
      </g>
     </g>
    </g>
    <g id="ytick_6">
     <g id="line2d_88">
      <g>
       <use style="stroke:#000000;stroke-width:0.5;" x="59.698243282" xlink:href="#mf0c55a9a47" y="338.962353509"/>
      </g>
     </g>
     <g id="line2d_89">
      <g>
       <use style="stroke:#000000;stroke-width:0.5;" x="506.098243282" xlink:href="#ma4f294b3af" y="338.962353509"/>
      </g>
     </g>
    </g>
    <g id="ytick_7">
     <g id="line2d_90">
      <g>
       <use style="stroke:#000000;stroke-width:0.5;" x="59.698243282" xlink:href="#mf0c55a9a47" y="329.144387078"/>
      </g>
     </g>
     <g id="line2d_91">
      <g>
       <use style="stroke:#000000;stroke-width:0.5;" x="506.098243282" xlink:href="#ma4f294b3af" y="329.144387078"/>
      </g>
     </g>
    </g>
    <g id="ytick_8">
     <g id="line2d_92">
      <g>
       <use style="stroke:#000000;stroke-width:0.5;" x="59.698243282" xlink:href="#mf0c55a9a47" y="321.528980676"/>
      </g>
     </g>
     <g id="line2d_93">
      <g>
       <use style="stroke:#000000;stroke-width:0.5;" x="506.098243282" xlink:href="#ma4f294b3af" y="321.528980676"/>
      </g>
     </g>
    </g>
    <g id="ytick_9">
     <g id="line2d_94">
      <g>
       <use style="stroke:#000000;stroke-width:0.5;" x="59.698243282" xlink:href="#mf0c55a9a47" y="315.306740586"/>
      </g>
     </g>
     <g id="line2d_95">
      <g>
       <use style="stroke:#000000;stroke-width:0.5;" x="506.098243282" xlink:href="#ma4f294b3af" y="315.306740586"/>
      </g>
     </g>
    </g>
    <g id="ytick_10">
     <g id="line2d_96">
      <g>
       <use style="stroke:#000000;stroke-width:0.5;" x="59.698243282" xlink:href="#mf0c55a9a47" y="310.04591155"/>
      </g>
     </g>
     <g id="line2d_97">
      <g>
       <use style="stroke:#000000;stroke-width:0.5;" x="506.098243282" xlink:href="#ma4f294b3af" y="310.04591155"/>
      </g>
     </g>
    </g>
    <g id="ytick_11">
     <g id="line2d_98">
      <g>
       <use style="stroke:#000000;stroke-width:0.5;" x="59.698243282" xlink:href="#mf0c55a9a47" y="305.488774155"/>
      </g>
     </g>
     <g id="line2d_99">
      <g>
       <use style="stroke:#000000;stroke-width:0.5;" x="506.098243282" xlink:href="#ma4f294b3af" y="305.488774155"/>
      </g>
     </g>
    </g>
    <g id="ytick_12">
     <g id="line2d_100">
      <g>
       <use style="stroke:#000000;stroke-width:0.5;" x="59.698243282" xlink:href="#mf0c55a9a47" y="301.469094095"/>
      </g>
     </g>
     <g id="line2d_101">
      <g>
       <use style="stroke:#000000;stroke-width:0.5;" x="506.098243282" xlink:href="#ma4f294b3af" y="301.469094095"/>
      </g>
     </g>
    </g>
    <g id="ytick_13">
     <g id="line2d_102">
      <g>
       <use style="stroke:#000000;stroke-width:0.5;" x="59.698243282" xlink:href="#mf0c55a9a47" y="274.217754831"/>
      </g>
     </g>
     <g id="line2d_103">
      <g>
       <use style="stroke:#000000;stroke-width:0.5;" x="506.098243282" xlink:href="#ma4f294b3af" y="274.217754831"/>
      </g>
     </g>
    </g>
    <g id="ytick_14">
     <g id="line2d_104">
      <g>
       <use style="stroke:#000000;stroke-width:0.5;" x="59.698243282" xlink:href="#mf0c55a9a47" y="260.38010834"/>
      </g>
     </g>
     <g id="line2d_105">
      <g>
       <use style="stroke:#000000;stroke-width:0.5;" x="506.098243282" xlink:href="#ma4f294b3af" y="260.38010834"/>
      </g>
     </g>
    </g>
    <g id="ytick_15">
     <g id="line2d_106">
      <g>
       <use style="stroke:#000000;stroke-width:0.5;" x="59.698243282" xlink:href="#mf0c55a9a47" y="250.562141909"/>
      </g>
     </g>
     <g id="line2d_107">
      <g>
       <use style="stroke:#000000;stroke-width:0.5;" x="506.098243282" xlink:href="#ma4f294b3af" y="250.562141909"/>
      </g>
     </g>
    </g>
    <g id="ytick_16">
     <g id="line2d_108">
      <g>
       <use style="stroke:#000000;stroke-width:0.5;" x="59.698243282" xlink:href="#mf0c55a9a47" y="242.946735507"/>
      </g>
     </g>
     <g id="line2d_109">
      <g>
       <use style="stroke:#000000;stroke-width:0.5;" x="506.098243282" xlink:href="#ma4f294b3af" y="242.946735507"/>
      </g>
     </g>
    </g>
    <g id="ytick_17">
     <g id="line2d_110">
      <g>
       <use style="stroke:#000000;stroke-width:0.5;" x="59.698243282" xlink:href="#mf0c55a9a47" y="236.724495417"/>
      </g>
     </g>
     <g id="line2d_111">
      <g>
       <use style="stroke:#000000;stroke-width:0.5;" x="506.098243282" xlink:href="#ma4f294b3af" y="236.724495417"/>
      </g>
     </g>
    </g>
    <g id="ytick_18">
     <g id="line2d_112">
      <g>
       <use style="stroke:#000000;stroke-width:0.5;" x="59.698243282" xlink:href="#mf0c55a9a47" y="231.463666381"/>
      </g>
     </g>
     <g id="line2d_113">
      <g>
       <use style="stroke:#000000;stroke-width:0.5;" x="506.098243282" xlink:href="#ma4f294b3af" y="231.463666381"/>
      </g>
     </g>
    </g>
    <g id="ytick_19">
     <g id="line2d_114">
      <g>
       <use style="stroke:#000000;stroke-width:0.5;" x="59.698243282" xlink:href="#mf0c55a9a47" y="226.906528986"/>
      </g>
     </g>
     <g id="line2d_115">
      <g>
       <use style="stroke:#000000;stroke-width:0.5;" x="506.098243282" xlink:href="#ma4f294b3af" y="226.906528986"/>
      </g>
     </g>
    </g>
    <g id="ytick_20">
     <g id="line2d_116">
      <g>
       <use style="stroke:#000000;stroke-width:0.5;" x="59.698243282" xlink:href="#mf0c55a9a47" y="222.886848926"/>
      </g>
     </g>
     <g id="line2d_117">
      <g>
       <use style="stroke:#000000;stroke-width:0.5;" x="506.098243282" xlink:href="#ma4f294b3af" y="222.886848926"/>
      </g>
     </g>
    </g>
    <g id="ytick_21">
     <g id="line2d_118">
      <g>
       <use style="stroke:#000000;stroke-width:0.5;" x="59.698243282" xlink:href="#mf0c55a9a47" y="195.635509662"/>
      </g>
     </g>
     <g id="line2d_119">
      <g>
       <use style="stroke:#000000;stroke-width:0.5;" x="506.098243282" xlink:href="#ma4f294b3af" y="195.635509662"/>
      </g>
     </g>
    </g>
    <g id="ytick_22">
     <g id="line2d_120">
      <g>
       <use style="stroke:#000000;stroke-width:0.5;" x="59.698243282" xlink:href="#mf0c55a9a47" y="181.797863171"/>
      </g>
     </g>
     <g id="line2d_121">
      <g>
       <use style="stroke:#000000;stroke-width:0.5;" x="506.098243282" xlink:href="#ma4f294b3af" y="181.797863171"/>
      </g>
     </g>
    </g>
    <g id="ytick_23">
     <g id="line2d_122">
      <g>
       <use style="stroke:#000000;stroke-width:0.5;" x="59.698243282" xlink:href="#mf0c55a9a47" y="171.97989674"/>
      </g>
     </g>
     <g id="line2d_123">
      <g>
       <use style="stroke:#000000;stroke-width:0.5;" x="506.098243282" xlink:href="#ma4f294b3af" y="171.97989674"/>
      </g>
     </g>
    </g>
    <g id="ytick_24">
     <g id="line2d_124">
      <g>
       <use style="stroke:#000000;stroke-width:0.5;" x="59.698243282" xlink:href="#mf0c55a9a47" y="164.364490338"/>
      </g>
     </g>
     <g id="line2d_125">
      <g>
       <use style="stroke:#000000;stroke-width:0.5;" x="506.098243282" xlink:href="#ma4f294b3af" y="164.364490338"/>
      </g>
     </g>
    </g>
    <g id="ytick_25">
     <g id="line2d_126">
      <g>
       <use style="stroke:#000000;stroke-width:0.5;" x="59.698243282" xlink:href="#mf0c55a9a47" y="158.142250248"/>
      </g>
     </g>
     <g id="line2d_127">
      <g>
       <use style="stroke:#000000;stroke-width:0.5;" x="506.098243282" xlink:href="#ma4f294b3af" y="158.142250248"/>
      </g>
     </g>
    </g>
    <g id="ytick_26">
     <g id="line2d_128">
      <g>
       <use style="stroke:#000000;stroke-width:0.5;" x="59.698243282" xlink:href="#mf0c55a9a47" y="152.881421212"/>
      </g>
     </g>
     <g id="line2d_129">
      <g>
       <use style="stroke:#000000;stroke-width:0.5;" x="506.098243282" xlink:href="#ma4f294b3af" y="152.881421212"/>
      </g>
     </g>
    </g>
    <g id="ytick_27">
     <g id="line2d_130">
      <g>
       <use style="stroke:#000000;stroke-width:0.5;" x="59.698243282" xlink:href="#mf0c55a9a47" y="148.324283817"/>
      </g>
     </g>
     <g id="line2d_131">
      <g>
       <use style="stroke:#000000;stroke-width:0.5;" x="506.098243282" xlink:href="#ma4f294b3af" y="148.324283817"/>
      </g>
     </g>
    </g>
    <g id="ytick_28">
     <g id="line2d_132">
      <g>
       <use style="stroke:#000000;stroke-width:0.5;" x="59.698243282" xlink:href="#mf0c55a9a47" y="144.304603757"/>
      </g>
     </g>
     <g id="line2d_133">
      <g>
       <use style="stroke:#000000;stroke-width:0.5;" x="506.098243282" xlink:href="#ma4f294b3af" y="144.304603757"/>
      </g>
     </g>
    </g>
    <g id="ytick_29">
     <g id="line2d_134">
      <g>
       <use style="stroke:#000000;stroke-width:0.5;" x="59.698243282" xlink:href="#mf0c55a9a47" y="117.053264493"/>
      </g>
     </g>
     <g id="line2d_135">
      <g>
       <use style="stroke:#000000;stroke-width:0.5;" x="506.098243282" xlink:href="#ma4f294b3af" y="117.053264493"/>
      </g>
     </g>
    </g>
    <g id="ytick_30">
     <g id="line2d_136">
      <g>
       <use style="stroke:#000000;stroke-width:0.5;" x="59.698243282" xlink:href="#mf0c55a9a47" y="103.215618002"/>
      </g>
     </g>
     <g id="line2d_137">
      <g>
       <use style="stroke:#000000;stroke-width:0.5;" x="506.098243282" xlink:href="#ma4f294b3af" y="103.215618002"/>
      </g>
     </g>
    </g>
    <g id="ytick_31">
     <g id="line2d_138">
      <g>
       <use style="stroke:#000000;stroke-width:0.5;" x="59.698243282" xlink:href="#mf0c55a9a47" y="93.3976515705"/>
      </g>
     </g>
     <g id="line2d_139">
      <g>
       <use style="stroke:#000000;stroke-width:0.5;" x="506.098243282" xlink:href="#ma4f294b3af" y="93.3976515705"/>
      </g>
     </g>
    </g>
    <g id="ytick_32">
     <g id="line2d_140">
      <g>
       <use style="stroke:#000000;stroke-width:0.5;" x="59.698243282" xlink:href="#mf0c55a9a47" y="85.782245169"/>
      </g>
     </g>
     <g id="line2d_141">
      <g>
       <use style="stroke:#000000;stroke-width:0.5;" x="506.098243282" xlink:href="#ma4f294b3af" y="85.782245169"/>
      </g>
     </g>
    </g>
    <g id="ytick_33">
     <g id="line2d_142">
      <g>
       <use style="stroke:#000000;stroke-width:0.5;" x="59.698243282" xlink:href="#mf0c55a9a47" y="79.5600050793"/>
      </g>
     </g>
     <g id="line2d_143">
      <g>
       <use style="stroke:#000000;stroke-width:0.5;" x="506.098243282" xlink:href="#ma4f294b3af" y="79.5600050793"/>
      </g>
     </g>
    </g>
    <g id="ytick_34">
     <g id="line2d_144">
      <g>
       <use style="stroke:#000000;stroke-width:0.5;" x="59.698243282" xlink:href="#mf0c55a9a47" y="74.2991760433"/>
      </g>
     </g>
     <g id="line2d_145">
      <g>
       <use style="stroke:#000000;stroke-width:0.5;" x="506.098243282" xlink:href="#ma4f294b3af" y="74.2991760433"/>
      </g>
     </g>
    </g>
    <g id="ytick_35">
     <g id="line2d_146">
      <g>
       <use style="stroke:#000000;stroke-width:0.5;" x="59.698243282" xlink:href="#mf0c55a9a47" y="69.742038648"/>
      </g>
     </g>
     <g id="line2d_147">
      <g>
       <use style="stroke:#000000;stroke-width:0.5;" x="506.098243282" xlink:href="#ma4f294b3af" y="69.742038648"/>
      </g>
     </g>
    </g>
    <g id="ytick_36">
     <g id="line2d_148">
      <g>
       <use style="stroke:#000000;stroke-width:0.5;" x="59.698243282" xlink:href="#mf0c55a9a47" y="65.7223585881"/>
      </g>
     </g>
     <g id="line2d_149">
      <g>
       <use style="stroke:#000000;stroke-width:0.5;" x="506.098243282" xlink:href="#ma4f294b3af" y="65.7223585881"/>
      </g>
     </g>
    </g>
    <g id="ytick_37">
     <g id="line2d_150">
      <g>
       <use style="stroke:#000000;stroke-width:0.5;" x="59.698243282" xlink:href="#mf0c55a9a47" y="38.471019324"/>
      </g>
     </g>
     <g id="line2d_151">
      <g>
       <use style="stroke:#000000;stroke-width:0.5;" x="506.098243282" xlink:href="#ma4f294b3af" y="38.471019324"/>
      </g>
     </g>
    </g>
    <g id="ytick_38">
     <g id="line2d_152">
      <g>
       <use style="stroke:#000000;stroke-width:0.5;" x="59.698243282" xlink:href="#mf0c55a9a47" y="24.6333728328"/>
      </g>
     </g>
     <g id="line2d_153">
      <g>
       <use style="stroke:#000000;stroke-width:0.5;" x="506.098243282" xlink:href="#ma4f294b3af" y="24.6333728328"/>
      </g>
     </g>
    </g>
    <g id="ytick_39">
     <g id="line2d_154">
      <g>
       <use style="stroke:#000000;stroke-width:0.5;" x="59.698243282" xlink:href="#mf0c55a9a47" y="14.8154064015"/>
      </g>
     </g>
     <g id="line2d_155">
      <g>
       <use style="stroke:#000000;stroke-width:0.5;" x="506.098243282" xlink:href="#ma4f294b3af" y="14.8154064015"/>
      </g>
     </g>
    </g>
    <g id="ytick_40">
     <g id="line2d_156">
      <g>
       <use style="stroke:#000000;stroke-width:0.5;" x="59.698243282" xlink:href="#mf0c55a9a47" y="7.2"/>
      </g>
     </g>
     <g id="line2d_157">
      <g>
       <use style="stroke:#000000;stroke-width:0.5;" x="506.098243282" xlink:href="#ma4f294b3af" y="7.2"/>
      </g>
     </g>
    </g>
    <g id="text_11">
     <!-- $\tau \ / \ \mathrm{N_H} \ \left( \mathrm{cm}^2 \right)$ -->
     <defs>
      <path d="
M42.9062 71.2969
C42.9062 71.4062 43.5 72.9062 43.5 73.0938
C43.5 74.2969 42.5 75 41.7031 75
C41.2031 75 40.2969 75 39.5 72.7969
L6 -21.2969
C6 -21.4062 5.40625 -22.8906 5.40625 -23.0938
C5.40625 -24.2969 6.40625 -25 7.20312 -25
C7.79688 -25 8.70312 -24.8906 9.40625 -22.7969
z
" id="CMMI12-61"/>
      <path d="
M28.7031 37.625
L45.2969 37.625
C46.5938 37.625 49.9062 37.625 49.9062 40.8125
C49.9062 43 48 43 46.2031 43
L18.7031 43
C16.4062 43 13 43 8.40625 38.125
C5.79688 35.2344 2.59375 29.9531 2.59375 29.3594
C2.59375 28.7656 3.09375 28.5625 3.70312 28.5625
C4.40625 28.5625 4.5 28.8594 5 29.4531
C10.2031 37.625 15.4062 37.625 17.9062 37.625
L26.2031 37.625
L15.7969 3.48438
C15.2969 1.98438 15.2969 1.78125 15.2969 1.48438
C15.2969 0.390625 16 -1 18 -1
C21.0938 -1 21.5938 1.6875 21.9062 3.17188
z
" id="CMMI12-28"/>
      <path d="
M34.9062 35
C33 35 30.2031 35 30.2031 31.5156
C30.2031 28.7188 32.5 27.9219 33.7969 27.9219
C34.5 27.9219 37.4062 28.2344 37.4062 31.625
C37.4062 38.5469 30.5938 43.7969 22.9062 43.7969
C12.2969 43.7969 3.29688 34.0312 3.29688 21.2969
C3.29688 8.0625 12.7031 -1 22.9062 -1
C35.2969 -1 38.4062 10.5938 38.4062 11.6875
C38.4062 12.0938 38.2969 12.3906 37.5938 12.3906
C36.9062 12.3906 36.7969 12.2969 36.4062 10.9844
C33.7969 2.8125 28.0938 0.796875 23.7969 0.796875
C17.4062 0.796875 9.70312 6.67188 9.70312 21.3906
C9.70312 36.5312 17.0938 42 23 42
C26.9062 42 32.7031 40.2031 34.9062 35" id="CMR17-99"/>
      <path d="
M56.0938 61.0156
C56.0938 65.5 57.2031 65.5 64.0938 65.5
L64.0938 68
C61.2031 68 55.9062 68 52.7969 68
C49.7031 68 44.4062 68 41.5 68
L41.5 65.5
C48.4062 65.5 49.5 65.5 49.5 61
L49.5 36.5781
L19.7031 36.5781
L19.7031 61
C19.7031 65.5 20.7969 65.5 27.7031 65.5
L27.7031 68
C24.7969 68 19.5 68 16.4062 68
C13.2969 68 8 68 5.09375 68
L5.09375 65.5
C12 65.5 13.0938 65.5 13.0938 61.0156
L13.0938 6.98438
C13.0938 2.5 12 2.5 5.09375 2.5
L5.09375 0
C8 0 13.2969 0 16.4062 0
C19.5 0 24.7969 0 27.7031 0
L27.7031 2.5
C20.7969 2.5 19.7031 2.5 19.7031 6.96875
L19.7031 34
L49.5 34
L49.5 6.96875
C49.5 2.5 48.4062 2.5 41.5 2.5
L41.5 0
C44.4062 0 49.7031 0 52.7969 0
C55.9062 0 61.2031 0 64.0938 0
L64.0938 2.5
C57.2031 2.5 56.0938 2.5 56.0938 6.98438
z
" id="CMR17-72"/>
      <path d="
M30.5 -56
C30.5 -41.7969 28 -21.7031 14.9062 -4.79688
C13.9062 -3.59375 7.40625 4 5.59375 4
C5.09375 4 4.40625 3.79688 4.40625 3
C4.40625 2.59375 4.59375 2.29688 5 2
C9.79688 -3.20312 16.2969 -11.2969 20.4062 -27.2031
C22.7031 -36.2969 23.5938 -46.5938 23.5938 -55.9062
C23.5938 -66 22.7031 -76.2031 20.0938 -86
C16.2969 -100 10.4062 -108 5.29688 -113.594
C4.40625 -114.5 4.40625 -114.703 4.40625 -114.906
C4.40625 -115.703 5.09375 -115.906 5.59375 -115.906
C7.09375 -115.906 12.5938 -109.797 13.7969 -108.406
C24 -96.2969 30.5 -78.2969 30.5 -56" id="CMEX10-1"/>
      <path d="
M41.2969 -114.906
C41.2969 -114.5 41.0938 -114.297 40.9062 -114
C36.2969 -109.094 29.5 -101 25.2969 -84.7031
C23 -75.5938 22.0938 -65.2969 22.0938 -56
C22.0938 -29.7031 28.4062 -11.2969 40.4062 1.70312
C41.2969 2.59375 41.2969 2.79688 41.2969 3
C41.2969 4 40.5 4 40.0938 4
C38.5938 4 33.2031 -2 31.9062 -3.5
C21.7031 -15.5938 15.2031 -33.5938 15.2031 -55.9062
C15.2031 -70.0938 17.7031 -90.2031 30.7969 -107.094
C31.7969 -108.297 38.2969 -115.906 40.0938 -115.906
C40.5 -115.906 41.2969 -115.906 41.2969 -114.906" id="CMEX10-0"/>
      <path d="
M20.5 66.4062
C19.7969 67.5 19.7031 67.5938 17.7969 67.5938
L5.09375 67.5938
L5.09375 65
L7 65
C11 65 12.7969 64.5156 13.0938 64.4062
L13.0938 9.53125
C13.0938 7.04688 13.0938 2.39062 5.09375 2.39062
L5.09375 -0.203125
C7.40625 0 11.5938 0 14.0938 0
C16.5938 0 20.7969 0 23.0938 -0.203125
L23.0938 2.39062
C15.0938 2.39062 15.0938 7.04688 15.0938 9.53125
L15.0938 63.0156
C15.7969 62.4219 15.7969 62.2188 16.5 61.2344
L53.5938 1.1875
C54.2969 0 54.5938 0 55.0938 0
C56.0938 0 56.0938 0.296875 56.0938 2.17188
L56.0938 57.8906
C56.0938 60.3594 56.0938 65 64.0938 65
L64.0938 67.5938
C61.7969 67.5938 57.5938 67.5938 55.0938 67.5938
C52.5938 67.5938 48.4062 67.5938 46.0938 67.5938
L46.0938 65
C54.0938 65 54.0938 60.3438 54.0938 57.8594
L54.0938 11.9219
z
" id="CMR17-78"/>
     </defs>
     <g transform="translate(20.9666125078 221.14278791)rotate(-90.0)scale(0.14 -0.14)">
      <use transform="translate(0.0 14.9439145441)scale(0.996264009963)" xlink:href="#CMMI12-28"/>
      <use transform="translate(81.1863349354 14.9439145441)scale(0.996264009963)" xlink:href="#CMMI12-61"/>
      <use transform="translate(157.6564233 14.9439145441)scale(0.996264009963)" xlink:href="#CMR17-78"/>
      <use transform="translate(226.728853105 0.0)scale(0.697381766617)" xlink:href="#CMR17-72"/>
      <use transform="translate(319.877044944 95.6419986331)scale(0.996264009963)" xlink:href="#CMEX10-0"/>
      <use transform="translate(365.539398763 14.9439145441)scale(0.996264009963)" xlink:href="#CMR17-99"/>
      <use transform="translate(406.025059226 14.9439145441)scale(0.996264009963)" xlink:href="#CMR17-109"/>
      <use transform="translate(482.944649094 51.097553486)scale(0.697381766617)" xlink:href="#CMR17-50"/>
      <use transform="translate(515.425963063 95.6419986331)scale(0.996264009963)" xlink:href="#CMEX10-1"/>
     </g>
    </g>
   </g>
   <g id="text_12">
    <!-- $\lambda^{-4}$ -->
    <g style="fill:#c47339;" transform="translate(352.737241902 273.800848634)scale(0.12 -0.12)">
     <use transform="scale(0.996264009963)" xlink:href="#CMMI12-21"/>
     <use transform="translate(56.9040718886 36.1536389419)scale(0.697381766617)" xlink:href="#CMSY10-0"/>
     <use transform="translate(111.145065137 36.1536389419)scale(0.697381766617)" xlink:href="#CMR17-52"/>
    </g>
   </g>
   <g id="text_13">
    <!-- $\lambda^{-2}$ -->
    <g style="fill:#247b6f;" transform="translate(459.63145676 260.779366799)scale(0.12 -0.12)">
     <use transform="scale(0.996264009963)" xlink:href="#CMMI12-21"/>
     <use transform="translate(56.9040718886 36.1536389419)scale(0.697381766617)" xlink:href="#CMSY10-0"/>
     <use transform="translate(111.145065137 36.1536389419)scale(0.697381766617)" xlink:href="#CMR17-50"/>
    </g>
   </g>
   <g id="text_14">
    <!-- $\mathrm{ UV }$ -->
    <defs>
     <path d="
M59 58.5156
C59.9062 60.7188 61.5 65 68.2031 65
L68.2031 67.6875
C65.9062 67.4844 63.2969 67.4844 60.7969 67.4844
C58.4062 67.4844 54.2969 67.4844 52 67.6875
L52 65
C57 65 57.2031 61.5 57.2031 60.9062
C57.2031 59.7969 56.9062 59.1094 56.5938 58.3125
L36.9062 6.96875
L16.2969 60.625
C16 61.3281 15.7969 61.8281 15.7969 62.3125
C15.7969 65 19.7969 65 21.9062 65
L21.9062 67.4844
C18.7031 67.4844 14 67.4844 10.7031 67.4844
C8.09375 67.4844 3.40625 67.4844 1 67.6875
L1 65
C6.79688 65 7.90625 64.6094 9.09375 61.4219
L32.9062 -0.40625
C33.4062 -1.79688 33.5 -2 34.5938 -2
C35.7031 -2 35.7969 -1.79688 36.2969 -0.40625
z
" id="CMR17-86"/>
     <path d="
M54 22.3906
C54 9.04688 45.2969 0.59375 35.7969 0.59375
C30.7031 0.59375 26.0938 3.28125 23.2969 7.45312
C20.0938 12.2344 19.7031 18.4062 19.7031 21.8906
L19.7031 60.5312
C19.7031 65 20.7969 65 27.7031 65
L27.7031 67.5
C24.7969 67.5 19.5 67.5 16.4062 67.5
C13.2969 67.5 8 67.5 5.09375 67.5
L5.09375 65
C12 65 13.0938 65 13.0938 60.5312
L13.0938 22.3906
C13.0938 8.0625 24 -2 35.5938 -2
C48.5938 -2 56.0938 11.2344 56.0938 21
L56.0938 58.8438
C56.0938 64.4062 61.2031 65 64.0938 65
L64.0938 67.5938
C61.7969 67.5 57.5938 67.5 55.0938 67.5
C52.5938 67.5 48.2969 67.5 46 67.5938
L46 65
C54 65 54 60.3281 54 57.8438
z
" id="CMR17-85"/>
    </defs>
    <g transform="translate(135.357772292 347.000895309)scale(0.12 -0.12)">
     <use transform="scale(0.996264009963)" xlink:href="#CMR17-85"/>
     <use transform="translate(69.0724298042 0.0)scale(0.996264009963)" xlink:href="#CMR17-86"/>
    </g>
   </g>
   <g id="text_15">
    <!-- $\mathrm{ visible }$ -->
    <defs>
     <path d="
M15 68.6875
L3.09375 67.5938
L3.09375 65
C9 65 9.90625 64.4062 9.90625 59.6406
L9.90625 -0.203125
L11.7031 -0.203125
L14.5938 6.89062
C17.5 2.20312 21.7969 -1 27.5938 -1
C37.5938 -1 47.7031 7.8125 47.7031 21.4062
C47.7031 34.1875 38.7031 43.5938 28.5938 43.5938
C22.4062 43.5938 18 40.2969 15 36.4062
z

M15.2031 31.3125
C15.2031 33.0938 15.2031 33.4062 16.5938 35.5
C20.5 41.5156 26.0938 42 28 42
C31 42 41.2969 40.3906 41.2969 21.5
C41.2969 1.6875 29.5 0.59375 27.0938 0.59375
C24 0.59375 19.5 1.78125 16.2969 7.59375
C15.2031 9.5 15.2031 9.70312 15.2031 11.4844
z
" id="CMR17-98"/>
     <path d="
M15.5 61.0781
C15.5 63.2656 13.7031 65.1562 11.4062 65.1562
C9.20312 65.1562 7.29688 63.375 7.29688 61.0781
C7.29688 58.8906 9.09375 57 11.4062 57
C13.5938 57 15.5 58.7969 15.5 61.0781
M3.79688 42.2812
L3.79688 39.7031
C9.40625 39.7031 10.2031 39.0938 10.2031 34.3281
L10.2031 6.67188
C10.2031 2.875 9.79688 2.39062 3.40625 2.39062
L3.40625 -0.203125
C5.79688 0 10.0938 0 12.5938 0
C15 0 19.0938 0 21.4062 -0.203125
L21.4062 2.39062
C15.5 2.39062 15.2969 2.98438 15.2969 6.5625
L15.2969 43.375
z
" id="CMR17-105"/>
     <path d="
M30.9062 42.1094
C30.9062 43.9062 30.7969 44 30.2031 44
C29.7969 44 29.7031 43.9062 28.5 42.4219
C28.2031 42.0156 27.2969 41.0156 27 40.625
C23.7969 44 19.2969 44 17.5938 44
C6.5 44 2.5 38.1719 2.5 32.375
C2.5 23.3438 12.7031 21.25 15.5938 20.6406
C21.9062 19.3438 24.0938 18.9375 26.2031 17.125
C27.5 15.9375 29.7031 13.7344 29.7031 10.125
C29.7031 5.90625 27.2969 0.5 18.0938 0.5
C9.40625 0.5 6.29688 7.0625 4.5 15.8281
C4.20312 17.2188 4.20312 17.3281 3.40625 17.3281
C2.59375 17.3281 2.5 17.2188 2.5 15.2344
L2.5 0.890625
C2.5 -0.890625 2.59375 -1 3.20312 -1
C3.70312 -1 3.79688 -0.890625 4.29688 -0.09375
C4.90625 0.796875 6.40625 3.1875 7 4.1875
C9 1.54688 12.5 -1 18.0938 -1
C28 -1 33.2969 4.40625 33.2969 12.2344
C33.2969 17.3438 30.5938 20.0625 29.2969 21.25
C26.2969 24.375 22.7969 25.0625 18.5938 25.8594
C13.0938 27.0781 6.09375 28.4688 6.09375 34.5938
C6.09375 37.1875 7.5 42.7188 17.5938 42.7188
C28.2969 42.7188 28.9062 32.75 29.0938 29.5625
C29.2031 29.0781 29.7031 28.9688 30 28.9688
C30.9062 28.9688 30.9062 29.2812 30.9062 30.9688
z
" id="CMR17-115"/>
     <path d="
M38.0938 23
C38.5 23.4062 38.5 23.6094 38.5 24.625
C38.5 34.9688 33.0938 44 21.7031 44
C11.0938 44 2.70312 33.8906 2.70312 21.6094
C2.70312 8.60938 12.2031 -1 22.7969 -1
C34 -1 38.4062 9.46875 38.4062 11.5469
C38.4062 12.25 37.7969 12.25 37.5938 12.25
C36.9062 12.25 36.7969 12.0469 36.4062 10.875
C34.2031 4.14062 28.7031 0.796875 23.5 0.796875
C19.2031 0.796875 14.9062 3.17188 12.2031 7.5
C9.09375 12.5469 9.09375 18.375 9.09375 23
z

M9.20312 24.5
C9.90625 39.1406 17.5938 42.4062 21.5938 42.4062
C28.4062 42.4062 33 35.8906 33.0938 24.5
z
" id="CMR17-101"/>
     <path d="
M15.2969 68.6875
L3.40625 67.5938
L3.40625 65
C9.29688 65 10.2031 64.4062 10.2031 59.6406
L10.2031 6.65625
C10.2031 2.875 9.79688 2.39062 3.40625 2.39062
L3.40625 -0.203125
C5.79688 0 10.2031 0 12.7031 0
C15.2969 0 19.7031 0 22.0938 -0.203125
L22.0938 2.39062
C15.7031 2.39062 15.2969 2.78125 15.2969 6.65625
z
" id="CMR17-108"/>
     <path d="
M39.0938 33.7969
C40 36 41.5938 40 47.4062 40
L47.4062 42.5938
C45.5 42.5938 43 42.5938 41.0938 42.5938
C39 42.5938 35.7031 42.5938 33.7031 42.6875
L33.7031 40.0938
C36.2031 39.8906 37.5938 38.7031 37.5938 36.1094
C37.5938 35.2031 37.5938 35 37 33.6094
L26 5.89062
L14.0938 35.7188
C13.5 37.0156 13.5 37.2031 13.5 37.6094
C13.5 40 16.7969 40 18.2969 40
L18.2969 42.6875
C15.9062 42.5938 11.5 42.5938 9 42.5938
C6.29688 42.5938 3.20312 42.5938 1 42.6875
L1 40
C4.79688 40 6.90625 40 8.09375 36.9062
L22.5938 0.6875
C23.2031 -0.796875 23.2969 -1 24.2031 -1
C25.0938 -1 25.2031 -0.796875 25.7969 0.6875
z
" id="CMR17-118"/>
    </defs>
    <g transform="translate(228.221469387 347.000895309)scale(0.12 -0.12)">
     <use transform="scale(0.996264009963)" xlink:href="#CMR17-118"/>
     <use transform="translate(48.2929158478 0.0)scale(0.996264009963)" xlink:href="#CMR17-105"/>
     <use transform="translate(73.1639743297 0.0)scale(0.996264009963)" xlink:href="#CMR17-115"/>
     <use transform="translate(108.965311965 0.0)scale(0.996264009963)" xlink:href="#CMR17-105"/>
     <use transform="translate(133.836370447 0.0)scale(0.996264009963)" xlink:href="#CMR17-98"/>
     <use transform="translate(184.731740227 0.0)scale(0.996264009963)" xlink:href="#CMR17-108"/>
     <use transform="translate(209.602798709 0.0)scale(0.996264009963)" xlink:href="#CMR17-101"/>
    </g>
   </g>
   <g id="text_16">
    <!-- $\mathrm{ NIR }$ -->
    <defs>
     <path d="
M19.7031 61.0156
C19.7031 65.5 20.9062 65.5 28.0938 65.5
L28.0938 68
C24.9062 68 19.7969 68 16.4062 68
C13 68 7.90625 68 4.70312 68
L4.70312 65.5
C11.9062 65.5 13.0938 65.5 13.0938 61.0156
L13.0938 6.98438
C13.0938 2.5 11.9062 2.5 4.70312 2.5
L4.70312 0
C7.90625 0 13 0 16.4062 0
C19.7969 0 24.9062 0 28.0938 0
L28.0938 2.5
C20.9062 2.5 19.7031 2.5 19.7031 6.98438
z
" id="CMR17-73"/>
     <path d="
M39.2031 33.7031
C48.7031 35.5781 56.7031 41.9375 56.7031 49.8594
C56.7031 59.1719 46.0938 67.5938 32.0938 67.5938
L5.20312 67.5938
L5.20312 65
C12.0938 65 13.2031 65 13.2031 60.5156
L13.2031 6.48438
C13.2031 2 12.0938 2 5.20312 2
L5.20312 -0.40625
C8.09375 -0.40625 13.2969 -0.40625 16.4062 -0.40625
C19.5 -0.40625 24.7031 -0.40625 27.5938 -0.40625
L27.5938 2
C20.7031 2 19.5938 2 19.5938 6.51562
L19.5938 33
L31.2969 33
C37 33 40.2031 30.6875 41.5938 29.3906
C45.5938 25.5 45.5938 22.7969 45.5938 16
C45.5938 9.29688 45.5938 5.89062 48.5938 2.5
C52.4062 -1.59375 57.5 -2 59.7031 -2
C67.0938 -2 68.2031 6.1875 68.2031 7.85938
C68.2031 8.4375 68.2031 9.14062 67.2969 9.14062
C66.5 9.14062 66.4062 8.54688 66.4062 8.14062
C65.9062 1.75 63 -0.40625 59.9062 -0.40625
C54.4062 -0.40625 53.7969 5.89062 53.2031 12
C52.9062 14.1094 52.7031 15.5938 52.5 17.7969
C51.9062 22.7969 51.0938 30.1094 39.2031 33.7031
M31 34.5938
L19.5938 34.5938
L19.5938 61.1406
C19.5938 64.5156 19.7969 65 23.7969 65
L31.0938 65
C39.4062 65 49.0938 62.1406 49.0938 49.8438
C49.0938 37.0625 38.5 34.5938 31 34.5938" id="CMR17-82"/>
    </defs>
    <g transform="translate(293.360396 347.000895309)scale(0.12 -0.12)">
     <use transform="scale(0.996264009963)" xlink:href="#CMR17-78"/>
     <use transform="translate(69.0724298042 0.0)scale(0.996264009963)" xlink:href="#CMR17-73"/>
     <use transform="translate(101.710838992 0.0)scale(0.996264009963)" xlink:href="#CMR17-82"/>
    </g>
   </g>
   <g id="text_17">
    <!-- $\mathrm{ MIR }$ -->
    <defs>
     <path d="
M20.9062 66
C20.2969 67.5 20.2031 67.5938 18.0938 67.5938
L5.29688 67.5938
L5.29688 65
C12.2031 65 13.2969 65 13.2969 60.5469
L13.2969 9.53125
C13.2969 7.04688 13.2969 2.39062 5.29688 2.39062
L5.29688 -0.203125
C7.59375 0 11.7969 0 14.2969 0
C16.7969 0 21 0 23.2969 -0.203125
L23.2969 2.39062
C15.2969 2.39062 15.2969 7.04688 15.2969 9.53125
L15.2969 64.6094
L15.4062 64.6094
L38.9062 1.57812
C39.2969 0.59375 39.5 0 40.2969 0
C41.0938 0 41.2969 0.59375 41.7031 1.57812
L65.4062 65
L65.5 65
L65.5 6.84375
C65.5 2.39062 64.4062 2.39062 57.5 2.39062
L57.5 -0.203125
C60.2031 0 65.5938 0 68.5 0
C71.4062 0 76.9062 0 79.5938 -0.203125
L79.5938 2.39062
C72.7031 2.39062 71.5938 2.39062 71.5938 6.84375
L71.5938 60.5469
C71.5938 65 72.7031 65 79.5938 65
L79.5938 67.5938
L66.9062 67.5938
C64.7969 67.5938 64.7031 67.5 64.0938 66
L42.5 7.84375
z
" id="CMR17-77"/>
    </defs>
    <g transform="translate(373.778362198 347.000895309)scale(0.12 -0.12)">
     <use transform="scale(0.996264009963)" xlink:href="#CMR17-77"/>
     <use transform="translate(84.6869405744 0.0)scale(0.996264009963)" xlink:href="#CMR17-73"/>
     <use transform="translate(117.325349763 0.0)scale(0.996264009963)" xlink:href="#CMR17-82"/>
    </g>
   </g>
   <g id="text_18">
    <!-- $\mathrm{ FIR }$ -->
    <defs>
     <path d="
M54.4062 67.5781
L5.09375 67.5781
L5.09375 65
C12 65 13.0938 65 13.0938 60.5312
L13.0938 6.96875
C13.0938 2.5 12 2.5 5.09375 2.5
L5.09375 0
C8 0 13.5938 0 16.7031 0
C20.7969 0 25.5938 0 29.7031 0
L29.7031 2.5
L27.5 2.5
C19.9062 2.5 19.7031 3.48438 19.7031 7.0625
L19.7031 32.4219
L28.7031 32.4219
C38 32.4219 38.9062 29.1875 38.9062 21
L40.7031 21
L40.7031 46.8906
L38.9062 46.8906
C38.9062 38.3438 38 35 28.7031 35
L19.7031 35
L19.7031 61.1094
C19.7031 64.5 19.9062 65 23.9062 65
L36.7969 65
C51.9062 65 53.5938 58.8906 55 45.7656
L56.7969 45.7656
z
" id="CMR17-70"/>
    </defs>
    <g transform="translate(466.126893061 347.000895309)scale(0.12 -0.12)">
     <use transform="scale(0.996264009963)" xlink:href="#CMR17-70"/>
     <use transform="translate(59.983846586 0.0)scale(0.996264009963)" xlink:href="#CMR17-73"/>
     <use transform="translate(92.6222557742 0.0)scale(0.996264009963)" xlink:href="#CMR17-82"/>
    </g>
   </g>
   <g id="patch_12">
    <path d="
M203.04 34.0832
L202.29 34.0832
L202.29 41.4062
L200.665 41.4062
L202.665 43.8472
L204.665 41.4062
L203.04 41.4062
z
" style="opacity:0.5;stroke:#000000;stroke-linejoin:miter;"/>
   </g>
   <g id="text_19">
    <!-- $\pi \! \rightarrow \! \pi^{\star} \left( \mathrm{PAH?} \right)$ -->
    <defs>
     <path d="
M19.7969 31.9062
L35.7969 31.9062
C48.7031 31.9062 58.0938 40.2812 58.0938 49.75
C58.0938 59.2344 48.9062 68 35.7969 68
L5.20312 68
L5.20312 65.4062
C12.0938 65.4062 13.2031 65.4062 13.2031 60.9375
L13.2031 6.96875
C13.2031 2.5 12.0938 2.5 5.20312 2.5
L5.20312 0
C8.09375 0 13.4062 0 16.5 0
C19.5938 0 24.9062 0 27.7969 0
L27.7969 2.5
C20.9062 2.5 19.7969 2.5 19.7969 6.96875
z

M19.5938 34
L19.5938 61.5312
C19.5938 64.9219 19.7969 65.4062 23.7969 65.4062
L33.9062 65.4062
C46.7969 65.4062 50.5 58.0312 50.5 49.75
C50.5 40.6875 46.0938 34 33.9062 34
z
" id="CMR17-80"/>
     <path d="
M24.4062 17.2031
L38 2.29688
C38.2969 2 38.5938 1.79688 39 1.79688
C39.9062 1.79688 39.9062 2.59375 39.9062 2.70312
C39.9062 3 39.5938 3.59375 39.4062 3.90625
L29.6094 21
L47.5 29.0938
C48.7031 29.5938 48.9062 29.7031 48.9062 30.2969
C48.9062 30.7969 48.5 31.2031 47.9062 31.2031
L27.7031 27.1094
L25.5 46.4062
C25.2969 47.7969 25.2969 48.2969 24.5 48.2969
C23.5938 48.2969 23.5938 47.7969 23.4062 46.2969
L21.2031 27.1094
L1 31.2031
C0.40625 31.2031 0 30.7969 0 30.2969
C0 29.7031 0.5 29.5 1.29688 29.0938
L19.2969 21
L9.70312 4.09375
C9 2.90625 9 2.79688 9 2.70312
C9 2.59375 9 1.79688 9.90625 1.79688
C10.0938 1.79688 10.5 1.79688 11.4062 2.79688
z
" id="CMMI12-63"/>
     <path d="
M21.0938 22.4531
C21.0938 31.8281 25.9062 40.1094 33.0938 45.7812
C35 47.1719 38.5 49.9688 38.5 56.25
C38.5 64.3281 32.4062 70 20.5938 70
C10.5938 70 4.59375 63.2031 4.59375 56.6875
C4.59375 52.8438 7.90625 52.8438 8.20312 52.8438
C9.29688 52.8438 11.7969 53.5312 11.7969 56.4219
C11.7969 58.9062 9.90625 60 8.20312 60
C7.79688 60 7.29688 59.8906 7 59.7969
C9.09375 65.9688 15.0938 68.4062 20.4062 68.4062
C32 68.4062 32.0938 60.4375 32.0938 56.75
C32.0938 50.6719 30.2031 48.5625 28.2969 46.5781
C21.7031 39.5156 19.2969 30.1406 19.2969 22.8594
L19.2969 18.9688
C19.2969 17.2812 19.2969 16.8906 20.2031 16.8906
C21.0938 16.8906 21.0938 17.2812 21.0938 18.9688
z

M24.2969 4.07812
C24.2969 6.26562 22.5 8.15625 20.2031 8.15625
C18 8.15625 16.0938 6.375 16.0938 4.07812
C16.0938 1.89062 17.9062 0 20.2031 0
C22.4062 0 24.2969 1.79688 24.2969 4.07812" id="CMR17-63"/>
     <path d="
M83.4062 23
C77.9062 18.7969 75.2031 14.7031 74.4062 13.4062
C69.9062 6.5 69.0938 0.203125 69.0938 0.09375
C69.0938 -1.09375 70.2969 -1.09375 71.0938 -1.09375
C72.7969 -1.09375 72.9062 -0.90625 73.2969 0.90625
C75.5938 10.7031 81.5 19.0938 92.7969 23.7031
C94 24.0938 94.2969 24.2969 94.2969 25
C94.2969 25.7031 93.7031 26 93.5 26.0938
C89.0938 27.7969 77 32.7969 73.2031 49.5938
C72.9062 50.7969 72.7969 51.0938 71.0938 51.0938
C70.2969 51.0938 69.0938 51.0938 69.0938 49.9062
C69.0938 49.7031 70 43.4062 74.2031 36.7031
C76.2031 33.7031 79.0938 30.2031 83.4062 27
L9.09375 27
C7.29688 27 5.5 27 5.5 25
C5.5 23 7.29688 23 9.09375 23
z
" id="CMSY10-33"/>
     <path d="
M36.2969 68.4062
C35.7969 69.7031 35.5938 70 34.5938 70
C33.5938 70 33.4062 69.7031 32.9062 68.4062
L11.7031 8.84375
C9.79688 3.48438 5.79688 2.39062 2.29688 2.39062
L2.29688 -0.203125
C4.09375 0 8.09375 0 10 0
C12.5 0 16.5 0 18.9062 -0.203125
L18.9062 2.39062
C14.2031 2.39062 13.5 5.64062 13.5 6.85938
C13.5 7.76562 13.7031 8.28125 13.9062 8.89062
L19.2031 24
L45.4062 24
L51.4062 6.90625
C51.9062 5.70312 51.9062 5.5 51.9062 5.10938
C51.9062 2.39062 47.5938 2.39062 45.7031 2.39062
L45.7031 0
C48.5938 0 53.7969 0 56.9062 0
C59.5 0 64.5 0 66.9062 -0.203125
L66.9062 2.39062
C61.5938 2.39062 59.7969 2.39062 58.5 6.04688
z

M32.2969 60.5312
L44.5 26.5938
L20.0938 26.5938
z
" id="CMR17-65"/>
     <path d="
M25.9062 37.625
L37.2031 37.625
C34.5 26.4375 32.7969 19.1562 32.7969 11.1875
C32.7969 9.78125 32.7969 -1 36.9062 -1
C39 -1 40.7969 0.890625 40.7969 2.60938
C40.7969 3.09375 40.7969 3.29688 40.0938 4.79688
C37.4062 11.6719 37.4062 20.25 37.4062 20.9531
C37.4062 21.5625 37.4062 28.6406 39.5 37.625
L50.7031 37.625
C52 37.625 55.2969 37.625 55.2969 40.8125
C55.2969 43 53.4062 43 51.5938 43
L18.7031 43
C16.4062 43 13 43 8.40625 38.125
C5.79688 35.2188 2.59375 29.9375 2.59375 29.3438
C2.59375 28.75 3.09375 28.5469 3.70312 28.5469
C4.40625 28.5469 4.5 28.8438 5 29.4375
C10.2031 37.625 15.4062 37.625 17.9062 37.625
L23.5938 37.625
C21.4062 30.1406 18.9062 21.4531 10.7031 4
C9.90625 2.40625 9.90625 2.1875 9.90625 1.59375
C9.90625 -0.5 11.7031 -1 12.5938 -1
C15.5 -1 16.2969 1.59375 17.5 5.78125
C19.0938 10.875 19.0938 11.0781 20.0938 15.0625
z
" id="CMMI12-25"/>
    </defs>
    <g transform="translate(165.341220231 30.5520013974)scale(0.12 -0.12)">
     <use transform="scale(0.996264009963)" xlink:href="#CMMI12-25"/>
     <use transform="translate(69.980204239 0.0)scale(0.996264009963)" xlink:href="#CMSY10-33"/>
     <use transform="translate(180.676482356 0.0)scale(0.996264009963)" xlink:href="#CMMI12-25"/>
     <use transform="translate(239.587083106 36.1536389419)scale(0.697381766617)" xlink:href="#CMMI12-63"/>
     <use transform="translate(290.83191146 0.00317717251712)scale(0.996264009963)" xlink:href="#CMR17-40"/>
     <use transform="translate(326.112679259 0.0)scale(0.996264009963)" xlink:href="#CMR17-80"/>
     <use transform="translate(380.891724393 0.0)scale(0.996264009963)" xlink:href="#CMR17-65"/>
     <use transform="translate(449.964154197 0.0)scale(0.996264009963)" xlink:href="#CMR17-72"/>
     <use transform="translate(519.036584001 0.0)scale(0.996264009963)" xlink:href="#CMR17-63"/>
     <use transform="translate(562.124698397 0.00317717251712)scale(0.996264009963)" xlink:href="#CMR17-41"/>
    </g>
   </g>
   <g id="patch_13">
    <path d="
M378.375 158.009
L377.625 158.009
L377.625 165.631
L376 165.631
L378 168.172
L380 165.631
L378.375 165.631
z
" style="opacity:0.5;stroke:#000000;stroke-linejoin:miter;"/>
   </g>
   <g id="text_20">
    <!-- $\mathrm{Si \! - \! O \ stretch}$ -->
    <defs>
     <path d="
M15.0938 40
L29.0938 40
L29.0938 42.5781
L15.0938 42.5781
L15.0938 61
L13.2969 61
C13.0938 50.7031 9.59375 41.6875 1.09375 41.6875
L1.09375 40
L9.79688 40
L9.79688 12.0469
C9.79688 10.1562 9.79688 -1 21.4062 -1
C27.2969 -1 30.7031 4.78125 30.7031 12.1406
L30.7031 17.8125
L28.9062 17.8125
L28.9062 12.2344
C28.9062 5.375 26.2031 0.796875 22 0.796875
C19.0938 0.796875 15.0938 2.78125 15.0938 11.8438
z
" id="CMR17-116"/>
     <path d="
M41.5 30.2031
C41.5 35.2969 40.5 43.5938 28.7031 43.5938
C20.5 43.5938 16.5 37 15.2969 33.7031
L15.2031 33.7031
L15.2031 68.6875
L3.29688 67.5938
L3.29688 65
C9.20312 65 10.0938 64.4062 10.0938 59.6406
L10.0938 6.65625
C10.0938 2.875 9.70312 2.39062 3.29688 2.39062
L3.29688 -0.203125
C5.70312 0 10.0938 0 12.7031 0
C15.2969 0 19.7969 0 22.2031 -0.203125
L22.2031 2.39062
C15.7969 2.39062 15.4062 2.78125 15.4062 6.6875
L15.4062 25.9062
C15.4062 35.1094 21 42 28 42
C35.4062 42 36.2031 35.4062 36.2031 30.5938
L36.2031 6.6875
C36.2031 2.875 35.7969 2.39062 29.4062 2.39062
L29.4062 -0.203125
C31.7969 0 36.2031 0 38.7969 0
C41.4062 0 45.9062 0 48.2969 -0.203125
L48.2969 2.39062
C41.9062 2.39062 41.5 2.78125 41.5 6.6875
z
" id="CMR17-104"/>
     <path d="
M15 23.3906
C15 33 19.0938 42 26.5938 42
C27.2969 42 28 41.9062 28.7031 41.5938
C28.7031 41.5938 26.5 40.8906 26.5 38.3125
C26.5 35.9062 28.4062 34.9062 29.9062 34.9062
C31.0938 34.9062 33.2969 35.6094 33.2969 38.4062
C33.2969 41.6094 30.0938 43.5938 26.7031 43.5938
C19.0938 43.5938 15.7969 36.2031 14.7969 32.7031
L14.7031 32.7031
L14.7031 43.5938
L3.09375 42.5
L3.09375 39.9062
C9 39.9062 9.90625 39.2969 9.90625 34.5
L9.90625 6.6875
C9.90625 2.875 9.5 2.39062 3.09375 2.39062
L3.09375 -0.203125
C5.5 0 10.0938 0 12.7031 0
C15.5938 0 20.7031 0 23.4062 -0.203125
L23.4062 2.39062
C16.2031 2.39062 15 2.39062 15 6.875
z
" id="CMR17-114"/>
     <path d="
M43.7969 68.1094
C43.7969 69.8906 43.7031 70 43.0938 70
C42.5 70 42.2969 69.5938 41.9062 68.7031
L38.9062 62.125
C35.0938 67.5469 29.2969 70 23 70
C12.7969 70 4.59375 61.9531 4.59375 51.7969
C4.59375 48.7344 5.29688 44.3438 8.70312 40.1719
C12.4062 35.6094 15.9062 34.8125 23.9062 32.7188
C26.9062 31.9219 31.9062 30.625 32.9062 30.2344
C38.5938 27.8438 41.5938 21.8906 41.5938 16.3125
C41.5938 9.14062 36.5 1.5 27.7969 1.5
C17.0938 1.5 7.09375 7.46875 6.40625 21.4062
C6.29688 23 6.20312 23.0938 5.5 23.0938
C4.70312 23.0938 4.59375 23 4.59375 21
L4.59375 0.890625
C4.59375 -0.890625 4.70312 -1 5.29688 -1
C6 -1 6.20312 -0.5 7.59375 2.59375
C7.70312 2.89062 7.70312 3.09375 9.59375 6.875
C14.5938 0.375 23 -1 27.7969 -1
C38.7031 -1 46.4062 8.04688 46.4062 18.5781
C46.4062 23.7344 44.5 27.7031 43.4062 29.5
C39.2031 35.8594 34.7031 37.0469 29.9062 38.2344
C29.2031 38.5469 29 38.5469 23.4062 39.9375
C18 41.3281 15.7031 42.0312 13.2031 44.7188
C10.4062 47.7969 9.40625 50.9844 9.40625 54.1719
C9.40625 60.6406 14.5938 67.7031 23.0938 67.7031
C33.7031 67.7031 40.2969 60.2344 41.7969 47.7969
C42.0938 46 42.2031 45.9062 42.9062 45.9062
C43.7969 45.9062 43.7969 46.2031 43.7969 47.8906
z
" id="CMR17-83"/>
     <path d="
M67.2969 33.3594
C67.2969 53.7031 52.5938 69 36 69
C19 69 4.59375 53.5 4.59375 33.3594
C4.59375 13.2031 19.2031 -2 35.9062 -2
C53 -2 67.2969 13.5 67.2969 33.3594
M36 -0.203125
C24.5938 -0.203125 12.2031 11.1094 12.2031 34.6406
C12.2031 58.0625 25.7969 67.2031 35.9062 67.2031
C46.5 67.2031 59.7031 57.7812 59.7031 34.6406
C59.7031 10.7188 47 -0.203125 36 -0.203125" id="CMR17-79"/>
    </defs>
    <g transform="translate(344.165833413 154.898519266)scale(0.12 -0.12)">
     <use transform="scale(0.996264009963)" xlink:href="#CMR17-83"/>
     <use transform="translate(50.8953697803 0.0)scale(0.996264009963)" xlink:href="#CMR17-105"/>
     <use transform="translate(81.3012300066 0.0)scale(0.996264009963)" xlink:href="#CMSY10-0"/>
     <use transform="translate(164.323499402 0.0)scale(0.996264009963)" xlink:href="#CMR17-79"/>
     <use transform="translate(263.73345742 0.0)scale(0.996264009963)" xlink:href="#CMR17-115"/>
     <use transform="translate(299.534795056 0.0)scale(0.996264009963)" xlink:href="#CMR17-116"/>
     <use transform="translate(334.815562855 0.0)scale(0.996264009963)" xlink:href="#CMR17-114"/>
     <use transform="translate(370.096330655 0.0)scale(0.996264009963)" xlink:href="#CMR17-101"/>
     <use transform="translate(410.581991117 0.0)scale(0.996264009963)" xlink:href="#CMR17-116"/>
     <use transform="translate(445.862758917 0.0)scale(0.996264009963)" xlink:href="#CMR17-99"/>
     <use transform="translate(483.745965447 0.0)scale(0.996264009963)" xlink:href="#CMR17-104"/>
    </g>
   </g>
   <g id="patch_14">
    <path d="
M408.548 192.813
L407.798 192.813
L407.798 200.435
L406.173 200.435
L408.173 202.975
L410.173 200.435
L408.548 200.435
z
" style="opacity:0.5;stroke:#000000;stroke-linejoin:miter;"/>
   </g>
   <g id="text_21">
    <!-- $\mathrm{O \! - \! Si \! - \! O \ bend}$ -->
    <defs>
     <path d="
M29.2031 67.5938
L29.2031 65
C35.0938 65 36 64.4062 36 59.6875
L36 36.6406
C35.5938 37.1406 31.5 43.5938 23.4062 43.5938
C13.2031 43.5938 3.29688 34.5 3.29688 21.3125
C3.29688 8.20312 12.5938 -1 22.4062 -1
C30.9062 -1 35.2969 5.26562 35.7969 5.9375
L35.7969 -0.984375
L47.9062 -0.984375
L47.9062 2
C42 2 41.0938 2.59375 41.0938 7.39062
L41.0938 68.6875
z

M35.7969 11.7969
C35.7969 8.79688 34 6.09375 31.7031 4.09375
C28.2969 1.09375 24.9062 0.59375 23 0.59375
C20.0938 0.59375 9.70312 2.09375 9.70312 21.1875
C9.70312 40.8125 21.2969 42 23.9062 42
C28.5 42 32.2031 39.4062 34.5 35.7969
C35.7969 33.7031 35.7969 33.4062 35.7969 31.6094
z
" id="CMR17-100"/>
     <path d="
M41.5 30.2031
C41.5 35.2969 40.5 43.5938 28.7031 43.5938
C20.7969 43.5938 16.7031 37.5 15.2031 33.5
L15.0938 33.5
L15.0938 43.5938
L3.29688 42.5
L3.29688 39.9062
C9.20312 39.9062 10.0938 39.2969 10.0938 34.5
L10.0938 6.6875
C10.0938 2.875 9.70312 2.39062 3.29688 2.39062
L3.29688 -0.203125
C5.70312 0 10.0938 0 12.7031 0
C15.2969 0 19.7969 0 22.2031 -0.203125
L22.2031 2.39062
C15.7969 2.39062 15.4062 2.78125 15.4062 6.6875
L15.4062 25.9062
C15.4062 35.1094 21 42 28 42
C35.4062 42 36.2031 35.4062 36.2031 30.5938
L36.2031 6.6875
C36.2031 2.875 35.7969 2.39062 29.4062 2.39062
L29.4062 -0.203125
C31.7969 0 36.2031 0 38.7969 0
C41.4062 0 45.9062 0 48.2969 -0.203125
L48.2969 2.39062
C41.9062 2.39062 41.5 2.78125 41.5 6.6875
z
" id="CMR17-110"/>
    </defs>
    <g transform="translate(408.173365978 189.702013389)scale(0.12 -0.12)">
     <use transform="scale(0.996264009963)" xlink:href="#CMR17-79"/>
     <use transform="translate(77.2495901599 0.0)scale(0.996264009963)" xlink:href="#CMSY10-0"/>
     <use transform="translate(160.271859555 0.0)scale(0.996264009963)" xlink:href="#CMR17-83"/>
     <use transform="translate(211.167229335 0.0)scale(0.996264009963)" xlink:href="#CMR17-105"/>
     <use transform="translate(241.573089562 0.0)scale(0.996264009963)" xlink:href="#CMSY10-0"/>
     <use transform="translate(324.595358957 0.0)scale(0.996264009963)" xlink:href="#CMR17-79"/>
     <use transform="translate(424.005316975 0.0)scale(0.996264009963)" xlink:href="#CMR17-98"/>
     <use transform="translate(477.503125486 0.0)scale(0.996264009963)" xlink:href="#CMR17-101"/>
     <use transform="translate(517.988785949 0.0)scale(0.996264009963)" xlink:href="#CMR17-110"/>
     <use transform="translate(568.884155729 0.0)scale(0.996264009963)" xlink:href="#CMR17-100"/>
    </g>
   </g>
   <g id="legend_1">
    <g id="line2d_158">
     <path d="
M392.287 25.3416
L412.447 25.3416" style="fill:none;stroke:#c47339;stroke-linecap:square;stroke-width:1.5;"/>
    </g>
    <g id="line2d_159"/>
    <g id="text_22">
     <!-- $\mathrm{scattering}$ -->
     <defs>
      <path d="
M36 25.8281
C36 32.375 36 35.8438 31.7969 39.7344
C28.0938 43 23.7969 44 20.4062 44
C12.5 44 6.79688 37.6094 6.79688 30.7969
C6.79688 27 9.79688 27 10.4062 27
C11.7031 27 14 27.7812 14 30.5312
C14 33 12.0938 34.0781 10.4062 34.0781
C10 34.0781 9.5 33.9688 9.20312 33.875
C11.2969 40.5 16.7031 42.4062 20.2031 42.4062
C25.2031 42.4062 30.7031 37.9531 30.7031 29.4531
L30.7031 25
C24.7969 25 17.7031 24.2031 12.0938 21.2031
C5.79688 17.7031 4 12.7031 4 8.90625
C4 1.20312 13 -1 18.2969 -1
C23.7969 -1 28.9062 2.17188 31.0938 7.98438
C31.2969 3.64062 34.0938 -0.28125 38.5 -0.28125
C40.5938 -0.28125 45.9062 1.09375 45.9062 8.85938
L45.9062 14.375
L44.0938 14.375
L44.0938 8.78125
C44.0938 2.78125 41.4062 2 40.0938 2
C36 2 36 7.15625 36 11.5312
z

M30.7031 13.5938
C30.7031 4.95312 24.5 0.59375 19 0.59375
C14 0.59375 10.0938 4.29688 10.0938 8.90625
C10.0938 11.8906 11.4062 17.1875 17.2031 20.3906
C22 23.0938 27.5 23.5 30.7031 23.5
z
" id="CMR17-97"/>
      <path d="
M11.0938 18.1875
C13 16.6875 16.2969 15 20.2969 15
C28.2031 15 35 21.2031 35 29.5
C35 32.0938 34.2031 36.0938 31.2031 39.2031
C34 42.0625 38.0938 43 40.4062 43
C40.7969 43 41.4062 43 41.9062 42.7656
C41.5 42.6719 40.5938 42.2812 40.5938 40.7344
C40.5938 39.4844 41.5 38.6094 42.7969 38.6094
C44.2969 38.6094 45.0938 39.5781 45.0938 40.8438
C45.0938 42.6719 43.5938 44.5938 40.4062 44.5938
C36.4062 44.5938 32.9062 42.7812 30.0938 40.3125
C27.0938 43.0156 23.5 44 20.2969 44
C12.4062 44 5.59375 37.7969 5.59375 29.5
C5.59375 23.7812 8.90625 20.1875 9.90625 19.1875
C6.90625 15.6875 6.90625 11.6094 6.90625 11.1094
C6.90625 8.51562 7.90625 4.71875 11.2969 2.625
C6.09375 1.32812 2 -2.64062 2 -7.59375
C2 -14.7344 11.5 -20 22.9062 -20
C33.9062 -20 43.7969 -14.9375 43.7969 -7.48438
C43.7969 6 29 6 21.2969 6
C19 6 14.9062 6 14.4062 6.10938
C11.2969 6.60938 9.20312 9.40625 9.20312 12.8906
C9.20312 13.7812 9.20312 16 11.0938 18.1875
M20.2969 16.6875
C11.5 16.6875 11.5 27.5 11.5 29.5156
C11.5 31.5 11.5 42.3125 20.2969 42.3125
C29.0938 42.3125 29.0938 31.5 29.0938 29.5156
C29.0938 27.5 29.0938 16.6875 20.2969 16.6875
M22.9062 -18.2969
C12.9062 -18.2969 6 -13.0469 6 -7.59375
C6 -4.51562 7.70312 -1.64062 9.90625 -0.0625
C12.4062 1.625 13.4062 1.625 20.2031 1.625
C28.4062 1.625 39.7969 1.625 39.7969 -7.59375
C39.7969 -13.0469 32.9062 -18.2969 22.9062 -18.2969" id="CMR17-103"/>
     </defs>
     <g transform="translate(428.287257234 30.3815720589)scale(0.144 -0.144)">
      <use transform="scale(0.996264009963)" xlink:href="#CMR17-115"/>
      <use transform="translate(35.8013376352 0.0)scale(0.996264009963)" xlink:href="#CMR17-99"/>
      <use transform="translate(76.286998098 0.0)scale(0.996264009963)" xlink:href="#CMR17-97"/>
      <use transform="translate(121.977475215 0.0)scale(0.996264009963)" xlink:href="#CMR17-116"/>
      <use transform="translate(157.258243014 0.0)scale(0.996264009963)" xlink:href="#CMR17-116"/>
      <use transform="translate(192.539010814 0.0)scale(0.996264009963)" xlink:href="#CMR17-101"/>
      <use transform="translate(233.024671277 0.0)scale(0.996264009963)" xlink:href="#CMR17-114"/>
      <use transform="translate(268.305439076 0.0)scale(0.996264009963)" xlink:href="#CMR17-105"/>
      <use transform="translate(293.176497558 0.0)scale(0.996264009963)" xlink:href="#CMR17-110"/>
      <use transform="translate(344.071867338 0.0)scale(0.996264009963)" xlink:href="#CMR17-103"/>
     </g>
    </g>
    <g id="line2d_160">
     <path d="
M392.287 45.8188
L412.447 45.8188" style="fill:none;stroke:#247b6f;stroke-linecap:square;stroke-width:1.5;"/>
    </g>
    <g id="line2d_161"/>
    <g id="text_23">
     <!-- $\mathrm{absorption}$ -->
     <defs>
      <path d="
M22 -16.6094
C15.5938 -16.6094 15.2031 -16.2031 15.2031 -12.3281
L15.2031 6.28125
C18.0938 2.09375 22.2969 -0.59375 27.5938 -0.59375
C37.5938 -0.59375 47.7031 8.17188 47.7031 21.6875
C47.7031 34.2344 39 43.7812 28.7031 43.7812
C22.7031 43.7812 17.7969 40.5 15 36.5312
L15 43.7812
L3.09375 42.6875
L3.09375 40.1094
C9 40.1094 9.90625 39.5 9.90625 34.7344
L9.90625 -12.3281
C9.90625 -16.1094 9.5 -16.6094 3.09375 -16.6094
L3.09375 -19.1875
C5.5 -19 9.90625 -19 12.5 -19
C15.0938 -19 19.5938 -19 22 -19.1875
z

M15.2031 31.4375
C15.2031 32.8438 15.2031 34.9219 19.0938 38.6094
C19.5938 39.0156 23 42 28 42
C35.2969 42 41.2969 32.9375 41.2969 21.5938
C41.2969 10.25 34.9062 1 27 1
C23.4062 1 19.5 2.6875 16.5 7.375
C15.2031 9.5625 15.2031 10.1562 15.2031 11.75
z
" id="CMR17-112"/>
      <path d="
M43.0938 21.1875
C43.0938 34 33.7969 44 22.9062 44
C12 44 2.70312 34 2.70312 21.1875
C2.70312 8.60938 12 -1 22.9062 -1
C33.7969 -1 43.0938 8.60938 43.0938 21.1875
M22.9062 0.796875
C18.2031 0.796875 14.2031 3.59375 11.9062 7.5
C9.40625 11.9844 9.09375 17.5938 9.09375 22
C9.09375 26.2031 9.29688 31.4062 11.9062 35.9062
C13.9062 39.2031 17.7969 42.4062 22.9062 42.4062
C27.4062 42.4062 31.2031 39.9062 33.5938 36.4062
C36.7031 31.7031 36.7031 25.1094 36.7031 22
C36.7031 18.0938 36.5 12.1094 33.7969 7.29688
C31 2.70312 26.7031 0.796875 22.9062 0.796875" id="CMR17-111"/>
     </defs>
     <g transform="translate(428.287257234 50.8587935866)scale(0.144 -0.144)">
      <use transform="scale(0.996264009963)" xlink:href="#CMR17-97"/>
      <use transform="translate(45.6904771171 0.0)scale(0.996264009963)" xlink:href="#CMR17-98"/>
      <use transform="translate(96.5858468974 0.0)scale(0.996264009963)" xlink:href="#CMR17-115"/>
      <use transform="translate(132.387184533 0.0)scale(0.996264009963)" xlink:href="#CMR17-111"/>
      <use transform="translate(178.07766165 0.0)scale(0.996264009963)" xlink:href="#CMR17-114"/>
      <use transform="translate(213.358429449 0.0)scale(0.996264009963)" xlink:href="#CMR17-112"/>
      <use transform="translate(264.253799229 0.0)scale(0.996264009963)" xlink:href="#CMR17-116"/>
      <use transform="translate(299.534567029 0.0)scale(0.996264009963)" xlink:href="#CMR17-105"/>
      <use transform="translate(324.405625511 0.0)scale(0.996264009963)" xlink:href="#CMR17-111"/>
      <use transform="translate(370.096102628 0.0)scale(0.996264009963)" xlink:href="#CMR17-110"/>
     </g>
    </g>
    <g id="line2d_162">
     <path d="
M392.287 66.296
L412.447 66.296" style="fill:none;stroke:#000000;stroke-linecap:square;stroke-width:2.0;"/>
    </g>
    <g id="line2d_163"/>
    <g id="text_24">
     <!-- $\mathrm{extinction}$ -->
     <defs>
      <path d="
M26 23.0938
C29 26.9844 32.4062 31.3594 35.2031 34.625
C38.5 38.4062 42.2969 40 46.7031 40
L46.7031 42.5938
C45 42.5938 41.5 42.5938 39.7031 42.5938
C37 42.5938 33.9062 42.5938 31.5938 42.6875
L31.5938 40.0938
C33 39.8906 33.7969 38.8906 33.7969 37.5
C33.7969 35.7031 32.7969 34.6094 32.2969 33.9219
L24.9062 24.5781
L16.0938 36.0312
C15.2031 37.125 15.2031 37.3125 15.2031 37.8125
C15.2031 39.0156 16.2031 40 17.9062 40
L17.9062 42.6875
C15.5 42.5938 11.2031 42.5938 8.70312 42.5938
C6 42.5938 2.79688 42.5938 0.59375 42.6875
L0.59375 40
C6 40 7.20312 39.5938 9.59375 36.6094
L21.0938 21.7969
C21.2969 21.5938 21.7969 21 21.7969 20.7031
C21.7969 20.2969 13.0938 9.67188 12 8.28125
C7.5 2.89062 2.79688 2.5 0.09375 2.5
L0.09375 0
C1.79688 0 5.29688 0 7.09375 0
C9.09375 0 13.5 0 15.2969 -0.09375
L15.2969 2.5
C14.7031 2.59375 13.0938 2.79688 13.0938 5.07812
C13.0938 6.875 13.9062 7.96875 14.7969 9.15625
L23.0938 19.3125
L31.7969 8
C32.5938 6.90625 33.7969 5.40625 33.7969 4.70312
C33.7969 3.29688 32.5938 2.5 31 2.5
L31 -0.09375
C33.4062 0 37.7031 0 40.2031 0
C42.9062 0 46.0938 0 48.2969 -0.09375
L48.2969 2.5
C43.2969 2.5 41.7969 2.6875 39.4062 5.78125
z
" id="CMR17-120"/>
     </defs>
     <g transform="translate(428.287257234 71.3360151142)scale(0.144 -0.144)">
      <use transform="scale(0.996264009963)" xlink:href="#CMR17-101"/>
      <use transform="translate(40.4856604627 0.0)scale(0.996264009963)" xlink:href="#CMR17-120"/>
      <use transform="translate(88.7785763105 0.0)scale(0.996264009963)" xlink:href="#CMR17-116"/>
      <use transform="translate(124.05934411 0.0)scale(0.996264009963)" xlink:href="#CMR17-105"/>
      <use transform="translate(148.930402592 0.0)scale(0.996264009963)" xlink:href="#CMR17-110"/>
      <use transform="translate(199.825772372 0.0)scale(0.996264009963)" xlink:href="#CMR17-99"/>
      <use transform="translate(240.311432835 0.0)scale(0.996264009963)" xlink:href="#CMR17-116"/>
      <use transform="translate(275.592200634 0.0)scale(0.996264009963)" xlink:href="#CMR17-105"/>
      <use transform="translate(300.463259116 0.0)scale(0.996264009963)" xlink:href="#CMR17-111"/>
      <use transform="translate(346.153736233 0.0)scale(0.996264009963)" xlink:href="#CMR17-110"/>
     </g>
    </g>
   </g>
  </g>
 </g>
 <defs>
  <clipPath id="p2d2bdcf5f8">
   <rect height="345.6" width="446.4" x="59.698243282" y="7.2"/>
  </clipPath>
 </defs>
</svg>
