<?xml version="1.0" encoding="utf-8" standalone="no"?>
<!DOCTYPE svg PUBLIC "-//W3C//DTD SVG 1.1//EN"
  "http://www.w3.org/Graphics/SVG/1.1/DTD/svg11.dtd">
<!-- Created with matplotlib (https://matplotlib.org/) -->
<svg height="207.83625pt" version="1.1" viewBox="0 0 385.78125 207.83625" width="385.78125pt" xmlns="http://www.w3.org/2000/svg" xmlns:xlink="http://www.w3.org/1999/xlink">
 <defs>
  <style type="text/css">
*{stroke-linecap:butt;stroke-linejoin:round;}
  </style>
 </defs>
 <g id="figure_1">
  <g id="patch_1">
   <path d="M 0 207.83625 
L 385.78125 207.83625 
L 385.78125 0 
L 0 0 
z
"/>
  </g>
  <g id="axes_1">
   <g id="patch_2">
    <path d="M 43.78125 170.28 
L 378.58125 170.28 
L 378.58125 7.2 
L 43.78125 7.2 
z
"/>
   </g>
   <g id="matplotlib.axis_1">
    <g id="xtick_1">
     <g id="line2d_1">
      <defs>
       <path d="M 0 0 
L 0 3.5 
" id="m03000b01ea" style="stroke:#ffffff;stroke-width:0.8;"/>
      </defs>
      <g>
       <use style="fill:#ffffff;stroke:#ffffff;stroke-width:0.8;" x="93.38125" xlink:href="#m03000b01ea" y="170.28"/>
      </g>
     </g>
     <g id="text_1">
      <!-- 400 -->
      <defs>
       <path d="M 37.796875 64.3125 
L 12.890625 25.390625 
L 37.796875 25.390625 
z
M 35.203125 72.90625 
L 47.609375 72.90625 
L 47.609375 25.390625 
L 58.015625 25.390625 
L 58.015625 17.1875 
L 47.609375 17.1875 
L 47.609375 0 
L 37.796875 0 
L 37.796875 17.1875 
L 4.890625 17.1875 
L 4.890625 26.703125 
z
" id="DejaVuSans-52"/>
       <path d="M 31.78125 66.40625 
Q 24.171875 66.40625 20.328125 58.90625 
Q 16.5 51.421875 16.5 36.375 
Q 16.5 21.390625 20.328125 13.890625 
Q 24.171875 6.390625 31.78125 6.390625 
Q 39.453125 6.390625 43.28125 13.890625 
Q 47.125 21.390625 47.125 36.375 
Q 47.125 51.421875 43.28125 58.90625 
Q 39.453125 66.40625 31.78125 66.40625 
z
M 31.78125 74.21875 
Q 44.046875 74.21875 50.515625 64.515625 
Q 56.984375 54.828125 56.984375 36.375 
Q 56.984375 17.96875 50.515625 8.265625 
Q 44.046875 -1.421875 31.78125 -1.421875 
Q 19.53125 -1.421875 13.0625 8.265625 
Q 6.59375 17.96875 6.59375 36.375 
Q 6.59375 54.828125 13.0625 64.515625 
Q 19.53125 74.21875 31.78125 74.21875 
z
" id="DejaVuSans-48"/>
      </defs>
      <g style="fill:#ffffff;" transform="translate(83.8375 184.878438)scale(0.1 -0.1)">
       <use xlink:href="#DejaVuSans-52"/>
       <use x="63.623047" xlink:href="#DejaVuSans-48"/>
       <use x="127.246094" xlink:href="#DejaVuSans-48"/>
      </g>
     </g>
    </g>
    <g id="xtick_2">
     <g id="line2d_2">
      <g>
       <use style="fill:#ffffff;stroke:#ffffff;stroke-width:0.8;" x="176.047917" xlink:href="#m03000b01ea" y="170.28"/>
      </g>
     </g>
     <g id="text_2">
      <!-- 600 -->
      <defs>
       <path d="M 33.015625 40.375 
Q 26.375 40.375 22.484375 35.828125 
Q 18.609375 31.296875 18.609375 23.390625 
Q 18.609375 15.53125 22.484375 10.953125 
Q 26.375 6.390625 33.015625 6.390625 
Q 39.65625 6.390625 43.53125 10.953125 
Q 47.40625 15.53125 47.40625 23.390625 
Q 47.40625 31.296875 43.53125 35.828125 
Q 39.65625 40.375 33.015625 40.375 
z
M 52.59375 71.296875 
L 52.59375 62.3125 
Q 48.875 64.0625 45.09375 64.984375 
Q 41.3125 65.921875 37.59375 65.921875 
Q 27.828125 65.921875 22.671875 59.328125 
Q 17.53125 52.734375 16.796875 39.40625 
Q 19.671875 43.65625 24.015625 45.921875 
Q 28.375 48.1875 33.59375 48.1875 
Q 44.578125 48.1875 50.953125 41.515625 
Q 57.328125 34.859375 57.328125 23.390625 
Q 57.328125 12.15625 50.6875 5.359375 
Q 44.046875 -1.421875 33.015625 -1.421875 
Q 20.359375 -1.421875 13.671875 8.265625 
Q 6.984375 17.96875 6.984375 36.375 
Q 6.984375 53.65625 15.1875 63.9375 
Q 23.390625 74.21875 37.203125 74.21875 
Q 40.921875 74.21875 44.703125 73.484375 
Q 48.484375 72.75 52.59375 71.296875 
z
" id="DejaVuSans-54"/>
      </defs>
      <g style="fill:#ffffff;" transform="translate(166.504167 184.878438)scale(0.1 -0.1)">
       <use xlink:href="#DejaVuSans-54"/>
       <use x="63.623047" xlink:href="#DejaVuSans-48"/>
       <use x="127.246094" xlink:href="#DejaVuSans-48"/>
      </g>
     </g>
    </g>
    <g id="xtick_3">
     <g id="line2d_3">
      <g>
       <use style="fill:#ffffff;stroke:#ffffff;stroke-width:0.8;" x="258.714583" xlink:href="#m03000b01ea" y="170.28"/>
      </g>
     </g>
     <g id="text_3">
      <!-- 800 -->
      <defs>
       <path d="M 31.78125 34.625 
Q 24.75 34.625 20.71875 30.859375 
Q 16.703125 27.09375 16.703125 20.515625 
Q 16.703125 13.921875 20.71875 10.15625 
Q 24.75 6.390625 31.78125 6.390625 
Q 38.8125 6.390625 42.859375 10.171875 
Q 46.921875 13.96875 46.921875 20.515625 
Q 46.921875 27.09375 42.890625 30.859375 
Q 38.875 34.625 31.78125 34.625 
z
M 21.921875 38.8125 
Q 15.578125 40.375 12.03125 44.71875 
Q 8.5 49.078125 8.5 55.328125 
Q 8.5 64.0625 14.71875 69.140625 
Q 20.953125 74.21875 31.78125 74.21875 
Q 42.671875 74.21875 48.875 69.140625 
Q 55.078125 64.0625 55.078125 55.328125 
Q 55.078125 49.078125 51.53125 44.71875 
Q 48 40.375 41.703125 38.8125 
Q 48.828125 37.15625 52.796875 32.3125 
Q 56.78125 27.484375 56.78125 20.515625 
Q 56.78125 9.90625 50.3125 4.234375 
Q 43.84375 -1.421875 31.78125 -1.421875 
Q 19.734375 -1.421875 13.25 4.234375 
Q 6.78125 9.90625 6.78125 20.515625 
Q 6.78125 27.484375 10.78125 32.3125 
Q 14.796875 37.15625 21.921875 38.8125 
z
M 18.3125 54.390625 
Q 18.3125 48.734375 21.84375 45.5625 
Q 25.390625 42.390625 31.78125 42.390625 
Q 38.140625 42.390625 41.71875 45.5625 
Q 45.3125 48.734375 45.3125 54.390625 
Q 45.3125 60.0625 41.71875 63.234375 
Q 38.140625 66.40625 31.78125 66.40625 
Q 25.390625 66.40625 21.84375 63.234375 
Q 18.3125 60.0625 18.3125 54.390625 
z
" id="DejaVuSans-56"/>
      </defs>
      <g style="fill:#ffffff;" transform="translate(249.170833 184.878438)scale(0.1 -0.1)">
       <use xlink:href="#DejaVuSans-56"/>
       <use x="63.623047" xlink:href="#DejaVuSans-48"/>
       <use x="127.246094" xlink:href="#DejaVuSans-48"/>
      </g>
     </g>
    </g>
    <g id="xtick_4">
     <g id="line2d_4">
      <g>
       <use style="fill:#ffffff;stroke:#ffffff;stroke-width:0.8;" x="341.38125" xlink:href="#m03000b01ea" y="170.28"/>
      </g>
     </g>
     <g id="text_4">
      <!-- 1000 -->
      <defs>
       <path d="M 12.40625 8.296875 
L 28.515625 8.296875 
L 28.515625 63.921875 
L 10.984375 60.40625 
L 10.984375 69.390625 
L 28.421875 72.90625 
L 38.28125 72.90625 
L 38.28125 8.296875 
L 54.390625 8.296875 
L 54.390625 0 
L 12.40625 0 
z
" id="DejaVuSans-49"/>
      </defs>
      <g style="fill:#ffffff;" transform="translate(328.65625 184.878438)scale(0.1 -0.1)">
       <use xlink:href="#DejaVuSans-49"/>
       <use x="63.623047" xlink:href="#DejaVuSans-48"/>
       <use x="127.246094" xlink:href="#DejaVuSans-48"/>
       <use x="190.869141" xlink:href="#DejaVuSans-48"/>
      </g>
     </g>
    </g>
    <g id="xtick_5">
     <g id="line2d_5">
      <defs>
       <path d="M 0 0 
L 0 2 
" id="md8087e1e17" style="stroke:#ffffff;stroke-width:0.6;"/>
      </defs>
      <g>
       <use style="fill:#ffffff;stroke:#ffffff;stroke-width:0.6;" x="52.047917" xlink:href="#md8087e1e17" y="170.28"/>
      </g>
     </g>
    </g>
    <g id="xtick_6">
     <g id="line2d_6">
      <g>
       <use style="fill:#ffffff;stroke:#ffffff;stroke-width:0.6;" x="72.714583" xlink:href="#md8087e1e17" y="170.28"/>
      </g>
     </g>
    </g>
    <g id="xtick_7">
     <g id="line2d_7">
      <g>
       <use style="fill:#ffffff;stroke:#ffffff;stroke-width:0.6;" x="114.047917" xlink:href="#md8087e1e17" y="170.28"/>
      </g>
     </g>
    </g>
    <g id="xtick_8">
     <g id="line2d_8">
      <g>
       <use style="fill:#ffffff;stroke:#ffffff;stroke-width:0.6;" x="134.714583" xlink:href="#md8087e1e17" y="170.28"/>
      </g>
     </g>
    </g>
    <g id="xtick_9">
     <g id="line2d_9">
      <g>
       <use style="fill:#ffffff;stroke:#ffffff;stroke-width:0.6;" x="155.38125" xlink:href="#md8087e1e17" y="170.28"/>
      </g>
     </g>
    </g>
    <g id="xtick_10">
     <g id="line2d_10">
      <g>
       <use style="fill:#ffffff;stroke:#ffffff;stroke-width:0.6;" x="196.714583" xlink:href="#md8087e1e17" y="170.28"/>
      </g>
     </g>
    </g>
    <g id="xtick_11">
     <g id="line2d_11">
      <g>
       <use style="fill:#ffffff;stroke:#ffffff;stroke-width:0.6;" x="217.38125" xlink:href="#md8087e1e17" y="170.28"/>
      </g>
     </g>
    </g>
    <g id="xtick_12">
     <g id="line2d_12">
      <g>
       <use style="fill:#ffffff;stroke:#ffffff;stroke-width:0.6;" x="238.047917" xlink:href="#md8087e1e17" y="170.28"/>
      </g>
     </g>
    </g>
    <g id="xtick_13">
     <g id="line2d_13">
      <g>
       <use style="fill:#ffffff;stroke:#ffffff;stroke-width:0.6;" x="279.38125" xlink:href="#md8087e1e17" y="170.28"/>
      </g>
     </g>
    </g>
    <g id="xtick_14">
     <g id="line2d_14">
      <g>
       <use style="fill:#ffffff;stroke:#ffffff;stroke-width:0.6;" x="300.047917" xlink:href="#md8087e1e17" y="170.28"/>
      </g>
     </g>
    </g>
    <g id="xtick_15">
     <g id="line2d_15">
      <g>
       <use style="fill:#ffffff;stroke:#ffffff;stroke-width:0.6;" x="320.714583" xlink:href="#md8087e1e17" y="170.28"/>
      </g>
     </g>
    </g>
    <g id="xtick_16">
     <g id="line2d_16">
      <g>
       <use style="fill:#ffffff;stroke:#ffffff;stroke-width:0.6;" x="362.047917" xlink:href="#md8087e1e17" y="170.28"/>
      </g>
     </g>
    </g>
    <g id="text_5">
     <!-- $\lambda \ \left( \mathrm{nm} \right)$ -->
     <defs>
      <path d="M 36.71875 67.4375 
L 48.828125 0 
L 39.3125 0 
L 31.84375 40.4375 
L 5.125 0 
L -4.390625 0 
L 29.734375 52.4375 
L 28.03125 62.109375 
Q 26.953125 68.265625 21.734375 68.265625 
L 17.046875 68.265625 
L 18.5 75.984375 
L 24.21875 75.875 
Q 35.203125 75.734375 36.71875 67.4375 
z
" id="DejaVuSans-Oblique-955"/>
      <path d="M 31 75.875 
Q 24.46875 64.65625 21.28125 53.65625 
Q 18.109375 42.671875 18.109375 31.390625 
Q 18.109375 20.125 21.3125 9.0625 
Q 24.515625 -2 31 -13.1875 
L 23.1875 -13.1875 
Q 15.875 -1.703125 12.234375 9.375 
Q 8.59375 20.453125 8.59375 31.390625 
Q 8.59375 42.28125 12.203125 53.3125 
Q 15.828125 64.359375 23.1875 75.875 
z
" id="DejaVuSans-40"/>
      <path d="M 54.890625 33.015625 
L 54.890625 0 
L 45.90625 0 
L 45.90625 32.71875 
Q 45.90625 40.484375 42.875 44.328125 
Q 39.84375 48.1875 33.796875 48.1875 
Q 26.515625 48.1875 22.3125 43.546875 
Q 18.109375 38.921875 18.109375 30.90625 
L 18.109375 0 
L 9.078125 0 
L 9.078125 54.6875 
L 18.109375 54.6875 
L 18.109375 46.1875 
Q 21.34375 51.125 25.703125 53.5625 
Q 30.078125 56 35.796875 56 
Q 45.21875 56 50.046875 50.171875 
Q 54.890625 44.34375 54.890625 33.015625 
z
" id="DejaVuSans-110"/>
      <path d="M 52 44.1875 
Q 55.375 50.25 60.0625 53.125 
Q 64.75 56 71.09375 56 
Q 79.640625 56 84.28125 50.015625 
Q 88.921875 44.046875 88.921875 33.015625 
L 88.921875 0 
L 79.890625 0 
L 79.890625 32.71875 
Q 79.890625 40.578125 77.09375 44.375 
Q 74.3125 48.1875 68.609375 48.1875 
Q 61.625 48.1875 57.5625 43.546875 
Q 53.515625 38.921875 53.515625 30.90625 
L 53.515625 0 
L 44.484375 0 
L 44.484375 32.71875 
Q 44.484375 40.625 41.703125 44.40625 
Q 38.921875 48.1875 33.109375 48.1875 
Q 26.21875 48.1875 22.15625 43.53125 
Q 18.109375 38.875 18.109375 30.90625 
L 18.109375 0 
L 9.078125 0 
L 9.078125 54.6875 
L 18.109375 54.6875 
L 18.109375 46.1875 
Q 21.1875 51.21875 25.484375 53.609375 
Q 29.78125 56 35.6875 56 
Q 41.65625 56 45.828125 52.96875 
Q 50 49.953125 52 44.1875 
z
" id="DejaVuSans-109"/>
      <path d="M 8.015625 75.875 
L 15.828125 75.875 
Q 23.140625 64.359375 26.78125 53.3125 
Q 30.421875 42.28125 30.421875 31.390625 
Q 30.421875 20.453125 26.78125 9.375 
Q 23.140625 -1.703125 15.828125 -13.1875 
L 8.015625 -13.1875 
Q 14.5 -2 17.703125 9.0625 
Q 20.90625 20.125 20.90625 31.390625 
Q 20.90625 42.671875 17.703125 53.65625 
Q 14.5 64.65625 8.015625 75.875 
z
" id="DejaVuSans-41"/>
     </defs>
     <g style="fill:#ffffff;" transform="translate(194.63125 198.556563)scale(0.1 -0.1)">
      <use transform="translate(0 0.015625)" xlink:href="#DejaVuSans-Oblique-955"/>
      <use transform="translate(91.650066 0.015625)" xlink:href="#DejaVuSans-40"/>
      <use transform="translate(130.663738 0.015625)" xlink:href="#DejaVuSans-110"/>
      <use transform="translate(194.042644 0.015625)" xlink:href="#DejaVuSans-109"/>
      <use transform="translate(291.454753 0.015625)" xlink:href="#DejaVuSans-41"/>
     </g>
    </g>
   </g>
   <g id="matplotlib.axis_2">
    <g id="ytick_1">
     <g id="line2d_17">
      <defs>
       <path d="M 0 0 
L -3.5 0 
" id="m74bbcd4b54" style="stroke:#ffffff;stroke-width:0.8;"/>
      </defs>
      <g>
       <use style="fill:#ffffff;stroke:#ffffff;stroke-width:0.8;" x="43.78125" xlink:href="#m74bbcd4b54" y="170.28"/>
      </g>
     </g>
     <g id="text_6">
      <!-- 0.0 -->
      <defs>
       <path d="M 10.6875 12.40625 
L 21 12.40625 
L 21 0 
L 10.6875 0 
z
" id="DejaVuSans-46"/>
      </defs>
      <g style="fill:#ffffff;" transform="translate(20.878125 174.079219)scale(0.1 -0.1)">
       <use xlink:href="#DejaVuSans-48"/>
       <use x="63.623047" xlink:href="#DejaVuSans-46"/>
       <use x="95.410156" xlink:href="#DejaVuSans-48"/>
      </g>
     </g>
    </g>
    <g id="ytick_2">
     <g id="line2d_18">
      <g>
       <use style="fill:#ffffff;stroke:#ffffff;stroke-width:0.8;" x="43.78125" xlink:href="#m74bbcd4b54" y="110.978182"/>
      </g>
     </g>
     <g id="text_7">
      <!-- 0.2 -->
      <defs>
       <path d="M 19.1875 8.296875 
L 53.609375 8.296875 
L 53.609375 0 
L 7.328125 0 
L 7.328125 8.296875 
Q 12.9375 14.109375 22.625 23.890625 
Q 32.328125 33.6875 34.8125 36.53125 
Q 39.546875 41.84375 41.421875 45.53125 
Q 43.3125 49.21875 43.3125 52.78125 
Q 43.3125 58.59375 39.234375 62.25 
Q 35.15625 65.921875 28.609375 65.921875 
Q 23.96875 65.921875 18.8125 64.3125 
Q 13.671875 62.703125 7.8125 59.421875 
L 7.8125 69.390625 
Q 13.765625 71.78125 18.9375 73 
Q 24.125 74.21875 28.421875 74.21875 
Q 39.75 74.21875 46.484375 68.546875 
Q 53.21875 62.890625 53.21875 53.421875 
Q 53.21875 48.921875 51.53125 44.890625 
Q 49.859375 40.875 45.40625 35.40625 
Q 44.1875 33.984375 37.640625 27.21875 
Q 31.109375 20.453125 19.1875 8.296875 
z
" id="DejaVuSans-50"/>
      </defs>
      <g style="fill:#ffffff;" transform="translate(20.878125 114.777401)scale(0.1 -0.1)">
       <use xlink:href="#DejaVuSans-48"/>
       <use x="63.623047" xlink:href="#DejaVuSans-46"/>
       <use x="95.410156" xlink:href="#DejaVuSans-50"/>
      </g>
     </g>
    </g>
    <g id="ytick_3">
     <g id="line2d_19">
      <g>
       <use style="fill:#ffffff;stroke:#ffffff;stroke-width:0.8;" x="43.78125" xlink:href="#m74bbcd4b54" y="51.676364"/>
      </g>
     </g>
     <g id="text_8">
      <!-- 0.4 -->
      <g style="fill:#ffffff;" transform="translate(20.878125 55.475582)scale(0.1 -0.1)">
       <use xlink:href="#DejaVuSans-48"/>
       <use x="63.623047" xlink:href="#DejaVuSans-46"/>
       <use x="95.410156" xlink:href="#DejaVuSans-52"/>
      </g>
     </g>
    </g>
    <g id="ytick_4">
     <g id="line2d_20">
      <defs>
       <path d="M 0 0 
L -2 0 
" id="mb7a74972c2" style="stroke:#ffffff;stroke-width:0.6;"/>
      </defs>
      <g>
       <use style="fill:#ffffff;stroke:#ffffff;stroke-width:0.6;" x="43.78125" xlink:href="#mb7a74972c2" y="155.454545"/>
      </g>
     </g>
    </g>
    <g id="ytick_5">
     <g id="line2d_21">
      <g>
       <use style="fill:#ffffff;stroke:#ffffff;stroke-width:0.6;" x="43.78125" xlink:href="#mb7a74972c2" y="140.629091"/>
      </g>
     </g>
    </g>
    <g id="ytick_6">
     <g id="line2d_22">
      <g>
       <use style="fill:#ffffff;stroke:#ffffff;stroke-width:0.6;" x="43.78125" xlink:href="#mb7a74972c2" y="125.803636"/>
      </g>
     </g>
    </g>
    <g id="ytick_7">
     <g id="line2d_23">
      <g>
       <use style="fill:#ffffff;stroke:#ffffff;stroke-width:0.6;" x="43.78125" xlink:href="#mb7a74972c2" y="96.152727"/>
      </g>
     </g>
    </g>
    <g id="ytick_8">
     <g id="line2d_24">
      <g>
       <use style="fill:#ffffff;stroke:#ffffff;stroke-width:0.6;" x="43.78125" xlink:href="#mb7a74972c2" y="81.327273"/>
      </g>
     </g>
    </g>
    <g id="ytick_9">
     <g id="line2d_25">
      <g>
       <use style="fill:#ffffff;stroke:#ffffff;stroke-width:0.6;" x="43.78125" xlink:href="#mb7a74972c2" y="66.501818"/>
      </g>
     </g>
    </g>
    <g id="ytick_10">
     <g id="line2d_26">
      <g>
       <use style="fill:#ffffff;stroke:#ffffff;stroke-width:0.6;" x="43.78125" xlink:href="#mb7a74972c2" y="36.850909"/>
      </g>
     </g>
    </g>
    <g id="ytick_11">
     <g id="line2d_27">
      <g>
       <use style="fill:#ffffff;stroke:#ffffff;stroke-width:0.6;" x="43.78125" xlink:href="#mb7a74972c2" y="22.025455"/>
      </g>
     </g>
    </g>
    <g id="text_9">
     <!-- Transmission -->
     <defs>
      <path d="M -0.296875 72.90625 
L 61.375 72.90625 
L 61.375 64.59375 
L 35.5 64.59375 
L 35.5 0 
L 25.59375 0 
L 25.59375 64.59375 
L -0.296875 64.59375 
z
" id="DejaVuSans-84"/>
      <path d="M 41.109375 46.296875 
Q 39.59375 47.171875 37.8125 47.578125 
Q 36.03125 48 33.890625 48 
Q 26.265625 48 22.1875 43.046875 
Q 18.109375 38.09375 18.109375 28.8125 
L 18.109375 0 
L 9.078125 0 
L 9.078125 54.6875 
L 18.109375 54.6875 
L 18.109375 46.1875 
Q 20.953125 51.171875 25.484375 53.578125 
Q 30.03125 56 36.53125 56 
Q 37.453125 56 38.578125 55.875 
Q 39.703125 55.765625 41.0625 55.515625 
z
" id="DejaVuSans-114"/>
      <path d="M 34.28125 27.484375 
Q 23.390625 27.484375 19.1875 25 
Q 14.984375 22.515625 14.984375 16.5 
Q 14.984375 11.71875 18.140625 8.90625 
Q 21.296875 6.109375 26.703125 6.109375 
Q 34.1875 6.109375 38.703125 11.40625 
Q 43.21875 16.703125 43.21875 25.484375 
L 43.21875 27.484375 
z
M 52.203125 31.203125 
L 52.203125 0 
L 43.21875 0 
L 43.21875 8.296875 
Q 40.140625 3.328125 35.546875 0.953125 
Q 30.953125 -1.421875 24.3125 -1.421875 
Q 15.921875 -1.421875 10.953125 3.296875 
Q 6 8.015625 6 15.921875 
Q 6 25.140625 12.171875 29.828125 
Q 18.359375 34.515625 30.609375 34.515625 
L 43.21875 34.515625 
L 43.21875 35.40625 
Q 43.21875 41.609375 39.140625 45 
Q 35.0625 48.390625 27.6875 48.390625 
Q 23 48.390625 18.546875 47.265625 
Q 14.109375 46.140625 10.015625 43.890625 
L 10.015625 52.203125 
Q 14.9375 54.109375 19.578125 55.046875 
Q 24.21875 56 28.609375 56 
Q 40.484375 56 46.34375 49.84375 
Q 52.203125 43.703125 52.203125 31.203125 
z
" id="DejaVuSans-97"/>
      <path d="M 44.28125 53.078125 
L 44.28125 44.578125 
Q 40.484375 46.53125 36.375 47.5 
Q 32.28125 48.484375 27.875 48.484375 
Q 21.1875 48.484375 17.84375 46.4375 
Q 14.5 44.390625 14.5 40.28125 
Q 14.5 37.15625 16.890625 35.375 
Q 19.28125 33.59375 26.515625 31.984375 
L 29.59375 31.296875 
Q 39.15625 29.25 43.1875 25.515625 
Q 47.21875 21.78125 47.21875 15.09375 
Q 47.21875 7.46875 41.1875 3.015625 
Q 35.15625 -1.421875 24.609375 -1.421875 
Q 20.21875 -1.421875 15.453125 -0.5625 
Q 10.6875 0.296875 5.421875 2 
L 5.421875 11.28125 
Q 10.40625 8.6875 15.234375 7.390625 
Q 20.0625 6.109375 24.8125 6.109375 
Q 31.15625 6.109375 34.5625 8.28125 
Q 37.984375 10.453125 37.984375 14.40625 
Q 37.984375 18.0625 35.515625 20.015625 
Q 33.0625 21.96875 24.703125 23.78125 
L 21.578125 24.515625 
Q 13.234375 26.265625 9.515625 29.90625 
Q 5.8125 33.546875 5.8125 39.890625 
Q 5.8125 47.609375 11.28125 51.796875 
Q 16.75 56 26.8125 56 
Q 31.78125 56 36.171875 55.265625 
Q 40.578125 54.546875 44.28125 53.078125 
z
" id="DejaVuSans-115"/>
      <path d="M 9.421875 54.6875 
L 18.40625 54.6875 
L 18.40625 0 
L 9.421875 0 
z
M 9.421875 75.984375 
L 18.40625 75.984375 
L 18.40625 64.59375 
L 9.421875 64.59375 
z
" id="DejaVuSans-105"/>
      <path d="M 30.609375 48.390625 
Q 23.390625 48.390625 19.1875 42.75 
Q 14.984375 37.109375 14.984375 27.296875 
Q 14.984375 17.484375 19.15625 11.84375 
Q 23.34375 6.203125 30.609375 6.203125 
Q 37.796875 6.203125 41.984375 11.859375 
Q 46.1875 17.53125 46.1875 27.296875 
Q 46.1875 37.015625 41.984375 42.703125 
Q 37.796875 48.390625 30.609375 48.390625 
z
M 30.609375 56 
Q 42.328125 56 49.015625 48.375 
Q 55.71875 40.765625 55.71875 27.296875 
Q 55.71875 13.875 49.015625 6.21875 
Q 42.328125 -1.421875 30.609375 -1.421875 
Q 18.84375 -1.421875 12.171875 6.21875 
Q 5.515625 13.875 5.515625 27.296875 
Q 5.515625 40.765625 12.171875 48.375 
Q 18.84375 56 30.609375 56 
z
" id="DejaVuSans-111"/>
     </defs>
     <g style="fill:#ffffff;" transform="translate(14.798438 121.035313)rotate(-90)scale(0.1 -0.1)">
      <use xlink:href="#DejaVuSans-84"/>
      <use x="46.333984" xlink:href="#DejaVuSans-114"/>
      <use x="87.447266" xlink:href="#DejaVuSans-97"/>
      <use x="148.726562" xlink:href="#DejaVuSans-110"/>
      <use x="212.105469" xlink:href="#DejaVuSans-115"/>
      <use x="264.205078" xlink:href="#DejaVuSans-109"/>
      <use x="361.617188" xlink:href="#DejaVuSans-105"/>
      <use x="389.400391" xlink:href="#DejaVuSans-115"/>
      <use x="441.5" xlink:href="#DejaVuSans-115"/>
      <use x="493.599609" xlink:href="#DejaVuSans-105"/>
      <use x="521.382812" xlink:href="#DejaVuSans-111"/>
      <use x="582.564453" xlink:href="#DejaVuSans-110"/>
     </g>
    </g>
   </g>
   <g id="line2d_28">
    <path clip-path="url(#p71fda31448)" d="M 51.22125 170.28 
L 52.254583 170.250349 
L 53.287917 170.131745 
L 54.32125 169.894538 
L 55.354583 169.509076 
L 56.387917 168.738153 
L 57.42125 167.522465 
L 58.454583 165.506203 
L 59.487917 163.163782 
L 60.52125 160.702757 
L 61.554583 158.271382 
L 62.587917 155.899309 
L 63.62125 153.64584 
L 64.654583 151.481324 
L 65.687917 149.524364 
L 66.72125 147.863913 
L 67.754583 146.470319 
L 68.787917 145.13603 
L 69.82125 144.098248 
L 70.854583 143.090116 
L 71.887917 141.844778 
L 72.92125 140.599439 
L 73.954583 139.769215 
L 74.987917 139.32445 
L 76.02125 139.057592 
L 77.054583 138.761085 
L 78.087917 138.405272 
L 79.12125 138.108765 
L 80.154583 138.138414 
L 81.187917 138.731433 
L 82.22125 139.91747 
L 83.254583 141.637221 
L 84.287917 143.979645 
L 85.32125 146.944735 
L 86.354583 150.35459 
L 87.387917 154.00165 
L 88.42125 158.034175 
L 89.454583 162.333557 
L 90.487917 165.980618 
L 91.52125 168.056182 
L 92.554583 169.034662 
L 93.587917 169.62768 
L 94.62125 169.983491 
L 95.654583 170.102095 
L 96.687917 170.161396 
L 97.72125 170.220698 
L 98.754583 170.28 
" style="fill:none;stroke:#8dd3c7;stroke-linecap:square;stroke-width:1.5;"/>
   </g>
   <g id="line2d_29">
    <path clip-path="url(#p71fda31448)" d="M 78.087917 170.28 
L 79.12125 170.191047 
L 80.154583 170.042793 
L 81.187917 169.894538 
L 82.22125 169.716633 
L 83.254583 169.568378 
L 84.287917 169.271869 
L 85.32125 168.6492 
L 86.354583 167.225956 
L 87.387917 164.527723 
L 88.42125 160.613803 
L 89.454583 155.691753 
L 90.487917 149.939477 
L 91.52125 143.594181 
L 92.554583 136.982029 
L 93.587917 130.488478 
L 94.62125 124.469348 
L 95.654583 119.221136 
L 96.687917 114.743848 
L 97.72125 110.889231 
L 98.754583 107.538675 
L 99.787917 104.632889 
L 100.82125 102.053256 
L 101.854583 99.770138 
L 102.887917 97.694574 
L 103.92125 95.767263 
L 104.954583 93.958558 
L 105.987917 92.209156 
L 107.02125 90.489401 
L 108.054583 88.828957 
L 109.087917 87.227807 
L 110.12125 85.715607 
L 111.154583 84.322013 
L 112.187917 83.106327 
L 113.22125 81.949944 
L 114.254583 80.852855 
L 115.287917 79.696473 
L 116.32125 78.451131 
L 117.354583 77.146495 
L 118.387917 75.871507 
L 119.42125 74.685468 
L 120.454583 73.706985 
L 121.487917 72.906419 
L 122.52125 72.224441 
L 123.554583 71.631421 
L 124.587917 71.068058 
L 125.62125 70.534341 
L 126.654583 69.970978 
L 127.687917 69.377958 
L 128.72125 68.725636 
L 129.754583 68.043667 
L 130.787917 67.332042 
L 131.82125 66.650073 
L 132.854583 65.938448 
L 133.887917 65.286134 
L 134.92125 64.663459 
L 135.954583 64.100095 
L 136.987917 63.625682 
L 138.02125 63.269865 
L 139.054583 63.151268 
L 140.087917 63.269865 
L 141.12125 63.684985 
L 142.154583 64.100095 
L 143.187917 64.782065 
L 144.22125 67.925061 
L 145.254583 75.574993 
L 146.287917 87.049899 
L 147.32125 100.926525 
L 148.354583 115.751979 
L 149.387917 130.191973 
L 150.42125 143.268022 
L 151.454583 154.031302 
L 152.487917 161.532982 
L 153.52125 165.357949 
L 154.554583 166.959098 
L 155.587917 167.99688 
L 156.62125 168.797455 
L 157.654583 169.331171 
L 158.687917 169.657331 
L 159.72125 169.835236 
L 160.754583 169.924189 
L 161.787917 169.983491 
L 162.82125 170.013142 
L 163.854583 170.042793 
L 164.887917 170.102095 
L 165.92125 170.131745 
L 166.954583 170.191047 
L 167.987917 170.250349 
L 169.02125 170.28 
" style="fill:none;stroke:#feffb3;stroke-linecap:square;stroke-width:1.5;"/>
   </g>
   <g id="line2d_30">
    <path clip-path="url(#p71fda31448)" d="M 150.42125 170.28 
L 151.454583 169.864887 
L 152.487917 167.34456 
L 153.52125 162.600414 
L 154.554583 155.543498 
L 155.587917 146.351716 
L 156.62125 135.114021 
L 157.654583 122.097274 
L 158.687917 108.220648 
L 159.72125 94.521931 
L 160.754583 82.068541 
L 161.787917 71.661077 
L 162.82125 63.269865 
L 163.854583 56.598417 
L 164.887917 51.379857 
L 165.92125 47.31768 
L 166.954583 44.174683 
L 167.987917 41.802614 
L 169.02125 39.964253 
L 170.054583 38.452062 
L 171.087917 37.177065 
L 172.12125 36.050338 
L 173.154583 34.982905 
L 174.187917 33.915472 
L 175.22125 32.877685 
L 176.254583 31.958505 
L 177.287917 31.246889 
L 178.32125 30.831778 
L 179.354583 30.594567 
L 180.387917 30.416658 
L 181.42125 30.120153 
L 182.454583 29.616083 
L 183.487917 28.934114 
L 184.52125 28.192842 
L 185.554583 27.392267 
L 186.587917 26.650995 
L 187.62125 25.969026 
L 188.654583 25.376007 
L 189.687917 24.93124 
L 190.72125 24.723684 
L 191.754583 24.634735 
L 192.787917 24.634735 
L 193.82125 24.634735 
L 194.854583 24.575432 
L 195.887917 24.545785 
L 196.92125 24.634735 
L 197.954583 24.960896 
L 198.987917 25.642865 
L 200.02125 26.413793 
L 201.054583 27.421923 
L 202.087917 31.009677 
L 203.12125 39.193334 
L 204.154583 51.409504 
L 205.187917 66.531467 
L 206.22125 83.580741 
L 207.254583 101.549191 
L 208.287917 119.428692 
L 209.32125 136.122153 
L 210.354583 149.909825 
L 211.387917 159.012655 
L 212.42125 163.994007 
L 213.454583 166.306778 
L 214.487917 167.34456 
L 215.52125 168.026531 
L 216.554583 168.6492 
L 217.587917 169.123615 
L 218.62125 169.479425 
L 219.654583 169.686982 
L 220.687917 169.835236 
L 221.72125 169.924189 
L 222.754583 169.983491 
L 223.787917 170.072444 
L 224.82125 170.161396 
L 225.854583 170.220698 
L 226.887917 170.28 
" style="fill:none;stroke:#bfbbd9;stroke-linecap:square;stroke-width:1.5;"/>
   </g>
   <g id="line2d_31">
    <path clip-path="url(#p71fda31448)" d="M 193.82125 170.28 
L 194.854583 170.250349 
L 195.887917 170.191047 
L 196.92125 170.161396 
L 197.954583 170.161396 
L 198.987917 170.191047 
L 200.02125 170.191047 
L 201.054583 170.161396 
L 202.087917 170.013142 
L 203.12125 169.716633 
L 204.154583 169.271869 
L 205.187917 168.619549 
L 206.22125 167.225956 
L 207.254583 164.527723 
L 208.287917 160.080087 
L 209.32125 153.64584 
L 210.354583 145.402888 
L 211.387917 135.766341 
L 212.42125 124.973413 
L 213.454583 112.520028 
L 214.487917 98.880613 
L 215.52125 85.567355 
L 216.554583 74.41861 
L 217.587917 66.412861 
L 218.62125 58.822233 
L 219.654583 51.972876 
L 220.687917 46.872913 
L 221.72125 44.767702 
L 222.754583 46.783963 
L 223.787917 53.366461 
L 224.82125 58.792586 
L 225.854583 56.924578 
L 226.887917 54.107742 
L 227.92125 54.878661 
L 228.954583 56.776316 
L 229.987917 57.013527 
L 231.02125 55.115873 
L 232.054583 55.471681 
L 233.087917 56.98388 
L 234.12125 57.992011 
L 235.154583 58.822233 
L 236.187917 59.77106 
L 237.22125 61.135007 
L 238.254583 63.003015 
L 239.287917 64.574509 
L 240.32125 64.90067 
L 241.354583 67.154142 
L 242.387917 126.604209 
L 243.42125 108.131694 
L 244.454583 91.764389 
L 245.487917 72.431996 
L 246.52125 73.736641 
L 247.554583 74.715124 
L 248.587917 76.019759 
L 249.62125 77.502303 
L 250.654583 79.04415 
L 251.687917 80.55635 
L 252.72125 81.920289 
L 253.754583 82.987722 
L 254.787917 83.669691 
L 255.82125 83.817952 
L 256.854583 83.669691 
L 257.887917 83.491791 
L 258.92125 83.610397 
L 259.954583 84.410963 
L 260.987917 86.071415 
L 262.02125 88.502796 
L 263.054583 91.942298 
L 264.087917 98.317245 
L 265.12125 108.279951 
L 266.154583 120.199615 
L 267.187917 132.44544 
L 268.22125 143.564532 
L 269.254583 152.400502 
L 270.287917 159.071957 
L 271.32125 163.816102 
L 272.354583 166.810844 
L 273.387917 168.263738 
L 274.42125 168.856756 
L 275.454583 169.30152 
L 276.487917 169.686982 
L 277.52125 169.894538 
L 278.554583 169.983491 
L 279.587917 170.013142 
L 280.62125 170.013142 
L 281.654583 170.042793 
L 282.687917 170.131745 
L 283.72125 170.220698 
L 284.754583 170.28 
" style="fill:none;stroke:#fa8174;stroke-linecap:square;stroke-width:1.5;"/>
   </g>
   <g id="line2d_32">
    <path clip-path="url(#p71fda31448)" d="M 247.554583 170.28 
L 254.787917 170.191047 
L 257.887917 169.95384 
L 258.92125 169.775935 
L 260.987917 169.093964 
L 262.02125 168.589898 
L 263.054583 167.937578 
L 264.087917 167.137004 
L 265.12125 166.158524 
L 267.187917 163.697498 
L 269.254583 160.673105 
L 271.32125 157.055695 
L 272.354583 155.128385 
L 273.387917 153.556887 
L 275.454583 151.392372 
L 277.52125 149.70227 
L 279.587917 148.45693 
L 281.654583 147.597055 
L 283.72125 147.09299 
L 285.787917 146.944735 
L 287.854583 147.15229 
L 289.92125 147.656356 
L 291.987917 148.39763 
L 296.12125 150.295287 
L 297.154583 151.540626 
L 298.187917 153.052822 
L 299.22125 154.179557 
L 300.254583 154.683622 
L 302.32125 154.802225 
L 303.354583 155.098735 
L 305.42125 156.017913 
L 306.454583 156.25512 
L 308.52125 155.988262 
L 309.554583 156.166167 
L 310.587917 157.026044 
L 313.687917 161.888793 
L 314.72125 162.45216 
L 315.754583 162.244603 
L 316.787917 161.888793 
L 317.82125 162.126 
L 318.854583 162.748669 
L 319.887917 162.807971 
L 320.92125 162.689367 
L 321.954583 162.985877 
L 322.987917 163.045178 
L 327.12125 162.155651 
L 328.154583 162.007397 
L 329.187917 162.244603 
L 331.254583 163.282385 
L 332.287917 163.549243 
L 334.354583 163.875403 
L 335.387917 164.112611 
L 341.587917 166.188175 
L 346.754583 167.581767 
L 350.887917 168.471295 
L 353.987917 168.945709 
L 359.154583 169.479425 
L 366.387917 169.805585 
L 380.854583 170.131745 
L 386.78125 170.212855 
L 386.78125 170.212855 
" style="fill:none;stroke:#81b1d2;stroke-linecap:square;stroke-width:1.5;"/>
   </g>
   <g id="patch_3">
    <path d="M 43.78125 170.28 
L 43.78125 7.2 
" style="fill:none;stroke:#ffffff;stroke-linecap:square;stroke-linejoin:miter;stroke-width:0.8;"/>
   </g>
   <g id="patch_4">
    <path d="M 378.58125 170.28 
L 378.58125 7.2 
" style="fill:none;stroke:#ffffff;stroke-linecap:square;stroke-linejoin:miter;stroke-width:0.8;"/>
   </g>
   <g id="patch_5">
    <path d="M 43.78125 170.28 
L 378.58125 170.28 
" style="fill:none;stroke:#ffffff;stroke-linecap:square;stroke-linejoin:miter;stroke-width:0.8;"/>
   </g>
   <g id="patch_6">
    <path d="M 43.78125 7.2 
L 378.58125 7.2 
" style="fill:none;stroke:#ffffff;stroke-linecap:square;stroke-linejoin:miter;stroke-width:0.8;"/>
   </g>
   <g id="text_10">
    <!-- $u$ -->
    <defs>
     <path d="M 6.6875 21.6875 
L 13.09375 54.6875 
L 22.125 54.6875 
L 15.71875 22.015625 
Q 15.234375 19.625 15.015625 17.921875 
Q 14.796875 16.21875 14.796875 15.09375 
Q 14.796875 10.9375 17.328125 8.65625 
Q 19.875 6.390625 24.515625 6.390625 
Q 31.734375 6.390625 37 11.265625 
Q 42.28125 16.15625 43.890625 24.421875 
L 49.90625 54.6875 
L 58.890625 54.6875 
L 48.296875 0 
L 39.3125 0 
L 41.109375 8.59375 
Q 37.3125 3.8125 32.0625 1.1875 
Q 26.8125 -1.421875 20.90625 -1.421875 
Q 13.71875 -1.421875 9.71875 2.515625 
Q 5.71875 6.453125 5.71875 13.484375 
Q 5.71875 14.9375 5.953125 17.140625 
Q 6.203125 19.34375 6.6875 21.6875 
z
" id="DejaVuSans-Oblique-117"/>
    </defs>
    <g style="fill:#8dd3c7;" transform="translate(72.068526 130.751215)scale(0.1 -0.1)">
     <use transform="translate(0 0.3125)" xlink:href="#DejaVuSans-Oblique-117"/>
    </g>
   </g>
   <g id="text_11">
    <!-- $g$ -->
    <defs>
     <path d="M 59.625 54.6875 
L 50.296875 6.78125 
Q 47.609375 -7.125 40.015625 -13.953125 
Q 32.421875 -20.796875 19.578125 -20.796875 
Q 14.84375 -20.796875 10.78125 -20.09375 
Q 6.734375 -19.390625 3.21875 -17.921875 
L 4.890625 -9.1875 
Q 8.203125 -11.328125 11.90625 -12.34375 
Q 15.625 -13.375 19.828125 -13.375 
Q 28.375 -13.375 33.859375 -8.703125 
Q 39.359375 -4.046875 41.109375 4.6875 
L 41.890625 8.796875 
Q 38.140625 4.5 33.15625 2.25 
Q 28.171875 0 22.40625 0 
Q 14.109375 0 9.34375 5.484375 
Q 4.59375 10.984375 4.59375 20.609375 
Q 4.59375 28.171875 7.46875 35.421875 
Q 10.359375 42.671875 15.578125 48.296875 
Q 19.046875 52 23.65625 54 
Q 28.265625 56 33.296875 56 
Q 38.8125 56 42.90625 53.4375 
Q 47.015625 50.875 49.03125 46.1875 
L 50.59375 54.6875 
z
M 46.09375 34.625 
Q 46.09375 41.265625 42.96875 44.875 
Q 39.84375 48.484375 34.078125 48.484375 
Q 30.515625 48.484375 27.296875 47.0625 
Q 24.078125 45.65625 21.78125 43.109375 
Q 18.0625 38.921875 15.984375 33.234375 
Q 13.921875 27.546875 13.921875 21.484375 
Q 13.921875 14.75 17.0625 11.125 
Q 20.21875 7.515625 26.125 7.515625 
Q 34.671875 7.515625 40.375 15.25 
Q 46.09375 23 46.09375 34.625 
z
" id="DejaVuSans-Oblique-103"/>
    </defs>
    <g style="fill:#feffb3;" transform="translate(119.894629 63.037876)scale(0.1 -0.1)">
     <use xlink:href="#DejaVuSans-Oblique-103"/>
    </g>
   </g>
   <g id="text_12">
    <!-- $r$ -->
    <defs>
     <path d="M 44.578125 46.390625 
Q 43.21875 47.125 41.453125 47.515625 
Q 39.703125 47.90625 37.703125 47.90625 
Q 30.515625 47.90625 25.140625 42.453125 
Q 19.78125 37.015625 18.015625 27.875 
L 12.5 0 
L 3.515625 0 
L 14.203125 54.6875 
L 23.1875 54.6875 
L 21.484375 46.1875 
Q 25.046875 50.921875 30 53.453125 
Q 34.96875 56 40.578125 56 
Q 42.046875 56 43.453125 55.828125 
Q 44.875 55.671875 46.296875 55.28125 
z
" id="DejaVuSans-Oblique-114"/>
    </defs>
    <g style="fill:#bfbbd9;" transform="translate(181.602606 19.382398)scale(0.1 -0.1)">
     <use xlink:href="#DejaVuSans-Oblique-114"/>
    </g>
   </g>
   <g id="text_13">
    <!-- $i$ -->
    <defs>
     <path d="M 18.3125 75.984375 
L 27.296875 75.984375 
L 25.09375 64.59375 
L 16.109375 64.59375 
z
M 14.203125 54.6875 
L 23.1875 54.6875 
L 12.5 0 
L 3.515625 0 
z
" id="DejaVuSans-Oblique-105"/>
    </defs>
    <g style="fill:#fa8174;" transform="translate(236.635706 51.761191)scale(0.1 -0.1)">
     <use transform="translate(0 0.015625)" xlink:href="#DejaVuSans-Oblique-105"/>
    </g>
   </g>
   <g id="text_14">
    <!-- $z$ -->
    <defs>
     <path d="M 11.625 54.6875 
L 54.296875 54.6875 
L 52.6875 46.484375 
L 11.53125 7.171875 
L 45.515625 7.171875 
L 44.09375 0 
L -0.296875 0 
L 1.3125 8.203125 
L 42.484375 47.515625 
L 10.203125 47.515625 
z
" id="DejaVuSans-Oblique-122"/>
    </defs>
    <g style="fill:#81b1d2;" transform="translate(295.806114 143.530757)scale(0.1 -0.1)">
     <use transform="translate(0 0.3125)" xlink:href="#DejaVuSans-Oblique-122"/>
    </g>
   </g>
  </g>
 </g>
 <defs>
  <clipPath id="p71fda31448">
   <rect height="163.08" width="334.8" x="43.78125" y="7.2"/>
  </clipPath>
 </defs>
</svg>
