<?xml version="1.0" encoding="UTF-8" standalone="no"?>
<svg
   xmlns:dc="http://purl.org/dc/elements/1.1/"
   xmlns:cc="http://creativecommons.org/ns#"
   xmlns:rdf="http://www.w3.org/1999/02/22-rdf-syntax-ns#"
   xmlns:svg="http://www.w3.org/2000/svg"
   xmlns="http://www.w3.org/2000/svg"
   id="svg145"
   version="1.2"
   viewBox="0 0 581.62756 572.50647"
   height="572.50647pt"
   width="581.62756pt">
  <metadata
     id="metadata151">
    <rdf:RDF>
      <cc:Work
         rdf:about="">
        <dc:format>image/svg+xml</dc:format>
        <dc:type
           rdf:resource="http://purl.org/dc/dcmitype/StillImage" />
        <dc:title></dc:title>
      </cc:Work>
    </rdf:RDF>
  </metadata>
  <defs
     id="defs149" />
  <g
     transform="translate(-0.54559895,-135.02604)"
     id="surface99">
    <path
       id="path2"
       transform="matrix(0.1,0,0,-0.1,0,842)"
       d="m 1351.2109,2618.3984 28.7891,-11.9921 31.2109,-4.8047 28.7891,-2.3828 31.2109,-2.4219 28.7891,-2.3828 h 31.2109 l 31.1719,2.3828 h 60 l 31.211,4.8047 28.789,7.1875 31.211,7.2265 h 28.789 l 4.8047,2.3828 m -405.5859,26.4063 7.1875,-21.6016 m 2.4218,-4.8047 -2.4218,4.8047 m 398.3984,-4.8047 26.4063,7.1875 31.2109,9.6094 26.4062,9.6094 m -489.6093,0 -4.8047,26.4062 m 494.414,-26.4062 h 2.3829 l 31.2109,4.8047 28.7891,14.375 19.2187,7.2265 m -576.0156,0 -4.8047,26.4063 m 129.6094,0 9.6093,-4.8047 28.7891,-7.2266 31.2109,-4.8046 31.1719,-2.3829 h 28.8281 l 31.1719,2.3829 31.211,2.4218 28.789,4.8047 31.211,7.1875 9.6093,2.4219 m 189.6094,-26.4063 11.9922,4.8047 31.2109,7.1875 28.7891,14.4141 h 4.8047 m -657.6172,0 7.2266,26.3672 m 93.5937,0 7.1875,-9.5703 m 21.6016,-16.7969 -21.6016,16.7969 m 108.0078,9.5703 h 14.375 l 28.8281,-4.7656 31.1719,2.3828 31.211,2.3828 h 4.8046 m 64.8047,-26.3672 19.1797,4.7656 31.211,7.2266 31.2109,11.9922 11.9922,2.3828 m 172.8125,-26.3672 26.3672,11.9922 28.8281,7.1875 23.9844,7.1875 m -729.6094,0 -2.3828,28.8281 m 95.9765,-28.8281 -11.9921,28.8281 m 69.6093,0 9.6094,-9.6094 31.1719,-14.414 m 16.8359,-4.8047 -16.8359,4.8047 M 1620,2752.8125 h 4.8047 m 33.5937,-28.8281 23.9844,4.8047 31.211,7.2265 28.789,7.1875 24.0235,9.6094 m 50.3906,-28.8281 16.7969,4.8047 31.2109,11.9922 28.7891,12.0312 h 2.3828 m 172.8125,-28.8281 7.1875,4.8047 31.2109,9.6093 26.4063,14.4141 m -796.7969,0 v 26.4063 m 83.9844,-26.4063 -4.8047,26.4063 m 52.8125,0 2.3828,-2.4219 m 19.2187,-23.9844 -19.2187,23.9844 m 55.2344,2.4219 4.7656,-4.8047 31.2109,-14.4141 28.7891,-7.1875 m 28.8281,0 h -28.8281 m 33.6328,0 28.7891,2.3828 28.789,4.8047 31.211,4.8047 28.789,9.6094 m 24.0235,-21.6016 7.1875,2.3828 m -31.211,19.2188 19.2188,4.8047 m 11.9922,-24.0235 31.2109,7.1875 28.7891,9.6094 21.6015,7.2266 m 40.7813,-26.4063 28.8281,7.1875 31.1719,9.6094 21.6015,9.6094 m 156.0157,-26.4063 h 2.3828 l 31.2109,9.5703 28.7891,16.836 m -859.1797,0 v 26.3671 m 79.1797,-26.3671 v 26.3671 m 52.8125,-26.3671 v 26.3671 m 57.6172,-26.3671 -14.4141,26.3671 m 48.0078,0 2.3828,-2.3828 28.7891,-16.7968 31.2109,-7.1875 31.211,2.3828 28.789,2.3828 31.211,4.8047 28.789,7.2265 m 19.2188,-16.7968 11.9922,2.3828 m -31.211,14.414 31.211,7.1875 m 0,-21.6015 31.2109,7.1875 m -31.2109,14.414 4.8046,2.3828 m 26.4063,-16.7968 28.7891,9.6093 m 21.6015,-19.1796 9.6094,2.3828 m -31.2109,16.7968 26.4062,7.1875 m 4.8047,-23.9843 28.7891,7.1875 31.2109,9.6093 21.6016,7.1875 m 31.1718,-26.3671 7.1875,2.3828 31.211,9.6093 28.789,7.1875 19.2188,7.1875 m 131.9922,-26.3671 h 2.4218 l 28.7891,9.5703 31.2109,14.414 4.7657,2.3828 m -926.3672,0 9.5703,26.4063 m 69.6094,-26.4063 7.1875,26.4063 m 45.625,-26.4063 2.3828,16.7969 v 9.6094 m 40.8203,-26.4063 4.8047,26.4063 m 43.164,-26.4063 -4.7656,26.4063 m 52.7735,0 14.414,-14.4141 31.211,-7.1875 28.789,-2.3828 31.211,4.7656 28.789,4.8047 31.211,7.2266 m 4.8046,-19.2188 26.3672,4.8047 m -31.1718,14.4141 31.1718,4.8047 m 0,-19.2188 28.8282,9.6094 m -28.8282,9.6094 7.2266,2.3828 m 47.9687,-26.4063 h 4.8047 m -31.1718,14.4141 31.1718,7.1875 m 0,-21.6016 28.8282,7.1875 m -28.8282,14.4141 26.4063,4.8047 m 2.4219,-19.2188 31.1718,9.6094 m 21.6016,-16.7969 9.6094,2.4219 m -31.211,14.375 31.211,7.2266 m 0,-21.6016 28.789,7.1875 m -28.789,14.4141 7.1875,2.3828 m 21.6015,-16.7969 31.211,9.6094 19.2187,7.1875 m 28.7891,-26.4063 11.9922,4.8047 31.2109,9.6094 28.7891,11.9922 m 127.1875,-26.4063 24.0234,9.6094 31.2109,11.9922 14.375,4.8047 m -986.4062,0 2.4219,14.4141 4.8047,11.9921 m 69.5703,-26.4062 14.414,26.4062 m 33.5938,-26.4062 16.7969,26.4062 m 28.8281,-26.4062 14.375,26.4062 m 24.0234,-26.4062 7.1875,7.1875 11.9922,19.2187 m 33.5938,-26.4062 14.414,21.6016 4.8047,4.8046 m 81.6016,0 4.8047,-2.4218 28.789,-4.8047 h 62.3828 m 7.2266,-19.1797 21.6016,4.8047 m -28.8282,14.375 28.8282,4.8047 m 0,-19.1797 31.1718,7.1875 m -31.1718,11.9922 31.1718,2.4218 m 26.4063,-26.4062 2.4219,2.3828 m -28.8282,9.6094 28.8282,4.8047 m -28.8282,9.6093 v 0 m 28.8282,-24.0234 31.1718,4.8047 m -31.1718,9.6094 31.1718,7.1875 m 0,-16.7969 31.211,7.2266 m -31.211,9.5703 19.2188,2.4218 m 19.1797,-26.4062 21.6015,4.8047 m -28.789,9.6094 28.789,9.5703 m 0,-19.1797 31.211,9.6094 m -31.211,9.5703 14.4141,2.4218 m 36.0156,-26.4062 9.5703,2.3828 m -28.789,12.0313 28.789,11.9921 m 0,-24.0234 31.211,9.6094 m -31.211,14.414 h 7.2266 m 23.9844,-14.414 31.2109,9.6094 m 28.7891,-21.6016 v 0 m -28.7891,21.6016 11.9922,4.8046 m 16.7969,-26.4062 31.2109,11.9922 31.1719,9.6094 11.9922,4.8046 m 122.4218,-26.4062 16.7969,7.1875 28.7891,16.7969 9.6094,2.4218 m -1034.4141,0 7.2266,28.7891 m 76.7968,-28.7891 2.3828,4.8047 16.7969,23.9844 m 31.211,-28.7891 11.9921,14.375 16.7969,14.4141 m 14.4141,-28.7891 v 2.3829 l 31.2109,21.6015 2.3828,4.8047 m 9.6094,-28.7891 16.7969,11.9922 23.9844,16.7969 m 12.0312,-28.7891 26.3672,16.7969 16.7969,11.9922 m 38.4375,-28.7891 4.7656,4.8047 21.6016,23.9844 m 72.0312,0 26.3672,-7.1875 31.2109,-2.4219 m 0,-19.1797 28.7891,4.8047 m -28.7891,14.375 28.7891,2.4219 m 0,-16.7969 31.2109,4.8047 m -31.2109,11.9922 31.2109,2.3828 m 19.2188,-23.9844 11.9922,2.3829 m -31.211,7.2265 31.211,7.1875 m -31.211,7.1875 19.2188,4.8047 m 11.9922,-26.4062 28.789,9.6093 m -28.789,4.8047 28.789,7.1875 m 14.4141,-23.9844 16.7969,4.8047 m -31.211,7.1875 31.211,7.1875 m -31.211,4.8047 14.4141,4.8047 m 16.7969,-23.9844 28.789,9.5703 m -28.789,4.8047 23.9843,9.6094 m 11.9922,-28.7891 24.0235,7.1875 m -31.211,7.1875 31.211,12.0313 m 0,-19.2188 31.2109,9.6094 m -31.2109,9.5703 7.1875,2.4219 m 36.0156,-28.7891 16.7969,7.1875 m -28.7891,9.6094 23.9844,11.9922 m 4.8047,-21.6016 31.2109,11.9922 21.6016,9.6094 m 21.5625,-28.7891 16.8359,7.1875 31.1719,14.375 16.7969,7.2266 m 112.8125,-28.7891 21.6015,7.1875 31.211,11.9922 14.375,9.6094 m -1094.375,0 9.5703,26.4063 m 86.4062,-26.4063 14.4141,14.375 9.6094,12.0313 m 35.9765,-26.4063 14.4141,11.9922 21.6015,14.4141 m 11.9922,-26.4063 26.4063,14.375 23.9844,12.0313 m 0,-26.4063 7.1875,2.3828 31.2109,14.4141 19.2187,9.6094 m -2.4218,-26.4063 11.9922,4.8047 31.2109,11.9922 16.7969,9.6094 m 4.8047,-26.4063 7.1875,2.3828 31.2109,19.2188 4.8047,4.8047 m 28.789,-26.4063 16.7969,26.4063 m 45.625,0 23.9844,-12.0313 h 31.2109 m 19.1797,-14.375 12.0313,2.3828 m -31.211,11.9922 31.211,2.4219 m 0,-14.4141 28.789,7.2266 m -28.789,7.1875 28.789,7.1875 m 14.375,-23.9844 16.836,4.8047 m -31.211,4.8047 31.211,7.1875 m -31.211,7.1875 11.9922,2.4219 m 43.2031,-26.4063 h 4.8047 m -28.789,4.8047 28.789,9.5703 m -28.789,2.4219 26.3672,9.6094 m 2.4218,-26.4063 31.211,11.9922 m -31.211,2.3828 31.211,9.6094 m 7.1875,-23.9844 23.9843,7.1875 m -31.1718,4.8047 31.1718,9.6094 m -31.1718,2.3828 2.3828,2.4219 m 52.8125,-26.4063 4.8047,2.3828 m -28.8282,4.8047 28.8282,11.9922 m -28.8282,2.4219 7.2266,4.8047 m 21.6016,-24.0235 31.1718,9.6094 m -31.1718,7.1875 16.7968,7.2266 m 35.9766,-26.4063 9.6094,2.3828 m -31.211,9.6094 31.211,11.9922 m 0,-21.6016 28.789,11.9922 m -28.789,9.6094 2.3828,2.4219 m 26.4062,-12.0313 28.8282,12.0313 m 19.1797,-26.4063 11.9921,2.3828 31.211,11.9922 28.789,12.0313 m 108.0079,-26.4063 14.414,4.8047 31.1719,9.5703 21.6016,12.0313 m -1151.9922,0 9.6093,11.9921 9.6094,14.375 m 91.1719,-26.3671 19.2187,19.1796 14.4141,7.1875 m 38.3984,-26.3671 9.5704,4.8046 28.8281,16.7969 16.7969,4.7656 m 7.1875,-26.3671 7.1875,2.3828"
       style="fill:none;stroke:#000000;stroke-width:6.66666985;stroke-linecap:butt;stroke-linejoin:round;stroke-miterlimit:10;stroke-opacity:1" />
    <path
       id="path4"
       transform="matrix(0.1,0,0,-0.1,0,842)"
       d="m 1622.3438,2915.9766 31.2109,14.414 26.4062,9.5703 m -7.1875,-26.3671 9.5704,2.3828 31.2109,14.414 26.4062,9.5703 m -9.6093,-26.3671 11.9922,4.8046 31.2109,14.375 14.4141,7.1875 m -9.6094,-26.3671 26.4062,11.9921 21.6016,14.375 m -2.4219,-26.3671 9.6094,4.8046 31.2109,21.5625 m 4.8047,-26.3671 23.9844,16.7968 9.6094,9.5703 m 93.5937,-26.3671 19.2188,7.1875 m 26.3672,-7.1875 h 2.4218 m -28.789,7.1875 28.789,11.9921 m 0,-19.1796 31.211,14.375 m -31.211,4.8046 16.7969,7.1875 m 16.7969,-26.3671 28.789,11.9921 m -31.1718,2.3829 26.3672,11.9921 m 12.0312,-26.4062 21.6016,9.6094 m -28.8282,2.4218 28.8282,11.9922 m 16.7578,-24.0234 14.414,4.8047 m -31.2109,4.8047 31.2109,11.9922 m -31.2109,2.4218 4.8047,2.3828 m 26.4062,-21.6015 31.211,11.9922 m -31.211,4.8047 11.9922,4.8046 m 21.6016,-26.4062 26.4062,12.0312 m -28.789,4.7657 19.1797,9.6093 m 38.3984,-26.4062 h 2.4219 m -31.211,12.0312 31.211,11.9922 m 0,-24.0234 28.789,12.0312 m -28.789,11.9922 7.1875,2.3828 m 21.6015,-14.375 31.211,11.9922 m 28.789,-24.0234 h 2.3829 m -31.1719,24.0234 4.8047,2.3828 m 26.3672,-26.4062 28.8281,12.0312 28.789,14.375 m 115.1954,-26.4062 7.1875,2.4219 31.2109,11.9922 24.0234,11.9921 m -1195.2343,0 21.6015,26.4063 m 103.2031,-26.4063 16.7969,9.6094 31.211,16.7969 h 2.4218 m 43.2032,-26.4063 14.375,7.2266 31.2109,11.9922 23.9844,7.1875 m 2.4218,-26.4063 2.3829,2.4219 31.2109,11.9922 28.7891,9.6094 m -2.3829,-24.0235 h 2.3829 m 0,24.0235 7.1875,2.3828 m -7.1875,-26.4063 31.2109,11.9922 31.2109,14.4141 m -16.7968,-26.4063 16.7968,7.2266 m 0,19.1797 h 2.3828 m -2.3828,-19.1797 28.7891,14.375 m -7.1875,-21.6016 7.1875,2.4219 m 0,19.1797 14.4141,4.8047 m -14.4141,-23.9844 31.2109,14.375 m 0,-16.7969 v 0 m 0,16.7969 19.1797,9.6094 m -19.1797,-26.4063 28.7891,14.4141 31.2109,11.9922 m -21.6015,-26.4063 21.6015,7.2266 m 0,19.1797 h 2.3828 m -2.3828,-19.1797 31.1719,11.9922 26.4063,7.1875 m 79.2187,-26.4063 14.375,16.7969 m 26.4063,-16.7969 4.8046,4.8047 m -31.2109,11.9922 14.4141,9.6094 m 16.7968,-21.6016 28.7891,16.7969 m 4.8047,-21.6016 26.4062,14.4141 m -31.2109,7.1875 12.0313,4.8047 m 31.1718,-26.4063 19.2188,9.6094 m -31.211,4.8047 23.9844,11.9922 m 26.4063,-26.4063 9.6093,4.8047 m -28.789,4.8047 28.789,14.4141 m 0,-19.2188 31.211,14.4141 m -31.211,4.8047 4.8047,2.3828 m 33.5938,-26.4063 21.6015,9.6094 m -28.789,9.6094 16.7969,7.1875 m 11.9921,-16.7969 31.211,11.9922 m 4.8047,-21.6016 26.3672,9.6094 m -31.1719,11.9922 9.6094,4.8047 m 21.5625,-16.7969 28.8281,11.9922 m 28.789,-21.6016 h 2.3829 m -31.1719,21.6016 11.9922,4.8047 m 19.1797,-26.4063 31.2109,11.9922 28.7891,14.4141 h 4.8046 m 110.4297,-26.4063 7.1875,2.4219 28.7891,9.5703 31.2109,14.4141 m -1240.7422,0.039 28.7891,23.9843 4.8047,2.4219 m 120,-26.4062 26.4062,11.9921 31.1719,11.9922 7.2266,2.4219 m 48.0078,-26.4062 4.7656,2.3828 31.211,14.414 28.789,9.6094 h 4.8047 m 2.4219,-26.4062 23.9844,9.6093 31.2109,11.9922 14.4141,4.8047 m -12.0313,-26.4062 26.4063,14.375 31.2109,9.6093 m -16.7969,-23.9843 16.7969,7.1875 m 0,16.7968 11.9922,2.4219 m -11.9922,-19.2187 28.7891,11.9921 m -9.6094,-19.1796 9.6094,4.8046 m 0,14.375 28.789,7.2266 m -28.789,-21.6016 31.2109,9.5704 31.2109,9.6093 m -28.8281,-23.9843 28.8281,9.6093 m 0,14.375 14.375,2.4219 m -14.375,-16.7969 28.7891,7.1875 m -2.4219,-16.7968 2.4219,2.3828 m 0,14.414 31.2109,9.6094 m -31.2109,-24.0234 31.2109,4.8047 m 0,19.2187 h 11.9922 m -11.9922,-19.2187 28.7891,2.4218 31.2109,-2.4218 m 14.375,-7.1875 -14.375,7.1875 m 71.9922,-7.1875 19.1797,21.6015 m 24.0234,-21.6015 7.1875,4.8046 m -31.2109,16.7969 9.6094,4.8047 m 21.6015,-21.6016 28.7891,19.1797 m 4.8047,-23.9843 26.4062,14.375 m -31.2109,9.6093 7.2266,2.4219 m 40.7812,-26.4062 11.9922,7.1875 m -28.7891,7.1875 26.4063,12.0312 m 2.3828,-19.2187 31.2109,11.9921 m 9.6094,-19.1796 21.6016,9.6093 m -31.211,9.5703 16.7969,7.2266 m 14.4141,-16.7969 28.789,14.375 m 11.9922,-23.9843 19.2188,9.6093 m -31.211,14.375 9.6094,2.4219 m 21.6016,-16.7969 31.1719,14.375 9.6093,2.4219 m 23.9844,-26.4062 26.4063,7.1875 28.8281,16.7968 11.9922,2.4219 m 110.3906,-26.4062 28.7891,11.9921 31.2109,14.4141 m -1267.1875,0 26.4062,21.6016 16.7969,7.1875 m 141.6016,-28.7891 23.9844,11.9922 28.789,9.6094 19.2188,7.1875 m 45.5859,-28.7891 26.4063,11.9922 31.2109,9.6094 16.7969,7.1875 m -2.3828,-28.7891 14.375,7.1875 31.2109,9.6094 28.7891,9.6094 m -16.7969,-26.4063 16.7969,7.1875 m 0,19.2188 4.8046,2.3828 m -4.8046,-21.6016 31.2109,11.9922 m -2.4219,-19.1797 2.4219,2.3828 m 0,16.7969 31.2109,7.2266 m -31.2109,-24.0235 31.2109,9.6094 m 0,14.4141 2.3828,2.3828 m -2.3828,-16.7969 28.7891,7.1875 m -14.4141,-19.1797 14.4141,4.8047 m 0,14.375 31.2109,7.2266 m -31.2109,-21.6016 31.2109,7.1875 m 0,14.4141 4.7657,2.3828 m -4.7657,-16.7969 28.7891,7.1875 m -16.7969,-19.1797 16.7969,4.8047 m 0,14.375 31.2109,7.2266 m -31.2109,-21.6016 31.2109,4.7656 m 0,16.836 4.7657,2.3828 m -4.7657,-19.2188 31.1719,2.4219 28.8281,2.3828 31.1719,-4.8047 m 9.6094,-9.5703 -9.6094,9.5703 m 67.2266,-9.5703 23.9843,19.1797 m 26.4063,-19.1797 2.3828,2.3828 m -28.7891,16.7969 11.9922,9.6094 m 16.7969,-26.4063 31.2109,16.7969 m 16.7969,-19.1797 14.4141,9.5703 m -31.211,9.6094 16.7969,9.6094 m 14.4141,-19.2188 28.789,14.4141 m 9.6094,-23.9844 21.6016,9.5703 m -31.211,14.4141 11.9922,4.8047 m 19.2188,-19.2188 31.1719,14.4141 m 9.6093,-23.9844 19.2188,9.5703 m -28.8281,14.4141 9.6093,4.8047 m 19.2188,-19.2188 31.1719,12.0313 14.414,7.1875 m 26.4063,-28.7891 19.1797,7.1875 31.2109,14.4141 16.7969,7.1875 m 103.2031,-28.7891 31.2109,9.5703 28.7891,12.0313 11.9922,7.1875 m -1295.9766,0 11.9922,7.1875 31.2109,14.414 9.5704,4.8047 m 160.8203,-26.4062 11.9922,2.3828 28.789,12.0312 31.211,9.5703 7.1875,2.4219 m 40.8203,-26.4062 11.9922,4.8047 31.2109,9.6093 28.7891,9.5703 9.6093,2.4219 m -4.8047,-26.4062 26.4063,9.6093 31.2109,7.1875 28.7891,7.1875 m -26.4063,-23.9843 26.4063,7.1875 m 0,16.7968 4.8047,2.4219 m -4.8047,-19.2187 31.2109,9.6093 28.7891,7.1875 m -24.0234,-23.9843 24.0234,7.1875 m 0,16.7968 9.6094,2.4219 m -9.6094,-19.2187 31.2109,7.2265 31.1719,7.1875 m -26.4062,-21.6015 26.4062,4.8047 m 0,16.7968 16.7969,4.8047 m -16.7969,-21.6015 28.8281,4.8046 31.1719,4.8047 31.2109,7.1875 26.4063,4.8047 m 45.5859,-26.4062 14.4141,26.4062 m 50.3906,-26.4062 14.4141,9.6093 28.789,14.375 m 11.9922,-23.9843 19.2188,7.1875 m -31.211,16.7968 4.8047,2.4219 m 26.4063,-19.2187 31.1719,14.414 m 9.6093,-21.6015 19.2188,9.6093 m -28.8281,11.9922 7.2265,4.8047 m 21.6016,-16.7969 31.1719,11.9922 m 14.414,-21.6015 14.4141,4.8047 m -28.8281,16.7968 7.2265,4.8047 m 21.6016,-21.6015 31.1719,11.9921 21.6015,9.6094 m 26.4063,-26.4062 11.9922,4.8047 31.2109,11.9921 19.1797,9.6094 m 112.8125,-26.4062 19.2187,7.1875 28.7891,11.9922 14.4141,7.2265 m -1305.625,0 21.6015,9.5703 28.7891,9.6094 19.2187,7.1875 m 170.3907,-26.3672 24.0234,7.1875 28.7891,9.6094 28.789,9.5703 m 40.8203,-26.3672 21.6016,9.5703 31.1719,7.2266 28.8281,7.1875 7.1875,2.3828 m -2.3828,-26.3672 26.3672,9.5703 28.8281,7.2266 31.1719,9.5703 m -21.6016,-26.3672 21.6016,7.1875 31.2109,7.1875 28.7891,9.6094 m -11.9922,-23.9844 11.9922,2.3828 m 0,21.6016 9.6093,2.3828 m -9.6093,-23.9844 31.2109,9.6094 31.2109,4.8047 28.7891,7.1875 m -2.3828,-23.9844 h 2.3828 m 0,23.9844 11.9922,2.3828 m -11.9922,-26.3672 31.2109,2.3828 m 26.4063,-2.3828 -26.4063,2.3828 m 124.8047,-2.3828 26.4063,19.1797 11.9922,7.1875 m 26.4062,-26.3672 21.6016,11.9922 31.1719,14.375 m 7.2265,-26.3672 21.6016,9.5703 m -28.8281,16.7969 h 2.4218 m 26.4063,-16.7969 31.1719,12.0313 m 21.6015,-21.6016 9.6094,2.3828 m -31.2109,19.2188 11.9921,4.7656 m 19.2188,-23.9844 28.7891,14.4141 24.0234,9.5703 m 26.3672,-26.3672 9.6094,2.3828 31.2109,11.9922 26.4062,11.9922 m 108.0079,-26.3672 16.7968,7.1875 31.1719,11.9922 12.0313,7.1875 m -1296.0157,0 11.9922,4.8047 31.211,11.9922 28.789,9.6094 m 180,-26.4063 h 2.4219 l 28.7891,9.6094 31.2109,11.9922 26.3672,4.8047"
       style="fill:none;stroke:#000000;stroke-width:6.66666985;stroke-linecap:butt;stroke-linejoin:round;stroke-miterlimit:10;stroke-opacity:1" />
    <path
       id="path6"
       transform="matrix(0.1,0,0,-0.1,0,842)"
       d="m 1991.9922,3074.375 23.9844,9.6094 28.8281,7.1875 31.1719,9.6094 m 0,-26.4063 v 0 m 0,26.4063 v 0 m 0,-26.4063 31.2109,12.0313 28.7891,7.1875 24.0234,7.1875 m -14.4141,-26.4063 21.6016,7.2266 31.2109,7.1875 28.7891,7.1875 14.4141,4.8047 m -2.4219,-26.4063 19.2187,4.8047 28.7891,7.2266 31.2109,7.1875 31.211,2.3828 16.7969,4.8047 m 55.1562,-26.4063 4.8047,26.4063 m 76.7969,-26.4063 26.4062,12.0313 24.0235,14.375 m 19.1796,-26.4063 19.2188,9.6094 28.7891,14.414 m 23.9843,-24.0234 7.2266,2.4219 m -31.2109,21.6015 9.6093,2.3829 m 21.6016,-23.9844 28.7891,14.375 26.4062,9.6094 m 31.2109,-26.4063 4.7657,2.4219 28.8281,9.6094 31.1719,14.375 m 103.2031,-26.4063 16.7969,7.2266 31.2109,11.9922 16.7969,7.1875 m -1288.7891,0 31.211,11.9921 28.789,7.2266 23.9844,7.1875 m 184.8047,-26.4062 4.8047,2.4218 28.789,11.9922 31.211,7.1875 19.2187,4.8047 m 40.7813,-26.4062 31.2109,11.9921 28.7891,9.6094 19.2187,4.8047 m 4.7656,-26.4062 7.2266,2.4218 31.2109,9.5703 28.7891,9.6094 23.9844,4.8047 m -9.6094,-26.4062 16.8359,4.8046 28.7891,9.6094 31.2109,7.1875 26.3672,4.8047 m 21.6016,-26.4062 12.0312,2.4218 31.1719,2.3828 m 16.7969,-4.8046 -16.7969,4.8046 m 144.0235,-4.8046 7.1875,7.2265 31.2109,11.9922 14.375,7.1875 m 24.0234,-26.4062 21.6016,11.9921 28.7891,12.0313 m 26.4062,-24.0234 4.8047,2.4218 m -31.2109,21.6016 9.6093,2.3828 m 21.6016,-23.9844 31.1719,14.375 26.4062,9.6094 m 33.5938,-26.4062 28.8281,11.9921 31.1719,12.0313 7.2265,2.3828 m 100.7813,-26.4062 14.414,4.8046 28.7891,14.375 19.2188,7.2266 m -1267.2266,0 7.2266,2.3828 31.1718,11.9922 28.8282,7.2266 19.1796,7.1875 m 182.4219,-28.7891 9.5703,4.8047 31.211,11.9922 31.2109,9.6094 4.8047,2.3828 m 43.2031,-28.7891 11.9922,4.8047 31.2109,9.5703 28.7891,9.6094 11.9922,4.8047 m 11.9922,-28.7891 7.1875,4.8047 28.8281,9.5703 31.1719,7.2266 28.8281,7.1875 m -2.4219,-28.7891 4.8047,2.3828 28.7891,4.8047 31.2109,9.6094 31.211,4.8047 19.1796,7.1875 m 146.4063,-28.7891 14.4141,11.9922 21.6015,16.7969 m 47.9688,-28.7891 21.6015,14.375 31.211,12.0313 m 26.4062,-26.4063 2.3828,2.3828 m -28.789,24.0235 4.8047,2.3828 m 23.9843,-26.4063 31.211,11.9922 28.789,12.0313 2.4219,2.3828 m 35.9766,-28.7891 24.0234,9.6094 28.7891,11.9922 14.414,7.1875 m 95.9766,-28.7891 12.0312,4.8047 28.7891,9.5703 28.7891,14.4141 m -1250.3907,0 11.9922,4.8047 28.7891,9.6093 31.2109,9.5703 4.8047,2.4219 m 182.3828,-26.4062 24.0235,9.6093 31.2109,7.1875 31.1719,9.6094 m 40.8203,-26.4062 19.1797,4.8047 28.8281,9.6093 31.1719,9.5703 14.414,2.4219 m 14.4141,-26.4062 h 2.3828 l 28.7891,7.1875 31.2109,9.6093 31.211,4.8047 14.375,4.8047 m 4.8046,-26.4062 9.6094,2.4218 31.211,2.3829 28.789,4.8046 31.211,4.8047 31.1718,7.1875 28.8282,2.3828 m 21.6015,-23.9843 -21.6015,23.9843 m 127.1875,-23.9843 23.9843,14.414 28.8282,11.9922 m 33.5937,-26.4062 28.7891,14.414 28.789,11.9922 m 45.625,-26.4062 16.7969,7.1875 31.2109,12.0312 14.375,7.1875 m 103.2032,-26.4062 h 2.4218 l 31.1719,9.6093 28.8281,11.9922 9.5704,4.8047 m -1245.586,0 26.4063,4.8047 28.789,9.6094 31.211,11.9922 h 2.3828 m 180,-26.4063 28.789,9.6094 31.211,9.5703 28.789,7.2266 h 2.4219 m 43.2031,-26.4063 16.7969,4.8047 28.7891,7.1875 31.2109,7.1875 28.7891,7.2266 m 16.7969,-26.4063 14.414,2.3828 31.1719,9.6094 28.8281,7.1875 31.1719,7.2266 h 4.8047 m 235.1953,-26.4063 h 2.4219 l 28.789,19.1797 16.7969,7.2266 m 43.2031,-26.4063 h 2.4219 l 28.7891,14.4141 31.2109,11.9922 h 2.3828 m 43.2031,-26.4063 14.4141,4.8047 31.1719,11.9922 19.2187,9.6094 m 110.3907,-26.4063 21.6015,9.6094 31.211,9.5703 14.375,7.2266 m -1223.9844,0 26.4062,7.1875 31.211,14.375 28.789,4.8047 m 184.8047,-26.3672 28.7891,9.5703 31.2109,7.2265 28.7891,9.5704 h 4.8047 m 55.1953,-26.3672 h 2.3828 l 28.8281,9.5703 31.1719,7.2265 28.8281,7.1875 14.375,2.3829 m 21.6016,-26.3672 26.4062,7.1875 28.7891,4.8047 31.2109,7.1875 28.7891,4.8046 16.8359,2.3829 m 151.1719,-26.3672 14.4141,21.5625 4.8047,4.8047 m 88.789,-26.3672 28.7891,14.375 24.0234,11.9922 m 55.1953,-26.3672 9.6094,4.7656 31.1719,12.0312 31.2109,9.5704 h 2.3828 m 103.2032,-26.3672 14.414,7.1875 31.211,9.6093 23.9843,9.5704 m -1207.1875,0 2.3828,2.4218 28.8282,7.1875 31.1718,9.6094 31.211,7.1875 h 7.1875 m 177.6172,-26.4062 26.4062,9.6093 31.1719,4.8047 28.8281,7.1875 23.9844,4.8047 m 50.3906,-26.4062 16.7969,4.8046 31.2109,9.6094 28.7891,7.1875 31.2109,4.8047 h 4.8047 m 40.8203,-26.4062 14.375,2.4218 31.211,4.8047 28.789,4.8047 h 60 l 31.211,-7.2266 m 4.8047,-4.8046 -4.8047,4.8046 m 146.3672,-4.8046 4.8046,4.8046 31.211,11.9922 21.6015,9.6094 m 71.9922,-26.4062 26.4063,14.414 31.2109,11.9922 h 2.3828 m 112.8125,-26.4062 4.8047,2.4218 31.211,11.9922 26.3671,11.9922 m -1168.789,0 21.6015,7.2266 31.211,11.9922 28.789,7.1875 21.6016,2.3828 m 184.8047,-28.7891 7.1875,2.4219 28.7891,9.5703 31.2109,7.2266 31.2109,9.5703 m 64.8047,-28.7891 23.9844,9.6094 31.2109,4.8047 31.211,7.1875 28.789,4.8047 11.9922,2.3828 m 283.2031,-28.7891 7.1875,7.2266 31.211,14.375 16.7969,7.1875 m 76.7968,-28.7891 28.8282,11.9922 28.789,9.6094 11.9922,7.1875 m 105.5859,-28.7891 4.8047,2.4219 28.8282,9.5703 31.1718,12.0312 9.6094,4.7657 m -1140,0 h 9.6094 l 31.1719,14.414 28.8281,4.8047 19.1797,7.1875 m 194.414,-26.4062 28.7891,4.8047 31.2109,9.6093 28.7891,7.1875 14.4141,4.8047 m 88.789,-26.4062 19.2188,2.4218 28.789,7.1875 31.211,4.8047 31.1718,7.1875 28.8282,4.8047 h 4.8047 m 194.375,-26.4062 14.414,9.6093 26.4063,16.7969 m 105.5859,-26.4062 19.2188,7.2265 28.789,14.375 11.9922,4.8047 m 120,-26.4062 19.2188,7.2265 31.1718,11.9922 16.7969,7.1875 m -1118.3984,0 11.9922,2.4219 31.2109,7.1875 28.7891,7.1875 31.2109,7.2266 11.9922,2.3828 m 182.4219,-26.4063 16.7968,4.8047 31.211,7.2266 28.789,4.7656 31.211,7.2266 14.375,2.3828 m 110.3906,-26.4063 26.4062,4.8047 31.211,2.3828 28.789,7.2266 31.211,4.8047 28.789,4.7656 28.7891,2.4219 m 60,-26.4063 2.4219,26.4063 m 163.2031,-26.4063 19.1797,7.1875 31.2109,9.6094 21.6016,9.6094 m 115.1953,-26.4063 14.4141,4.8047 28.789,14.4141 19.2188,7.1875 m -1065.625,0 16.7969,7.1875 31.2109,7.2265"
       style="fill:none;stroke:#000000;stroke-width:6.66666985;stroke-linecap:butt;stroke-linejoin:round;stroke-miterlimit:10;stroke-opacity:1" />
    <path
       id="path8"
       transform="matrix(0.1,0,0,-0.1,0,842)"
       d="m 2560.7422,3357.5781 31.2109,7.1875 19.1797,4.8047 m 206.4063,-26.4062 14.414,4.8047 31.1719,7.1875 31.2109,7.1875 28.7891,7.2265 m 180,-26.4062 h 2.4219 l 31.2109,2.3828 28.7891,-2.3828 m 235.1953,0 7.1875,4.8047 31.2109,11.9921 21.6016,9.6094 m 117.6172,-26.4062 11.9922,4.8047 28.789,7.1875 28.7891,14.414 m -1036.7969,0 9.6094,4.8047 31.2109,2.3828 28.7891,9.6094 31.2109,9.6094 7.1875,2.3828 m 203.9844,-28.7891 v 2.3828 l 31.2109,4.8047 31.211,7.1875 28.789,7.2266 19.2188,7.1875 m 427.1875,-28.7891 7.1875,4.8047 31.2109,11.9922 31.211,9.6094 2.3828,2.3828 m 115.1953,-28.7891 2.4219,2.3828 31.1718,9.6094 28.8282,14.4141 7.1875,2.3828 m -998.3985,0 23.9844,4.8047 28.8281,7.1875 31.1719,7.2265 26.4063,7.1875 m 204.0234,-26.4062 11.9922,2.3828 28.789,2.4219 31.211,11.9922 31.2109,7.1875 7.1875,2.4218 m 388.7891,-26.4062 26.4062,9.6094 31.211,14.375 4.8047,2.4218 m 122.3828,-26.4062 23.9843,7.1875 31.211,14.414 14.414,4.8047 m -957.6171,0 h 2.4218 l 31.1719,9.6094 31.2109,11.9922 28.7891,4.8047 m 220.8203,-26.4063 21.6016,2.3828 31.2109,9.6094 31.1719,4.8047 28.8281,9.6094 h 2.3828 m 336.0157,-26.4063 23.9843,11.9922 31.211,11.9922 2.3828,2.4219 m 134.414,-26.4063 14.375,2.3828 31.211,16.7969 16.7969,7.2266 m -926.4063,0 31.2109,9.5703 31.211,7.2266 28.789,9.6093 h 4.8047 m 240,-26.4062 28.7891,7.1875 28.7891,9.6094 31.2109,7.1875 16.7969,2.4218 m 288.0078,-26.4062 28.789,9.5703 28.7891,12.0312 12.0313,4.8047 m 127.1875,-26.4062 11.9921,4.8047 31.211,14.375 23.9844,7.2265 m -897.5782,0 26.4063,7.1875 28.789,9.6094 31.211,7.1875 16.7969,2.3828 m 242.3828,-26.3672 14.414,2.3828 28.7891,14.4141 31.2109,9.5703 h 7.1875 m 276.0157,-26.3672 19.1796,11.9922 31.211,9.5703 14.414,4.8047 m 129.5704,-26.4062 7.2265,2.4218 28.7891,14.375 26.4062,9.6094 m -856.7968,0 14.375,4.8047 28.8281,9.6094 31.1719,7.1875 14.414,7.1875 m 235.1953,-28.7891 21.6016,2.4219 31.2109,9.5703 31.1719,7.2266 21.6016,9.5703 m 235.2343,-28.7891 14.375,9.6094 31.211,11.9922 14.414,7.1875 m 131.9922,-28.7891 4.8047,2.4219 31.1719,16.7969 19.2187,9.5703 m -823.2031,0 16.7969,4.8047 28.7891,7.2265 31.2109,9.5703 16.7969,4.8047 m 247.1875,-26.4062 7.2265,2.4219 31.1719,11.9921 28.8281,11.9922 h 2.3828 m 225.625,-26.4062 14.375,7.2265 31.211,11.9922 14.414,7.1875 m 127.1875,-26.4062 9.6094,2.4219 31.1719,16.7968 16.7969,7.1875 m -787.1875,0 11.9922,4.8047 31.2109,7.1875 31.2109,14.4141 m 242.3828,-26.4063 28.7891,7.2266 31.2109,9.5703 26.4063,9.6094 m 199.2187,-26.4063 16.7969,9.6094 28.7891,11.9922 14.414,4.8047 m 124.7657,-26.4063 12.0312,4.8047 31.1719,16.7969 9.6094,4.8047 m -765.625,0 28.8281,9.6094 31.1719,9.6093 21.6015,7.1875 m 247.2266,-26.4062 h 2.3828 l 31.2109,14.414 31.211,9.5704 4.8047,2.4218 m 189.5703,-26.4062 16.7969,7.1875 31.2109,12.0312 11.9922,7.1875 m 117.6172,-26.4062 21.6015,7.1875 28.7891,16.7969 4.8047,2.4218 m -739.2188,0 7.2266,2.3828 31.1719,7.2266 31.2109,11.9922 14.4141,4.8047 m 232.8125,-26.4063 23.9843,7.1875 31.211,19.2188 h 4.8047 m 189.5703,-26.4063 16.7969,9.6094 31.2109,14.375 7.1875,2.4219 m 117.6172,-26.4063 26.4062,9.6094 28.7891,14.375 7.1875,2.4219 m -717.5781,0 14.375,7.1875 31.2109,11.9922 21.6016,9.6093 m 225.625,-28.789 23.9843,11.9922 31.211,7.1875 14.375,9.6093 m 175.1953,-28.789 21.6015,14.375 31.211,9.6094 4.8047,4.8046 m 122.3828,-28.789 24.0234,14.375 21.6016,14.414 m -696.0156,0 7.1875,2.3829 31.2109,12.0312 28.7891,11.9922 m 228.0078,-26.4063 16.7969,9.6094 28.8281,11.9922 7.1875,4.8047 m 180,-26.4063 26.4062,19.2188 16.7969,7.1875 m 124.8047,-26.4063 9.6094,4.8047 28.789,14.4141 11.9922,7.1875 m -679.2187,0 h 2.4218 l 28.7891,11.9922 31.2109,11.9922 4.8047,2.4218 m 213.5938,-26.4062 23.9844,9.6094 31.2109,16.7968 m 168.0078,-26.4062 11.9922,7.1875 31.2109,14.4141 9.6094,4.8046 m 122.3828,-26.4062 19.2188,9.5703 26.3671,16.7969 m -657.5781,0 26.4063,12.0312 28.789,9.5703 9.6094,4.8047 m 203.9844,-26.4062 28.7891,12.0312 28.789,14.375 m 163.2031,-26.4062 19.2188,12.0312 31.2109,11.9922 4.7656,2.3828 m 112.8125,-26.4062 4.8047,2.4219 28.7891,11.9921 19.2187,11.9922 m -645.6249,0 21.6015,14.4141 28.8281,9.6094 7.1875,2.3828 m 203.9844,-26.4063 2.4219,2.4219 28.789,19.1797 9.6094,4.8047 m 177.5781,-26.4063 26.4063,16.7969 21.6016,9.6094 m 117.6171,-26.4063 11.9922,7.2266 28.7891,19.1797 m -628.7891,0 23.9844,16.7969 24.0235,11.9921 m 196.7968,-28.789 21.6016,11.9922 31.2109,14.414 2.3828,2.3828 m 170.3907,-28.789 7.2265,4.8047 31.1719,19.2187 7.2266,4.7656 m 112.7734,-28.789 v 2.4219 l 31.2109,16.7968 19.1797,9.5703 m -631.1718,0 7.1875,2.4219 28.789,11.9922 21.6016,11.9922 m 194.414,-26.4063 26.4063,16.836 26.4062,9.5703 m 163.2032,-26.4063 23.9843,12.0313 23.9844,14.375 m 115.1953,-26.4063 12.0313,4.8047 26.4062,21.6016 m -612.0312,0 9.6094,4.8047 31.2109,16.7969 7.1875,4.8046 m 199.2187,-26.4062 4.8047,2.4219 28.7891,23.9843 m 177.5781,-26.4062 4.8047,2.4219 31.2109,21.6015 2.3828,2.3828 m 115.2344,-26.4062 h 2.3828 l 31.211,19.2187 9.5703,7.1875 m -607.1875,0 21.6016,14.4141 28.789,11.9922 m 182.4219,-26.4063 31.2109,21.6016 7.1875,4.8047 m 177.5781,-26.4063 26.4063,11.9922 19.2187,14.4141 m 112.7735,-26.4063 19.2187,16.7969 16.7969,9.6094 m -592.8125,0 2.4219,2.3828 28.789,16.7969 11.9922,7.2265 m 177.6172,-26.4062 23.9844,16.7969 21.6016,9.6093 m 177.6171,-26.4062 11.9922,11.9922 23.9844,14.414 m 112.8125,-26.4062 14.375,9.6094 24.0234,16.7968 m -588.0078,0 19.2188,14.375 26.3672,14.4141 m 177.6172,-28.7891 7.1875,4.8047 24.0234,23.9844 m 182.3828,-28.7891 7.1875,4.8047 28.8281,21.6016 2.3828,2.3828 m 112.8125,-28.7891 7.1875,7.1875 28.7891,21.6016 m -578.3984,0 h 4.8047 l 28.8281,23.9844 7.1875,2.4219 m 168.0078,-26.4063 7.1875,4.8047 28.7891,21.6016 m 184.8046,-26.4063 28.7891,19.2188 9.6094,7.1875 m 110.3906,-26.4063 31.2109,23.9844 2.4219,2.4219 m -571.2109,0 23.9844,14.375 16.7968,11.9921 m 163.2032,-26.3671 2.4218,2.3828 28.7891,11.9922 14.4141,11.9921 m 177.5781,-26.3671 19.2187,19.1796 14.375,7.1875 m 110.4297,-26.3671 28.7891,23.9843 2.3828,2.3828 m -561.6016,0 12.0313,12.0313 31.1719,14.375 m 165.625,-26.4063 16.7968,16.836 9.5703,9.5703 m 184.8047,-26.4063 16.7969,14.4141 16.8359,11.9922 m 107.9688,-26.4063 26.4062,21.6016 7.1875,4.8047"
       style="fill:none;stroke:#000000;stroke-width:6.66666985;stroke-linecap:butt;stroke-linejoin:round;stroke-miterlimit:10;stroke-opacity:1" />
    <path
       id="path10"
       transform="matrix(0.1,0,0,-0.1,0,842)"
       d="m 4286.2891,4015.1172 24.0234,28.8281 m 167.9687,-28.8281 19.2188,14.4141 21.6016,14.414 m 177.6171,-28.8281 14.375,16.7969 7.1875,12.0312 m 120,-28.8281 24.0235,24.0234 2.3828,4.8047 m -554.375,0 7.1875,2.3828 28.7891,19.2188 4.8046,4.7656 m 168.0079,-26.3672 9.6093,7.1875 16.7969,19.1797 m 172.7734,-26.3672 21.6016,19.1797 9.6094,7.1875 m 115.1953,-26.3672 26.4062,23.9844 2.4219,2.3828 m -542.4219,0 26.4063,24.0234 2.3828,2.3828 m 165.625,-26.4062 14.375,7.2266 21.6016,19.1796 m 168.0078,-26.4062 14.414,26.4062 m 129.5704,-26.4062 24.0234,26.4062 m -537.6172,0 26.4063,26.4063 m 175.1953,-26.4063 7.1875,9.6094 31.2109,16.7969 m 144.0234,-26.4063 7.1875,4.8047 28.7891,21.6016 m 117.6172,-26.4063 4.8047,4.8047 16.7969,21.6016 m -532.8125,0 2.3828,2.4219 28.8281,23.9843 m 182.3828,-26.4062 24.0234,26.4062 m 155.9766,-26.4062 2.4219,2.4219 16.7969,23.9843 m 120,-26.4062 14.375,14.4141 9.6093,11.9921 m -525.5859,0 v 2.3829 l 19.1797,26.4062 m 187.2265,-28.7891 4.7657,11.9922 21.6015,16.7969 m 148.8282,-28.7891 11.9921,26.4063 v 2.3828 m 131.9922,-28.7891 16.7969,28.7891 m -523.2031,0 26.4062,26.4063 m 187.1875,-26.4063 9.6094,4.8047 26.4063,21.6016 m 124.8046,-26.4063 19.1797,26.4063 m 129.6094,-26.4063 2.4219,2.4219 21.6015,23.9844 m -520.8203,0 14.4141,14.414 14.375,11.9922 m 194.4141,-26.4062 4.8046,2.4218 23.9844,23.9844 m 115.1953,-26.4062 12.0313,23.9843 v 2.4219 m 141.6015,-26.4062 9.5704,16.7968 4.8046,9.6094 m -506.4062,0 16.7969,19.1797 4.8047,7.2266 m 201.6015,-26.4063 4.8047,4.8047 31.2109,14.375 7.1875,7.2266 m 84.0235,-26.4063 9.5703,26.4063 m 146.4062,-26.4063 21.6016,26.4063 m -506.4062,0 14.414,26.4062 m 230.3906,-26.4062 24.0235,23.9843 4.8047,2.4219 m 64.7656,-26.4062 16.7969,26.4062 m 151.2109,-26.4062 2.4219,7.1875 11.9922,19.2187 m -506.4063,0 11.9922,11.9922 11.9922,16.7969 m 235.1953,-28.7891 24.0234,21.6016 7.1875,7.1875 m 50.3907,-28.7891 2.4218,11.9922 4.8047,16.7969 m 158.3985,-28.7891 11.9922,28.7891 m -494.4141,0 11.9922,26.4062 m 254.414,-26.4062 23.9844,19.1797 16.7969,7.2265 m 16.8359,-26.4062 2.3828,26.4062 m 168.0079,-26.4062 7.1875,11.9922 7.1875,14.414 m -496.7969,0 4.8047,9.5703 9.6093,16.836 m 280.7813,-26.4453 12.0312,9.6093 m 7.1875,-9.6093 -7.1875,9.6093 m 189.5704,-9.6093 9.6093,26.4062 m -491.9922,0 19.1797,26.4063 m 472.8125,-26.4063 14.4141,24.0234 2.3828,2.3829 m -489.6094,0 2.4219,4.8046 9.6094,21.6016 m 477.5781,-26.4062 14.4141,26.4062 m -491.9922,0 16.7969,28.7891 m 475.1953,-28.7891 7.1875,28.7891 m -482.3828,0 2.3828,7.2265 11.9922,19.1797 m 468.0078,-26.4062 4.8047,21.6015 2.4218,4.8047 m -475.2343,0 12.0312,26.4063 m 463.2031,-26.4063 9.5703,26.4063 m -472.7734,0 7.1875,19.1797 2.3828,7.2265 m 463.2031,-26.4062 9.6094,26.4062 m -472.8125,0 7.2266,26.4063 m 465.5859,-26.4063 4.8047,26.4063 m -470.3906,0 9.5703,28.789 m 460.8203,-28.789 2.3828,28.789 m -463.2031,0 7.2266,26.4063 m 455.9765,-26.4063 2.4219,4.8047 9.6094,21.6016 m -468.0078,0 4.8046,14.375 2.3829,12.0312 m 460.8203,-26.4062 v 26.4062 m -460.8203,0 9.6093,26.3672 m 451.211,-26.3672 4.7656,26.3672 m -455.9766,0 2.3828,26.4063 m 453.5938,-26.4063 4.8047,26.4063 m -458.3985,0 11.9922,28.8281 m 446.4063,-28.8281 7.2265,28.8281 m -453.6328,0 2.4219,21.6016 v 4.7656 m 451.2109,-26.3672 2.3829,26.3672 m -453.5938,0 7.1875,26.4062 m 446.4063,-26.4062 2.4218,9.6094 v 16.7968 m -448.8281,0 4.8047,26.4063 m 444.0234,-26.4063 4.7657,26.4063 m -448.7891,0 v 28.789 m 448.7891,-28.789 2.4218,28.789 m -451.2109,0 7.1875,26.4063 m 444.0234,-26.4063 7.1875,26.4063 m -451.2109,0 9.6094,26.4062 m 441.6015,-26.4062 -4.8047,26.4062 m -436.7968,0 v 26.4063 m 436.7968,-26.4063 7.2266,26.4063 m -444.0234,0 2.4218,16.7969 2.3829,9.6093 m 439.2187,-26.4062 v 26.4062 m -439.2187,0 2.4218,28.7891 m 436.7969,-28.7891 v 28.7891 m -441.6016,26.4063 v -4.8047 m 4.8047,-21.6016 -4.8047,21.6016 m 441.6016,-21.6016 2.3828,26.4063 m -443.9844,0 v 7.1875 l 2.3829,19.2187 m 441.6015,-26.4062 v 26.4062 m -441.6015,0 2.4218,26.4063 m 439.1797,-26.4063 2.3828,26.4063 m -441.5625,0 2.3828,26.3671 m 439.1797,-26.3671 4.8047,26.3671 m -443.9844,0 4.8047,28.8282 m 439.1797,-28.8282 -7.1875,28.8282 m -431.9922,0 v 26.3672 m 431.9922,-26.3672 9.6094,26.3672 m -441.6016,0 v 26.4062 m 441.6016,-26.4062 v 4.8046 l 4.8047,21.6016 m -446.4063,0 -2.4218,26.4063 m 444.0234,0 v -4.8047 m 4.8047,-21.6016 -4.8047,21.6016 m -444.0234,4.8047 4.8046,26.4062 m 439.2188,-26.4062 v 9.6093 l 2.3828,16.7969 m -441.6016,0 v 28.7891 m 434.4141,0 4.8047,-16.7969 m 2.3828,-11.9922 -2.3828,11.9922 m -439.2188,16.7969 -2.3828,26.4062 m 436.7969,-26.4062 4.8047,26.4062 m -441.6016,0 2.3828,26.4063 m 439.2188,-26.4063 -2.4219,26.4063 m -436.7969,0 -2.3828,26.4062 m 439.1797,-26.4062 2.4219,16.7968 2.3828,9.6094 m -443.9844,0 4.8047,26.4063 m 431.9922,0 4.8047,-19.2188 m 2.3828,-7.1875 -2.3828,7.1875 m -436.8359,19.2188 -7.1875,28.789 m 439.2187,-28.789 4.8047,19.1797 4.7656,9.6093 m -448.789,0 v 26.4063 m 436.7968,0 7.2266,-19.2188 m 4.7656,-7.1875 -4.7656,7.1875 m -444.0234,19.2188 -4.8047,26.4062 m 441.6015,-26.4062 2.4219,26.4062 m -444.0234,0 9.6093,26.3672 m 434.4141,-26.3672 -4.8047,26.3672 m -429.6094,0 -11.9921,26.4063 m 441.6015,-26.4063 4.8047,26.4063 m -446.4062,0 7.1875,28.8281 m 439.2187,-28.8281 -9.6094,28.8281 m -429.6093,0 v 26.3672 m 429.6093,-26.3672 7.1875,26.3672 m -436.7968,0 -4.7657,26.4062 m 441.5625,-26.4062 -7.1875,26.4062 m -434.375,0 7.1875,26.4063 m 427.1875,-26.4063 v 26.4063 m -427.1875,0 4.8047,26.4062 m 422.3828,-26.4062 -7.1875,26.4062 m -415.1953,0 -4.8047,28.7891 m 407.9688,0 4.8047,-11.9922 m 7.2265,-16.7969 -7.2265,16.7969 m -412.7735,11.9922 2.3828,26.4062 m 405.586,-26.4062 4.8047,11.9922 4.8047,14.414 m -415.1954,0 -2.3828,26.4063 m 410.3907,0 2.3828,-9.6094 m 4.8047,-16.7969 -4.8047,16.7969 m -412.7735,9.6094 4.7657,26.4062 m 405.625,-26.4062 -4.8047,26.4062 m -400.8203,0 v 26.4063 m 400.8203,-26.4063 2.3828,26.4063 m -403.2031,0 9.6093,28.7891 m 393.5938,-28.7891 -2.3828,28.7891 m -391.211,0 4.8047,23.9843 v 2.4219 m 386.4063,-26.4062 -9.6094,26.4062 m -386.4063,26.4063 9.6094,-26.4063 m 376.7969,0 7.2266,26.4063 m -393.6329,0 9.6094,23.9843 v 2.3828 m 384.0235,-26.3671 -9.6094,26.3671 m -374.4141,0 2.4219,28.8282 m 371.9922,-28.8282 -9.6094,28.8282 m -362.3828,-0.039 -2.4219,26.4063 m 357.6172,0 4.8047,-16.7969 m 2.3828,-9.5703 -2.3828,9.5703 m -362.4219,16.7969 11.9922,26.4062 m 345.625,-26.4062 4.8047,16.7968 2.3828,9.6094 m -352.8125,0 2.4219,26.4063 m 328.789,0 19.2188,-24.0235 m 2.3828,-2.3828 -2.3828,2.3828 m -348.0078,24.0235 14.375,14.414 9.6094,11.9922 m 304.8046,-26.4062 2.3829,26.4062 m -319.1797,28.7891 2.3828,-4.8047 m 9.6094,-23.9844 -9.6094,23.9844 m 300,4.8047 2.4219,-4.8047 m 14.375,-23.9844 -14.375,23.9844 m -304.8047,4.8047 2.3828,26.4062 m 300,-26.4062 2.4219,16.7968 2.3828,9.6094 m -304.8047,0 31.2109,21.6016 4.8047,4.8047 m 242.3828,0 24.0235,-24.0235 m 2.3828,-2.3828 -2.3828,2.3828 m -266.4063,24.0235 16.7969,26.4062 m 211.2109,0 9.6094,-19.2187 m 4.7656,-7.1875 -4.7656,7.1875 m -220.8203,19.2187 7.1875,19.1797 7.2265,7.1875 m 196.7969,-26.3672 -11.9922,26.3672 m -184.8047,0 23.9844,16.7969 26.4063,12.0312 m 110.3906,0 14.4141,-16.7968 m 9.6093,-12.0313 -9.6093,12.0313 m -124.8047,16.7968 4.8047,4.8047 9.6093,21.5625 m 45.586,0 4.8047,-4.7656 28.789,-9.6094 m 16.7969,-11.9922 -16.7969,11.9922 m -79.1797,14.375 19.1797,19.2188 m 26.4063,-19.2188 -26.4063,19.2188"
       style="fill:none;stroke:#000000;stroke-width:6.66666985;stroke-linecap:butt;stroke-linejoin:round;stroke-miterlimit:10;stroke-opacity:1" />
    <path
       id="path12"
       transform="matrix(0.1,0,0,-0.1,0,842)"
       d="m 3129.6094,1670.3906 v -93.5937 L 3124.8047,1560 3120,1555.1953 l -11.9922,-7.1875 h -16.7969 l -11.9921,7.1875 m 50.3906,98.3985 -9.6094,11.9921 -11.9922,4.8047 h -16.7969 l -11.9921,-4.8047 -12.0313,-11.9921 -4.8047,-16.7969 v -11.9922 l 4.8047,-16.7969 12.0313,-11.9922 11.9921,-7.2265 h 16.7969 l 11.9922,7.2265 9.6094,11.9922 m 48.0078,33.5938 h 103.1641 m 45.625,28.789 v -81.6015 m 0,48.0078 7.1875,16.7969 11.9921,11.9921 9.6094,4.8047 h 19.2188"
       style="fill:none;stroke:#000000;stroke-width:6.66666985;stroke-linecap:butt;stroke-linejoin:round;stroke-miterlimit:10;stroke-opacity:1" />
    <path
       id="path14"
       transform="matrix(0.1,0,0,-0.1,0,842)"
       d="m 256.79687,4346.4062 h 79.21875 m -45.625,0 -16.79687,7.1875 -11.99219,9.6094 -4.80469,11.9922 v 16.7969"
       style="fill:none;stroke:#000000;stroke-width:6.66666985;stroke-linecap:butt;stroke-linejoin:round;stroke-miterlimit:10;stroke-opacity:1" />
    <path
       id="path16"
       transform="matrix(0.1,0,0,-0.1,0,842)"
       d="m 285.58594,4420.7812 v 105.625 m -69.57032,40.7813 4.80469,4.8047 -4.80469,4.8047 -7.22656,-4.8047 7.22656,-4.8047 m 40.78125,4.8047 h 79.21875"
       style="fill:none;stroke:#000000;stroke-width:6.66666985;stroke-linecap:butt;stroke-linejoin:round;stroke-miterlimit:10;stroke-opacity:1" />
    <path
       id="path18"
       transform="matrix(0.1,0,0,-0.1,0,842)"
       d="m 803.98437,2503.2031 7.22657,4.8047 64.80468,26.4063 67.1875,26.3672 64.80468,26.4062 67.1875,26.4063 69.6094,26.4062 67.1875,28.7891 69.6094,26.4062 143.9843,52.8125 72.0313,26.4063 74.375,26.3672 74.4141,26.4062 74.375,28.8281 76.8359,26.3672 153.5937,52.8125 79.1797,26.4063 79.2188,26.4062 79.1797,26.4063 79.2187,28.789 79.1797,26.4063 81.6016,26.4062 79.2187,26.3672 81.6016,26.4063 79.1797,26.4062 81.6015,26.4063 79.2188,28.789 79.1797,26.4063 79.2187,26.4062 79.1797,26.4063 76.7969,26.4062 76.7969,26.3672 76.8359,26.4063 74.375,28.8281 74.4141,26.3672 143.9843,52.8125 69.6094,26.4062 67.1875,26.4063 67.2266,26.4062 64.8047,28.7891 124.7656,52.8125 57.6172,26.3672 57.6171,26.4062 55.1954,26.4063 52.7734,26.4062 52.8125,28.7891 48.0078,26.4062 45.5859,26.4063 45.625,26.4062 43.1641,26.4063 40.8203,26.3672 38.3985,26.4062 36.0156,28.8282 33.5937,26.3671 31.1719,26.4063 31.2109,26.4062 28.7891,26.4063 26.4063,26.4062 24.0234,26.4063 23.9844,28.789 21.6015,26.4063 19.2188,26.4062 19.1797,26.3672 16.7968,26.4063 14.4141,26.4062 14.375,26.4063 14.4141,28.789 11.9922,26.4063 28.8281,79.2187 7.1875,26.3672 7.1875,26.4063 7.2265,28.789 7.1875,26.4063 9.6094,52.8125 2.3828,26.4062 4.8047,26.4063 2.3828,26.4062 2.4219,28.7891 2.3828,26.4063 2.4219,26.3671 2.3828,26.4063 2.4219,26.4062 V 4860 l 2.3828,26.4062 v 28.7891 l 2.3828,26.4063 v 52.8125 l 2.4219,26.3671 v 187.2266 l 2.3828,26.4063 v 1631.9921"
       style="fill:none;stroke:#ff0000;stroke-width:6.66666985;stroke-linecap:butt;stroke-linejoin:round;stroke-miterlimit:10;stroke-dasharray:76.8, 57.6;stroke-opacity:1" />
    <path
       id="path20"
       transform="matrix(0.1,0,0,-0.1,0,842)"
       d="M 803.98437,2051.9922 H 5618.3984 v 4814.414 H 803.98437 V 2051.9922 H 5618.3984 m -4814.41403,0 H 5618.3984"
       style="fill:none;stroke:#000000;stroke-width:6.66666985;stroke-linecap:butt;stroke-linejoin:round;stroke-miterlimit:10;stroke-opacity:1" />
    <path
       id="path22"
       transform="matrix(0.1,0,0,-0.1,0,842)"
       d="m 803.98437,2051.9922 v 124.8047"
       style="fill:none;stroke:#000000;stroke-width:6.66666985;stroke-linecap:butt;stroke-linejoin:round;stroke-miterlimit:10;stroke-opacity:1" />
    <path
       id="path24"
       transform="matrix(0.1,0,0,-0.1,0,842)"
       d="m 799.17969,1948.7891 -16.79688,-7.1875 -11.99219,-16.7969 -7.1875,-28.7891 v -16.7968 l 7.1875,-28.8282 11.99219,-19.1797 16.79688,-4.8046 h 12.03125 l 16.79687,4.8046 11.99219,19.1797 4.80469,28.8282 v 16.7968 L 840,1924.8047 l -11.99219,16.7969 -16.79687,7.1875 h -12.03125"
       style="fill:none;stroke:#000000;stroke-width:6.66666985;stroke-linecap:butt;stroke-linejoin:round;stroke-miterlimit:10;stroke-opacity:1" />
    <path
       id="path26"
       transform="matrix(0.1,0,0,-0.1,0,842)"
       d="m 1106.4063,2051.9922 v 62.4219 m 300,-62.4219 v 62.4219 m 300,-62.4219 v 62.4219 m 302.3828,-62.4219 v 62.4219 m 300,-62.4219 v 124.8047"
       style="fill:none;stroke:#000000;stroke-width:6.66666985;stroke-linecap:butt;stroke-linejoin:round;stroke-miterlimit:10;stroke-opacity:1" />
    <path
       id="path28"
       transform="matrix(0.1,0,0,-0.1,0,842)"
       d="m 2217.6172,1948.7891 -19.2188,-7.1875 -9.6093,-16.7969 -7.1875,-28.7891 v -16.7968 l 7.1875,-28.8282 9.6093,-19.1797 19.2188,-4.8046 h 9.5703 l 19.2188,4.8046 9.6093,19.1797 7.1875,28.8282 v 16.7968 l -7.1875,28.7891 -9.6093,16.7969 -19.2188,7.1875 h -9.5703 m 91.1719,-110.3907 -4.8047,-7.1875 4.8047,-4.8046 7.2265,4.8046 -7.2265,7.1875 m 115.1953,110.3907 h -57.5781 l -4.8047,-52.7735 4.8047,4.7657 16.7968,7.2265 h 19.1797 l 16.836,-7.2265 11.9921,-11.9922 4.8047,-16.7969 V 1860 l -4.8047,-16.7969 -11.9921,-11.9922 -16.836,-4.8046 h -19.1797 l -16.7968,4.8046 -4.8047,7.1875 -7.1875,11.9922"
       style="fill:none;stroke:#000000;stroke-width:6.66666985;stroke-linecap:butt;stroke-linejoin:round;stroke-miterlimit:10;stroke-opacity:1" />
    <path
       id="path30"
       transform="matrix(0.1,0,0,-0.1,0,842)"
       d="m 2608.7891,2051.9922 v 62.4219 m 302.4218,-62.4219 v 62.4219 m 300,-62.4219 v 62.4219 m 302.3829,-62.4219 v 62.4219 m 300,-62.4219 v 124.8047"
       style="fill:none;stroke:#000000;stroke-width:6.66666985;stroke-linecap:butt;stroke-linejoin:round;stroke-miterlimit:10;stroke-opacity:1" />
    <path
       id="path32"
       transform="matrix(0.1,0,0,-0.1,0,842)"
       d="m 3789.6094,1924.8047 11.9922,4.8047 16.7968,19.1797 v -122.3828"
       style="fill:none;stroke:#000000;stroke-width:6.66666985;stroke-linecap:butt;stroke-linejoin:round;stroke-miterlimit:10;stroke-opacity:1" />
    <path
       id="path34"
       transform="matrix(0.1,0,0,-0.1,0,842)"
       d="m 4113.5937,2051.9922 v 62.4219 m 302.4219,-62.4219 v 62.4219 m 300,-62.4219 v 62.4219 m 300,-62.4219 v 62.4219 m 302.3828,-62.4219 v 124.8047"
       style="fill:none;stroke:#000000;stroke-width:6.66666985;stroke-linecap:butt;stroke-linejoin:round;stroke-miterlimit:10;stroke-opacity:1" />
    <path
       id="path36"
       transform="matrix(0.1,0,0,-0.1,0,842)"
       d="m 5208.0078,1924.8047 11.9922,4.8047 16.7969,19.1797 v -122.3828 m 81.6015,11.9921 -7.1875,-7.1875 7.1875,-4.8046 4.8047,4.8046 -4.8047,7.1875 m 115.1953,110.3907 h -57.5781 l -7.2265,-52.7735 7.2265,4.7657 16.7969,7.2265 h 16.7969 l 16.7968,-7.2265 11.9922,-11.9922 7.1875,-16.7969 V 1860 l -7.1875,-16.7969 -11.9922,-11.9922 -16.7968,-4.8046 h -16.7969 l -16.7969,4.8046 -7.2265,7.1875 -4.8047,11.9922"
       style="fill:none;stroke:#000000;stroke-width:6.66666985;stroke-linecap:butt;stroke-linejoin:round;stroke-miterlimit:10;stroke-opacity:1" />
    <path
       id="path38"
       transform="matrix(0.1,0,0,-0.1,0,842)"
       d="m 5618.3984,2051.9922 v 62.4219 M 803.98437,6866.4062 H 5618.3984"
       style="fill:none;stroke:#000000;stroke-width:6.66666985;stroke-linecap:butt;stroke-linejoin:round;stroke-miterlimit:10;stroke-opacity:1" />
    <path
       id="path40"
       transform="matrix(0.1,0,0,-0.1,0,842)"
       d="m 803.98437,6866.4062 v -122.4218 m 302.42193,122.4218 v -62.4218 m 300,62.4218 v -62.4218 m 300,62.4218 v -62.4218 m 302.3828,62.4218 v -62.4218 m 300,62.4218 v -122.4218 m 300,122.4218 v -62.4218 m 302.4218,62.4218 v -62.4218 m 300,62.4218 v -62.4218 m 302.3829,62.4218 v -62.4218 m 300,62.4218 v -122.4218 m 299.9999,122.4218 v -62.4218 m 302.4219,62.4218 v -62.4218 m 300,62.4218 v -62.4218 m 300,62.4218 v -62.4218 m 302.3828,62.4218 v -122.4218 m 300,122.4218 v -62.4218 M 803.98437,2051.9922 v 4814.414"
       style="fill:none;stroke:#000000;stroke-width:6.66666985;stroke-linecap:butt;stroke-linejoin:round;stroke-miterlimit:10;stroke-opacity:1" />
    <path
       id="path42"
       transform="matrix(0.1,0,0,-0.1,0,842)"
       d="m 803.98437,2051.9922 h 62.42188 m -62.42188,268.7891 h 62.42188 m -62.42188,266.4062 h 124.80469"
       style="fill:none;stroke:#000000;stroke-width:6.66666985;stroke-linecap:butt;stroke-linejoin:round;stroke-miterlimit:10;stroke-opacity:1" />
    <path
       id="path44"
       transform="matrix(0.1,0,0,-0.1,0,842)"
       d="m 636.01562,2647.1875 -16.83593,-4.8047 -11.99219,-16.7969 -4.80469,-28.789 V 2580 l 4.80469,-31.2109 11.99219,-16.7969"
       style="fill:none;stroke:#000000;stroke-width:6.66666985;stroke-linecap:butt;stroke-linejoin:round;stroke-miterlimit:10;stroke-opacity:1" />
    <path
       id="path46"
       transform="matrix(0.1,0,0,-0.1,0,842)"
       d="m 619.17969,2531.9922 16.83593,-4.8047 h 11.99219 l 16.79688,4.8047 11.99218,16.7969 4.80469,31.2109 v 16.7969 l -4.80469,28.789 -11.99218,16.7969 -16.79688,4.8047 h -11.99219"
       style="fill:none;stroke:#000000;stroke-width:6.66666985;stroke-linecap:butt;stroke-linejoin:round;stroke-miterlimit:10;stroke-opacity:1" />
    <path
       id="path48"
       transform="matrix(0.1,0,0,-0.1,0,842)"
       d="m 803.98437,2856.0156 h 62.42188 m -62.42188,266.3672 h 62.42188 m -62.42188,266.4063 h 62.42188 m -62.42188,268.8281 h 62.42188 m -62.42188,266.3672 h 124.80469"
       style="fill:none;stroke:#000000;stroke-width:6.66666985;stroke-linecap:butt;stroke-linejoin:round;stroke-miterlimit:10;stroke-opacity:1" />
    <path
       id="path50"
       transform="matrix(0.1,0,0,-0.1,0,842)"
       d="m 463.20312,3986.4063 -16.79687,-7.1875 -11.99219,-16.836 -7.22656,-28.789 v -16.7969 l 7.22656,-28.7891 11.99219,-19.2187 16.79687,-4.8047 h 11.99219 l 16.79688,4.8047 11.99218,19.2187 4.80469,28.7891 v 16.7969 l -4.80469,28.789 -11.99218,16.836 -16.79688,7.1875 h -11.99219 m 91.21094,-110.3907 -4.80469,-7.2265 4.80469,-4.8047 7.1875,4.8047 -7.1875,7.2265 m 115.19531,110.3907 h -57.61718 l -4.80469,-52.8125 4.80469,4.8046 19.21875,7.1875 h 16.79687 l 16.79688,-7.1875 11.99218,-9.6093 4.80469,-19.1797 v -11.9922 l -4.80469,-16.8359 -11.99218,-11.9922 -16.79688,-4.8047 h -16.79687 l -19.21875,4.8047 -4.80469,7.2265 -4.80469,11.9922"
       style="fill:none;stroke:#000000;stroke-width:6.66666985;stroke-linecap:butt;stroke-linejoin:round;stroke-miterlimit:10;stroke-opacity:1" />
    <path
       id="path52"
       transform="matrix(0.1,0,0,-0.1,0,842)"
       d="m 803.98437,4192.8125 h 62.42188 m -62.42188,266.4062 h 62.42188 m -62.42188,268.7891 h 62.42188 m -62.42188,266.4063 h 62.42188 m -62.42188,266.3671 h 124.80469"
       style="fill:none;stroke:#000000;stroke-width:6.66666985;stroke-linecap:butt;stroke-linejoin:round;stroke-miterlimit:10;stroke-opacity:1" />
    <path
       id="path54"
       transform="matrix(0.1,0,0,-0.1,0,842)"
       d="m 619.17969,5299.2187 12.03125,7.1875 16.79687,16.7969 v -122.4219"
       style="fill:none;stroke:#000000;stroke-width:6.66666985;stroke-linecap:butt;stroke-linejoin:round;stroke-miterlimit:10;stroke-opacity:1" />
    <path
       id="path56"
       transform="matrix(0.1,0,0,-0.1,0,842)"
       d="m 803.98437,5529.6094 h 62.42188 m -62.42188,266.4062 h 62.42188 m -62.42188,268.7891 h 62.42188 m -62.42188,266.4062 h 62.42188 M 803.98437,6600 h 124.80469"
       style="fill:none;stroke:#000000;stroke-width:6.66666985;stroke-linecap:butt;stroke-linejoin:round;stroke-miterlimit:10;stroke-opacity:1" />
    <path
       id="path58"
       transform="matrix(0.1,0,0,-0.1,0,842)"
       d="m 446.40625,6636.0156 9.60937,7.1875 19.17969,16.7969 v -122.3828 m 79.21875,11.9922 -4.80469,-4.8047 4.80469,-7.1875 7.1875,7.1875 -7.1875,4.8047 M 669.60937,6660 h -57.61718 l -4.80469,-52.8125 4.80469,7.2266 19.21875,4.8046 h 16.79687 l 16.79688,-4.8046 11.99218,-12.0313 4.80469,-16.7969 v -11.9922 l -4.80469,-16.7968 -11.99218,-11.9922 -16.79688,-7.1875 h -16.79687 l -19.21875,7.1875 -4.80469,4.8047 -4.80469,11.9922"
       style="fill:none;stroke:#000000;stroke-width:6.66666985;stroke-linecap:butt;stroke-linejoin:round;stroke-miterlimit:10;stroke-opacity:1" />
    <path
       id="path60"
       transform="matrix(0.1,0,0,-0.1,0,842)"
       d="m 803.98437,6866.4062 h 62.42188 M 5618.3984,2051.9922 v 4814.414"
       style="fill:none;stroke:#000000;stroke-width:6.66666985;stroke-linecap:butt;stroke-linejoin:round;stroke-miterlimit:10;stroke-opacity:1" />
    <path
       id="path62"
       transform="matrix(0.1,0,0,-0.1,0,842)"
       d="m 5618.3984,2051.9922 h -62.3828 m 62.3828,268.7891 h -62.3828 m 62.3828,266.4062 h -122.3828 m 122.3828,268.8281 h -62.3828 m 62.3828,266.3672 h -62.3828 m 62.3828,266.4063 h -62.3828 m 62.3828,268.8281 h -62.3828 m 62.3828,266.3672 h -122.3828 m 122.3828,268.8281 h -62.3828 m 62.3828,266.4062 h -62.3828 m 62.3828,268.7891 h -62.3828 m 62.3828,266.4063 h -62.3828 m 62.3828,266.3671 h -122.3828 m 122.3828,268.8282 h -62.3828 m 62.3828,266.4062 h -62.3828 m 62.3828,268.7891 h -62.3828 m 62.3828,266.4062 h -62.3828 M 5618.3984,6600 h -122.3828 m 122.3828,266.4062 h -62.3828"
       style="fill:none;stroke:#000000;stroke-width:6.66666985;stroke-linecap:butt;stroke-linejoin:round;stroke-miterlimit:10;stroke-opacity:1" />
    <path
       id="path64"
       transform="matrix(0.1,0,0,-0.1,0,842)"
       d="m 1195.1953,5306.4062 19.2188,9.6094 43.2031,23.9844 26.3672,9.6094 m 170.4297,-43.2032 23.9843,9.6094 45.586,21.6016 28.8281,11.9922 m -268.8281,0 19.2187,7.1875 43.2032,19.2187 40.7812,19.1797 m 165.625,-45.5859 14.375,7.1875 45.625,21.6015 33.5938,16.7969 m -259.2188,0 2.4219,2.4219 45.5859,19.1797 40.8203,21.6015 m 170.3907,-43.2031 9.6093,2.4219 43.2032,14.375 45.5859,26.4062 m -268.7891,0 2.3828,2.3828 45.586,19.2188 43.2031,16.7969 14.4141,7.1875 m 163.2031,-45.586 43.2031,14.4141 45.586,23.9844 11.9921,7.1875 m -263.9843,0 31.2109,12.0312 43.2031,23.9844 16.7969,7.1875 m 172.7734,-43.2031 31.211,12.0312 45.5859,21.6016 28.8281,9.5703 m -278.3984,0 26.4063,14.4141 45.5859,23.9843 14.4141,4.8047 m 191.9921,-43.2031 14.375,4.8047 43.2032,26.4062 31.2109,11.9922 m -871.2109,4.8047 45.625,11.9922 43.2031,19.2187 40.7812,9.5704 m 460.7813,-45.586 28.8281,11.9922 45.586,19.2188 21.6015,14.375 m 184.8047,-45.586 14.375,4.8047 43.2031,23.9844 43.2032,16.7969 m -842.3829,0 h 4.8047 l 43.2032,7.2265 43.2031,23.9844 38.3984,11.9922 m 427.1875,-43.2031 21.6016,14.414 45.5859,14.4141 31.211,14.375 m 187.1875,-43.2031 h 2.4218 l 43.2032,24.0234 43.2031,19.1797 m -801.6016,0 7.1875,2.4219 43.2031,7.1875 45.586,14.414 43.2031,11.9922 19.2188,9.6094 m 367.1875,-45.625 11.9921,9.6094 43.2032,21.6015 28.789,14.4141 m 192.0313,-45.625 h 2.3828 l 43.2031,28.8281 35.9766,16.7969 m -1142.3828,26.4062 45.625,11.9922 16.7968,4.8047 m 355.1954,-43.2031 26.4062,9.6094 43.2031,19.1796 31.1719,14.4141 m 350.4297,-43.2031 16.7969,9.6094 43.2031,16.7968 28.7891,16.7969 m 184.8046,-43.2031 7.1875,2.3828 45.586,26.4062 m -1132.7735,14.4141 26.4063,14.375 45.5859,12.0313 38.3985,19.1796 m 345.5859,-45.5859 12.0313,4.8047 45.5859,14.375 43.2031,16.7969 21.6016,9.6093 m 316.7969,-45.5859 16.7968,9.6094 43.2032,21.6015 31.2109,14.375 m -876.0156,0 4.8047,2.4219 43.2031,16.7969 45.5859,14.375 24.0235,9.6094 m 350.3906,-43.2032 23.9844,4.8047 43.2031,21.6016 36.0156,16.7969 m 304.8047,-43.2032 14.375,4.8047 43.2031,21.6016 26.4063,16.7969 m -842.3828,0 19.1796,7.1875 45.586,12.0312 43.2031,21.6016 9.6094,2.3828 m 336.0156,-43.2031 9.5703,2.4218 43.2031,16.7969 38.3985,23.9844 m 297.6172,-43.2031 16.7968,9.6093 45.586,23.9844 m -787.1875,9.6094 36.0156,14.4141 43.2031,21.6015 21.6016,9.5703 M 2003.9844,5880 l 4.8047,4.8047 45.5859,19.1797 43.2031,14.414 12.0313,7.1875 m -432.0313,0 21.6016,9.6094 45.625,19.1797 33.5937,14.4141 m 331.211,-43.2032 33.5937,24.0235 40.7813,19.1797 m -405.586,0 9.6094,4.8046 45.586,19.1797 43.2031,21.6016 m 307.1875,-45.5859 h 2.4219 l 45.5859,23.9843 33.5937,21.6016 m -388.789,0 45.5859,24.0234 43.2031,16.7969 4.8047,2.3828 m 295.1953,-43.2031 52.8125,26.4062 28.7891,16.7969 m -376.7969,0 38.3985,26.4063 45.5859,16.7968 h 2.4219 m 290.3906,-43.2031 16.7969,12.0313 m -307.1875,31.1718 40.7812,28.8282 26.4063,16.7968 19.2187,9.5704 43.2032,19.2187 23.9843,14.4141 21.6016,14.375 43.2031,28.789 4.8047,2.4219 38.3984,28.7891 31.211,14.414 14.375,7.1875"
       style="fill:none;stroke:#000000;stroke-width:6.66666985;stroke-linecap:butt;stroke-linejoin:round;stroke-miterlimit:10;stroke-opacity:1" />
    <path
       id="path66"
       transform="matrix(0.1,0,0,-0.1,0,842)"
       d="m 1125.5859,5426.4062 14.4141,7.1875 108.0078,43.2032 108.0078,40.8203 103.2032,43.164 103.164,43.2032 100.8203,43.2031 100.7813,43.2031 96.0156,40.8203 187.1875,86.4063 88.8281,43.164 86.3672,43.2032 84.0235,43.2031 81.6015,40.8203 21.6016,11.9922"
       style="fill:none;stroke:#ff0000;stroke-width:6.66666985;stroke-linecap:butt;stroke-linejoin:round;stroke-miterlimit:10;stroke-dasharray:76.8, 57.6;stroke-opacity:1" />
    <path
       id="path68"
       transform="matrix(0.1,0,0,-0.1,0,842)"
       d="M 1125.5859,5260.7812 H 2409.6094 V 6544.8047 H 1125.5859 V 5260.7812 h 1284.0235 m -1284.0235,0 h 1284.0235"
       style="fill:none;stroke:#000000;stroke-width:6.66666985;stroke-linecap:butt;stroke-linejoin:round;stroke-miterlimit:10;stroke-opacity:1" />
    <path
       id="path70"
       transform="matrix(0.1,0,0,-0.1,0,842)"
       d="m 1125.5859,5260.7812 v 84.0235 m 86.4063,-84.0235 v 43.2032 m 84.0234,-43.2032 v 43.2032 m 86.3672,-43.2032 v 43.2032 m 86.4063,-43.2032 v 43.2032 m 84.0234,-43.2032 v 84.0235 m 86.4063,-84.0235 v 43.2032 m 86.3671,-43.2032 v 43.2032 m 84.0235,-43.2032 v 43.2032 m 86.4062,-43.2032 v 43.2032 m 86.3672,-43.2032 v 84.0235 m 84.0235,-84.0235 v 43.2032 m 86.4062,-43.2032 v 43.2032 m 83.9844,-43.2032 v 43.2032 m 86.4062,-43.2032 v 43.2032 m 86.4063,-43.2032 v 84.0235 m -1284.0235,1200 h 1284.0235"
       style="fill:none;stroke:#000000;stroke-width:6.66666985;stroke-linecap:butt;stroke-linejoin:round;stroke-miterlimit:10;stroke-opacity:1" />
    <path
       id="path72"
       transform="matrix(0.1,0,0,-0.1,0,842)"
       d="m 1125.5859,6544.8047 v -81.6016 m 86.4063,81.6016 v -40.8203 m 84.0234,40.8203 v -40.8203 m 86.3672,40.8203 v -40.8203 m 86.4063,40.8203 v -40.8203 m 84.0234,40.8203 v -81.6016 m 86.4063,81.6016 v -40.8203"
       style="fill:none;stroke:#000000;stroke-width:6.66666985;stroke-linecap:butt;stroke-linejoin:round;stroke-miterlimit:10;stroke-opacity:1" />
    <path
       id="path74"
       transform="matrix(0.1,0,0,-0.1,0,842)"
       d="m 1725.5859,6544.8047 v -40.8203 m 84.0235,40.8203 v -40.8203 m 86.4062,40.8203 v -40.8203 m 86.3672,40.8203 v -81.6016 m 84.0235,81.6016 v -40.8203 m 86.4062,40.8203 v -40.8203 m 83.9844,40.8203 v -40.8203 m 86.4062,40.8203 v -40.8203 m 86.4063,40.8203 v -81.6016 M 1125.5859,5260.7812 v 1284.0235"
       style="fill:none;stroke:#000000;stroke-width:6.66666985;stroke-linecap:butt;stroke-linejoin:round;stroke-miterlimit:10;stroke-opacity:1" />
    <path
       id="path76"
       transform="matrix(0.1,0,0,-0.1,0,842)"
       d="m 1125.5859,5303.9844 h 40.8204 m -40.8204,86.4062 h 40.8204 m -40.8204,86.4063 h 81.6016 m -81.6016,83.9843 h 40.8204 m -40.8204,86.4063 h 40.8204 m -40.8204,86.4062 h 40.8204 m -40.8204,84.0235 h 40.8204 m -40.8204,86.3672 h 81.6016 m -81.6016,84.0234 h 40.8204 m -40.8204,86.4063 h 40.8204 m -40.8204,86.3671 h 40.8204 m -40.8204,84.0235 h 40.8204 m -40.8204,86.4062 h 81.6016 m -81.6016,86.4063 h 40.8204 m -40.8204,83.9844 h 40.8204 M 2409.6094,5260.7812 v 1284.0235"
       style="fill:none;stroke:#000000;stroke-width:6.66666985;stroke-linecap:butt;stroke-linejoin:round;stroke-miterlimit:10;stroke-opacity:1" />
    <path
       id="path78"
       transform="matrix(0.1,0,0,-0.1,0,842)"
       d="m 2409.6094,5303.9844 h -40.8203 m 40.8203,86.4062 h -40.8203 m 40.8203,86.4063 h -81.6016 m 81.6016,83.9843 h -40.8203 m 40.8203,86.4063 h -40.8203 m 40.8203,86.4062 h -40.8203 m 40.8203,84.0235 h -40.8203 m 40.8203,86.3672 h -81.6016 m 81.6016,84.0234 h -40.8203 m 40.8203,86.4063 h -40.8203 m 40.8203,86.3671 h -40.8203 m 40.8203,84.0235 h -40.8203 m 40.8203,86.4062 h -81.6016 m 81.6016,86.4063 h -40.8203 m 40.8203,83.9844 h -40.8203"
       style="fill:none;stroke:#000000;stroke-width:6.66666985;stroke-linecap:butt;stroke-linejoin:round;stroke-miterlimit:10;stroke-opacity:1" />
    <path
       id="path80"
       transform="matrix(0.1,0,0,-0.1,0,842)"
       d="m 1703.9844,5937.6172 h 240 m 0,21.6015 v -45.625 m -240,24.0235 h -237.5781 m 0,21.6015 v -45.625 m 237.5781,24.0235 v 136.7969 m 24.0234,0 h -45.625 m 21.6016,-136.7969 v -136.836 m 24.0234,0 h -45.625"
       style="fill:none;stroke:#000000;stroke-width:10;stroke-linecap:butt;stroke-linejoin:round;stroke-miterlimit:10;stroke-opacity:1" />
    <path
       id="path82"
       transform="matrix(0.1,0,0,-0.1,0,842)"
       d="m 2011.2109,5937.6172 -7.2265,9.5703 -7.1875,9.6094 -9.6094,9.6093 -7.1875,9.6094 -9.6094,7.1875 -7.1875,9.6094 -9.6093,7.1875 -7.1875,7.1875 -9.6094,4.8047 -7.1875,7.2265 -7.2266,4.7657 -9.5703,4.8047 -7.2266,7.2265 -7.1875,2.3828 -9.6093,4.8047 -14.375,9.6094 -7.2266,2.3828 -4.8047,4.8047 -7.1875,2.3828 -7.1875,2.4219 -7.2265,4.8047 -7.1875,2.3828 -4.8047,2.4219 -7.1875,2.3828 -4.8047,2.4218 -7.1875,2.3829 -4.8047,2.3828 -7.1875,2.4218 -4.8047,2.3829 -7.2266,2.4218 h -4.8046 l -7.1875,2.3828 -4.8047,2.4219 -4.8047,2.3828 h -7.1875 l -4.8047,2.3828 -4.8047,2.4219 H 1740 l -4.8047,2.3828 h -7.1875 l -4.8047,2.4219 -7.1875,2.3828 h -4.8047 l -7.2265,2.4219 h -4.7656 l -7.2266,2.3828 h -4.8047 l -7.1875,2.4219 h -14.4141 l -4.8046,2.3828 h -14.375 l -9.6094,2.3828 h -31.211 l -7.1875,2.4219 h -9.6093 l -9.5703,-2.4219 h -28.8282 L 1540.7813,6120 h -11.9922 l -9.5703,-2.3828 -12.0313,-2.4219 -11.9922,-2.3828 -11.9922,-2.4219 -9.6093,-4.8047 -11.9922,-4.8047 -11.9922,-4.7656 -11.9922,-4.8047 -9.6094,-7.2265 -19.2187,-14.375 -14.375,-19.2188 -7.2266,-9.6094 -2.3828,-11.9921 -4.8047,-9.5704 v -24.0234 l 2.3828,-11.9922 2.4219,-11.9922 4.8047,-11.9922 4.8047,-12.0312 4.8047,-9.5703 7.1875,-9.6094 7.1875,-11.9922 16.7968,-16.7969 7.2266,-9.6093 9.5703,-7.2266 7.2266,-7.1875 9.5703,-7.1875 7.2265,-7.2266 9.5704,-4.7656 7.2265,-7.2265 9.6094,-4.8047 7.1875,-4.7657 7.1875,-4.8046 7.2266,-4.8047 7.1875,-2.4219 7.1875,-4.8047 7.1875,-4.7656 7.2265,-2.4219 7.1875,-2.3828 7.1875,-4.8047 7.2266,-2.4219 4.8047,-2.3828 7.1875,-2.4219 7.1875,-2.3828 4.8047,-2.3828 7.1875,-2.4219 4.8046,-2.3828 7.2266,-2.4218 4.8047,-2.3829 7.1875,-2.4218 4.8047,-2.3828 h 4.8047 l 7.1875,-2.3829 4.8047,-2.4218 7.1875,-2.3828 h 4.8046 l 4.8047,-2.4219 7.1875,-2.3828 h 4.8047 l 4.8047,-2.4219 h 7.1875 l 4.8047,-2.3828 h 7.2266 l 4.7656,-2.4219 h 7.2265 l 7.1875,-2.3828 h 4.8047 l 7.1875,-2.3828 h 7.2266 l 4.7656,-2.4219 h 14.4141 l 7.1875,-2.3828 h 24.0234 l 7.1875,-2.4219 h 45.586 l 9.6093,2.4219 h 19.2188 l 11.9922,2.3828 9.6093,2.4219 23.9844,4.7656 9.6094,2.4219 11.9922,4.8047 11.9922,2.3828 11.9922,4.8047 9.6093,7.1875 11.9922,4.8047 9.6094,9.6093 9.6094,7.1875 7.1875,9.6094 7.2265,9.6094 7.1875,9.6094 2.3828,9.5703 2.4219,12.0312 2.3828,11.9922 V 5880 l -2.3828,11.9922 -2.4219,11.9922 -4.8046,12.0312 -4.7657,9.5703 -4.8047,12.0313"
       style="fill:none;stroke:#000000;stroke-width:6.66666985;stroke-linecap:butt;stroke-linejoin:round;stroke-miterlimit:10;stroke-opacity:1" />
    <path
       id="path84"
       transform="matrix(0.1,0,0,-0.1,0,842)"
       d="m 2001.6016,5776.7969 h -88.7891 m 43.2031,43.2031 2.3828,-88.7891"
       style="fill:none;stroke:#000000;stroke-width:16.66670036;stroke-linecap:butt;stroke-linejoin:round;stroke-miterlimit:10;stroke-opacity:1" />
    <path
       id="path86"
       d="m 170.87891,250.87891 0.72265,-0.23829 0.71875,-0.48046 0.48047,-0.71875 0.23828,-0.72266 v -0.95703 l -0.23828,-0.72266 -0.48047,-0.71875 -0.71875,-0.48047 -0.72265,-0.23828 h -0.71875 l -0.96094,0.23828 -0.71875,0.48047 -0.48047,0.71875 -0.23828,0.72266 v 0.95703 l 0.23828,0.72266 0.48047,0.71875 0.71875,0.48046 0.96094,0.23829 h 0.71875"
       style="fill:#ffff00;fill-opacity:1;fill-rule:evenodd;stroke:none" />
    <path
       id="path88"
       transform="matrix(0.1,0,0,-0.1,0,842)"
       d="m 1708.7891,5911.2109 7.2265,2.3828 7.1875,4.8047 4.8047,7.1875 2.3828,7.2266 v 9.5703 l -2.3828,7.2266 -4.8047,7.1875 -7.1875,4.8047 -7.2265,2.3828 h -9.5703 l -7.2266,-2.3828 -7.1875,-4.8047 -4.8047,-7.1875 -2.3828,-7.2266 v -9.5703 l 2.3828,-7.2266 4.8047,-7.1875 7.1875,-4.8047 7.2266,-2.3828 h 9.5703"
       style="fill:none;stroke:#000000;stroke-width:6.66666985;stroke-linecap:butt;stroke-linejoin:round;stroke-miterlimit:10;stroke-opacity:1" />
    <path
       id="path90"
       transform="matrix(0.1,0,0,-0.1,0,842)"
       d="m 2906.4063,5306.4062 7.1875,43.2032 m 640.8203,0 4.8047,-14.4141 m 9.5703,-28.7891 -9.5703,28.7891 m -645.625,14.4141 -9.6094,45.5859 m 650.4297,-45.5859 4.8047,14.375 14.375,31.2109 m -669.6094,0 v 43.2031 m 650.4297,0 4.8047,-11.9922 m 14.375,-31.2109 -14.375,31.2109 m -664.8047,57.5782 2.3828,-14.375 m 7.1875,-31.211 -7.1875,31.211 m 657.6172,-31.211 4.8047,38.3985 v 7.1875 m -664.8047,0 2.3828,7.2265 14.414,35.9766 m 640.7813,0 7.2266,-40.7813 m 0,-2.4218 v 2.4218 m -667.2266,83.9844 4.8047,-7.1875 m 14.414,-36.0156 -14.414,36.0156 m 655.1953,-36.0156 4.8047,43.2031 m -664.8047,0 4.8047,16.7969 4.8047,28.8281 m 655.1953,-45.625 -7.1875,45.625 m -648.0078,0 -2.3828,43.2031 m 650.3906,-43.2031 4.8047,43.2031 m -660,45.586 2.3828,-24.0235 m 2.4219,-21.5625 -2.4219,21.5625 m 657.6172,-21.5625 -9.6094,45.586 m -650.3906,0 2.3828,4.8047 9.6094,38.3984 m 638.3984,-43.2031 2.3828,43.2031 m -640.7812,0 7.1875,45.5859 m 633.5937,-45.5859 -11.9922,45.5859 m -621.6015,0 -7.1875,43.2032 m 607.1875,0 v -2.3828 m 21.6015,-40.8204 -21.6015,40.8204 m -607.1875,2.3828 7.1875,43.2031 m 600,-43.2031 v 2.4218 L 3530.3906,5880 m -616.7968,0 -9.6094,45.5859 M 3530.3906,5880 l -11.9922,45.5859 m -614.414,0 v 43.2032 m 609.6094,0 v -16.7969 m 4.8046,-26.4063 -4.8046,26.4063 m -609.6094,16.7969 7.2265,45.625 m 602.3829,-45.625 v 14.414 l 7.1875,31.211 m -609.5704,0 14.375,43.2031 m 588.0079,0 v 0 m 7.1875,-43.2031 -7.1875,43.2031 m -588.0079,0 7.2266,43.164 m 580.7813,-43.164 -9.6094,43.164 m -571.1719,0 -12.0312,45.625 m 583.2031,-45.625 7.2265,45.625 m -590.4296,0 12.0312,43.2032 m 578.3984,-43.2032 -11.9921,43.2032 m -566.4063,0 4.8047,45.5859 m 561.6016,-45.5859 -12.0313,45.5859 m -549.5703,0 -4.8047,43.2031 m 554.375,-43.2031 -14.375,43.2031 m -540,0 7.1875,16.7969 11.9922,28.7891 m 520.8203,-45.586 7.1875,45.586 m -528.0078,0 2.4219,43.2031 m 499.1797,0 16.7968,-23.9844 m 9.6094,-19.2187 -9.6094,19.2187 m -515.9765,23.9844 28.789,36.0156 7.1875,7.1875 m 463.2032,-43.2031 v 43.2031 m -482.3829,45.625 11.9922,-28.8281 m 7.1875,-16.7969 -7.1875,16.7969 m 470.3907,-16.7969 -23.9844,45.625 m -458.3985,0 4.8047,43.2031 m 453.5938,-43.2031 7.1875,43.2031"
       style="fill:none;stroke:#000000;stroke-width:6.66666985;stroke-linecap:butt;stroke-linejoin:round;stroke-miterlimit:10;stroke-opacity:1" />
    <path
       id="path92"
       transform="matrix(0.1,0,0,-0.1,0,842)"
       d="m 3220.7813,5260.7812 v 256.836 l 2.4218,43.164 v 984.0235"
       style="fill:none;stroke:#ff0000;stroke-width:6.66666985;stroke-linecap:butt;stroke-linejoin:round;stroke-miterlimit:10;stroke-dasharray:76.8, 57.6;stroke-opacity:1" />
    <path
       id="path94"
       transform="matrix(0.1,0,0,-0.1,0,842)"
       d="M 2409.6094,5260.7812 H 3693.5938 V 6544.8047 H 2409.6094 V 5260.7812 h 1283.9844 m -1283.9844,0 h 1283.9844"
       style="fill:none;stroke:#000000;stroke-width:6.66666985;stroke-linecap:butt;stroke-linejoin:round;stroke-miterlimit:10;stroke-opacity:1" />
    <path
       id="path96"
       transform="matrix(0.1,0,0,-0.1,0,842)"
       d="m 2409.6094,5260.7812 v 84.0235 m 83.9844,-84.0235 v 43.2032 M 2580,5260.7812 v 43.2032 m 86.4063,-43.2032 v 43.2032 m 83.9843,-43.2032 v 43.2032 m 86.4063,-43.2032 v 84.0235 m 86.4062,-84.0235 v 43.2032 m 83.9844,-43.2032 v 43.2032 m 86.4063,-43.2032 v 43.2032 M 3180,5260.7812 v 43.2032 m 83.9844,-43.2032 v 84.0235 m 86.4062,-84.0235 v 43.2032 m 86.4063,-43.2032 v 43.2032 m 83.9844,-43.2032 v 43.2032 m 86.4062,-43.2032 v 43.2032 m 86.4063,-43.2032 v 84.0235 m -1283.9844,1200 h 1283.9844"
       style="fill:none;stroke:#000000;stroke-width:6.66666985;stroke-linecap:butt;stroke-linejoin:round;stroke-miterlimit:10;stroke-opacity:1" />
    <path
       id="path98"
       transform="matrix(0.1,0,0,-0.1,0,842)"
       d="m 2409.6094,6544.8047 v -81.6016 m 83.9844,81.6016 v -40.8203 M 2580,6544.8047 v -40.8203 m 86.4063,40.8203 v -40.8203 m 83.9843,40.8203 v -40.8203 m 86.4063,40.8203 v -81.6016 m 86.4062,81.6016 v -40.8203 m 83.9844,40.8203 v -40.8203 m 86.4063,40.8203 v -40.8203 M 3180,6544.8047 v -40.8203 m 83.9844,40.8203 v -81.6016 m 86.4062,81.6016 v -40.8203 m 86.4063,40.8203 v -40.8203 m 83.9844,40.8203 v -40.8203 m 86.4062,40.8203 v -40.8203 m 86.4063,40.8203 v -81.6016 M 2409.6094,5260.7812 v 1284.0235"
       style="fill:none;stroke:#000000;stroke-width:6.66666985;stroke-linecap:butt;stroke-linejoin:round;stroke-miterlimit:10;stroke-opacity:1" />
    <path
       id="path100"
       transform="matrix(0.1,0,0,-0.1,0,842)"
       d="m 2409.6094,5260.7812 h 81.6015 m -81.6015,86.4063 h 40.7812 m -40.7812,86.4062 h 40.7812 m -40.7812,84.0235 h 40.7812 m -40.7812,86.3672 h 40.7812 m -40.7812,86.4062 h 81.6015 m -81.6015,84.0235 h 40.7812 m -40.7812,86.3671 h 40.7812 m -40.7812,86.4063 h 40.7812 m -40.7812,84.0234 h 40.7812 m -40.7812,86.4063 h 81.6015 m -81.6015,86.3672 h 40.7812 m -40.7812,84.0234 h 40.7812 m -40.7812,86.4063 h 40.7812 m -40.7812,86.3671 h 40.7812 m -40.7812,84.0235 h 81.6015 M 3693.5938,5260.7812 v 1284.0235"
       style="fill:none;stroke:#000000;stroke-width:6.66666985;stroke-linecap:butt;stroke-linejoin:round;stroke-miterlimit:10;stroke-opacity:1" />
    <path
       id="path102"
       transform="matrix(0.1,0,0,-0.1,0,842)"
       d="m 3693.5938,5260.7812 h -81.6016 m 81.6016,86.4063 h -40.8204 m 40.8204,86.4062 h -40.8204 m 40.8204,84.0235 h -40.8204 m 40.8204,86.3672 h -40.8204 m 40.8204,86.4062 h -81.6016 m 81.6016,84.0235 h -40.8204 m 40.8204,86.3671 h -40.8204 m 40.8204,86.4063 h -40.8204 m 40.8204,83.9844 h -40.8204 m 40.8204,86.4062 h -81.6016 m 81.6016,86.4063 h -40.8204 m 40.8204,84.0234 h -40.8204 m 40.8204,86.3672 h -40.8204 m 40.8204,86.4062 h -40.8204 m 40.8204,84.0235 h -81.6016"
       style="fill:none;stroke:#000000;stroke-width:6.66666985;stroke-linecap:butt;stroke-linejoin:round;stroke-miterlimit:10;stroke-opacity:1" />
    <path
       id="path104"
       transform="matrix(0.1,0,0,-0.1,0,842)"
       d="m 2889.6094,5923.2031 h 309.6094 m 0,21.6016 v -45.586 m -309.6094,23.9844 h -311.9922 m 0,21.6016 v -45.586 m 311.9922,23.9844 v 189.6094 m 21.6015,0 h -45.625 m 24.0235,-189.6094 v -191.9922 m 21.6015,0 h -45.625"
       style="fill:none;stroke:#000000;stroke-width:10;stroke-linecap:butt;stroke-linejoin:round;stroke-miterlimit:10;stroke-opacity:1" />
    <path
       id="path106"
       transform="matrix(0.1,0,0,-0.1,0,842)"
       d="m 3220.7813,5923.2031 -4.7657,11.9922 -2.4218,9.6094 -4.8047,11.9922 -4.8047,9.6093 -7.1875,9.6094 -7.1875,9.5703 -7.2266,9.6094 -14.375,19.2188 -9.6094,7.1875 -7.1875,7.1875 -9.6093,7.2265 -7.1875,7.1875 -9.6094,4.8047 -9.6094,7.1875 -7.1875,4.8047 -9.6094,4.8047 -7.1875,4.8047 -9.6093,4.8047 -7.1875,2.3828 -9.6094,4.8047 -7.1875,4.8046 -9.6094,2.3829 -7.2265,2.4218 -7.1875,4.8047 -7.1875,2.3828 -9.6094,2.3828 -7.1875,2.4219 -7.2266,2.3828 -7.1875,2.4219 -7.1875,2.3828 h -7.2265 l -7.1875,2.4219 -7.1875,2.3828 h -7.1875 l -7.2266,2.4219 -7.1875,2.3828 h -14.4141 l -7.1875,2.3828 h -7.1875 l -7.2265,2.4219 h -14.375 l -4.8047,2.3828 h -84.0235 l -7.1875,-2.3828 h -9.6093 l -7.1875,-2.4219 h -9.6094 L 2764.8047,6120 h -9.6094 l -9.6094,-2.3828 -7.1875,-2.4219 -9.6093,-2.3828 -9.5703,-2.4219 -9.6094,-2.3828 -9.6094,-2.4219 -9.6094,-4.8047 -9.6093,-2.3828 -9.5704,-4.8047 -11.9921,-4.8046 -9.6094,-4.8047 -9.6094,-7.1875 -9.6094,-4.8047 -9.6093,-7.1875 -9.5704,-7.1875 -7.2265,-7.2266 -9.5703,-9.6094 -7.2266,-7.1875 -7.1875,-9.6093 -7.1875,-11.9922 -4.8047,-9.6094 -4.8047,-9.5703 -4.8047,-12.0313 -2.3828,-11.9921 v -11.9922 l -2.4218,-11.9922 2.4218,-9.6094 v -11.9922 l 4.7657,-11.9922 2.4218,-11.9922 4.8047,-9.6093 4.8047,-11.9922 7.1875,-9.6094"
       style="fill:none;stroke:#000000;stroke-width:6.66666985;stroke-linecap:butt;stroke-linejoin:round;stroke-miterlimit:10;stroke-opacity:1" />
    <path
       id="path108"
       transform="matrix(0.1,0,0,-0.1,0,842)"
       d="m 2580,5868.0078 7.2266,-9.6094 7.1875,-9.6093 7.1875,-9.5704 7.2265,-7.2265 9.5703,-7.1875 7.2266,-7.1875 9.5703,-7.2266 7.2266,-7.1875 9.5703,-7.1875 9.6094,-4.8047 7.2265,-4.8047 9.5703,-4.8046 7.2266,-4.8047 9.5703,-4.8047 7.2266,-4.8047 9.5703,-4.8047 7.2266,-2.3828 9.6093,-4.8047 7.1875,-2.3828 7.1875,-2.4219 7.1875,-2.3828 9.6094,-2.4219 7.2266,-2.3828 7.1875,-2.4219 7.1875,-2.3828 7.2265,-2.3828 7.1875,-2.4219 7.1875,-2.3828 h 7.1875 l 7.2266,-2.4218 h 7.1875 l 7.1875,-2.3829 7.2266,-2.4218 h 14.375 l 7.2265,-2.3828 h 14.375 l 7.2266,-2.3829 h 26.4062 l 7.1875,-2.4218 h 31.211 l 7.1875,2.4218 h 23.9843 l 9.6094,2.3829 h 7.1875 l 9.6094,2.3828 h 7.1875 l 9.6094,2.4218 9.6093,2.3829 h 7.1875 l 9.6094,2.4218 9.6094,2.3828 9.6094,4.8047 9.5703,2.3828 9.6094,2.4219 19.2187,9.6094 11.9922,4.8047 9.6094,4.7656 9.5703,4.8047 9.6094,7.2266 19.2187,14.375 7.1875,7.2265 9.6094,7.1875 7.1875,9.6094 7.1875,9.5703 7.2265,9.6094 4.8047,9.6094 4.7657,11.9921 4.8046,11.9922 2.4219,9.6094 v 11.9922 l 2.3828,12.0312 -2.3828,11.9922 v 11.9922"
       style="fill:none;stroke:#000000;stroke-width:6.66666985;stroke-linecap:butt;stroke-linejoin:round;stroke-miterlimit:10;stroke-opacity:1" />
    <path
       id="path110"
       transform="matrix(0.1,0,0,-0.1,0,842)"
       d="m 3266.4063,5896.7969 h -88.7891 m 43.1641,45.5859 2.4218,-88.7891"
       style="fill:none;stroke:#000000;stroke-width:16.66670036;stroke-linecap:butt;stroke-linejoin:round;stroke-miterlimit:10;stroke-opacity:1" />
    <path
       id="path112"
       d="m 289.19922,252.32031 0.96094,-0.24219 0.48046,-0.47656 0.48047,-0.72265 0.48047,-0.71875 v -0.71875 l -0.48047,-0.96094 -0.48047,-0.71875 -0.48046,-0.48047 -0.96094,-0.24219 h -0.71875 l -0.96094,0.24219 -1.19922,1.19922 -0.24219,0.96094 v 0.71875 l 0.24219,0.71875 0.71875,0.72265 0.48047,0.47656 0.96094,0.24219 h 0.71875"
       style="fill:#ffff00;fill-opacity:1;fill-rule:evenodd;stroke:none" />
    <path
       id="path114"
       transform="matrix(0.1,0,0,-0.1,0,842)"
       d="m 2891.9922,5896.7969 7.2266,2.4218 7.1875,4.7657 4.8046,7.2265 2.3829,7.1875 v 7.1875 l -2.3829,9.6094 -4.8046,7.1875 -7.1875,4.8047 -7.2266,2.4219 h -7.1875 l -9.6094,-2.4219 -7.1875,-4.8047 -4.8047,-7.1875 -2.4218,-9.6094 v -7.1875 l 2.4218,-7.1875 4.8047,-7.2265 7.1875,-4.7657 9.6094,-2.4218 h 7.1875"
       style="fill:none;stroke:#000000;stroke-width:6.66666985;stroke-linecap:butt;stroke-linejoin:round;stroke-miterlimit:10;stroke-opacity:1" />
    <path
       id="path116"
       transform="matrix(0.1,0,0,-0.1,0,842)"
       d="m 1252.8125,4022.3828 -14.4141,43.2031 m 609.6094,-43.2031 28.7891,9.6094 45.5859,14.4141 43.2031,16.7968 14.4141,2.3828 m -741.6016,0 -4.8046,45.625 m 746.4062,-45.625 28.7891,7.2266 45.625,21.6016 33.5937,16.7968 m -854.414,0 -7.1875,43.2032 m 189.6093,0 19.1797,-12.0313 43.2031,-11.9922 45.586,-7.1875 43.2031,-2.4219 45.625,-2.3828 86.4063,9.6094 45.5859,9.6094 43.2031,11.9922 28.7891,4.8047 m 271.2109,-43.2032 9.6094,4.8047 45.5859,11.9922 43.2032,19.1797 11.9921,7.2266 m -971.9921,0 11.9921,45.5859 m 139.2188,0 11.9922,-21.6016 m 26.4062,-23.9843 -26.4062,23.9843 m 141.6015,21.6016 35.9766,-7.1875 45.625,-4.8047 43.2031,2.3828 43.2032,4.8047 23.9843,4.8047 m 93.5938,-45.5859 16.7969,2.3828 43.2031,14.414 45.5859,19.1797 26.4063,9.6094 m 249.6093,-45.5859 33.5938,14.375 43.2031,9.6093 40.8203,21.6016 m -1077.6172,0 v 43.2031 M 1377.6172,4200 l -19.2188,43.2031 m 98.3985,0 21.6015,-19.2187 45.586,-23.9844 m 7.2265,0 h -7.2265 m 93.6328,43.2031 38.3984,-2.4219 23.9844,2.4219 m 43.2031,-43.2031 21.6016,2.3828 43.2031,12.0313 45.586,14.375 38.3984,14.414 m 76.7969,-43.2031 16.7968,4.8047 43.2032,16.7969 45.625,19.1796 9.5703,2.4219 M 2316.0156,4200 h 2.3828 l 45.586,19.2187 m -1125.586,23.9844 v 45.586 m 120,-45.586 -7.1875,45.586 m 79.1797,0 4.8047,-11.9922 m 21.6016,-33.5938 -21.6016,33.5938 m 74.4141,11.9922 14.375,-14.375 43.2031,-21.6016 45.625,-9.6094 m 4.8047,0 h -4.8047 m 28.7891,45.586 14.414,-2.3829 m 23.9844,-43.2031 19.2188,2.3828 m -43.2032,40.8203 h 43.2032 m 0,-40.8203 45.5859,7.2266 m -45.5859,33.5937 2.3828,2.3829 m 43.2031,-35.9766 43.2031,7.1875 45.586,16.7969 m 38.3984,-33.5938 4.8047,2.3828 m -43.2031,31.211 38.3984,11.9922 m 4.8047,-43.2032 45.5859,12.0313 43.2031,16.7969 38.3985,14.375 m 60,-45.586 33.6328,9.6094 45.5859,16.7969 38.3985,19.1797 m -943.2032,0 v 43.2031 m 112.8125,-43.2031 2.3829,43.2031 m 76.7968,-43.2031 -2.3828,43.2031 m 81.6016,-43.2031 -19.2188,43.2031 m 69.6094,0 7.1875,-9.6094 45.625,-28.7891 m 28.7891,-4.8046 -28.7891,4.8046 m 88.7891,-4.8046 43.2031,4.8046 m -9.6094,38.3985 h 9.6094 m 0,-38.3985 43.2031,7.1875 m -43.2031,31.211 h 2.3828 m 40.8203,-31.211 45.586,12.0313 m 38.3984,-24.0234 h 4.8047 m -43.2031,24.0234 43.2031,14.375 m 0,-38.3984 45.5859,14.414 m -45.5859,23.9844 16.7969,4.8047 m 28.789,-28.7891 43.2031,14.4141 m 38.3985,-28.8281 h 4.8047 m -43.2032,28.8281 43.2032,14.375 m 0,-43.2031 45.5859,14.414 m -45.5859,28.7891 h 2.3828 m 43.2031,-28.7891 43.2031,11.9922 36.0157,16.7969 m 48.0078,-43.2031 h 4.8047 l 45.5859,14.414 43.2031,14.4141 33.5938,14.375 m -1070.3907,0 9.6094,43.2031 m 105.586,-43.2031 9.6093,43.2031 m 64.8047,-43.2031 4.8047,43.2031 m 57.5781,-43.2031 7.2266,43.2031 m 62.3828,-43.2031 -4.8047,43.2031 m 71.9922,0 28.8281,-28.7891 43.2032,-11.9921 m 35.9765,-2.4219 -35.9765,2.4219 m 47.9687,-2.4219 40.8203,7.2265 45.586,9.5704 43.2031,11.9921 m 16.7969,-28.789 28.789,7.2265 m -45.5859,21.5625 45.5859,9.6094 m 0,-31.1719 43.2031,11.9922 m -43.2031,19.1797 24.0235,4.8047 m 19.1796,-23.9844 43.2032,11.9922 m 2.4218,-31.2109 43.2032,11.9922 m -45.625,19.2187 45.625,11.9922 m 0,-31.2109 43.2031,12.0312 m -43.2031,19.1797 h 2.3828 m 76.7969,-43.2031 9.6093,2.4219 m -45.5859,21.6015 45.5859,14.375 m 0,-35.9765 43.2032,11.9921 m -43.2032,23.9844 16.7969,4.8047 m 26.4063,-28.7891 45.5859,16.7969 33.5937,11.9922 m 43.2032,-43.2031 9.6093,4.8047 45.586,16.7968 m -1115.9766,21.6016 9.6094,33.5938 2.3828,11.9921 m 103.2031,-45.5859 19.1797,45.5859 m 50.4297,-45.5859 2.3828,4.8047 24.0235,40.7812 m 38.3984,-45.5859 21.6016,45.5859 m 35.9765,-45.5859 11.9922,21.6016 14.4141,23.9843 m 45.5859,-45.5859 28.8281,45.5859 m 110.3907,0 21.6015,-19.1796 45.586,-4.8047 43.2031,4.8047 45.5859,2.3828 m 24.0235,-28.7891 19.1796,7.1875 m -43.2031,21.6016 43.2031,7.2265 m 0,-28.8281 43.2032,9.6094 m -43.2032,19.2187 43.2032,4.8047 m 0,-24.0234 45.625,7.2265 m -45.625,16.7969 19.2187,4.7656 m 28.7891,-45.5859 40.8203,11.9922 m -43.2031,12.0312 43.2031,11.9922 m 0,-24.0234 45.5859,9.6094 m -45.5859,14.414 35.9766,9.5703 m 26.4062,-45.5859 26.4063,7.1875 m -43.2032,14.4141 43.2032,14.414 m 0,-28.8281 45.5859,14.4141 m -45.5859,14.414 26.4062,9.5703 m 52.7734,-45.5859 9.6094,2.4219 m -43.2031,19.1797 43.2031,16.7968 m 0,-35.9765 43.2031,16.7969 m -43.2031,19.1796 14.4141,7.1875 m 28.789,-26.3671 45.586,14.375 M 1260,4420.7812 l 11.9922,43.2032 m 110.3906,-43.2032 7.2266,12.0313 21.6015,31.1719 m 48.0079,-43.2032 19.1796,24.0235 19.2188,19.1797 m 21.6016,-43.2032 4.7656,4.8047 43.2031,38.3985 h 2.4219 m 11.9922,-43.2032 31.2109,24.0235 28.7891,19.1797 m 14.414,-43.2032 43.2032,28.8282 21.5625,14.375 m 45.625,-43.2032 21.6015,16.836 23.9844,26.3672 m 98.3984,0 11.9922,-4.7657 43.2031,-12.0312 h 43.2032 m 19.2187,-26.4063 26.4063,4.8047 m -45.625,21.6016 45.625,2.4219 m 0,-24.0235 43.2031,7.2266 m -43.2031,16.7969 43.2031,4.8047 m 35.9766,-33.6329 9.6093,2.4219 m -45.5859,9.6094 45.5859,9.5703 m -45.5859,12.0313 43.1641,9.5703 m 2.4218,-40.7813 43.2032,11.9922 m -43.2032,7.1875 43.2032,12.0313 m 26.4062,-33.6329 19.1797,4.8047 m -45.5859,9.6094 45.5859,11.9922 m -45.5859,7.2266 28.789,9.5703 m 16.7969,-38.3985 43.2031,16.7969 m -43.2031,4.8047 40.8203,16.7969 m 16.7969,-43.2032 28.789,9.6094 m -43.2031,11.9922 43.2031,14.4141 m 0,-26.4063 45.586,14.4141 m -45.586,11.9922 16.7969,7.1875 m -1063.2031,0 14.4141,45.625 m 124.7656,-45.625 24.0234,31.2109 11.9922,14.4141 m 50.3906,-45.625 26.4063,24.0234 26.4062,21.6016 m 19.2188,-45.625 43.164,28.789 26.4063,16.836 m 2.4219,-45.625 14.375,9.6093 43.2031,23.9844 24.0234,12.0313 m -2.4218,-45.625 24.0234,14.414 43.2031,19.1797 19.1797,12.0313 m 4.8047,-45.625 21.6016,11.9922 43.2031,31.2109 2.3828,2.4219 m 31.2109,-45.625 11.9922,9.6093 19.2188,36.0157 m 64.8047,0 2.3828,-4.8047 45.5859,-21.6016 h 43.2031 m 43.2032,-19.2187 h 2.4218 m -45.625,19.2187 45.625,7.1875 m 0,-26.4062 43.2032,14.414 m -43.2032,11.9922 43.2032,9.6094 m 28.789,-36.0156 16.7969,4.8047 m -45.5859,9.6093 45.5859,14.375 m -45.5859,7.2266 28.789,9.6094 m 57.5781,-45.625 2.4219,2.4218 m -43.2031,2.3829 43.2031,16.7968 m -43.2031,7.1875 43.2031,14.4141 m 0,-40.7813 43.2031,14.375 m -43.2031,4.8047 43.2031,19.2188 m -43.2031,2.3828 2.3828,2.4219 m 57.6172,-45.625 28.7891,11.9922 m -45.586,4.8046 45.586,19.2188 m -45.586,4.8047 11.9922,4.8047 m -1043.9843,0 16.7968,23.9843 11.9922,19.1797 m 131.9922,-43.164 31.2109,33.5937 16.7969,9.5703 m 55.1953,-43.164 16.7969,11.9922 45.5859,23.9843 16.836,7.1875 m 9.5703,-43.164 16.7969,7.1875 43.2031,21.6015 33.5937,14.375 m -9.5703,-43.164 21.6016,9.5703 43.2031,19.2187 33.5938,14.375 m -14.4141,-43.164 26.4063,11.9922 43.2031,21.6015 16.7969,9.5703 m -14.4141,-43.164 43.2031,23.9843 26.4063,19.1797 m -7.1875,-43.164 23.9843,14.375 36.0157,28.789 m 4.8047,-43.164 2.3828,2.3828 45.5859,36.0156 4.8047,4.7656 m 156.0156,-43.164 16.7969,7.1875 43.2031,21.6015 m 2.3828,-28.789 40.8203,21.5625 m -43.2031,7.2265 33.5938,14.375 m 21.6015,-43.164 33.5938,16.7968 m -45.586,4.7657 43.2032,21.6015 m -1046.4063,0 28.7891,43.2032 m 151.2109,-43.2032 28.7891,19.2188 40.8203,23.9844 m 64.7656,-43.2032 26.4063,14.4141 43.2031,19.2187 31.2109,9.5704 m 2.3828,-43.2032 11.9922,4.8047 43.2032,21.6016 45.625,16.7969 m -12.0313,-43.2032 12.0313,4.8047 m 0,38.3985 h 2.3828 m -2.3828,-38.3985 43.2031,19.2188"
       style="fill:none;stroke:#000000;stroke-width:6.66666985;stroke-linecap:butt;stroke-linejoin:round;stroke-miterlimit:10;stroke-opacity:1" />
    <path
       id="path118"
       transform="matrix(0.1,0,0,-0.1,0,842)"
       d="m 1876.7969,4576.7969 43.164,19.1797 m -26.3671,-43.2032 28.789,14.4141 43.2031,23.9844 m -16.7968,-38.3985 16.7968,9.6094 m 0,28.7891 14.375,4.8047 m -14.375,-33.5938 43.2032,21.6016 m -7.2266,-31.211 7.2266,4.8047 m 0,26.4063 26.4062,11.9922 m -26.4062,-38.3985 45.5859,21.6016 38.3984,16.7969 m -33.5937,-43.2032 38.3984,16.7969 45.586,21.6016 21.6015,4.8047 m 144.0235,-43.2032 9.6093,14.4141 m 43.1641,-14.4141 h 2.4219 m -45.586,14.4141 40.7813,28.7891 m -1015.1953,0 2.3828,4.8046 43.2031,38.3985 4.8047,2.3828 m 170.3906,-45.5859 2.4219,2.4218 45.5859,21.5625 43.2032,19.2188 4.8047,2.3828 m 69.6093,-45.5859 57.5782,28.789 45.625,16.7969 m 2.3828,-45.5859 40.8203,19.2187 45.5859,19.1797 m -2.4219,-38.3984 2.4219,2.4218 m 0,35.9766 16.7969,7.1875 m -16.7969,-43.1641 43.2031,21.5625 43.2032,16.836 m -28.8282,-40.8203 28.8282,14.414 m 0,26.4063 11.9922,4.7656 m -11.9922,-31.1719 45.5859,19.1797 m -19.1797,-33.5937 19.1797,9.6093 m 0,23.9844 33.5938,11.9922 m -33.5938,-35.9766 43.2031,16.7969 m -4.8047,-26.4062 4.8047,2.4218 m 0,23.9844 45.586,14.4141 m -45.586,-38.3985 45.586,16.7969 m 0,21.6016 14.414,4.7656 m -14.414,-26.3672 43.2031,11.9922 m -21.6016,-31.2109 21.6016,4.8046 m 0,26.4063 45.625,14.375 m -45.625,-40.7813 45.625,11.9922 m 0,28.7891 v 0 m 0,-28.7891 43.2031,4.8047 h 43.2031 m 40.7813,-21.6015 -40.7813,21.6015 m -924.0234,23.9844 40.8203,36.0156 16.7969,7.1875 m 208.7891,-43.2031 38.3984,19.2187 45.5859,19.1797 19.2188,4.8047 m 69.6094,-43.2031 43.2031,19.2187 45.5859,16.7969 21.6016,7.1875 m -4.8047,-43.2031 26.4062,12.0312 43.2032,16.7969 45.5859,14.375 m -33.5937,-43.2031 33.5937,14.4141 m 0,28.789 v 0 m 0,-28.789 43.2031,14.414 m -9.6093,-28.8281 9.6093,4.8047 m 0,24.0234 40.8203,14.375 m -40.8203,-38.3984 45.586,14.414 43.2031,14.4141 m -28.7891,-33.6328 28.7891,9.6094 m 0,24.0234 45.625,9.5703 m -45.625,-33.5937 45.625,11.9922 m 0,21.6015 v 0 m 0,-21.6015 43.2031,12.0312 m -43.2031,-33.6328 43.2031,7.2266 m 0,26.4062 38.3985,9.5703 m -38.3985,-35.9765 43.2031,9.6093 45.586,4.7657 m -911.9922,21.6015 26.4062,16.7969 45.586,24.0234 7.1875,4.8047 m 232.8125,-45.625 23.9844,9.6094 45.625,19.2187 43.2031,14.375 4.7656,2.4219 m 62.4219,-45.625 21.6015,12.0313 43.2032,14.375 45.5859,16.7968 4.8047,2.4219 m -4.8047,-45.625 43.2031,19.2188 45.586,14.414 m -4.7657,-33.6328 4.7657,2.4219 m 0,31.2109 43.2031,11.9922 m -43.2031,-43.2031 43.2031,14.375 45.625,14.4141 43.2031,11.9921 m -43.2031,-43.2031 43.2031,16.7969 m 0,26.4062 4.7656,2.4219 m -4.7656,-28.8281 43.2031,12.0312 m -4.8046,-28.8281 4.8046,2.4219 m 0,26.3672 45.586,12.0312 m -45.586,-38.3984 45.586,9.5703 m -832.8125,33.5938 36.0156,19.2187 45.5859,14.4141 19.2188,9.5703 m 249.5703,-43.2031 40.8203,14.414 43.2031,16.7969 35.9766,11.9922 m 57.6172,-43.2031 38.3984,16.8359 45.586,11.9922 43.2031,14.375 m 0,-43.2031 v 0 m 0,43.2031 h 2.4219 m -2.4219,-43.2031 45.625,19.2187 43.2031,11.9922 35.9766,11.9922 m -31.211,-43.2031 38.3985,14.414 45.625,14.4141 m -732.0313,14.375 24.0235,12.0312 43.2031,21.6016 33.5937,11.9922 m 268.7891,-45.625 7.2266,4.8047 45.5859,14.414 43.2031,19.1797 28.7891,7.2266 m 62.4219,-45.625 43.164,16.7969 43.2032,14.414 38.3984,14.4141 m -2.3828,-45.625 7.1875,4.8047 45.625,16.7968 m -631.211,24.0235 11.9922,4.8047 43.2032,16.7968 45.5859,14.375 24.0234,7.2266 m 268.7891,-43.2031 16.7969,4.8047 43.2031,19.1797 45.5859,11.9921 21.6016,7.2266 m 60,-43.2031 4.8047,2.3828 45.625,19.2187 m -506.4063,21.6016 19.1797,9.5703 45.625,14.4141 43.2031,14.414 16.7969,4.8047 m 271.1719,-43.2031 21.6016,9.5703 43.2031,16.836 45.625,16.7968 m -381.6016,0 26.4063,11.9922 45.5859,16.7969 40.7813,16.7969 2.4218,2.3828 45.586,12.0312 43.2031,11.9922 40.8203,16.7969 4.7656,4.8047 43.2032,9.6094 43.2031,23.9843 28.8281,7.1875 16.7969,4.8047"
       style="fill:none;stroke:#000000;stroke-width:6.66666985;stroke-linecap:butt;stroke-linejoin:round;stroke-miterlimit:10;stroke-opacity:1" />
    <path
       id="path120"
       transform="matrix(0.1,0,0,-0.1,0,842)"
       d="m 1125.5859,4132.8125 38.3985,16.7969 100.8203,43.2031 100.7812,43.2031 103.2032,40.7813 105.625,43.2031 105.5859,43.2031 216.0156,86.4063 107.9688,43.2031 110.4297,40.7812 112.7734,43.2032 110.4297,43.2031 71.9922,26.4062"
       style="fill:none;stroke:#ff0000;stroke-width:6.66666985;stroke-linecap:butt;stroke-linejoin:round;stroke-miterlimit:10;stroke-dasharray:76.8, 57.6;stroke-opacity:1" />
    <path
       id="path122"
       transform="matrix(0.1,0,0,-0.1,0,842)"
       d="M 1125.5859,3979.2188 H 2409.6094 V 5260.7812 H 1125.5859 V 3979.2188 h 1284.0235 m -1284.0235,0 h 1284.0235"
       style="fill:none;stroke:#000000;stroke-width:6.66666985;stroke-linecap:butt;stroke-linejoin:round;stroke-miterlimit:10;stroke-opacity:1" />
    <path
       id="path124"
       transform="matrix(0.1,0,0,-0.1,0,842)"
       d="M 1168.7891,3979.2188 V 4020 m 84.0234,-40.7812 V 4020 m 86.4063,-40.7812 v 81.5625 m 86.3671,-81.5625 V 4020 m 84.0235,-40.7812 V 4020 m 86.4062,-40.7812 V 4020 m 86.3672,-40.7812 V 4020 m 84.0235,-40.7812 v 81.5625 m 86.4062,-81.5625 V 4020 m 86.4063,-40.7812 V 4020 m 83.9843,-40.7812 V 4020 m 86.4063,-40.7812 V 4020 m 86.4062,-40.7812 v 81.5625 M 2280,3979.2188 V 4020 m 86.4063,-40.7812 V 4020 M 1125.5859,5260.7812 h 1284.0235"
       style="fill:none;stroke:#000000;stroke-width:6.66666985;stroke-linecap:butt;stroke-linejoin:round;stroke-miterlimit:10;stroke-opacity:1" />
    <path
       id="path126"
       transform="matrix(0.1,0,0,-0.1,0,842)"
       d="M 1168.7891,5260.7812 V 5220 m 84.0234,40.7812 V 5220 m 86.4063,40.7812 v -81.5625 m 86.3671,81.5625 V 5220 m 84.0235,40.7812 V 5220 m 86.4062,40.7812 V 5220 m 86.3672,40.7812 V 5220 m 84.0235,40.7812 v -81.5625 m 86.4062,81.5625 V 5220 m 86.4063,40.7812 V 5220 m 83.9843,40.7812 V 5220 m 86.4063,40.7812 V 5220 m 86.4062,40.7812 v -81.5625 M 2280,5260.7812 V 5220 m 86.4063,40.7812 V 5220 M 1125.5859,3979.2188 v 1281.5624"
       style="fill:none;stroke:#000000;stroke-width:6.66666985;stroke-linecap:butt;stroke-linejoin:round;stroke-miterlimit:10;stroke-opacity:1" />
    <path
       id="path128"
       transform="matrix(0.1,0,0,-0.1,0,842)"
       d="m 1125.5859,3979.2188 h 81.6016 m -81.6016,83.9843 h 40.8204 m -40.8204,86.4063 h 40.8204 m -40.8204,86.4062 h 40.8204 M 1125.5859,4320 h 40.8204 m -40.8204,86.4062 h 81.6016 m -81.6016,86.4063 h 40.8204 m -40.8204,83.9844 h 40.8204 m -40.8204,86.4062 h 40.8204 m -40.8204,86.4063 h 40.8204 m -40.8204,83.9843 h 81.6016 M 1125.5859,4920 h 40.8204 m -40.8204,83.9844 h 40.8204 m -40.8204,86.4062 h 40.8204 m -40.8204,86.4063 h 40.8204 m -40.8204,83.9843 h 81.6016 M 2409.6094,3979.2188 v 1281.5624"
       style="fill:none;stroke:#000000;stroke-width:6.66666985;stroke-linecap:butt;stroke-linejoin:round;stroke-miterlimit:10;stroke-opacity:1" />
    <path
       id="path130"
       transform="matrix(0.1,0,0,-0.1,0,842)"
       d="m 2409.6094,3979.2188 h -81.6016 m 81.6016,83.9843 h -40.8203 m 40.8203,86.4063 h -40.8203 m 40.8203,86.4062 h -40.8203 M 2409.6094,4320 h -40.8203 m 40.8203,86.4062 h -81.6016 m 81.6016,86.4063 h -40.8203 m 40.8203,83.9844 h -40.8203 m 40.8203,86.4062 h -40.8203 m 40.8203,86.4063 h -40.8203 m 40.8203,83.9843 h -81.6016 M 2409.6094,4920 h -40.8203 m 40.8203,83.9844 h -40.8203 m 40.8203,86.4062 h -40.8203 m 40.8203,86.4063 h -40.8203 m 40.8203,83.9843 h -81.6016"
       style="fill:none;stroke:#000000;stroke-width:6.66666985;stroke-linecap:butt;stroke-linejoin:round;stroke-miterlimit:10;stroke-opacity:1" />
    <path
       id="path132"
       transform="matrix(0.1,0,0,-0.1,0,842)"
       d="m 1639.2188,4728.0078 h 153.5937 m 0,21.6016 v -45.625 m -153.5937,24.0234 h -156.0157 m 0,21.6016 v -45.625 m 156.0157,24.0234 v 180 m 21.5625,0 h -45.586 m 24.0235,-180 v -182.4219 m 21.5625,0 h -45.586"
       style="fill:none;stroke:#000000;stroke-width:10;stroke-linecap:butt;stroke-linejoin:round;stroke-miterlimit:10;stroke-opacity:1" />
    <path
       id="path134"
       transform="matrix(0.1,0,0,-0.1,0,842)"
       d="m 1850.3906,4728.0078 -4.8047,7.1875 -2.3828,7.1875 -4.8047,4.8047 -2.3828,7.2266 -4.8047,7.1875 -2.4218,4.8046 -4.8047,7.1875 -2.3828,4.8047 -4.8047,7.1875 -2.3828,4.8047 -4.8047,4.8047 -2.4219,7.1875 -4.8047,4.8047 -2.3828,4.8047 -4.8047,4.8047 -2.3828,7.1875 -4.8047,4.8047 -2.4219,4.8046 -4.8046,4.8047 -4.7657,4.8047 -2.4218,4.8047 -9.6094,9.6094 -2.3828,4.7656 -14.4141,14.4141 -4.8047,7.1875 -4.7656,4.8047 -2.4219,4.8046 -7.1875,4.8047 -9.6094,9.6094 -4.8046,7.1875 -4.8047,4.8047 -7.1875,4.8047 -11.9922,11.9922 -7.2266,4.8047 -4.7656,4.8046 -7.2266,7.1875 -7.1875,4.8047 -9.6093,7.1875 -7.1875,4.8047 -7.1875,7.2266 -9.6094,4.7656 -9.6094,7.2266 -9.6094,4.8047 -11.9922,7.1875"
       style="fill:none;stroke:#000000;stroke-width:6.66666985;stroke-linecap:butt;stroke-linejoin:round;stroke-miterlimit:10;stroke-opacity:1" />
    <path
       id="path136"
       transform="matrix(0.1,0,0,-0.1,0,842)"
       d="m 1598.3984,5001.6016 -9.5703,4.8046 -12.0312,4.7657 -11.9922,7.2265 -11.9922,4.8047 -11.9922,2.3828 -11.9922,4.8047 -14.414,2.3828 -14.4141,2.4219 h -38.3984 l -14.375,-4.8047 -12.0313,-4.8047 -9.5703,-4.8047 -12.0312,-7.1875 -7.1875,-9.6093 -9.6094,-9.6094 -7.1875,-11.9922 -4.8047,-11.9922 -2.3828,-11.9922 -4.8047,-14.414 -2.4219,-11.9922 v -40.8203 l 2.4219,-14.375 2.3828,-11.9922 v -12.0313 l 2.4219,-11.9922 4.8047,-11.9921 2.3828,-11.9922 2.3828,-9.6094 4.8047,-11.9922 2.4219,-9.6094 4.8046,-9.6093 2.3829,-7.1875 4.8046,-9.6094 2.3829,-9.5703 4.8046,-7.2266 2.4219,-7.1875 4.8047,-7.1875 4.7656,-9.6094 2.4219,-4.8047 4.8047,-7.1875 2.3828,-7.2265 4.8047,-7.1875 2.4219,-4.8047 4.7656,-7.1875 2.4219,-4.8047 4.8047,-7.1875 2.3828,-4.8047 4.8047,-4.8047 2.4218,-7.2265 4.7657,-4.7657 2.4218,-4.8046 4.8047,-4.8047 2.3828,-7.1875 4.8047,-4.8047 2.3828,-4.8047 9.6094,-9.6094 2.4219,-4.8047 4.8047,-4.8047 4.7656,-4.8046 2.4219,-4.8047 4.8047,-4.7657 9.6093,-9.6093 4.7657,-7.1875 4.8046,-4.8047 2.4219,-4.8047 7.1875,-4.8047 14.4141,-14.4141 4.8047,-7.1875 7.1875,-4.8046 16.7968,-16.7969 7.1875,-4.8047 7.2266,-7.1875 7.1875,-4.8047 9.6094,-7.1875 7.1875,-4.8047 9.6094,-7.2265 7.1875,-4.8047 9.6093,-7.1875 9.6094,-4.8047 11.9922,-7.1875 9.6094,-4.8047 11.9922,-4.8047 11.9921,-7.1875 11.9922,-4.8047 11.9922,-2.3828 12.0313,-4.8047 14.375,-2.4219 14.414,-2.3828 h 38.3985 l 14.414,4.8047 11.9922,4.8047 9.5703,4.7656 12.0313,7.2266 7.1875,9.6094 9.6094,9.5703 7.1875,11.9922 4.8046,12.0312 2.3829,11.9922 4.8046,14.4141 2.4219,11.9922 v 40.7812 l -2.4219,14.4141 -2.3828,11.9922 v 11.9921 l -2.4218,11.9922 -4.7657,12.0313 -2.4218,11.9922 -2.3829,9.6093 -4.8046,11.9922 -2.4219,9.6094 -4.8047,9.5703 -2.3828,9.6094 -4.8047,7.1875 -2.3828,9.6094 -4.8047,7.1875 -2.4219,7.2265 -4.8047,9.6094"
       style="fill:none;stroke:#000000;stroke-width:6.66666985;stroke-linecap:butt;stroke-linejoin:round;stroke-miterlimit:10;stroke-opacity:1" />
    <path
       id="path138"
       transform="matrix(0.1,0,0,-0.1,0,842)"
       d="m 1881.6016,4425.5859 h -91.211 m 45.625,45.625 V 4380"
       style="fill:none;stroke:#000000;stroke-width:16.66670036;stroke-linecap:butt;stroke-linejoin:round;stroke-miterlimit:10;stroke-opacity:1" />
    <path
       id="path140"
       d="m 164.16016,372.07812 0.96093,-0.47656 0.48047,-0.48047 0.71875,-0.48047 0.23828,-0.96093 v -0.71875 L 166.32031,368 l -0.71875,-0.48047 -0.48047,-0.71875 -0.96093,-0.24219 h -0.71875 l -0.96094,0.24219 L 162,367.51953 161.51953,368 l -0.48047,0.96094 v 0.71875 l 0.48047,0.96093 0.96094,0.96094 0.96094,0.47656 h 0.71875"
       style="fill:#ffff00;fill-opacity:1;fill-rule:evenodd;stroke:none" />
    <path
       id="path142"
       transform="matrix(0.1,0,0,-0.1,0,842)"
       d="m 1641.6016,4699.2187 9.6093,4.7657 4.8047,4.8047 4.7657,4.8046 4.8046,9.6094 v 7.1875 l -4.8046,9.6094 -4.7657,4.8047 -4.8047,4.8047 -9.6093,4.8047 h -7.1875 l -9.6094,-4.8047 -9.6094,-9.6094 -4.8047,-9.6094 v -7.1875 l 4.8047,-9.6094 9.6094,-9.6093 9.6094,-4.7657 h 7.1875"
       style="fill:none;stroke:#000000;stroke-width:6.66666985;stroke-linecap:butt;stroke-linejoin:round;stroke-miterlimit:10;stroke-opacity:1" />
  </g>
</svg>
