<?xml version="1.0" encoding="utf-8" standalone="no"?>
<!DOCTYPE svg PUBLIC "-//W3C//DTD SVG 1.1//EN"
  "http://www.w3.org/Graphics/SVG/1.1/DTD/svg11.dtd">
<!-- Created with matplotlib (https://matplotlib.org/) -->
<svg height="211.635469pt" version="1.1" viewBox="0 0 385.78125 211.635469" width="385.78125pt" xmlns="http://www.w3.org/2000/svg" xmlns:xlink="http://www.w3.org/1999/xlink">
 <defs>
  <style type="text/css">
*{stroke-linecap:butt;stroke-linejoin:round;}
  </style>
 </defs>
 <g id="figure_1">
  <g id="patch_1">
   <path d="M 0 211.635469 
L 385.78125 211.635469 
L 385.78125 0 
L 0 0 
z
"/>
  </g>
  <g id="axes_1">
   <g id="patch_2">
    <path d="M 43.78125 174.079219 
L 378.58125 174.079219 
L 378.58125 10.999219 
L 43.78125 10.999219 
z
"/>
   </g>
   <g id="matplotlib.axis_1">
    <g id="xtick_1">
     <g id="line2d_1">
      <defs>
       <path d="M 0 0 
L 0 3.5 
" id="mf182ffa047" style="stroke:#ffffff;stroke-width:0.8;"/>
      </defs>
      <g>
       <use style="fill:#ffffff;stroke:#ffffff;stroke-width:0.8;" x="92.776372" xlink:href="#mf182ffa047" y="174.079219"/>
      </g>
     </g>
     <g id="text_1">
      <!-- 400 -->
      <defs>
       <path d="M 37.796875 64.3125 
L 12.890625 25.390625 
L 37.796875 25.390625 
z
M 35.203125 72.90625 
L 47.609375 72.90625 
L 47.609375 25.390625 
L 58.015625 25.390625 
L 58.015625 17.1875 
L 47.609375 17.1875 
L 47.609375 0 
L 37.796875 0 
L 37.796875 17.1875 
L 4.890625 17.1875 
L 4.890625 26.703125 
z
" id="DejaVuSans-52"/>
       <path d="M 31.78125 66.40625 
Q 24.171875 66.40625 20.328125 58.90625 
Q 16.5 51.421875 16.5 36.375 
Q 16.5 21.390625 20.328125 13.890625 
Q 24.171875 6.390625 31.78125 6.390625 
Q 39.453125 6.390625 43.28125 13.890625 
Q 47.125 21.390625 47.125 36.375 
Q 47.125 51.421875 43.28125 58.90625 
Q 39.453125 66.40625 31.78125 66.40625 
z
M 31.78125 74.21875 
Q 44.046875 74.21875 50.515625 64.515625 
Q 56.984375 54.828125 56.984375 36.375 
Q 56.984375 17.96875 50.515625 8.265625 
Q 44.046875 -1.421875 31.78125 -1.421875 
Q 19.53125 -1.421875 13.0625 8.265625 
Q 6.59375 17.96875 6.59375 36.375 
Q 6.59375 54.828125 13.0625 64.515625 
Q 19.53125 74.21875 31.78125 74.21875 
z
" id="DejaVuSans-48"/>
      </defs>
      <g style="fill:#ffffff;" transform="translate(83.232622 188.677656)scale(0.1 -0.1)">
       <use xlink:href="#DejaVuSans-52"/>
       <use x="63.623047" xlink:href="#DejaVuSans-48"/>
       <use x="127.246094" xlink:href="#DejaVuSans-48"/>
      </g>
     </g>
    </g>
    <g id="xtick_2">
     <g id="line2d_2">
      <g>
       <use style="fill:#ffffff;stroke:#ffffff;stroke-width:0.8;" x="174.434909" xlink:href="#mf182ffa047" y="174.079219"/>
      </g>
     </g>
     <g id="text_2">
      <!-- 600 -->
      <defs>
       <path d="M 33.015625 40.375 
Q 26.375 40.375 22.484375 35.828125 
Q 18.609375 31.296875 18.609375 23.390625 
Q 18.609375 15.53125 22.484375 10.953125 
Q 26.375 6.390625 33.015625 6.390625 
Q 39.65625 6.390625 43.53125 10.953125 
Q 47.40625 15.53125 47.40625 23.390625 
Q 47.40625 31.296875 43.53125 35.828125 
Q 39.65625 40.375 33.015625 40.375 
z
M 52.59375 71.296875 
L 52.59375 62.3125 
Q 48.875 64.0625 45.09375 64.984375 
Q 41.3125 65.921875 37.59375 65.921875 
Q 27.828125 65.921875 22.671875 59.328125 
Q 17.53125 52.734375 16.796875 39.40625 
Q 19.671875 43.65625 24.015625 45.921875 
Q 28.375 48.1875 33.59375 48.1875 
Q 44.578125 48.1875 50.953125 41.515625 
Q 57.328125 34.859375 57.328125 23.390625 
Q 57.328125 12.15625 50.6875 5.359375 
Q 44.046875 -1.421875 33.015625 -1.421875 
Q 20.359375 -1.421875 13.671875 8.265625 
Q 6.984375 17.96875 6.984375 36.375 
Q 6.984375 53.65625 15.1875 63.9375 
Q 23.390625 74.21875 37.203125 74.21875 
Q 40.921875 74.21875 44.703125 73.484375 
Q 48.484375 72.75 52.59375 71.296875 
z
" id="DejaVuSans-54"/>
      </defs>
      <g style="fill:#ffffff;" transform="translate(164.891159 188.677656)scale(0.1 -0.1)">
       <use xlink:href="#DejaVuSans-54"/>
       <use x="63.623047" xlink:href="#DejaVuSans-48"/>
       <use x="127.246094" xlink:href="#DejaVuSans-48"/>
      </g>
     </g>
    </g>
    <g id="xtick_3">
     <g id="line2d_3">
      <g>
       <use style="fill:#ffffff;stroke:#ffffff;stroke-width:0.8;" x="256.093445" xlink:href="#mf182ffa047" y="174.079219"/>
      </g>
     </g>
     <g id="text_3">
      <!-- 800 -->
      <defs>
       <path d="M 31.78125 34.625 
Q 24.75 34.625 20.71875 30.859375 
Q 16.703125 27.09375 16.703125 20.515625 
Q 16.703125 13.921875 20.71875 10.15625 
Q 24.75 6.390625 31.78125 6.390625 
Q 38.8125 6.390625 42.859375 10.171875 
Q 46.921875 13.96875 46.921875 20.515625 
Q 46.921875 27.09375 42.890625 30.859375 
Q 38.875 34.625 31.78125 34.625 
z
M 21.921875 38.8125 
Q 15.578125 40.375 12.03125 44.71875 
Q 8.5 49.078125 8.5 55.328125 
Q 8.5 64.0625 14.71875 69.140625 
Q 20.953125 74.21875 31.78125 74.21875 
Q 42.671875 74.21875 48.875 69.140625 
Q 55.078125 64.0625 55.078125 55.328125 
Q 55.078125 49.078125 51.53125 44.71875 
Q 48 40.375 41.703125 38.8125 
Q 48.828125 37.15625 52.796875 32.3125 
Q 56.78125 27.484375 56.78125 20.515625 
Q 56.78125 9.90625 50.3125 4.234375 
Q 43.84375 -1.421875 31.78125 -1.421875 
Q 19.734375 -1.421875 13.25 4.234375 
Q 6.78125 9.90625 6.78125 20.515625 
Q 6.78125 27.484375 10.78125 32.3125 
Q 14.796875 37.15625 21.921875 38.8125 
z
M 18.3125 54.390625 
Q 18.3125 48.734375 21.84375 45.5625 
Q 25.390625 42.390625 31.78125 42.390625 
Q 38.140625 42.390625 41.71875 45.5625 
Q 45.3125 48.734375 45.3125 54.390625 
Q 45.3125 60.0625 41.71875 63.234375 
Q 38.140625 66.40625 31.78125 66.40625 
Q 25.390625 66.40625 21.84375 63.234375 
Q 18.3125 60.0625 18.3125 54.390625 
z
" id="DejaVuSans-56"/>
      </defs>
      <g style="fill:#ffffff;" transform="translate(246.549695 188.677656)scale(0.1 -0.1)">
       <use xlink:href="#DejaVuSans-56"/>
       <use x="63.623047" xlink:href="#DejaVuSans-48"/>
       <use x="127.246094" xlink:href="#DejaVuSans-48"/>
      </g>
     </g>
    </g>
    <g id="xtick_4">
     <g id="line2d_4">
      <g>
       <use style="fill:#ffffff;stroke:#ffffff;stroke-width:0.8;" x="337.751982" xlink:href="#mf182ffa047" y="174.079219"/>
      </g>
     </g>
     <g id="text_4">
      <!-- 1000 -->
      <defs>
       <path d="M 12.40625 8.296875 
L 28.515625 8.296875 
L 28.515625 63.921875 
L 10.984375 60.40625 
L 10.984375 69.390625 
L 28.421875 72.90625 
L 38.28125 72.90625 
L 38.28125 8.296875 
L 54.390625 8.296875 
L 54.390625 0 
L 12.40625 0 
z
" id="DejaVuSans-49"/>
      </defs>
      <g style="fill:#ffffff;" transform="translate(325.026982 188.677656)scale(0.1 -0.1)">
       <use xlink:href="#DejaVuSans-49"/>
       <use x="63.623047" xlink:href="#DejaVuSans-48"/>
       <use x="127.246094" xlink:href="#DejaVuSans-48"/>
       <use x="190.869141" xlink:href="#DejaVuSans-48"/>
      </g>
     </g>
    </g>
    <g id="xtick_5">
     <g id="line2d_5">
      <defs>
       <path d="M 0 0 
L 0 2 
" id="m06d66c4c61" style="stroke:#ffffff;stroke-width:0.6;"/>
      </defs>
      <g>
       <use style="fill:#ffffff;stroke:#ffffff;stroke-width:0.6;" x="51.947104" xlink:href="#m06d66c4c61" y="174.079219"/>
      </g>
     </g>
    </g>
    <g id="xtick_6">
     <g id="line2d_6">
      <g>
       <use style="fill:#ffffff;stroke:#ffffff;stroke-width:0.6;" x="72.361738" xlink:href="#m06d66c4c61" y="174.079219"/>
      </g>
     </g>
    </g>
    <g id="xtick_7">
     <g id="line2d_7">
      <g>
       <use style="fill:#ffffff;stroke:#ffffff;stroke-width:0.6;" x="113.191006" xlink:href="#m06d66c4c61" y="174.079219"/>
      </g>
     </g>
    </g>
    <g id="xtick_8">
     <g id="line2d_8">
      <g>
       <use style="fill:#ffffff;stroke:#ffffff;stroke-width:0.6;" x="133.60564" xlink:href="#m06d66c4c61" y="174.079219"/>
      </g>
     </g>
    </g>
    <g id="xtick_9">
     <g id="line2d_9">
      <g>
       <use style="fill:#ffffff;stroke:#ffffff;stroke-width:0.6;" x="154.020274" xlink:href="#m06d66c4c61" y="174.079219"/>
      </g>
     </g>
    </g>
    <g id="xtick_10">
     <g id="line2d_10">
      <g>
       <use style="fill:#ffffff;stroke:#ffffff;stroke-width:0.6;" x="194.849543" xlink:href="#m06d66c4c61" y="174.079219"/>
      </g>
     </g>
    </g>
    <g id="xtick_11">
     <g id="line2d_11">
      <g>
       <use style="fill:#ffffff;stroke:#ffffff;stroke-width:0.6;" x="215.264177" xlink:href="#m06d66c4c61" y="174.079219"/>
      </g>
     </g>
    </g>
    <g id="xtick_12">
     <g id="line2d_12">
      <g>
       <use style="fill:#ffffff;stroke:#ffffff;stroke-width:0.6;" x="235.678811" xlink:href="#m06d66c4c61" y="174.079219"/>
      </g>
     </g>
    </g>
    <g id="xtick_13">
     <g id="line2d_13">
      <g>
       <use style="fill:#ffffff;stroke:#ffffff;stroke-width:0.6;" x="276.508079" xlink:href="#m06d66c4c61" y="174.079219"/>
      </g>
     </g>
    </g>
    <g id="xtick_14">
     <g id="line2d_14">
      <g>
       <use style="fill:#ffffff;stroke:#ffffff;stroke-width:0.6;" x="296.922713" xlink:href="#m06d66c4c61" y="174.079219"/>
      </g>
     </g>
    </g>
    <g id="xtick_15">
     <g id="line2d_15">
      <g>
       <use style="fill:#ffffff;stroke:#ffffff;stroke-width:0.6;" x="317.337348" xlink:href="#m06d66c4c61" y="174.079219"/>
      </g>
     </g>
    </g>
    <g id="xtick_16">
     <g id="line2d_16">
      <g>
       <use style="fill:#ffffff;stroke:#ffffff;stroke-width:0.6;" x="358.166616" xlink:href="#m06d66c4c61" y="174.079219"/>
      </g>
     </g>
    </g>
    <g id="xtick_17">
     <g id="line2d_17">
      <g>
       <use style="fill:#ffffff;stroke:#ffffff;stroke-width:0.6;" x="378.58125" xlink:href="#m06d66c4c61" y="174.079219"/>
      </g>
     </g>
    </g>
    <g id="text_5">
     <!-- $\lambda \ \left( \mathrm{nm} \right)$ -->
     <defs>
      <path d="M 36.71875 67.4375 
L 48.828125 0 
L 39.3125 0 
L 31.84375 40.4375 
L 5.125 0 
L -4.390625 0 
L 29.734375 52.4375 
L 28.03125 62.109375 
Q 26.953125 68.265625 21.734375 68.265625 
L 17.046875 68.265625 
L 18.5 75.984375 
L 24.21875 75.875 
Q 35.203125 75.734375 36.71875 67.4375 
z
" id="DejaVuSans-Oblique-955"/>
      <path d="M 31 75.875 
Q 24.46875 64.65625 21.28125 53.65625 
Q 18.109375 42.671875 18.109375 31.390625 
Q 18.109375 20.125 21.3125 9.0625 
Q 24.515625 -2 31 -13.1875 
L 23.1875 -13.1875 
Q 15.875 -1.703125 12.234375 9.375 
Q 8.59375 20.453125 8.59375 31.390625 
Q 8.59375 42.28125 12.203125 53.3125 
Q 15.828125 64.359375 23.1875 75.875 
z
" id="DejaVuSans-40"/>
      <path d="M 54.890625 33.015625 
L 54.890625 0 
L 45.90625 0 
L 45.90625 32.71875 
Q 45.90625 40.484375 42.875 44.328125 
Q 39.84375 48.1875 33.796875 48.1875 
Q 26.515625 48.1875 22.3125 43.546875 
Q 18.109375 38.921875 18.109375 30.90625 
L 18.109375 0 
L 9.078125 0 
L 9.078125 54.6875 
L 18.109375 54.6875 
L 18.109375 46.1875 
Q 21.34375 51.125 25.703125 53.5625 
Q 30.078125 56 35.796875 56 
Q 45.21875 56 50.046875 50.171875 
Q 54.890625 44.34375 54.890625 33.015625 
z
" id="DejaVuSans-110"/>
      <path d="M 52 44.1875 
Q 55.375 50.25 60.0625 53.125 
Q 64.75 56 71.09375 56 
Q 79.640625 56 84.28125 50.015625 
Q 88.921875 44.046875 88.921875 33.015625 
L 88.921875 0 
L 79.890625 0 
L 79.890625 32.71875 
Q 79.890625 40.578125 77.09375 44.375 
Q 74.3125 48.1875 68.609375 48.1875 
Q 61.625 48.1875 57.5625 43.546875 
Q 53.515625 38.921875 53.515625 30.90625 
L 53.515625 0 
L 44.484375 0 
L 44.484375 32.71875 
Q 44.484375 40.625 41.703125 44.40625 
Q 38.921875 48.1875 33.109375 48.1875 
Q 26.21875 48.1875 22.15625 43.53125 
Q 18.109375 38.875 18.109375 30.90625 
L 18.109375 0 
L 9.078125 0 
L 9.078125 54.6875 
L 18.109375 54.6875 
L 18.109375 46.1875 
Q 21.1875 51.21875 25.484375 53.609375 
Q 29.78125 56 35.6875 56 
Q 41.65625 56 45.828125 52.96875 
Q 50 49.953125 52 44.1875 
z
" id="DejaVuSans-109"/>
      <path d="M 8.015625 75.875 
L 15.828125 75.875 
Q 23.140625 64.359375 26.78125 53.3125 
Q 30.421875 42.28125 30.421875 31.390625 
Q 30.421875 20.453125 26.78125 9.375 
Q 23.140625 -1.703125 15.828125 -13.1875 
L 8.015625 -13.1875 
Q 14.5 -2 17.703125 9.0625 
Q 20.90625 20.125 20.90625 31.390625 
Q 20.90625 42.671875 17.703125 53.65625 
Q 14.5 64.65625 8.015625 75.875 
z
" id="DejaVuSans-41"/>
     </defs>
     <g style="fill:#ffffff;" transform="translate(194.63125 202.355781)scale(0.1 -0.1)">
      <use transform="translate(0 0.015625)" xlink:href="#DejaVuSans-Oblique-955"/>
      <use transform="translate(91.650066 0.015625)" xlink:href="#DejaVuSans-40"/>
      <use transform="translate(130.663738 0.015625)" xlink:href="#DejaVuSans-110"/>
      <use transform="translate(194.042644 0.015625)" xlink:href="#DejaVuSans-109"/>
      <use transform="translate(291.454753 0.015625)" xlink:href="#DejaVuSans-41"/>
     </g>
    </g>
   </g>
   <g id="matplotlib.axis_2">
    <g id="ytick_1">
     <g id="line2d_18">
      <defs>
       <path d="M 0 0 
L -3.5 0 
" id="m9e4e39c055" style="stroke:#ffffff;stroke-width:0.8;"/>
      </defs>
      <g>
       <use style="fill:#ffffff;stroke:#ffffff;stroke-width:0.8;" x="43.78125" xlink:href="#m9e4e39c055" y="174.079219"/>
      </g>
     </g>
     <g id="text_6">
      <!-- 0.0 -->
      <defs>
       <path d="M 10.6875 12.40625 
L 21 12.40625 
L 21 0 
L 10.6875 0 
z
" id="DejaVuSans-46"/>
      </defs>
      <g style="fill:#ffffff;" transform="translate(20.878125 177.878438)scale(0.1 -0.1)">
       <use xlink:href="#DejaVuSans-48"/>
       <use x="63.623047" xlink:href="#DejaVuSans-46"/>
       <use x="95.410156" xlink:href="#DejaVuSans-48"/>
      </g>
     </g>
    </g>
    <g id="ytick_2">
     <g id="line2d_19">
      <g>
       <use style="fill:#ffffff;stroke:#ffffff;stroke-width:0.8;" x="43.78125" xlink:href="#m9e4e39c055" y="141.463219"/>
      </g>
     </g>
     <g id="text_7">
      <!-- 0.2 -->
      <defs>
       <path d="M 19.1875 8.296875 
L 53.609375 8.296875 
L 53.609375 0 
L 7.328125 0 
L 7.328125 8.296875 
Q 12.9375 14.109375 22.625 23.890625 
Q 32.328125 33.6875 34.8125 36.53125 
Q 39.546875 41.84375 41.421875 45.53125 
Q 43.3125 49.21875 43.3125 52.78125 
Q 43.3125 58.59375 39.234375 62.25 
Q 35.15625 65.921875 28.609375 65.921875 
Q 23.96875 65.921875 18.8125 64.3125 
Q 13.671875 62.703125 7.8125 59.421875 
L 7.8125 69.390625 
Q 13.765625 71.78125 18.9375 73 
Q 24.125 74.21875 28.421875 74.21875 
Q 39.75 74.21875 46.484375 68.546875 
Q 53.21875 62.890625 53.21875 53.421875 
Q 53.21875 48.921875 51.53125 44.890625 
Q 49.859375 40.875 45.40625 35.40625 
Q 44.1875 33.984375 37.640625 27.21875 
Q 31.109375 20.453125 19.1875 8.296875 
z
" id="DejaVuSans-50"/>
      </defs>
      <g style="fill:#ffffff;" transform="translate(20.878125 145.262438)scale(0.1 -0.1)">
       <use xlink:href="#DejaVuSans-48"/>
       <use x="63.623047" xlink:href="#DejaVuSans-46"/>
       <use x="95.410156" xlink:href="#DejaVuSans-50"/>
      </g>
     </g>
    </g>
    <g id="ytick_3">
     <g id="line2d_20">
      <g>
       <use style="fill:#ffffff;stroke:#ffffff;stroke-width:0.8;" x="43.78125" xlink:href="#m9e4e39c055" y="108.847219"/>
      </g>
     </g>
     <g id="text_8">
      <!-- 0.4 -->
      <g style="fill:#ffffff;" transform="translate(20.878125 112.646438)scale(0.1 -0.1)">
       <use xlink:href="#DejaVuSans-48"/>
       <use x="63.623047" xlink:href="#DejaVuSans-46"/>
       <use x="95.410156" xlink:href="#DejaVuSans-52"/>
      </g>
     </g>
    </g>
    <g id="ytick_4">
     <g id="line2d_21">
      <g>
       <use style="fill:#ffffff;stroke:#ffffff;stroke-width:0.8;" x="43.78125" xlink:href="#m9e4e39c055" y="76.231219"/>
      </g>
     </g>
     <g id="text_9">
      <!-- 0.6 -->
      <g style="fill:#ffffff;" transform="translate(20.878125 80.030437)scale(0.1 -0.1)">
       <use xlink:href="#DejaVuSans-48"/>
       <use x="63.623047" xlink:href="#DejaVuSans-46"/>
       <use x="95.410156" xlink:href="#DejaVuSans-54"/>
      </g>
     </g>
    </g>
    <g id="ytick_5">
     <g id="line2d_22">
      <g>
       <use style="fill:#ffffff;stroke:#ffffff;stroke-width:0.8;" x="43.78125" xlink:href="#m9e4e39c055" y="43.615219"/>
      </g>
     </g>
     <g id="text_10">
      <!-- 0.8 -->
      <g style="fill:#ffffff;" transform="translate(20.878125 47.414437)scale(0.1 -0.1)">
       <use xlink:href="#DejaVuSans-48"/>
       <use x="63.623047" xlink:href="#DejaVuSans-46"/>
       <use x="95.410156" xlink:href="#DejaVuSans-56"/>
      </g>
     </g>
    </g>
    <g id="ytick_6">
     <g id="line2d_23">
      <g>
       <use style="fill:#ffffff;stroke:#ffffff;stroke-width:0.8;" x="43.78125" xlink:href="#m9e4e39c055" y="10.999219"/>
      </g>
     </g>
     <g id="text_11">
      <!-- 1.0 -->
      <g style="fill:#ffffff;" transform="translate(20.878125 14.798437)scale(0.1 -0.1)">
       <use xlink:href="#DejaVuSans-49"/>
       <use x="63.623047" xlink:href="#DejaVuSans-46"/>
       <use x="95.410156" xlink:href="#DejaVuSans-48"/>
      </g>
     </g>
    </g>
    <g id="ytick_7">
     <g id="line2d_24">
      <defs>
       <path d="M 0 0 
L -2 0 
" id="m6661cc6b7a" style="stroke:#ffffff;stroke-width:0.6;"/>
      </defs>
      <g>
       <use style="fill:#ffffff;stroke:#ffffff;stroke-width:0.6;" x="43.78125" xlink:href="#m6661cc6b7a" y="165.925219"/>
      </g>
     </g>
    </g>
    <g id="ytick_8">
     <g id="line2d_25">
      <g>
       <use style="fill:#ffffff;stroke:#ffffff;stroke-width:0.6;" x="43.78125" xlink:href="#m6661cc6b7a" y="157.771219"/>
      </g>
     </g>
    </g>
    <g id="ytick_9">
     <g id="line2d_26">
      <g>
       <use style="fill:#ffffff;stroke:#ffffff;stroke-width:0.6;" x="43.78125" xlink:href="#m6661cc6b7a" y="149.617219"/>
      </g>
     </g>
    </g>
    <g id="ytick_10">
     <g id="line2d_27">
      <g>
       <use style="fill:#ffffff;stroke:#ffffff;stroke-width:0.6;" x="43.78125" xlink:href="#m6661cc6b7a" y="133.309219"/>
      </g>
     </g>
    </g>
    <g id="ytick_11">
     <g id="line2d_28">
      <g>
       <use style="fill:#ffffff;stroke:#ffffff;stroke-width:0.6;" x="43.78125" xlink:href="#m6661cc6b7a" y="125.155219"/>
      </g>
     </g>
    </g>
    <g id="ytick_12">
     <g id="line2d_29">
      <g>
       <use style="fill:#ffffff;stroke:#ffffff;stroke-width:0.6;" x="43.78125" xlink:href="#m6661cc6b7a" y="117.001219"/>
      </g>
     </g>
    </g>
    <g id="ytick_13">
     <g id="line2d_30">
      <g>
       <use style="fill:#ffffff;stroke:#ffffff;stroke-width:0.6;" x="43.78125" xlink:href="#m6661cc6b7a" y="100.693219"/>
      </g>
     </g>
    </g>
    <g id="ytick_14">
     <g id="line2d_31">
      <g>
       <use style="fill:#ffffff;stroke:#ffffff;stroke-width:0.6;" x="43.78125" xlink:href="#m6661cc6b7a" y="92.539219"/>
      </g>
     </g>
    </g>
    <g id="ytick_15">
     <g id="line2d_32">
      <g>
       <use style="fill:#ffffff;stroke:#ffffff;stroke-width:0.6;" x="43.78125" xlink:href="#m6661cc6b7a" y="84.385219"/>
      </g>
     </g>
    </g>
    <g id="ytick_16">
     <g id="line2d_33">
      <g>
       <use style="fill:#ffffff;stroke:#ffffff;stroke-width:0.6;" x="43.78125" xlink:href="#m6661cc6b7a" y="68.077219"/>
      </g>
     </g>
    </g>
    <g id="ytick_17">
     <g id="line2d_34">
      <g>
       <use style="fill:#ffffff;stroke:#ffffff;stroke-width:0.6;" x="43.78125" xlink:href="#m6661cc6b7a" y="59.923219"/>
      </g>
     </g>
    </g>
    <g id="ytick_18">
     <g id="line2d_35">
      <g>
       <use style="fill:#ffffff;stroke:#ffffff;stroke-width:0.6;" x="43.78125" xlink:href="#m6661cc6b7a" y="51.769219"/>
      </g>
     </g>
    </g>
    <g id="ytick_19">
     <g id="line2d_36">
      <g>
       <use style="fill:#ffffff;stroke:#ffffff;stroke-width:0.6;" x="43.78125" xlink:href="#m6661cc6b7a" y="35.461219"/>
      </g>
     </g>
    </g>
    <g id="ytick_20">
     <g id="line2d_37">
      <g>
       <use style="fill:#ffffff;stroke:#ffffff;stroke-width:0.6;" x="43.78125" xlink:href="#m6661cc6b7a" y="27.307219"/>
      </g>
     </g>
    </g>
    <g id="ytick_21">
     <g id="line2d_38">
      <g>
       <use style="fill:#ffffff;stroke:#ffffff;stroke-width:0.6;" x="43.78125" xlink:href="#m6661cc6b7a" y="19.153219"/>
      </g>
     </g>
    </g>
    <g id="text_12">
     <!-- Transmission -->
     <defs>
      <path d="M -0.296875 72.90625 
L 61.375 72.90625 
L 61.375 64.59375 
L 35.5 64.59375 
L 35.5 0 
L 25.59375 0 
L 25.59375 64.59375 
L -0.296875 64.59375 
z
" id="DejaVuSans-84"/>
      <path d="M 41.109375 46.296875 
Q 39.59375 47.171875 37.8125 47.578125 
Q 36.03125 48 33.890625 48 
Q 26.265625 48 22.1875 43.046875 
Q 18.109375 38.09375 18.109375 28.8125 
L 18.109375 0 
L 9.078125 0 
L 9.078125 54.6875 
L 18.109375 54.6875 
L 18.109375 46.1875 
Q 20.953125 51.171875 25.484375 53.578125 
Q 30.03125 56 36.53125 56 
Q 37.453125 56 38.578125 55.875 
Q 39.703125 55.765625 41.0625 55.515625 
z
" id="DejaVuSans-114"/>
      <path d="M 34.28125 27.484375 
Q 23.390625 27.484375 19.1875 25 
Q 14.984375 22.515625 14.984375 16.5 
Q 14.984375 11.71875 18.140625 8.90625 
Q 21.296875 6.109375 26.703125 6.109375 
Q 34.1875 6.109375 38.703125 11.40625 
Q 43.21875 16.703125 43.21875 25.484375 
L 43.21875 27.484375 
z
M 52.203125 31.203125 
L 52.203125 0 
L 43.21875 0 
L 43.21875 8.296875 
Q 40.140625 3.328125 35.546875 0.953125 
Q 30.953125 -1.421875 24.3125 -1.421875 
Q 15.921875 -1.421875 10.953125 3.296875 
Q 6 8.015625 6 15.921875 
Q 6 25.140625 12.171875 29.828125 
Q 18.359375 34.515625 30.609375 34.515625 
L 43.21875 34.515625 
L 43.21875 35.40625 
Q 43.21875 41.609375 39.140625 45 
Q 35.0625 48.390625 27.6875 48.390625 
Q 23 48.390625 18.546875 47.265625 
Q 14.109375 46.140625 10.015625 43.890625 
L 10.015625 52.203125 
Q 14.9375 54.109375 19.578125 55.046875 
Q 24.21875 56 28.609375 56 
Q 40.484375 56 46.34375 49.84375 
Q 52.203125 43.703125 52.203125 31.203125 
z
" id="DejaVuSans-97"/>
      <path d="M 44.28125 53.078125 
L 44.28125 44.578125 
Q 40.484375 46.53125 36.375 47.5 
Q 32.28125 48.484375 27.875 48.484375 
Q 21.1875 48.484375 17.84375 46.4375 
Q 14.5 44.390625 14.5 40.28125 
Q 14.5 37.15625 16.890625 35.375 
Q 19.28125 33.59375 26.515625 31.984375 
L 29.59375 31.296875 
Q 39.15625 29.25 43.1875 25.515625 
Q 47.21875 21.78125 47.21875 15.09375 
Q 47.21875 7.46875 41.1875 3.015625 
Q 35.15625 -1.421875 24.609375 -1.421875 
Q 20.21875 -1.421875 15.453125 -0.5625 
Q 10.6875 0.296875 5.421875 2 
L 5.421875 11.28125 
Q 10.40625 8.6875 15.234375 7.390625 
Q 20.0625 6.109375 24.8125 6.109375 
Q 31.15625 6.109375 34.5625 8.28125 
Q 37.984375 10.453125 37.984375 14.40625 
Q 37.984375 18.0625 35.515625 20.015625 
Q 33.0625 21.96875 24.703125 23.78125 
L 21.578125 24.515625 
Q 13.234375 26.265625 9.515625 29.90625 
Q 5.8125 33.546875 5.8125 39.890625 
Q 5.8125 47.609375 11.28125 51.796875 
Q 16.75 56 26.8125 56 
Q 31.78125 56 36.171875 55.265625 
Q 40.578125 54.546875 44.28125 53.078125 
z
" id="DejaVuSans-115"/>
      <path d="M 9.421875 54.6875 
L 18.40625 54.6875 
L 18.40625 0 
L 9.421875 0 
z
M 9.421875 75.984375 
L 18.40625 75.984375 
L 18.40625 64.59375 
L 9.421875 64.59375 
z
" id="DejaVuSans-105"/>
      <path d="M 30.609375 48.390625 
Q 23.390625 48.390625 19.1875 42.75 
Q 14.984375 37.109375 14.984375 27.296875 
Q 14.984375 17.484375 19.15625 11.84375 
Q 23.34375 6.203125 30.609375 6.203125 
Q 37.796875 6.203125 41.984375 11.859375 
Q 46.1875 17.53125 46.1875 27.296875 
Q 46.1875 37.015625 41.984375 42.703125 
Q 37.796875 48.390625 30.609375 48.390625 
z
M 30.609375 56 
Q 42.328125 56 49.015625 48.375 
Q 55.71875 40.765625 55.71875 27.296875 
Q 55.71875 13.875 49.015625 6.21875 
Q 42.328125 -1.421875 30.609375 -1.421875 
Q 18.84375 -1.421875 12.171875 6.21875 
Q 5.515625 13.875 5.515625 27.296875 
Q 5.515625 40.765625 12.171875 48.375 
Q 18.84375 56 30.609375 56 
z
" id="DejaVuSans-111"/>
     </defs>
     <g style="fill:#ffffff;" transform="translate(14.798438 124.834531)rotate(-90)scale(0.1 -0.1)">
      <use xlink:href="#DejaVuSans-84"/>
      <use x="46.333984" xlink:href="#DejaVuSans-114"/>
      <use x="87.447266" xlink:href="#DejaVuSans-97"/>
      <use x="148.726562" xlink:href="#DejaVuSans-110"/>
      <use x="212.105469" xlink:href="#DejaVuSans-115"/>
      <use x="264.205078" xlink:href="#DejaVuSans-109"/>
      <use x="361.617188" xlink:href="#DejaVuSans-105"/>
      <use x="389.400391" xlink:href="#DejaVuSans-115"/>
      <use x="441.5" xlink:href="#DejaVuSans-115"/>
      <use x="493.599609" xlink:href="#DejaVuSans-105"/>
      <use x="521.382812" xlink:href="#DejaVuSans-111"/>
      <use x="582.564453" xlink:href="#DejaVuSans-110"/>
     </g>
    </g>
   </g>
   <g id="line2d_39">
    <path clip-path="url(#pfafeb41b9b)" d="M 51.130518 174.079219 
L 52.15125 174.062911 
L 53.171982 173.997679 
L 54.192713 173.867215 
L 55.213445 173.655211 
L 56.234177 173.231203 
L 57.254909 172.562575 
L 58.27564 171.453631 
L 59.296372 170.165299 
L 60.317104 168.811735 
L 61.337835 167.474479 
L 62.358567 166.169839 
L 63.379299 164.930431 
L 64.40003 163.739947 
L 65.420762 162.663619 
L 66.441494 161.750371 
L 67.462226 160.983894 
L 68.482957 160.250035 
L 69.503689 159.679255 
L 70.524421 159.124782 
L 71.545152 158.439847 
L 72.565884 157.75491 
L 73.586616 157.298287 
L 74.607348 157.053667 
L 75.628079 156.906894 
L 76.648811 156.743815 
L 77.669543 156.548118 
L 78.690274 156.385039 
L 79.711006 156.401346 
L 80.731738 156.727507 
L 81.75247 157.379827 
L 82.773201 158.32569 
L 83.793933 159.614023 
L 84.814665 161.244823 
L 85.835396 163.120243 
L 86.856128 165.126126 
L 87.87686 167.344015 
L 88.897591 169.708675 
L 89.918323 171.714559 
L 90.939055 172.856119 
L 91.959787 173.394283 
L 92.980518 173.720443 
L 94.00125 173.916139 
L 95.021982 173.981371 
L 96.042713 174.013987 
L 97.063445 174.046603 
L 98.084177 174.079219 
" style="fill:none;stroke:#ffffff;stroke-linecap:square;stroke-opacity:0.5;stroke-width:1.5;"/>
   </g>
   <g id="line2d_40">
    <path clip-path="url(#pfafeb41b9b)" d="M 77.669543 174.079219 
L 78.690274 174.030295 
L 79.711006 173.948755 
L 80.731738 173.867215 
L 81.75247 173.769367 
L 82.773201 173.687827 
L 83.793933 173.524747 
L 84.814665 173.182279 
L 85.835396 172.399495 
L 86.856128 170.915467 
L 87.87686 168.762811 
L 88.897591 166.055683 
L 89.918323 162.891931 
L 90.939055 159.402018 
L 91.959787 155.765335 
L 92.980518 152.193882 
L 94.00125 148.88336 
L 95.021982 145.996844 
L 96.042713 143.534335 
L 97.063445 141.414296 
L 98.084177 139.57149 
L 99.104909 137.973308 
L 100.12564 136.55451 
L 101.146372 135.298794 
L 102.167104 134.157235 
L 103.187835 133.097214 
L 104.208567 132.102426 
L 105.229299 131.140254 
L 106.25003 130.194389 
L 107.270762 129.281145 
L 108.291494 128.400513 
L 109.312226 127.568803 
L 110.332957 126.802326 
L 111.353689 126.133699 
L 112.374421 125.497688 
L 113.395152 124.894289 
L 114.415884 124.258279 
L 115.436616 123.573341 
L 116.457348 122.855791 
L 117.478079 122.154547 
L 118.498811 121.502226 
L 119.519543 120.96406 
L 120.540274 120.523749 
L 121.561006 120.148661 
L 122.581738 119.8225 
L 123.60247 119.51265 
L 124.623201 119.219106 
L 125.643933 118.909256 
L 126.664665 118.583096 
L 127.685396 118.224319 
L 128.706128 117.849235 
L 129.72686 117.457842 
L 130.747591 117.082759 
L 131.768323 116.691365 
L 132.789055 116.332593 
L 133.809787 115.990121 
L 134.830518 115.680271 
L 135.85125 115.419344 
L 136.871982 115.223644 
L 137.892713 115.158416 
L 138.913445 115.223644 
L 139.934177 115.45196 
L 140.954909 115.680271 
L 141.97564 116.055354 
L 142.996372 117.784002 
L 144.017104 121.991465 
L 145.037835 128.302663 
L 146.058567 135.934807 
L 147.079299 144.088807 
L 148.10003 152.030804 
L 149.120762 159.222631 
L 150.141494 165.142435 
L 151.162226 169.268359 
L 152.182957 171.372091 
L 153.203689 172.252723 
L 154.224421 172.823503 
L 155.245152 173.263819 
L 156.265884 173.557363 
L 157.286616 173.736751 
L 158.307348 173.834599 
L 159.328079 173.883523 
L 160.348811 173.916139 
L 161.369543 173.932447 
L 162.390274 173.948755 
L 163.411006 173.981371 
L 164.431738 173.997679 
L 165.45247 174.030295 
L 166.473201 174.062911 
L 167.493933 174.079219 
" style="fill:none;stroke:#ffffff;stroke-linecap:square;stroke-opacity:0.5;stroke-width:1.5;"/>
   </g>
   <g id="line2d_41">
    <path clip-path="url(#pfafeb41b9b)" d="M 149.120762 174.079219 
L 150.141494 173.850907 
L 151.162226 172.464727 
L 152.182957 169.855447 
L 153.203689 165.974143 
L 154.224421 160.918662 
L 155.245152 154.73793 
L 156.265884 147.57872 
L 157.286616 139.946575 
L 158.307348 132.412281 
L 159.328079 125.562916 
L 160.348811 119.838811 
L 161.369543 115.223644 
L 162.390274 111.554348 
L 163.411006 108.68414 
L 164.431738 106.449943 
L 165.45247 104.721294 
L 166.473201 103.416657 
L 167.493933 102.405558 
L 168.514665 101.573853 
L 169.535396 100.872604 
L 170.556128 100.252905 
L 171.57686 99.665816 
L 172.597591 99.078728 
L 173.618323 98.507946 
L 174.639055 98.002396 
L 175.659787 97.611008 
L 176.680518 97.382697 
L 177.70125 97.25223 
L 178.721982 97.154381 
L 179.742713 96.991303 
L 180.763445 96.714065 
L 181.784177 96.338981 
L 182.804909 95.931282 
L 183.82564 95.490966 
L 184.846372 95.083266 
L 185.867104 94.708183 
L 186.887835 94.382022 
L 187.908567 94.137401 
L 188.929299 94.023245 
L 189.95003 93.974323 
L 190.970762 93.974323 
L 191.991494 93.974323 
L 193.012226 93.941706 
L 194.032957 93.9254 
L 195.053689 93.974323 
L 196.074421 94.153711 
L 197.095152 94.528794 
L 198.115884 94.952805 
L 199.136616 95.507276 
L 200.157348 97.480541 
L 201.178079 101.981553 
L 202.198811 108.700446 
L 203.219543 117.017526 
L 204.240274 126.394626 
L 205.261006 136.277274 
L 206.281738 146.110999 
L 207.30247 155.292403 
L 208.323201 162.875623 
L 209.343933 167.882179 
L 210.364665 170.621923 
L 211.385396 171.893947 
L 212.406128 172.464727 
L 213.42686 172.839811 
L 214.447591 173.182279 
L 215.468323 173.443207 
L 216.489055 173.638903 
L 217.509787 173.753059 
L 218.530518 173.834599 
L 219.55125 173.883523 
L 220.571982 173.916139 
L 221.592713 173.965063 
L 222.613445 174.013987 
L 223.634177 174.046603 
L 224.654909 174.079219 
" style="fill:none;stroke:#ffffff;stroke-linecap:square;stroke-opacity:0.5;stroke-width:1.5;"/>
   </g>
   <g id="line2d_42">
    <path clip-path="url(#pfafeb41b9b)" d="M 191.991494 174.079219 
L 193.012226 174.062911 
L 194.032957 174.030295 
L 195.053689 174.013987 
L 196.074421 174.013987 
L 197.095152 174.030295 
L 198.115884 174.030295 
L 199.136616 174.013987 
L 200.157348 173.932447 
L 201.178079 173.769367 
L 202.198811 173.524747 
L 203.219543 173.165971 
L 204.240274 172.399495 
L 205.261006 170.915467 
L 206.281738 168.469267 
L 207.30247 164.930431 
L 208.323201 160.396807 
L 209.343933 155.096706 
L 210.364665 149.160596 
L 211.385396 142.311234 
L 212.406128 134.809556 
L 213.42686 127.487264 
L 214.447591 121.355454 
L 215.468323 116.952292 
L 216.489055 112.777447 
L 217.509787 109.010301 
L 218.530518 106.205321 
L 219.55125 105.047455 
L 220.571982 106.156398 
L 221.592713 109.776773 
L 222.613445 112.761141 
L 223.634177 111.733736 
L 224.654909 110.184477 
L 225.67564 110.608482 
L 226.696372 111.652193 
L 227.717104 111.782659 
L 228.737835 110.738949 
L 229.758567 110.934643 
L 230.779299 111.766353 
L 231.80003 112.320825 
L 232.820762 112.777447 
L 233.841494 113.299302 
L 234.862226 114.049473 
L 235.882957 115.076877 
L 236.903689 115.941199 
L 237.924421 116.120587 
L 238.945152 117.359997 
L 239.965884 150.057534 
L 240.986616 139.89765 
L 242.007348 130.895633 
L 243.028079 120.262817 
L 244.048811 120.980371 
L 245.069543 121.518537 
L 246.090274 122.236086 
L 247.111006 123.051486 
L 248.131738 123.899501 
L 249.15247 124.731211 
L 250.173201 125.481377 
L 251.193933 126.068466 
L 252.214665 126.443549 
L 253.235396 126.525093 
L 254.256128 126.443549 
L 255.27686 126.345704 
L 256.297591 126.410937 
L 257.318323 126.851248 
L 258.339055 127.764497 
L 259.359787 129.101756 
L 260.380518 130.993482 
L 261.40125 134.499703 
L 262.421982 139.979192 
L 263.442713 146.535007 
L 264.463445 153.270211 
L 265.484177 159.385711 
L 266.504909 164.245495 
L 267.52564 167.914795 
L 268.546372 170.524075 
L 269.567104 172.171183 
L 270.587835 172.970275 
L 271.608567 173.296435 
L 272.629299 173.541055 
L 273.65003 173.753059 
L 274.670762 173.867215 
L 275.691494 173.916139 
L 276.712226 173.932447 
L 277.732957 173.932447 
L 278.753689 173.948755 
L 279.774421 173.997679 
L 280.795152 174.046603 
L 281.815884 174.079219 
" style="fill:none;stroke:#ffffff;stroke-linecap:square;stroke-opacity:0.5;stroke-width:1.5;"/>
   </g>
   <g id="line2d_43">
    <path clip-path="url(#pfafeb41b9b)" d="M 245.069543 174.079219 
L 253.235396 173.997679 
L 256.297591 173.801983 
L 258.339055 173.426899 
L 260.380518 172.790887 
L 262.421982 171.812407 
L 264.463445 170.458843 
L 266.504909 168.795427 
L 268.546372 166.805851 
L 269.567104 165.745831 
L 270.587835 164.881507 
L 272.629299 163.691023 
L 274.670762 162.761467 
L 276.712226 162.07653 
L 278.753689 161.603599 
L 280.795152 161.326363 
L 282.836616 161.244823 
L 284.878079 161.358978 
L 287.940274 161.831911 
L 292.023201 162.777774 
L 293.043933 163.087627 
L 294.064665 163.772563 
L 295.085396 164.604271 
L 296.106128 165.223975 
L 297.12686 165.501211 
L 300.189055 165.729523 
L 302.230518 166.235071 
L 303.25125 166.365535 
L 306.313445 166.316611 
L 307.334177 166.789543 
L 310.396372 169.464055 
L 311.417104 169.773907 
L 313.458567 169.464055 
L 314.479299 169.594519 
L 315.50003 169.936987 
L 319.582957 170.100067 
L 324.686616 169.529287 
L 325.707348 169.659751 
L 327.748811 170.230531 
L 329.790274 170.458843 
L 331.831738 170.687155 
L 339.997591 172.154875 
L 344.080518 172.725655 
L 348.163445 173.182279 
L 354.287835 173.589979 
L 360.412226 173.785675 
L 382.868323 174.046603 
L 386.78125 174.076503 
L 386.78125 174.076503 
" style="fill:none;stroke:#ffffff;stroke-linecap:square;stroke-opacity:0.5;stroke-width:1.5;"/>
   </g>
   <g id="line2d_44">
    <path clip-path="url(#pfafeb41b9b)" d="M 89.51003 173.916139 
L 89.918323 173.753059 
L 90.326616 173.426899 
L 90.734909 172.937659 
L 91.143201 172.122259 
L 91.551494 170.654539 
L 91.959787 168.371419 
L 92.776372 162.174379 
L 93.592957 154.835779 
L 94.00125 152.063418 
L 94.817835 148.475658 
L 95.226128 147.497178 
L 96.451006 145.540219 
L 98.49247 140.810899 
L 99.309055 140.158578 
L 99.717348 139.669339 
L 100.12564 138.69086 
L 101.350518 134.94002 
L 101.758811 133.961538 
L 102.167104 133.472299 
L 102.575396 133.309219 
L 102.983689 133.309219 
L 103.391982 132.81998 
L 103.800274 131.841498 
L 105.433445 125.970621 
L 105.841738 125.155217 
L 106.25003 124.829061 
L 106.658323 124.829061 
L 107.066616 124.5029 
L 107.474909 123.687501 
L 109.108079 119.284339 
L 109.516372 118.632018 
L 110.332957 118.305858 
L 110.74125 117.979697 
L 111.149543 117.32738 
L 111.966128 115.207339 
L 113.191006 112.10882 
L 114.007591 110.15186 
L 114.415884 109.499539 
L 114.824177 109.173378 
L 115.23247 109.173378 
L 115.640762 109.8257 
L 116.049055 110.804177 
L 116.457348 111.456498 
L 116.86564 111.782659 
L 117.273933 111.456498 
L 118.498811 109.499539 
L 119.315396 109.499539 
L 119.723689 109.336456 
L 120.131982 109.336456 
L 120.540274 109.010301 
L 122.173445 108.357979 
L 122.581738 108.031819 
L 122.99003 107.54258 
L 124.214909 104.9333 
L 125.031494 102.813258 
L 125.848079 101.671698 
L 126.664665 101.019376 
L 127.889543 99.714739 
L 128.706128 99.062417 
L 129.114421 99.062417 
L 129.522713 99.2255 
L 130.339299 100.530138 
L 130.747591 100.693221 
L 131.155884 100.203977 
L 131.564177 99.2255 
L 132.789055 97.268541 
L 133.197348 97.105458 
L 133.60564 97.268541 
L 135.647104 99.551661 
L 136.463689 99.877817 
L 136.871982 99.714739 
L 137.280274 99.714739 
L 138.505152 99.2255 
L 138.913445 98.899339 
L 140.138323 96.94238 
L 140.546616 96.61622 
L 140.954909 96.453137 
L 141.363201 96.61622 
L 141.771494 96.94238 
L 142.179787 97.105458 
L 142.588079 96.94238 
L 142.996372 96.94238 
L 143.404665 96.779298 
L 144.22125 97.105458 
L 144.629543 96.779298 
L 145.037835 96.290059 
L 146.262713 93.354618 
L 147.079299 92.539219 
L 147.895884 92.213063 
L 149.529055 92.213063 
L 150.34564 92.539219 
L 151.570518 94.3331 
L 151.978811 94.822339 
L 152.387104 95.637738 
L 152.795396 97.920858 
L 153.203689 102.65018 
L 153.611982 110.478021 
L 155.653445 162.989778 
L 156.061738 167.392939 
L 156.47003 170.002219 
L 156.878323 171.633019 
L 157.286616 172.611499 
L 158.103201 173.589979 
L 158.511494 173.753059 
L 158.919787 173.753059 
L 159.328079 173.916139 
L 159.328079 173.916139 
" style="fill:none;stroke:#8dd3c7;stroke-linecap:square;stroke-width:1.5;"/>
   </g>
   <g id="line2d_45">
    <path clip-path="url(#pfafeb41b9b)" d="M 147.079299 173.916139 
L 147.487591 173.753059 
L 147.895884 173.753059 
L 149.120762 173.263819 
L 149.937348 172.285339 
L 150.34564 171.306859 
L 150.753933 169.839139 
L 151.162226 167.556019 
L 151.570518 163.968259 
L 151.978811 158.912778 
L 152.795396 144.072499 
L 154.83686 97.594697 
L 155.245152 91.886897 
L 155.653445 87.972979 
L 156.47003 83.40674 
L 156.878323 81.939019 
L 157.694909 80.308221 
L 159.328079 78.514335 
L 160.144665 77.862023 
L 160.96125 77.535858 
L 161.369543 77.535858 
L 161.777835 77.698935 
L 162.186128 77.698935 
L 162.594421 78.025101 
L 163.819299 79.329744 
L 164.227591 79.166656 
L 164.635884 78.514335 
L 165.45247 76.394302 
L 166.269055 74.274261 
L 167.08564 73.458861 
L 167.493933 73.458861 
L 167.902226 73.621939 
L 168.310518 73.948095 
L 169.127104 74.763494 
L 169.535396 74.763494 
L 169.943689 74.600416 
L 170.760274 72.80654 
L 171.168567 72.480375 
L 171.57686 72.480375 
L 171.985152 72.80654 
L 172.393445 72.80654 
L 173.21003 71.664975 
L 174.026616 70.034177 
L 174.434909 69.544943 
L 174.843201 69.381856 
L 175.251494 69.0557 
L 176.068079 68.240301 
L 176.476372 67.914135 
L 178.109543 67.261823 
L 178.517835 67.261823 
L 178.926128 67.098736 
L 179.334421 67.098736 
L 179.742713 66.935658 
L 180.151006 67.098736 
L 180.559299 67.587979 
L 181.375884 69.218778 
L 181.784177 69.708021 
L 182.19247 69.708021 
L 182.600762 69.381856 
L 183.417348 68.403378 
L 184.233933 68.729534 
L 184.642226 68.729534 
L 185.050518 68.403378 
L 185.458811 67.751057 
L 185.867104 69.544943 
L 186.275396 67.261823 
L 186.683689 66.935658 
L 187.091982 66.120259 
L 187.500274 66.120259 
L 187.908567 66.446414 
L 188.725152 66.446414 
L 189.133445 65.957181 
L 190.358323 63.510983 
L 191.174909 62.532496 
L 192.399787 62.043263 
L 194.032957 62.695574 
L 194.44125 62.695574 
L 194.849543 62.369418 
L 195.257835 62.20634 
L 195.666128 62.532496 
L 196.074421 62.20634 
L 196.482713 62.043263 
L 196.891006 62.532496 
L 197.299299 62.532496 
L 197.707591 62.858662 
L 198.115884 62.858662 
L 198.524177 63.02174 
L 199.749055 64.000217 
L 201.382226 65.794103 
L 201.790518 65.957181 
L 203.015396 65.957181 
L 203.423689 66.120259 
L 203.831982 66.120259 
L 204.648567 66.77258 
L 205.873445 68.240301 
L 207.098323 70.849576 
L 207.914909 73.458861 
L 208.323201 74.926582 
L 209.139787 79.655899 
L 209.548079 83.40674 
L 209.956372 104.444061 
L 210.364665 104.280978 
L 211.18125 117.653541 
L 211.997835 132.49382 
L 212.814421 148.638738 
L 213.631006 160.380499 
L 214.447591 167.229859 
L 214.855884 169.349899 
L 215.67247 171.633019 
L 216.489055 172.774579 
L 216.897348 173.100739 
L 218.530518 173.753059 
L 218.938811 173.753059 
L 219.347104 173.916139 
L 219.347104 173.916139 
" style="fill:none;stroke:#feffb3;stroke-linecap:square;stroke-width:1.5;"/>
   </g>
   <g id="line2d_46">
    <path clip-path="url(#pfafeb41b9b)" d="M 203.423689 173.916139 
L 203.831982 173.753059 
L 204.240274 173.753059 
L 205.465152 173.263819 
L 206.281738 172.611499 
L 207.098323 171.469939 
L 207.914909 169.349899 
L 208.323201 167.719099 
L 208.731494 164.946738 
L 209.139787 160.380499 
L 209.956372 146.518699 
L 210.772957 117.00122 
L 213.222713 44.919859 
L 214.039299 36.60278 
L 214.447591 35.78738 
L 214.855884 36.113536 
L 215.264177 35.78738 
L 215.67247 35.950458 
L 216.080762 35.950458 
L 216.489055 36.276614 
L 216.897348 35.78738 
L 217.30564 35.624302 
L 217.713933 35.135059 
L 218.122226 34.971981 
L 219.347104 35.950458 
L 219.755396 35.950458 
L 220.163689 35.624302 
L 221.388567 34.31966 
L 221.79686 33.993494 
L 223.021738 41.005941 
L 223.43003 39.538221 
L 224.246616 33.341183 
L 225.063201 38.233578 
L 225.471494 38.233578 
L 225.879787 36.765858 
L 226.288079 37.907422 
L 227.104665 38.559744 
L 227.512957 37.418179 
L 227.92125 39.048977 
L 228.737835 36.113536 
L 229.962713 34.31966 
L 230.779299 33.178095 
L 231.187591 33.178095 
L 231.595884 33.015017 
L 232.004177 33.015017 
L 232.41247 32.851939 
L 232.820762 33.015017 
L 234.862226 33.015017 
L 235.270518 32.688861 
L 235.678811 32.525783 
L 236.087104 32.525783 
L 236.495396 32.362696 
L 236.903689 32.525783 
L 237.311982 32.525783 
L 238.128567 32.851939 
L 238.53686 33.178095 
L 238.945152 33.341183 
L 239.353445 33.830416 
L 239.761738 107.54258 
L 240.17003 120.099739 
L 240.578323 67.261823 
L 240.986616 99.714739 
L 241.803201 69.708021 
L 242.211494 55.030816 
L 243.028079 38.233578 
L 243.844665 33.993494 
L 244.252957 33.015017 
L 244.66125 33.015017 
L 245.069543 33.341183 
L 246.294421 34.645816 
L 247.111006 35.298137 
L 248.335884 36.765858 
L 249.15247 37.092023 
L 249.969055 37.744335 
L 252.010518 40.35362 
L 252.827104 39.701299 
L 253.235396 39.212055 
L 253.643689 38.0705 
L 254.051982 37.418179 
L 254.460274 37.418179 
L 254.868567 36.60278 
L 255.27686 36.113536 
L 255.685152 36.439702 
L 256.91003 37.907422 
L 257.318323 38.0705 
L 258.543201 39.048977 
L 260.176372 41.495175 
L 260.584665 41.984418 
L 261.40125 43.941382 
L 261.809543 46.876823 
L 262.217835 48.996856 
L 263.034421 62.532496 
L 263.851006 88.788378 
L 264.667591 123.03518 
L 265.484177 150.921858 
L 266.300762 162.500538 
L 266.709055 166.414459 
L 267.52564 170.654539 
L 268.342226 172.448419 
L 269.158811 173.263819 
L 270.383689 173.753059 
L 270.791982 173.753059 
L 271.200274 173.916139 
L 271.200274 173.916139 
" style="fill:none;stroke:#bfbbd9;stroke-linecap:square;stroke-width:1.5;"/>
   </g>
   <g id="line2d_47">
    <path clip-path="url(#pfafeb41b9b)" d="M 253.235396 173.916139 
L 253.643689 173.753059 
L 254.460274 173.753059 
L 257.318323 172.611499 
L 258.543201 170.980699 
L 258.951494 170.002219 
L 259.768079 166.740618 
L 260.584665 161.195898 
L 261.40125 153.0419 
L 261.809543 147.986419 
L 262.626128 132.983058 
L 263.442713 109.336456 
L 264.667591 60.575542 
L 265.075884 49.975342 
L 265.484177 51.769219 
L 265.89247 38.233578 
L 266.300762 35.624302 
L 266.709055 35.461215 
L 267.117348 33.341183 
L 267.52564 37.255101 
L 267.933933 33.830416 
L 268.342226 34.156582 
L 268.750518 34.31966 
L 269.158811 36.276614 
L 269.567104 33.504261 
L 269.975396 34.31966 
L 270.383689 32.688861 
L 270.791982 32.688861 
L 271.200274 31.058063 
L 271.608567 30.731897 
L 272.01686 30.56882 
L 272.425152 30.56882 
L 273.241738 31.710375 
L 274.058323 32.362696 
L 274.466616 32.362696 
L 274.874909 32.525783 
L 275.283201 32.525783 
L 276.508079 33.015017 
L 277.324665 33.667339 
L 278.14125 34.645816 
L 278.549543 34.808903 
L 279.774421 35.78738 
L 280.182713 35.78738 
L 281.407591 35.298137 
L 282.224177 35.624302 
L 282.63247 35.624302 
L 283.040762 35.78738 
L 283.449055 36.113536 
L 283.857348 36.276614 
L 284.26564 36.60278 
L 284.673933 37.092023 
L 285.082226 37.255101 
L 286.307104 38.233578 
L 287.123689 38.559744 
L 287.940274 39.212055 
L 288.75686 40.35362 
L 289.165152 41.005941 
L 289.573445 41.984418 
L 290.39003 43.452139 
L 291.206616 44.919859 
L 291.614909 45.246015 
L 292.023201 45.735259 
L 292.431494 45.898337 
L 292.839787 46.38758 
L 293.248079 46.38758 
L 293.656372 46.713736 
L 294.472957 48.018378 
L 294.88125 49.486099 
L 295.289543 52.258462 
L 295.697835 56.17238 
L 296.106128 55.520059 
L 296.514421 64.652538 
L 296.922713 56.824702 
L 297.331006 60.412454 
L 297.739299 58.292422 
L 298.147591 61.390941 
L 298.555884 55.030816 
L 298.964177 55.846215 
L 299.37247 57.640101 
L 299.780762 62.043263 
L 300.189055 61.880175 
L 300.597348 60.901698 
L 301.00564 62.695574 
L 301.413933 61.390941 
L 302.230518 65.467937 
L 302.638811 67.587979 
L 303.047104 66.609502 
L 303.455396 72.154219 
L 303.863689 69.381856 
L 304.271982 77.535858 
L 304.680274 77.862023 
L 305.49686 91.886897 
L 307.13003 139.180098 
L 307.946616 155.161939 
L 308.354909 161.195898 
L 309.171494 167.719099 
L 309.988079 170.980699 
L 310.804665 172.448419 
L 311.62125 173.100739 
L 312.437835 173.426899 
L 313.254421 173.426899 
L 314.071006 173.753059 
L 314.887591 173.753059 
L 315.295884 173.916139 
L 315.295884 173.916139 
" style="fill:none;stroke:#fa8174;stroke-linecap:square;stroke-width:1.5;"/>
   </g>
   <g id="line2d_48">
    <path clip-path="url(#pfafeb41b9b)" d="M 296.922713 173.916139 
L 297.331006 173.753059 
L 298.964177 173.753059 
L 299.37247 173.589979 
L 300.189055 173.589979 
L 300.597348 173.263819 
L 301.00564 173.100739 
L 301.413933 172.611499 
L 301.822226 171.633019 
L 302.230518 170.165299 
L 302.638811 167.556019 
L 303.455396 158.097379 
L 304.680274 129.884539 
L 305.905152 100.530138 
L 306.313445 91.560742 
L 307.13003 81.939019 
L 307.946616 73.785017 
L 308.354909 76.720458 
L 308.763201 76.068137 
L 309.988079 92.376141 
L 310.396372 94.822339 
L 310.804665 103.139418 
L 311.212957 98.410101 
L 311.62125 108.68414 
L 312.029543 103.139418 
L 312.437835 102.160936 
L 312.846128 90.419177 
L 313.254421 87.809901 
L 313.662713 92.865379 
L 314.071006 92.702297 
L 314.479299 103.79174 
L 314.887591 105.748699 
L 315.295884 97.268541 
L 315.704177 111.130338 
L 316.11247 99.2255 
L 316.520762 108.194896 
L 316.929055 94.659261 
L 317.337348 117.164298 
L 317.74564 95.80082 
L 318.153933 111.130338 
L 318.562226 105.25946 
L 318.970518 103.139418 
L 319.378811 106.727181 
L 320.195396 110.804177 
L 320.603689 106.890259 
L 321.011982 109.662617 
L 321.420274 108.68414 
L 321.828567 108.68414 
L 322.23686 109.8257 
L 322.645152 109.010301 
L 323.053445 111.130338 
L 323.461738 110.96726 
L 323.87003 111.782659 
L 324.278323 111.945737 
L 324.686616 110.804177 
L 325.094909 110.478021 
L 325.503201 112.43498 
L 325.911494 112.10882 
L 326.728079 115.696577 
L 327.544665 118.46894 
L 327.952957 119.121257 
L 328.36125 119.447417 
L 328.769543 120.75206 
L 329.177835 120.915138 
L 329.586128 122.709019 
L 329.994421 122.219781 
L 330.811006 124.829061 
L 331.219299 124.992139 
L 331.627591 126.459859 
L 332.035884 126.78602 
L 333.669055 131.67842 
L 334.48564 133.309219 
L 335.302226 135.266178 
L 336.527104 138.038539 
L 338.568567 142.27862 
L 339.793445 145.050978 
L 342.243201 150.106459 
L 343.059787 151.900338 
L 343.876372 153.368058 
L 344.692957 154.509619 
L 345.509543 155.977339 
L 346.734421 158.260458 
L 349.59247 161.848218 
L 351.22564 164.294419 
L 352.042226 165.109819 
L 352.450518 165.435979 
L 353.675396 166.740618 
L 355.308567 168.045259 
L 357.35003 168.860659 
L 357.758323 169.186819 
L 363.882713 171.633019 
L 364.291006 171.633019 
L 364.699299 171.796099 
L 365.107591 171.796099 
L 365.924177 172.122259 
L 366.33247 172.122259 
L 366.740762 172.285339 
L 367.557348 172.285339 
L 367.96564 172.448419 
L 368.373933 172.448419 
L 368.782226 172.611499 
L 369.190518 172.611499 
L 369.598811 172.774579 
L 370.415396 172.774579 
L 370.823689 172.937659 
L 371.640274 172.937659 
L 372.048567 173.100739 
L 373.273445 173.100739 
L 373.681738 173.263819 
L 374.906616 173.263819 
L 375.314909 173.426899 
L 376.539787 173.426899 
L 376.948079 173.589979 
L 378.172957 173.589979 
L 378.58125 173.753059 
L 378.58125 173.753059 
" style="fill:none;stroke:#81b1d2;stroke-linecap:square;stroke-width:1.5;"/>
   </g>
   <g id="patch_3">
    <path d="M 43.78125 174.079219 
L 43.78125 10.999219 
" style="fill:none;stroke:#ffffff;stroke-linecap:square;stroke-linejoin:miter;stroke-width:0.8;"/>
   </g>
   <g id="patch_4">
    <path d="M 378.58125 174.079219 
L 378.58125 10.999219 
" style="fill:none;stroke:#ffffff;stroke-linecap:square;stroke-linejoin:miter;stroke-width:0.8;"/>
   </g>
   <g id="patch_5">
    <path d="M 43.78125 174.079219 
L 378.58125 174.079219 
" style="fill:none;stroke:#ffffff;stroke-linecap:square;stroke-linejoin:miter;stroke-width:0.8;"/>
   </g>
   <g id="patch_6">
    <path d="M 43.78125 10.999219 
L 378.58125 10.999219 
" style="fill:none;stroke:#ffffff;stroke-linecap:square;stroke-linejoin:miter;stroke-width:0.8;"/>
   </g>
   <g id="text_13">
    <!-- $u$ -->
    <defs>
     <path d="M 6.6875 21.6875 
L 13.09375 54.6875 
L 22.125 54.6875 
L 15.71875 22.015625 
Q 15.234375 19.625 15.015625 17.921875 
Q 14.796875 16.21875 14.796875 15.09375 
Q 14.796875 10.9375 17.328125 8.65625 
Q 19.875 6.390625 24.515625 6.390625 
Q 31.734375 6.390625 37 11.265625 
Q 42.28125 16.15625 43.890625 24.421875 
L 49.90625 54.6875 
L 58.890625 54.6875 
L 48.296875 0 
L 39.3125 0 
L 41.109375 8.59375 
Q 37.3125 3.8125 32.0625 1.1875 
Q 26.8125 -1.421875 20.90625 -1.421875 
Q 13.71875 -1.421875 9.71875 2.515625 
Q 5.71875 6.453125 5.71875 13.484375 
Q 5.71875 14.9375 5.953125 17.140625 
Q 6.203125 19.34375 6.6875 21.6875 
z
" id="DejaVuSans-Oblique-117"/>
    </defs>
    <g style="fill:#ffffff;opacity:0.5;" transform="translate(71.684535 170.506677)scale(0.1 -0.1)">
     <use transform="translate(0 0.3125)" xlink:href="#DejaVuSans-Oblique-117"/>
    </g>
   </g>
   <g id="text_14">
    <!-- $g$ -->
    <defs>
     <path d="M 59.625 54.6875 
L 50.296875 6.78125 
Q 47.609375 -7.125 40.015625 -13.953125 
Q 32.421875 -20.796875 19.578125 -20.796875 
Q 14.84375 -20.796875 10.78125 -20.09375 
Q 6.734375 -19.390625 3.21875 -17.921875 
L 4.890625 -9.1875 
Q 8.203125 -11.328125 11.90625 -12.34375 
Q 15.625 -13.375 19.828125 -13.375 
Q 28.375 -13.375 33.859375 -8.703125 
Q 39.359375 -4.046875 41.109375 4.6875 
L 41.890625 8.796875 
Q 38.140625 4.5 33.15625 2.25 
Q 28.171875 0 22.40625 0 
Q 14.109375 0 9.34375 5.484375 
Q 4.59375 10.984375 4.59375 20.609375 
Q 4.59375 28.171875 7.46875 35.421875 
Q 10.359375 42.671875 15.578125 48.296875 
Q 19.046875 52 23.65625 54 
Q 28.265625 56 33.296875 56 
Q 38.8125 56 42.90625 53.4375 
Q 47.015625 50.875 49.03125 46.1875 
L 50.59375 54.6875 
z
M 46.09375 34.625 
Q 46.09375 41.265625 42.96875 44.875 
Q 39.84375 48.484375 34.078125 48.484375 
Q 30.515625 48.484375 27.296875 47.0625 
Q 24.078125 45.65625 21.78125 43.109375 
Q 18.0625 38.921875 15.984375 33.234375 
Q 13.921875 27.546875 13.921875 21.484375 
Q 13.921875 14.75 17.0625 11.125 
Q 20.21875 7.515625 26.125 7.515625 
Q 34.671875 7.515625 40.375 15.25 
Q 46.09375 23 46.09375 34.625 
z
" id="DejaVuSans-Oblique-103"/>
    </defs>
    <g style="fill:#ffffff;opacity:0.5;" transform="translate(118.927393 133.010581)scale(0.1 -0.1)">
     <use xlink:href="#DejaVuSans-Oblique-103"/>
    </g>
   </g>
   <g id="text_15">
    <!-- $r$ -->
    <defs>
     <path d="M 44.578125 46.390625 
Q 43.21875 47.125 41.453125 47.515625 
Q 39.703125 47.90625 37.703125 47.90625 
Q 30.515625 47.90625 25.140625 42.453125 
Q 19.78125 37.015625 18.015625 27.875 
L 12.5 0 
L 3.515625 0 
L 14.203125 54.6875 
L 23.1875 54.6875 
L 21.484375 46.1875 
Q 25.046875 50.921875 30 53.453125 
Q 34.96875 56 40.578125 56 
Q 42.046875 56 43.453125 55.828125 
Q 44.875 55.671875 46.296875 55.28125 
z
" id="DejaVuSans-Oblique-114"/>
    </defs>
    <g style="fill:#ffffff;opacity:0.5;" transform="translate(179.896248 108.829821)scale(0.1 -0.1)">
     <use xlink:href="#DejaVuSans-Oblique-114"/>
    </g>
   </g>
   <g id="text_16">
    <!-- $i$ -->
    <defs>
     <path d="M 18.3125 75.984375 
L 27.296875 75.984375 
L 25.09375 64.59375 
L 16.109375 64.59375 
z
M 14.203125 54.6875 
L 23.1875 54.6875 
L 12.5 0 
L 3.515625 0 
z
" id="DejaVuSans-Oblique-105"/>
    </defs>
    <g style="fill:#ffffff;opacity:0.5;" transform="translate(234.26675 126.442462)scale(0.1 -0.1)">
     <use transform="translate(0 0.015625)" xlink:href="#DejaVuSans-Oblique-105"/>
    </g>
   </g>
   <g id="text_17">
    <!-- $z$ -->
    <defs>
     <path d="M 11.625 54.6875 
L 54.296875 54.6875 
L 52.6875 46.484375 
L 11.53125 7.171875 
L 45.515625 7.171875 
L 44.09375 0 
L -0.296875 0 
L 1.3125 8.203125 
L 42.484375 47.515625 
L 10.203125 47.515625 
z
" id="DejaVuSans-Oblique-122"/>
    </defs>
    <g style="fill:#ffffff;opacity:0.5;" transform="translate(292.700323 171.892856)scale(0.1 -0.1)">
     <use transform="translate(0 0.3125)" xlink:href="#DejaVuSans-Oblique-122"/>
    </g>
   </g>
   <g id="text_18">
    <!-- $g$ -->
    <g style="fill:#8dd3c7;" transform="translate(124.952899 93.211579)scale(0.1 -0.1)">
     <use xlink:href="#DejaVuSans-Oblique-103"/>
    </g>
   </g>
   <g id="text_19">
    <!-- $r$ -->
    <g style="fill:#feffb3;" transform="translate(181.098249 60.778971)scale(0.1 -0.1)">
     <use xlink:href="#DejaVuSans-Oblique-114"/>
    </g>
   </g>
   <g id="text_20">
    <!-- $i$ -->
    <g style="fill:#bfbbd9;" transform="translate(236.098659 27.021408)scale(0.1 -0.1)">
     <use transform="translate(0 0.015625)" xlink:href="#DejaVuSans-Oblique-105"/>
    </g>
   </g>
   <g id="text_21">
    <!-- $z$ -->
    <g style="fill:#fa8174;" transform="translate(281.186763 29.956849)scale(0.1 -0.1)">
     <use transform="translate(0 0.3125)" xlink:href="#DejaVuSans-Oblique-122"/>
    </g>
   </g>
   <g id="text_22">
    <!-- $y$ -->
    <defs>
     <path d="M 24.8125 -5.078125 
Q 18.5625 -15.578125 14.625 -18.1875 
Q 10.6875 -20.796875 4.59375 -20.796875 
L -2.484375 -20.796875 
L -0.984375 -13.28125 
L 4.203125 -13.28125 
Q 7.953125 -13.28125 10.59375 -11.234375 
Q 13.234375 -9.1875 16.5 -3.21875 
L 19.28125 2 
L 7.171875 54.6875 
L 16.703125 54.6875 
L 25.78125 12.796875 
L 50.875 54.6875 
L 60.296875 54.6875 
z
" id="DejaVuSans-Oblique-121"/>
    </defs>
    <g style="fill:#81b1d2;" transform="translate(319.781341 97.777818)scale(0.1 -0.1)">
     <use transform="translate(0 0.3125)" xlink:href="#DejaVuSans-Oblique-121"/>
    </g>
   </g>
  </g>
 </g>
 <defs>
  <clipPath id="pfafeb41b9b">
   <rect height="163.08" width="334.8" x="43.78125" y="10.999219"/>
  </clipPath>
 </defs>
</svg>
